G04 #@! TF.GenerationSoftware,KiCad,Pcbnew,5.0.0-rc2-unknown-2cb65f9~65~ubuntu17.10.1*
G04 #@! TF.CreationDate,2018-06-03T22:22:17-07:00*
G04 #@! TF.ProjectId,mcu_controller,6D63755F636F6E74726F6C6C65722E6B,rev?*
G04 #@! TF.SameCoordinates,Original*
G04 #@! TF.FileFunction,Legend,Bot*
G04 #@! TF.FilePolarity,Positive*
%FSLAX46Y46*%
G04 Gerber Fmt 4.6, Leading zero omitted, Abs format (unit mm)*
G04 Created by KiCad (PCBNEW 5.0.0-rc2-unknown-2cb65f9~65~ubuntu17.10.1) date Sun Jun  3 22:22:17 2018*
%MOMM*%
%LPD*%
G01*
G04 APERTURE LIST*
%ADD10C,0.100000*%
%ADD11C,0.200000*%
%ADD12C,0.220000*%
%ADD13C,0.120000*%
G04 APERTURE END LIST*
D10*
X198511904Y-125202380D02*
X198440476Y-125226190D01*
X198321428Y-125226190D01*
X198273809Y-125202380D01*
X198250000Y-125178571D01*
X198226190Y-125130952D01*
X198226190Y-125083333D01*
X198250000Y-125035714D01*
X198273809Y-125011904D01*
X198321428Y-124988095D01*
X198416666Y-124964285D01*
X198464285Y-124940476D01*
X198488095Y-124916666D01*
X198511904Y-124869047D01*
X198511904Y-124821428D01*
X198488095Y-124773809D01*
X198464285Y-124750000D01*
X198416666Y-124726190D01*
X198297619Y-124726190D01*
X198226190Y-124750000D01*
X198011904Y-125226190D02*
X198011904Y-124726190D01*
X197821428Y-124726190D01*
X197773809Y-124750000D01*
X197750000Y-124773809D01*
X197726190Y-124821428D01*
X197726190Y-124892857D01*
X197750000Y-124940476D01*
X197773809Y-124964285D01*
X197821428Y-124988095D01*
X198011904Y-124988095D01*
X197511904Y-125226190D02*
X197511904Y-124726190D01*
X187497619Y-124526190D02*
X187497619Y-124930952D01*
X187473809Y-124978571D01*
X187450000Y-125002380D01*
X187402380Y-125026190D01*
X187307142Y-125026190D01*
X187259523Y-125002380D01*
X187235714Y-124978571D01*
X187211904Y-124930952D01*
X187211904Y-124526190D01*
X186973809Y-124764285D02*
X186807142Y-124764285D01*
X186735714Y-125026190D02*
X186973809Y-125026190D01*
X186973809Y-124526190D01*
X186735714Y-124526190D01*
X186569047Y-124526190D02*
X186235714Y-125026190D01*
X186235714Y-124526190D02*
X186569047Y-125026190D01*
X186116666Y-124526190D02*
X185830952Y-124526190D01*
X185973809Y-125026190D02*
X185973809Y-124526190D01*
X195019047Y-137450000D02*
X194971428Y-137473809D01*
X194900000Y-137473809D01*
X194828571Y-137450000D01*
X194780952Y-137402380D01*
X194757142Y-137354761D01*
X194733333Y-137259523D01*
X194733333Y-137188095D01*
X194757142Y-137092857D01*
X194780952Y-137045238D01*
X194828571Y-136997619D01*
X194900000Y-136973809D01*
X194947619Y-136973809D01*
X195019047Y-136997619D01*
X195042857Y-137021428D01*
X195042857Y-137188095D01*
X194947619Y-137188095D01*
X195257142Y-136973809D02*
X195257142Y-137473809D01*
X195542857Y-136973809D01*
X195542857Y-137473809D01*
X195780952Y-136973809D02*
X195780952Y-137473809D01*
X195900000Y-137473809D01*
X195971428Y-137450000D01*
X196019047Y-137402380D01*
X196042857Y-137354761D01*
X196066666Y-137259523D01*
X196066666Y-137188095D01*
X196042857Y-137092857D01*
X196019047Y-137045238D01*
X195971428Y-136997619D01*
X195900000Y-136973809D01*
X195780952Y-136973809D01*
X194757142Y-134397619D02*
X194828571Y-134373809D01*
X194947619Y-134373809D01*
X194995238Y-134397619D01*
X195019047Y-134421428D01*
X195042857Y-134469047D01*
X195042857Y-134516666D01*
X195019047Y-134564285D01*
X194995238Y-134588095D01*
X194947619Y-134611904D01*
X194852380Y-134635714D01*
X194804761Y-134659523D01*
X194780952Y-134683333D01*
X194757142Y-134730952D01*
X194757142Y-134778571D01*
X194780952Y-134826190D01*
X194804761Y-134850000D01*
X194852380Y-134873809D01*
X194971428Y-134873809D01*
X195042857Y-134850000D01*
X195542857Y-134421428D02*
X195519047Y-134397619D01*
X195447619Y-134373809D01*
X195400000Y-134373809D01*
X195328571Y-134397619D01*
X195280952Y-134445238D01*
X195257142Y-134492857D01*
X195233333Y-134588095D01*
X195233333Y-134659523D01*
X195257142Y-134754761D01*
X195280952Y-134802380D01*
X195328571Y-134850000D01*
X195400000Y-134873809D01*
X195447619Y-134873809D01*
X195519047Y-134850000D01*
X195542857Y-134826190D01*
X195757142Y-134373809D02*
X195757142Y-134873809D01*
X196042857Y-134373809D02*
X195828571Y-134659523D01*
X196042857Y-134873809D02*
X195757142Y-134588095D01*
X194614285Y-131773809D02*
X194614285Y-132273809D01*
X194780952Y-131916666D01*
X194947619Y-132273809D01*
X194947619Y-131773809D01*
X195185714Y-131773809D02*
X195185714Y-132273809D01*
X195400000Y-131797619D02*
X195471428Y-131773809D01*
X195590476Y-131773809D01*
X195638095Y-131797619D01*
X195661904Y-131821428D01*
X195685714Y-131869047D01*
X195685714Y-131916666D01*
X195661904Y-131964285D01*
X195638095Y-131988095D01*
X195590476Y-132011904D01*
X195495238Y-132035714D01*
X195447619Y-132059523D01*
X195423809Y-132083333D01*
X195400000Y-132130952D01*
X195400000Y-132178571D01*
X195423809Y-132226190D01*
X195447619Y-132250000D01*
X195495238Y-132273809D01*
X195614285Y-132273809D01*
X195685714Y-132250000D01*
X195995238Y-132273809D02*
X196090476Y-132273809D01*
X196138095Y-132250000D01*
X196185714Y-132202380D01*
X196209523Y-132107142D01*
X196209523Y-131940476D01*
X196185714Y-131845238D01*
X196138095Y-131797619D01*
X196090476Y-131773809D01*
X195995238Y-131773809D01*
X195947619Y-131797619D01*
X195900000Y-131845238D01*
X195876190Y-131940476D01*
X195876190Y-132107142D01*
X195900000Y-132202380D01*
X195947619Y-132250000D01*
X195995238Y-132273809D01*
X194614285Y-129273809D02*
X194614285Y-129773809D01*
X194780952Y-129416666D01*
X194947619Y-129773809D01*
X194947619Y-129273809D01*
X195280952Y-129773809D02*
X195376190Y-129773809D01*
X195423809Y-129750000D01*
X195471428Y-129702380D01*
X195495238Y-129607142D01*
X195495238Y-129440476D01*
X195471428Y-129345238D01*
X195423809Y-129297619D01*
X195376190Y-129273809D01*
X195280952Y-129273809D01*
X195233333Y-129297619D01*
X195185714Y-129345238D01*
X195161904Y-129440476D01*
X195161904Y-129607142D01*
X195185714Y-129702380D01*
X195233333Y-129750000D01*
X195280952Y-129773809D01*
X195685714Y-129297619D02*
X195757142Y-129273809D01*
X195876190Y-129273809D01*
X195923809Y-129297619D01*
X195947619Y-129321428D01*
X195971428Y-129369047D01*
X195971428Y-129416666D01*
X195947619Y-129464285D01*
X195923809Y-129488095D01*
X195876190Y-129511904D01*
X195780952Y-129535714D01*
X195733333Y-129559523D01*
X195709523Y-129583333D01*
X195685714Y-129630952D01*
X195685714Y-129678571D01*
X195709523Y-129726190D01*
X195733333Y-129750000D01*
X195780952Y-129773809D01*
X195900000Y-129773809D01*
X195971428Y-129750000D01*
X196185714Y-129273809D02*
X196185714Y-129773809D01*
X194780952Y-127073809D02*
X195090476Y-127073809D01*
X194923809Y-126883333D01*
X194995238Y-126883333D01*
X195042857Y-126859523D01*
X195066666Y-126835714D01*
X195090476Y-126788095D01*
X195090476Y-126669047D01*
X195066666Y-126621428D01*
X195042857Y-126597619D01*
X194995238Y-126573809D01*
X194852380Y-126573809D01*
X194804761Y-126597619D01*
X194780952Y-126621428D01*
X195233333Y-127073809D02*
X195400000Y-126573809D01*
X195566666Y-127073809D01*
X195685714Y-127073809D02*
X195995238Y-127073809D01*
X195828571Y-126883333D01*
X195900000Y-126883333D01*
X195947619Y-126859523D01*
X195971428Y-126835714D01*
X195995238Y-126788095D01*
X195995238Y-126669047D01*
X195971428Y-126621428D01*
X195947619Y-126597619D01*
X195900000Y-126573809D01*
X195757142Y-126573809D01*
X195709523Y-126597619D01*
X195685714Y-126621428D01*
X190119047Y-127150000D02*
X190071428Y-127173809D01*
X190000000Y-127173809D01*
X189928571Y-127150000D01*
X189880952Y-127102380D01*
X189857142Y-127054761D01*
X189833333Y-126959523D01*
X189833333Y-126888095D01*
X189857142Y-126792857D01*
X189880952Y-126745238D01*
X189928571Y-126697619D01*
X190000000Y-126673809D01*
X190047619Y-126673809D01*
X190119047Y-126697619D01*
X190142857Y-126721428D01*
X190142857Y-126888095D01*
X190047619Y-126888095D01*
X190357142Y-126673809D02*
X190357142Y-127173809D01*
X190642857Y-126673809D01*
X190642857Y-127173809D01*
X190880952Y-126673809D02*
X190880952Y-127173809D01*
X191000000Y-127173809D01*
X191071428Y-127150000D01*
X191119047Y-127102380D01*
X191142857Y-127054761D01*
X191166666Y-126959523D01*
X191166666Y-126888095D01*
X191142857Y-126792857D01*
X191119047Y-126745238D01*
X191071428Y-126697619D01*
X191000000Y-126673809D01*
X190880952Y-126673809D01*
X190416666Y-129213809D02*
X190250000Y-129451904D01*
X190130952Y-129213809D02*
X190130952Y-129713809D01*
X190321428Y-129713809D01*
X190369047Y-129690000D01*
X190392857Y-129666190D01*
X190416666Y-129618571D01*
X190416666Y-129547142D01*
X190392857Y-129499523D01*
X190369047Y-129475714D01*
X190321428Y-129451904D01*
X190130952Y-129451904D01*
X190583333Y-129713809D02*
X190916666Y-129213809D01*
X190916666Y-129713809D02*
X190583333Y-129213809D01*
X189892857Y-131777619D02*
X189964285Y-131753809D01*
X190083333Y-131753809D01*
X190130952Y-131777619D01*
X190154761Y-131801428D01*
X190178571Y-131849047D01*
X190178571Y-131896666D01*
X190154761Y-131944285D01*
X190130952Y-131968095D01*
X190083333Y-131991904D01*
X189988095Y-132015714D01*
X189940476Y-132039523D01*
X189916666Y-132063333D01*
X189892857Y-132110952D01*
X189892857Y-132158571D01*
X189916666Y-132206190D01*
X189940476Y-132230000D01*
X189988095Y-132253809D01*
X190107142Y-132253809D01*
X190178571Y-132230000D01*
X190392857Y-131753809D02*
X190392857Y-132253809D01*
X190511904Y-132253809D01*
X190583333Y-132230000D01*
X190630952Y-132182380D01*
X190654761Y-132134761D01*
X190678571Y-132039523D01*
X190678571Y-131968095D01*
X190654761Y-131872857D01*
X190630952Y-131825238D01*
X190583333Y-131777619D01*
X190511904Y-131753809D01*
X190392857Y-131753809D01*
X190869047Y-131896666D02*
X191107142Y-131896666D01*
X190821428Y-131753809D02*
X190988095Y-132253809D01*
X191154761Y-131753809D01*
X189714285Y-134293809D02*
X189714285Y-134793809D01*
X189880952Y-134436666D01*
X190047619Y-134793809D01*
X190047619Y-134293809D01*
X190380952Y-134793809D02*
X190476190Y-134793809D01*
X190523809Y-134770000D01*
X190571428Y-134722380D01*
X190595238Y-134627142D01*
X190595238Y-134460476D01*
X190571428Y-134365238D01*
X190523809Y-134317619D01*
X190476190Y-134293809D01*
X190380952Y-134293809D01*
X190333333Y-134317619D01*
X190285714Y-134365238D01*
X190261904Y-134460476D01*
X190261904Y-134627142D01*
X190285714Y-134722380D01*
X190333333Y-134770000D01*
X190380952Y-134793809D01*
X190785714Y-134317619D02*
X190857142Y-134293809D01*
X190976190Y-134293809D01*
X191023809Y-134317619D01*
X191047619Y-134341428D01*
X191071428Y-134389047D01*
X191071428Y-134436666D01*
X191047619Y-134484285D01*
X191023809Y-134508095D01*
X190976190Y-134531904D01*
X190880952Y-134555714D01*
X190833333Y-134579523D01*
X190809523Y-134603333D01*
X190785714Y-134650952D01*
X190785714Y-134698571D01*
X190809523Y-134746190D01*
X190833333Y-134770000D01*
X190880952Y-134793809D01*
X191000000Y-134793809D01*
X191071428Y-134770000D01*
X191285714Y-134293809D02*
X191285714Y-134793809D01*
X190226190Y-136833809D02*
X190059523Y-137071904D01*
X189940476Y-136833809D02*
X189940476Y-137333809D01*
X190130952Y-137333809D01*
X190178571Y-137310000D01*
X190202380Y-137286190D01*
X190226190Y-137238571D01*
X190226190Y-137167142D01*
X190202380Y-137119523D01*
X190178571Y-137095714D01*
X190130952Y-137071904D01*
X189940476Y-137071904D01*
X190416666Y-136857619D02*
X190488095Y-136833809D01*
X190607142Y-136833809D01*
X190654761Y-136857619D01*
X190678571Y-136881428D01*
X190702380Y-136929047D01*
X190702380Y-136976666D01*
X190678571Y-137024285D01*
X190654761Y-137048095D01*
X190607142Y-137071904D01*
X190511904Y-137095714D01*
X190464285Y-137119523D01*
X190440476Y-137143333D01*
X190416666Y-137190952D01*
X190416666Y-137238571D01*
X190440476Y-137286190D01*
X190464285Y-137310000D01*
X190511904Y-137333809D01*
X190630952Y-137333809D01*
X190702380Y-137310000D01*
X190845238Y-137333809D02*
X191130952Y-137333809D01*
X190988095Y-136833809D02*
X190988095Y-137333809D01*
X182277142Y-136857619D02*
X182348571Y-136833809D01*
X182467619Y-136833809D01*
X182515238Y-136857619D01*
X182539047Y-136881428D01*
X182562857Y-136929047D01*
X182562857Y-136976666D01*
X182539047Y-137024285D01*
X182515238Y-137048095D01*
X182467619Y-137071904D01*
X182372380Y-137095714D01*
X182324761Y-137119523D01*
X182300952Y-137143333D01*
X182277142Y-137190952D01*
X182277142Y-137238571D01*
X182300952Y-137286190D01*
X182324761Y-137310000D01*
X182372380Y-137333809D01*
X182491428Y-137333809D01*
X182562857Y-137310000D01*
X183062857Y-136881428D02*
X183039047Y-136857619D01*
X182967619Y-136833809D01*
X182920000Y-136833809D01*
X182848571Y-136857619D01*
X182800952Y-136905238D01*
X182777142Y-136952857D01*
X182753333Y-137048095D01*
X182753333Y-137119523D01*
X182777142Y-137214761D01*
X182800952Y-137262380D01*
X182848571Y-137310000D01*
X182920000Y-137333809D01*
X182967619Y-137333809D01*
X183039047Y-137310000D01*
X183062857Y-137286190D01*
X183277142Y-136833809D02*
X183277142Y-137333809D01*
X183562857Y-136833809D02*
X183348571Y-137119523D01*
X183562857Y-137333809D02*
X183277142Y-137048095D01*
X182134285Y-134293809D02*
X182134285Y-134793809D01*
X182300952Y-134436666D01*
X182467619Y-134793809D01*
X182467619Y-134293809D01*
X182705714Y-134293809D02*
X182705714Y-134793809D01*
X182920000Y-134317619D02*
X182991428Y-134293809D01*
X183110476Y-134293809D01*
X183158095Y-134317619D01*
X183181904Y-134341428D01*
X183205714Y-134389047D01*
X183205714Y-134436666D01*
X183181904Y-134484285D01*
X183158095Y-134508095D01*
X183110476Y-134531904D01*
X183015238Y-134555714D01*
X182967619Y-134579523D01*
X182943809Y-134603333D01*
X182920000Y-134650952D01*
X182920000Y-134698571D01*
X182943809Y-134746190D01*
X182967619Y-134770000D01*
X183015238Y-134793809D01*
X183134285Y-134793809D01*
X183205714Y-134770000D01*
X183515238Y-134793809D02*
X183610476Y-134793809D01*
X183658095Y-134770000D01*
X183705714Y-134722380D01*
X183729523Y-134627142D01*
X183729523Y-134460476D01*
X183705714Y-134365238D01*
X183658095Y-134317619D01*
X183610476Y-134293809D01*
X183515238Y-134293809D01*
X183467619Y-134317619D01*
X183420000Y-134365238D01*
X183396190Y-134460476D01*
X183396190Y-134627142D01*
X183420000Y-134722380D01*
X183467619Y-134770000D01*
X183515238Y-134793809D01*
X182324761Y-131777619D02*
X182396190Y-131753809D01*
X182515238Y-131753809D01*
X182562857Y-131777619D01*
X182586666Y-131801428D01*
X182610476Y-131849047D01*
X182610476Y-131896666D01*
X182586666Y-131944285D01*
X182562857Y-131968095D01*
X182515238Y-131991904D01*
X182420000Y-132015714D01*
X182372380Y-132039523D01*
X182348571Y-132063333D01*
X182324761Y-132110952D01*
X182324761Y-132158571D01*
X182348571Y-132206190D01*
X182372380Y-132230000D01*
X182420000Y-132253809D01*
X182539047Y-132253809D01*
X182610476Y-132230000D01*
X183110476Y-131801428D02*
X183086666Y-131777619D01*
X183015238Y-131753809D01*
X182967619Y-131753809D01*
X182896190Y-131777619D01*
X182848571Y-131825238D01*
X182824761Y-131872857D01*
X182800952Y-131968095D01*
X182800952Y-132039523D01*
X182824761Y-132134761D01*
X182848571Y-132182380D01*
X182896190Y-132230000D01*
X182967619Y-132253809D01*
X183015238Y-132253809D01*
X183086666Y-132230000D01*
X183110476Y-132206190D01*
X183562857Y-131753809D02*
X183324761Y-131753809D01*
X183324761Y-132253809D01*
X182539047Y-129713809D02*
X182824761Y-129713809D01*
X182681904Y-129213809D02*
X182681904Y-129713809D01*
X182943809Y-129713809D02*
X183277142Y-129213809D01*
X183277142Y-129713809D02*
X182943809Y-129213809D01*
X182300952Y-127173809D02*
X182610476Y-127173809D01*
X182443809Y-126983333D01*
X182515238Y-126983333D01*
X182562857Y-126959523D01*
X182586666Y-126935714D01*
X182610476Y-126888095D01*
X182610476Y-126769047D01*
X182586666Y-126721428D01*
X182562857Y-126697619D01*
X182515238Y-126673809D01*
X182372380Y-126673809D01*
X182324761Y-126697619D01*
X182300952Y-126721428D01*
X182753333Y-127173809D02*
X182920000Y-126673809D01*
X183086666Y-127173809D01*
X183205714Y-127173809D02*
X183515238Y-127173809D01*
X183348571Y-126983333D01*
X183420000Y-126983333D01*
X183467619Y-126959523D01*
X183491428Y-126935714D01*
X183515238Y-126888095D01*
X183515238Y-126769047D01*
X183491428Y-126721428D01*
X183467619Y-126697619D01*
X183420000Y-126673809D01*
X183277142Y-126673809D01*
X183229523Y-126697619D01*
X183205714Y-126721428D01*
D11*
X107809523Y-138904761D02*
X107666666Y-138952380D01*
X107428571Y-138952380D01*
X107333333Y-138904761D01*
X107285714Y-138857142D01*
X107238095Y-138761904D01*
X107238095Y-138666666D01*
X107285714Y-138571428D01*
X107333333Y-138523809D01*
X107428571Y-138476190D01*
X107619047Y-138428571D01*
X107714285Y-138380952D01*
X107761904Y-138333333D01*
X107809523Y-138238095D01*
X107809523Y-138142857D01*
X107761904Y-138047619D01*
X107714285Y-138000000D01*
X107619047Y-137952380D01*
X107380952Y-137952380D01*
X107238095Y-138000000D01*
X106809523Y-138428571D02*
X106476190Y-138428571D01*
X106333333Y-138952380D02*
X106809523Y-138952380D01*
X106809523Y-137952380D01*
X106333333Y-137952380D01*
X105904761Y-138952380D02*
X105904761Y-137952380D01*
X105333333Y-138952380D01*
X105333333Y-137952380D01*
X104904761Y-138904761D02*
X104761904Y-138952380D01*
X104523809Y-138952380D01*
X104428571Y-138904761D01*
X104380952Y-138857142D01*
X104333333Y-138761904D01*
X104333333Y-138666666D01*
X104380952Y-138571428D01*
X104428571Y-138523809D01*
X104523809Y-138476190D01*
X104714285Y-138428571D01*
X104809523Y-138380952D01*
X104857142Y-138333333D01*
X104904761Y-138238095D01*
X104904761Y-138142857D01*
X104857142Y-138047619D01*
X104809523Y-138000000D01*
X104714285Y-137952380D01*
X104476190Y-137952380D01*
X104333333Y-138000000D01*
X103904761Y-138428571D02*
X103571428Y-138428571D01*
X103428571Y-138952380D02*
X103904761Y-138952380D01*
X103904761Y-137952380D01*
X103428571Y-137952380D01*
X103000000Y-138571428D02*
X102238095Y-138571428D01*
X107809523Y-126404761D02*
X107666666Y-126452380D01*
X107428571Y-126452380D01*
X107333333Y-126404761D01*
X107285714Y-126357142D01*
X107238095Y-126261904D01*
X107238095Y-126166666D01*
X107285714Y-126071428D01*
X107333333Y-126023809D01*
X107428571Y-125976190D01*
X107619047Y-125928571D01*
X107714285Y-125880952D01*
X107761904Y-125833333D01*
X107809523Y-125738095D01*
X107809523Y-125642857D01*
X107761904Y-125547619D01*
X107714285Y-125500000D01*
X107619047Y-125452380D01*
X107380952Y-125452380D01*
X107238095Y-125500000D01*
X106809523Y-125928571D02*
X106476190Y-125928571D01*
X106333333Y-126452380D02*
X106809523Y-126452380D01*
X106809523Y-125452380D01*
X106333333Y-125452380D01*
X105904761Y-126452380D02*
X105904761Y-125452380D01*
X105333333Y-126452380D01*
X105333333Y-125452380D01*
X104904761Y-126404761D02*
X104761904Y-126452380D01*
X104523809Y-126452380D01*
X104428571Y-126404761D01*
X104380952Y-126357142D01*
X104333333Y-126261904D01*
X104333333Y-126166666D01*
X104380952Y-126071428D01*
X104428571Y-126023809D01*
X104523809Y-125976190D01*
X104714285Y-125928571D01*
X104809523Y-125880952D01*
X104857142Y-125833333D01*
X104904761Y-125738095D01*
X104904761Y-125642857D01*
X104857142Y-125547619D01*
X104809523Y-125500000D01*
X104714285Y-125452380D01*
X104476190Y-125452380D01*
X104333333Y-125500000D01*
X103904761Y-125928571D02*
X103571428Y-125928571D01*
X103428571Y-126452380D02*
X103904761Y-126452380D01*
X103904761Y-125452380D01*
X103428571Y-125452380D01*
X103000000Y-126071428D02*
X102238095Y-126071428D01*
X102619047Y-126452380D02*
X102619047Y-125690476D01*
D12*
X105261904Y-122500000D02*
X105357142Y-122452380D01*
X105500000Y-122452380D01*
X105642857Y-122500000D01*
X105738095Y-122595238D01*
X105785714Y-122690476D01*
X105833333Y-122880952D01*
X105833333Y-123023809D01*
X105785714Y-123214285D01*
X105738095Y-123309523D01*
X105642857Y-123404761D01*
X105500000Y-123452380D01*
X105404761Y-123452380D01*
X105261904Y-123404761D01*
X105214285Y-123357142D01*
X105214285Y-123023809D01*
X105404761Y-123023809D01*
X104785714Y-123452380D02*
X104785714Y-122452380D01*
X104214285Y-123452380D01*
X104214285Y-122452380D01*
X103738095Y-123452380D02*
X103738095Y-122452380D01*
X103500000Y-122452380D01*
X103357142Y-122500000D01*
X103261904Y-122595238D01*
X103214285Y-122690476D01*
X103166666Y-122880952D01*
X103166666Y-123023809D01*
X103214285Y-123214285D01*
X103261904Y-123309523D01*
X103357142Y-123404761D01*
X103500000Y-123452380D01*
X103738095Y-123452380D01*
D11*
X106538095Y-110428571D02*
X106395238Y-110476190D01*
X106347619Y-110523809D01*
X106300000Y-110619047D01*
X106300000Y-110761904D01*
X106347619Y-110857142D01*
X106395238Y-110904761D01*
X106490476Y-110952380D01*
X106871428Y-110952380D01*
X106871428Y-109952380D01*
X106538095Y-109952380D01*
X106442857Y-110000000D01*
X106395238Y-110047619D01*
X106347619Y-110142857D01*
X106347619Y-110238095D01*
X106395238Y-110333333D01*
X106442857Y-110380952D01*
X106538095Y-110428571D01*
X106871428Y-110428571D01*
X105919047Y-110666666D02*
X105442857Y-110666666D01*
X106014285Y-110952380D02*
X105680952Y-109952380D01*
X105347619Y-110952380D01*
X105157142Y-109952380D02*
X104585714Y-109952380D01*
X104871428Y-110952380D02*
X104871428Y-109952380D01*
X104395238Y-109952380D02*
X103823809Y-109952380D01*
X104109523Y-110952380D02*
X104109523Y-109952380D01*
X103490476Y-110571428D02*
X102728571Y-110571428D01*
X103109523Y-110952380D02*
X103109523Y-110190476D01*
D10*
X111626190Y-143083333D02*
X111626190Y-143178571D01*
X111650000Y-143226190D01*
X111697619Y-143273809D01*
X111792857Y-143297619D01*
X111959523Y-143297619D01*
X112054761Y-143273809D01*
X112102380Y-143226190D01*
X112126190Y-143178571D01*
X112126190Y-143083333D01*
X112102380Y-143035714D01*
X112054761Y-142988095D01*
X111959523Y-142964285D01*
X111792857Y-142964285D01*
X111697619Y-142988095D01*
X111650000Y-143035714D01*
X111626190Y-143083333D01*
X111626190Y-143511904D02*
X112030952Y-143511904D01*
X112078571Y-143535714D01*
X112102380Y-143559523D01*
X112126190Y-143607142D01*
X112126190Y-143702380D01*
X112102380Y-143750000D01*
X112078571Y-143773809D01*
X112030952Y-143797619D01*
X111626190Y-143797619D01*
X111626190Y-143964285D02*
X111626190Y-144250000D01*
X112126190Y-144107142D02*
X111626190Y-144107142D01*
X111673809Y-144392857D02*
X111650000Y-144416666D01*
X111626190Y-144464285D01*
X111626190Y-144583333D01*
X111650000Y-144630952D01*
X111673809Y-144654761D01*
X111721428Y-144678571D01*
X111769047Y-144678571D01*
X111840476Y-144654761D01*
X112126190Y-144369047D01*
X112126190Y-144678571D01*
X112173809Y-144773809D02*
X112173809Y-145154761D01*
X111864285Y-145273809D02*
X111864285Y-145440476D01*
X112126190Y-145511904D02*
X112126190Y-145273809D01*
X111626190Y-145273809D01*
X111626190Y-145511904D01*
X112126190Y-145726190D02*
X111626190Y-145726190D01*
X112126190Y-146011904D01*
X111626190Y-146011904D01*
X119226190Y-142983333D02*
X119226190Y-143078571D01*
X119250000Y-143126190D01*
X119297619Y-143173809D01*
X119392857Y-143197619D01*
X119559523Y-143197619D01*
X119654761Y-143173809D01*
X119702380Y-143126190D01*
X119726190Y-143078571D01*
X119726190Y-142983333D01*
X119702380Y-142935714D01*
X119654761Y-142888095D01*
X119559523Y-142864285D01*
X119392857Y-142864285D01*
X119297619Y-142888095D01*
X119250000Y-142935714D01*
X119226190Y-142983333D01*
X119226190Y-143411904D02*
X119630952Y-143411904D01*
X119678571Y-143435714D01*
X119702380Y-143459523D01*
X119726190Y-143507142D01*
X119726190Y-143602380D01*
X119702380Y-143650000D01*
X119678571Y-143673809D01*
X119630952Y-143697619D01*
X119226190Y-143697619D01*
X119226190Y-143864285D02*
X119226190Y-144150000D01*
X119726190Y-144007142D02*
X119226190Y-144007142D01*
X119726190Y-144578571D02*
X119726190Y-144292857D01*
X119726190Y-144435714D02*
X119226190Y-144435714D01*
X119297619Y-144388095D01*
X119345238Y-144340476D01*
X119369047Y-144292857D01*
X119773809Y-144673809D02*
X119773809Y-145054761D01*
X119464285Y-145173809D02*
X119464285Y-145340476D01*
X119726190Y-145411904D02*
X119726190Y-145173809D01*
X119226190Y-145173809D01*
X119226190Y-145411904D01*
X119726190Y-145626190D02*
X119226190Y-145626190D01*
X119726190Y-145911904D01*
X119226190Y-145911904D01*
X188078571Y-142776190D02*
X188102380Y-142752380D01*
X188126190Y-142680952D01*
X188126190Y-142633333D01*
X188102380Y-142561904D01*
X188054761Y-142514285D01*
X188007142Y-142490476D01*
X187911904Y-142466666D01*
X187840476Y-142466666D01*
X187745238Y-142490476D01*
X187697619Y-142514285D01*
X187650000Y-142561904D01*
X187626190Y-142633333D01*
X187626190Y-142680952D01*
X187650000Y-142752380D01*
X187673809Y-142776190D01*
X188126190Y-142990476D02*
X187626190Y-142990476D01*
X187864285Y-142990476D02*
X187864285Y-143276190D01*
X188126190Y-143276190D02*
X187626190Y-143276190D01*
X188126190Y-143800000D02*
X187888095Y-143633333D01*
X188126190Y-143514285D02*
X187626190Y-143514285D01*
X187626190Y-143704761D01*
X187650000Y-143752380D01*
X187673809Y-143776190D01*
X187721428Y-143800000D01*
X187792857Y-143800000D01*
X187840476Y-143776190D01*
X187864285Y-143752380D01*
X187888095Y-143704761D01*
X187888095Y-143514285D01*
X187650000Y-144276190D02*
X187626190Y-144228571D01*
X187626190Y-144157142D01*
X187650000Y-144085714D01*
X187697619Y-144038095D01*
X187745238Y-144014285D01*
X187840476Y-143990476D01*
X187911904Y-143990476D01*
X188007142Y-144014285D01*
X188054761Y-144038095D01*
X188102380Y-144085714D01*
X188126190Y-144157142D01*
X188126190Y-144204761D01*
X188102380Y-144276190D01*
X188078571Y-144300000D01*
X187911904Y-144300000D01*
X187911904Y-144204761D01*
X188173809Y-144395238D02*
X188173809Y-144776190D01*
X187864285Y-144895238D02*
X187864285Y-145061904D01*
X188126190Y-145133333D02*
X188126190Y-144895238D01*
X187626190Y-144895238D01*
X187626190Y-145133333D01*
X188126190Y-145347619D02*
X187626190Y-145347619D01*
X188126190Y-145633333D01*
X187626190Y-145633333D01*
X188126190Y-146133333D02*
X188126190Y-145847619D01*
X188126190Y-145990476D02*
X187626190Y-145990476D01*
X187697619Y-145942857D01*
X187745238Y-145895238D01*
X187769047Y-145847619D01*
X185226190Y-141223809D02*
X185226190Y-141509523D01*
X185726190Y-141366666D02*
X185226190Y-141366666D01*
X185726190Y-141961904D02*
X185488095Y-141795238D01*
X185726190Y-141676190D02*
X185226190Y-141676190D01*
X185226190Y-141866666D01*
X185250000Y-141914285D01*
X185273809Y-141938095D01*
X185321428Y-141961904D01*
X185392857Y-141961904D01*
X185440476Y-141938095D01*
X185464285Y-141914285D01*
X185488095Y-141866666D01*
X185488095Y-141676190D01*
X185726190Y-142176190D02*
X185226190Y-142176190D01*
X185678571Y-142700000D02*
X185702380Y-142676190D01*
X185726190Y-142604761D01*
X185726190Y-142557142D01*
X185702380Y-142485714D01*
X185654761Y-142438095D01*
X185607142Y-142414285D01*
X185511904Y-142390476D01*
X185440476Y-142390476D01*
X185345238Y-142414285D01*
X185297619Y-142438095D01*
X185250000Y-142485714D01*
X185226190Y-142557142D01*
X185226190Y-142604761D01*
X185250000Y-142676190D01*
X185273809Y-142700000D01*
X185726190Y-142914285D02*
X185226190Y-142914285D01*
X185726190Y-143200000D02*
X185440476Y-142985714D01*
X185226190Y-143200000D02*
X185511904Y-142914285D01*
X185726190Y-143652380D02*
X185726190Y-143414285D01*
X185226190Y-143414285D01*
X185464285Y-143819047D02*
X185464285Y-143985714D01*
X185726190Y-144057142D02*
X185726190Y-143819047D01*
X185226190Y-143819047D01*
X185226190Y-144057142D01*
X185773809Y-144152380D02*
X185773809Y-144533333D01*
X185726190Y-144652380D02*
X185226190Y-144652380D01*
X185226190Y-144771428D01*
X185250000Y-144842857D01*
X185297619Y-144890476D01*
X185345238Y-144914285D01*
X185440476Y-144938095D01*
X185511904Y-144938095D01*
X185607142Y-144914285D01*
X185654761Y-144890476D01*
X185702380Y-144842857D01*
X185726190Y-144771428D01*
X185726190Y-144652380D01*
X185726190Y-145152380D02*
X185226190Y-145152380D01*
X185702380Y-145366666D02*
X185726190Y-145438095D01*
X185726190Y-145557142D01*
X185702380Y-145604761D01*
X185678571Y-145628571D01*
X185630952Y-145652380D01*
X185583333Y-145652380D01*
X185535714Y-145628571D01*
X185511904Y-145604761D01*
X185488095Y-145557142D01*
X185464285Y-145461904D01*
X185440476Y-145414285D01*
X185416666Y-145390476D01*
X185369047Y-145366666D01*
X185321428Y-145366666D01*
X185273809Y-145390476D01*
X185250000Y-145414285D01*
X185226190Y-145461904D01*
X185226190Y-145580952D01*
X185250000Y-145652380D01*
X185726190Y-146128571D02*
X185726190Y-145842857D01*
X185726190Y-145985714D02*
X185226190Y-145985714D01*
X185297619Y-145938095D01*
X185345238Y-145890476D01*
X185369047Y-145842857D01*
X183126190Y-142638095D02*
X182626190Y-142638095D01*
X182983333Y-142804761D01*
X182626190Y-142971428D01*
X183126190Y-142971428D01*
X183078571Y-143495238D02*
X183102380Y-143471428D01*
X183126190Y-143400000D01*
X183126190Y-143352380D01*
X183102380Y-143280952D01*
X183054761Y-143233333D01*
X183007142Y-143209523D01*
X182911904Y-143185714D01*
X182840476Y-143185714D01*
X182745238Y-143209523D01*
X182697619Y-143233333D01*
X182650000Y-143280952D01*
X182626190Y-143352380D01*
X182626190Y-143400000D01*
X182650000Y-143471428D01*
X182673809Y-143495238D01*
X182626190Y-143709523D02*
X183030952Y-143709523D01*
X183078571Y-143733333D01*
X183102380Y-143757142D01*
X183126190Y-143804761D01*
X183126190Y-143900000D01*
X183102380Y-143947619D01*
X183078571Y-143971428D01*
X183030952Y-143995238D01*
X182626190Y-143995238D01*
X183173809Y-144114285D02*
X183173809Y-144495238D01*
X183102380Y-144590476D02*
X183126190Y-144661904D01*
X183126190Y-144780952D01*
X183102380Y-144828571D01*
X183078571Y-144852380D01*
X183030952Y-144876190D01*
X182983333Y-144876190D01*
X182935714Y-144852380D01*
X182911904Y-144828571D01*
X182888095Y-144780952D01*
X182864285Y-144685714D01*
X182840476Y-144638095D01*
X182816666Y-144614285D01*
X182769047Y-144590476D01*
X182721428Y-144590476D01*
X182673809Y-144614285D01*
X182650000Y-144638095D01*
X182626190Y-144685714D01*
X182626190Y-144804761D01*
X182650000Y-144876190D01*
X182864285Y-145090476D02*
X182864285Y-145257142D01*
X183126190Y-145328571D02*
X183126190Y-145090476D01*
X182626190Y-145090476D01*
X182626190Y-145328571D01*
X182626190Y-145471428D02*
X182626190Y-145757142D01*
X183126190Y-145614285D02*
X182626190Y-145614285D01*
X183126190Y-146185714D02*
X183126190Y-145900000D01*
X183126190Y-146042857D02*
X182626190Y-146042857D01*
X182697619Y-145995238D01*
X182745238Y-145947619D01*
X182769047Y-145900000D01*
X129126190Y-140942857D02*
X129126190Y-141038095D01*
X129150000Y-141085714D01*
X129197619Y-141133333D01*
X129292857Y-141157142D01*
X129459523Y-141157142D01*
X129554761Y-141133333D01*
X129602380Y-141085714D01*
X129626190Y-141038095D01*
X129626190Y-140942857D01*
X129602380Y-140895238D01*
X129554761Y-140847619D01*
X129459523Y-140823809D01*
X129292857Y-140823809D01*
X129197619Y-140847619D01*
X129150000Y-140895238D01*
X129126190Y-140942857D01*
X129126190Y-141371428D02*
X129530952Y-141371428D01*
X129578571Y-141395238D01*
X129602380Y-141419047D01*
X129626190Y-141466666D01*
X129626190Y-141561904D01*
X129602380Y-141609523D01*
X129578571Y-141633333D01*
X129530952Y-141657142D01*
X129126190Y-141657142D01*
X129126190Y-141823809D02*
X129126190Y-142109523D01*
X129626190Y-141966666D02*
X129126190Y-141966666D01*
X129173809Y-142252380D02*
X129150000Y-142276190D01*
X129126190Y-142323809D01*
X129126190Y-142442857D01*
X129150000Y-142490476D01*
X129173809Y-142514285D01*
X129221428Y-142538095D01*
X129269047Y-142538095D01*
X129340476Y-142514285D01*
X129626190Y-142228571D01*
X129626190Y-142538095D01*
X129673809Y-142633333D02*
X129673809Y-143014285D01*
X129578571Y-143419047D02*
X129602380Y-143395238D01*
X129626190Y-143323809D01*
X129626190Y-143276190D01*
X129602380Y-143204761D01*
X129554761Y-143157142D01*
X129507142Y-143133333D01*
X129411904Y-143109523D01*
X129340476Y-143109523D01*
X129245238Y-143133333D01*
X129197619Y-143157142D01*
X129150000Y-143204761D01*
X129126190Y-143276190D01*
X129126190Y-143323809D01*
X129150000Y-143395238D01*
X129173809Y-143419047D01*
X129626190Y-143633333D02*
X129126190Y-143633333D01*
X129364285Y-143633333D02*
X129364285Y-143919047D01*
X129626190Y-143919047D02*
X129126190Y-143919047D01*
X129292857Y-144371428D02*
X129626190Y-144371428D01*
X129102380Y-144252380D02*
X129459523Y-144133333D01*
X129459523Y-144442857D01*
X129673809Y-144514285D02*
X129673809Y-144895238D01*
X129364285Y-145014285D02*
X129364285Y-145180952D01*
X129626190Y-145252380D02*
X129626190Y-145014285D01*
X129126190Y-145014285D01*
X129126190Y-145252380D01*
X129626190Y-145466666D02*
X129126190Y-145466666D01*
X129626190Y-145752380D01*
X129126190Y-145752380D01*
X131626190Y-140942857D02*
X131626190Y-141038095D01*
X131650000Y-141085714D01*
X131697619Y-141133333D01*
X131792857Y-141157142D01*
X131959523Y-141157142D01*
X132054761Y-141133333D01*
X132102380Y-141085714D01*
X132126190Y-141038095D01*
X132126190Y-140942857D01*
X132102380Y-140895238D01*
X132054761Y-140847619D01*
X131959523Y-140823809D01*
X131792857Y-140823809D01*
X131697619Y-140847619D01*
X131650000Y-140895238D01*
X131626190Y-140942857D01*
X131626190Y-141371428D02*
X132030952Y-141371428D01*
X132078571Y-141395238D01*
X132102380Y-141419047D01*
X132126190Y-141466666D01*
X132126190Y-141561904D01*
X132102380Y-141609523D01*
X132078571Y-141633333D01*
X132030952Y-141657142D01*
X131626190Y-141657142D01*
X131626190Y-141823809D02*
X131626190Y-142109523D01*
X132126190Y-141966666D02*
X131626190Y-141966666D01*
X131673809Y-142252380D02*
X131650000Y-142276190D01*
X131626190Y-142323809D01*
X131626190Y-142442857D01*
X131650000Y-142490476D01*
X131673809Y-142514285D01*
X131721428Y-142538095D01*
X131769047Y-142538095D01*
X131840476Y-142514285D01*
X132126190Y-142228571D01*
X132126190Y-142538095D01*
X132173809Y-142633333D02*
X132173809Y-143014285D01*
X132078571Y-143419047D02*
X132102380Y-143395238D01*
X132126190Y-143323809D01*
X132126190Y-143276190D01*
X132102380Y-143204761D01*
X132054761Y-143157142D01*
X132007142Y-143133333D01*
X131911904Y-143109523D01*
X131840476Y-143109523D01*
X131745238Y-143133333D01*
X131697619Y-143157142D01*
X131650000Y-143204761D01*
X131626190Y-143276190D01*
X131626190Y-143323809D01*
X131650000Y-143395238D01*
X131673809Y-143419047D01*
X132126190Y-143633333D02*
X131626190Y-143633333D01*
X131864285Y-143633333D02*
X131864285Y-143919047D01*
X132126190Y-143919047D02*
X131626190Y-143919047D01*
X131626190Y-144109523D02*
X131626190Y-144419047D01*
X131816666Y-144252380D01*
X131816666Y-144323809D01*
X131840476Y-144371428D01*
X131864285Y-144395238D01*
X131911904Y-144419047D01*
X132030952Y-144419047D01*
X132078571Y-144395238D01*
X132102380Y-144371428D01*
X132126190Y-144323809D01*
X132126190Y-144180952D01*
X132102380Y-144133333D01*
X132078571Y-144109523D01*
X132173809Y-144514285D02*
X132173809Y-144895238D01*
X131864285Y-145014285D02*
X131864285Y-145180952D01*
X132126190Y-145252380D02*
X132126190Y-145014285D01*
X131626190Y-145014285D01*
X131626190Y-145252380D01*
X132126190Y-145466666D02*
X131626190Y-145466666D01*
X132126190Y-145752380D01*
X131626190Y-145752380D01*
X134526190Y-140942857D02*
X134526190Y-141038095D01*
X134550000Y-141085714D01*
X134597619Y-141133333D01*
X134692857Y-141157142D01*
X134859523Y-141157142D01*
X134954761Y-141133333D01*
X135002380Y-141085714D01*
X135026190Y-141038095D01*
X135026190Y-140942857D01*
X135002380Y-140895238D01*
X134954761Y-140847619D01*
X134859523Y-140823809D01*
X134692857Y-140823809D01*
X134597619Y-140847619D01*
X134550000Y-140895238D01*
X134526190Y-140942857D01*
X134526190Y-141371428D02*
X134930952Y-141371428D01*
X134978571Y-141395238D01*
X135002380Y-141419047D01*
X135026190Y-141466666D01*
X135026190Y-141561904D01*
X135002380Y-141609523D01*
X134978571Y-141633333D01*
X134930952Y-141657142D01*
X134526190Y-141657142D01*
X134526190Y-141823809D02*
X134526190Y-142109523D01*
X135026190Y-141966666D02*
X134526190Y-141966666D01*
X134573809Y-142252380D02*
X134550000Y-142276190D01*
X134526190Y-142323809D01*
X134526190Y-142442857D01*
X134550000Y-142490476D01*
X134573809Y-142514285D01*
X134621428Y-142538095D01*
X134669047Y-142538095D01*
X134740476Y-142514285D01*
X135026190Y-142228571D01*
X135026190Y-142538095D01*
X135073809Y-142633333D02*
X135073809Y-143014285D01*
X134978571Y-143419047D02*
X135002380Y-143395238D01*
X135026190Y-143323809D01*
X135026190Y-143276190D01*
X135002380Y-143204761D01*
X134954761Y-143157142D01*
X134907142Y-143133333D01*
X134811904Y-143109523D01*
X134740476Y-143109523D01*
X134645238Y-143133333D01*
X134597619Y-143157142D01*
X134550000Y-143204761D01*
X134526190Y-143276190D01*
X134526190Y-143323809D01*
X134550000Y-143395238D01*
X134573809Y-143419047D01*
X135026190Y-143633333D02*
X134526190Y-143633333D01*
X134764285Y-143633333D02*
X134764285Y-143919047D01*
X135026190Y-143919047D02*
X134526190Y-143919047D01*
X134573809Y-144133333D02*
X134550000Y-144157142D01*
X134526190Y-144204761D01*
X134526190Y-144323809D01*
X134550000Y-144371428D01*
X134573809Y-144395238D01*
X134621428Y-144419047D01*
X134669047Y-144419047D01*
X134740476Y-144395238D01*
X135026190Y-144109523D01*
X135026190Y-144419047D01*
X135073809Y-144514285D02*
X135073809Y-144895238D01*
X134764285Y-145014285D02*
X134764285Y-145180952D01*
X135026190Y-145252380D02*
X135026190Y-145014285D01*
X134526190Y-145014285D01*
X134526190Y-145252380D01*
X135026190Y-145466666D02*
X134526190Y-145466666D01*
X135026190Y-145752380D01*
X134526190Y-145752380D01*
X136926190Y-140942857D02*
X136926190Y-141038095D01*
X136950000Y-141085714D01*
X136997619Y-141133333D01*
X137092857Y-141157142D01*
X137259523Y-141157142D01*
X137354761Y-141133333D01*
X137402380Y-141085714D01*
X137426190Y-141038095D01*
X137426190Y-140942857D01*
X137402380Y-140895238D01*
X137354761Y-140847619D01*
X137259523Y-140823809D01*
X137092857Y-140823809D01*
X136997619Y-140847619D01*
X136950000Y-140895238D01*
X136926190Y-140942857D01*
X136926190Y-141371428D02*
X137330952Y-141371428D01*
X137378571Y-141395238D01*
X137402380Y-141419047D01*
X137426190Y-141466666D01*
X137426190Y-141561904D01*
X137402380Y-141609523D01*
X137378571Y-141633333D01*
X137330952Y-141657142D01*
X136926190Y-141657142D01*
X136926190Y-141823809D02*
X136926190Y-142109523D01*
X137426190Y-141966666D02*
X136926190Y-141966666D01*
X136973809Y-142252380D02*
X136950000Y-142276190D01*
X136926190Y-142323809D01*
X136926190Y-142442857D01*
X136950000Y-142490476D01*
X136973809Y-142514285D01*
X137021428Y-142538095D01*
X137069047Y-142538095D01*
X137140476Y-142514285D01*
X137426190Y-142228571D01*
X137426190Y-142538095D01*
X137473809Y-142633333D02*
X137473809Y-143014285D01*
X137378571Y-143419047D02*
X137402380Y-143395238D01*
X137426190Y-143323809D01*
X137426190Y-143276190D01*
X137402380Y-143204761D01*
X137354761Y-143157142D01*
X137307142Y-143133333D01*
X137211904Y-143109523D01*
X137140476Y-143109523D01*
X137045238Y-143133333D01*
X136997619Y-143157142D01*
X136950000Y-143204761D01*
X136926190Y-143276190D01*
X136926190Y-143323809D01*
X136950000Y-143395238D01*
X136973809Y-143419047D01*
X137426190Y-143633333D02*
X136926190Y-143633333D01*
X137164285Y-143633333D02*
X137164285Y-143919047D01*
X137426190Y-143919047D02*
X136926190Y-143919047D01*
X137426190Y-144419047D02*
X137426190Y-144133333D01*
X137426190Y-144276190D02*
X136926190Y-144276190D01*
X136997619Y-144228571D01*
X137045238Y-144180952D01*
X137069047Y-144133333D01*
X137473809Y-144514285D02*
X137473809Y-144895238D01*
X137164285Y-145014285D02*
X137164285Y-145180952D01*
X137426190Y-145252380D02*
X137426190Y-145014285D01*
X136926190Y-145014285D01*
X136926190Y-145252380D01*
X137426190Y-145466666D02*
X136926190Y-145466666D01*
X137426190Y-145752380D01*
X136926190Y-145752380D01*
X142126190Y-140942857D02*
X142126190Y-141038095D01*
X142150000Y-141085714D01*
X142197619Y-141133333D01*
X142292857Y-141157142D01*
X142459523Y-141157142D01*
X142554761Y-141133333D01*
X142602380Y-141085714D01*
X142626190Y-141038095D01*
X142626190Y-140942857D01*
X142602380Y-140895238D01*
X142554761Y-140847619D01*
X142459523Y-140823809D01*
X142292857Y-140823809D01*
X142197619Y-140847619D01*
X142150000Y-140895238D01*
X142126190Y-140942857D01*
X142126190Y-141371428D02*
X142530952Y-141371428D01*
X142578571Y-141395238D01*
X142602380Y-141419047D01*
X142626190Y-141466666D01*
X142626190Y-141561904D01*
X142602380Y-141609523D01*
X142578571Y-141633333D01*
X142530952Y-141657142D01*
X142126190Y-141657142D01*
X142126190Y-141823809D02*
X142126190Y-142109523D01*
X142626190Y-141966666D02*
X142126190Y-141966666D01*
X142626190Y-142538095D02*
X142626190Y-142252380D01*
X142626190Y-142395238D02*
X142126190Y-142395238D01*
X142197619Y-142347619D01*
X142245238Y-142300000D01*
X142269047Y-142252380D01*
X142673809Y-142633333D02*
X142673809Y-143014285D01*
X142578571Y-143419047D02*
X142602380Y-143395238D01*
X142626190Y-143323809D01*
X142626190Y-143276190D01*
X142602380Y-143204761D01*
X142554761Y-143157142D01*
X142507142Y-143133333D01*
X142411904Y-143109523D01*
X142340476Y-143109523D01*
X142245238Y-143133333D01*
X142197619Y-143157142D01*
X142150000Y-143204761D01*
X142126190Y-143276190D01*
X142126190Y-143323809D01*
X142150000Y-143395238D01*
X142173809Y-143419047D01*
X142626190Y-143633333D02*
X142126190Y-143633333D01*
X142364285Y-143633333D02*
X142364285Y-143919047D01*
X142626190Y-143919047D02*
X142126190Y-143919047D01*
X142292857Y-144371428D02*
X142626190Y-144371428D01*
X142102380Y-144252380D02*
X142459523Y-144133333D01*
X142459523Y-144442857D01*
X142673809Y-144514285D02*
X142673809Y-144895238D01*
X142364285Y-145014285D02*
X142364285Y-145180952D01*
X142626190Y-145252380D02*
X142626190Y-145014285D01*
X142126190Y-145014285D01*
X142126190Y-145252380D01*
X142626190Y-145466666D02*
X142126190Y-145466666D01*
X142626190Y-145752380D01*
X142126190Y-145752380D01*
X145126190Y-140942857D02*
X145126190Y-141038095D01*
X145150000Y-141085714D01*
X145197619Y-141133333D01*
X145292857Y-141157142D01*
X145459523Y-141157142D01*
X145554761Y-141133333D01*
X145602380Y-141085714D01*
X145626190Y-141038095D01*
X145626190Y-140942857D01*
X145602380Y-140895238D01*
X145554761Y-140847619D01*
X145459523Y-140823809D01*
X145292857Y-140823809D01*
X145197619Y-140847619D01*
X145150000Y-140895238D01*
X145126190Y-140942857D01*
X145126190Y-141371428D02*
X145530952Y-141371428D01*
X145578571Y-141395238D01*
X145602380Y-141419047D01*
X145626190Y-141466666D01*
X145626190Y-141561904D01*
X145602380Y-141609523D01*
X145578571Y-141633333D01*
X145530952Y-141657142D01*
X145126190Y-141657142D01*
X145126190Y-141823809D02*
X145126190Y-142109523D01*
X145626190Y-141966666D02*
X145126190Y-141966666D01*
X145626190Y-142538095D02*
X145626190Y-142252380D01*
X145626190Y-142395238D02*
X145126190Y-142395238D01*
X145197619Y-142347619D01*
X145245238Y-142300000D01*
X145269047Y-142252380D01*
X145673809Y-142633333D02*
X145673809Y-143014285D01*
X145578571Y-143419047D02*
X145602380Y-143395238D01*
X145626190Y-143323809D01*
X145626190Y-143276190D01*
X145602380Y-143204761D01*
X145554761Y-143157142D01*
X145507142Y-143133333D01*
X145411904Y-143109523D01*
X145340476Y-143109523D01*
X145245238Y-143133333D01*
X145197619Y-143157142D01*
X145150000Y-143204761D01*
X145126190Y-143276190D01*
X145126190Y-143323809D01*
X145150000Y-143395238D01*
X145173809Y-143419047D01*
X145626190Y-143633333D02*
X145126190Y-143633333D01*
X145364285Y-143633333D02*
X145364285Y-143919047D01*
X145626190Y-143919047D02*
X145126190Y-143919047D01*
X145126190Y-144109523D02*
X145126190Y-144419047D01*
X145316666Y-144252380D01*
X145316666Y-144323809D01*
X145340476Y-144371428D01*
X145364285Y-144395238D01*
X145411904Y-144419047D01*
X145530952Y-144419047D01*
X145578571Y-144395238D01*
X145602380Y-144371428D01*
X145626190Y-144323809D01*
X145626190Y-144180952D01*
X145602380Y-144133333D01*
X145578571Y-144109523D01*
X145673809Y-144514285D02*
X145673809Y-144895238D01*
X145364285Y-145014285D02*
X145364285Y-145180952D01*
X145626190Y-145252380D02*
X145626190Y-145014285D01*
X145126190Y-145014285D01*
X145126190Y-145252380D01*
X145626190Y-145466666D02*
X145126190Y-145466666D01*
X145626190Y-145752380D01*
X145126190Y-145752380D01*
X147326190Y-140942857D02*
X147326190Y-141038095D01*
X147350000Y-141085714D01*
X147397619Y-141133333D01*
X147492857Y-141157142D01*
X147659523Y-141157142D01*
X147754761Y-141133333D01*
X147802380Y-141085714D01*
X147826190Y-141038095D01*
X147826190Y-140942857D01*
X147802380Y-140895238D01*
X147754761Y-140847619D01*
X147659523Y-140823809D01*
X147492857Y-140823809D01*
X147397619Y-140847619D01*
X147350000Y-140895238D01*
X147326190Y-140942857D01*
X147326190Y-141371428D02*
X147730952Y-141371428D01*
X147778571Y-141395238D01*
X147802380Y-141419047D01*
X147826190Y-141466666D01*
X147826190Y-141561904D01*
X147802380Y-141609523D01*
X147778571Y-141633333D01*
X147730952Y-141657142D01*
X147326190Y-141657142D01*
X147326190Y-141823809D02*
X147326190Y-142109523D01*
X147826190Y-141966666D02*
X147326190Y-141966666D01*
X147826190Y-142538095D02*
X147826190Y-142252380D01*
X147826190Y-142395238D02*
X147326190Y-142395238D01*
X147397619Y-142347619D01*
X147445238Y-142300000D01*
X147469047Y-142252380D01*
X147873809Y-142633333D02*
X147873809Y-143014285D01*
X147778571Y-143419047D02*
X147802380Y-143395238D01*
X147826190Y-143323809D01*
X147826190Y-143276190D01*
X147802380Y-143204761D01*
X147754761Y-143157142D01*
X147707142Y-143133333D01*
X147611904Y-143109523D01*
X147540476Y-143109523D01*
X147445238Y-143133333D01*
X147397619Y-143157142D01*
X147350000Y-143204761D01*
X147326190Y-143276190D01*
X147326190Y-143323809D01*
X147350000Y-143395238D01*
X147373809Y-143419047D01*
X147826190Y-143633333D02*
X147326190Y-143633333D01*
X147564285Y-143633333D02*
X147564285Y-143919047D01*
X147826190Y-143919047D02*
X147326190Y-143919047D01*
X147373809Y-144133333D02*
X147350000Y-144157142D01*
X147326190Y-144204761D01*
X147326190Y-144323809D01*
X147350000Y-144371428D01*
X147373809Y-144395238D01*
X147421428Y-144419047D01*
X147469047Y-144419047D01*
X147540476Y-144395238D01*
X147826190Y-144109523D01*
X147826190Y-144419047D01*
X147873809Y-144514285D02*
X147873809Y-144895238D01*
X147564285Y-145014285D02*
X147564285Y-145180952D01*
X147826190Y-145252380D02*
X147826190Y-145014285D01*
X147326190Y-145014285D01*
X147326190Y-145252380D01*
X147826190Y-145466666D02*
X147326190Y-145466666D01*
X147826190Y-145752380D01*
X147326190Y-145752380D01*
X149926190Y-141042857D02*
X149926190Y-141138095D01*
X149950000Y-141185714D01*
X149997619Y-141233333D01*
X150092857Y-141257142D01*
X150259523Y-141257142D01*
X150354761Y-141233333D01*
X150402380Y-141185714D01*
X150426190Y-141138095D01*
X150426190Y-141042857D01*
X150402380Y-140995238D01*
X150354761Y-140947619D01*
X150259523Y-140923809D01*
X150092857Y-140923809D01*
X149997619Y-140947619D01*
X149950000Y-140995238D01*
X149926190Y-141042857D01*
X149926190Y-141471428D02*
X150330952Y-141471428D01*
X150378571Y-141495238D01*
X150402380Y-141519047D01*
X150426190Y-141566666D01*
X150426190Y-141661904D01*
X150402380Y-141709523D01*
X150378571Y-141733333D01*
X150330952Y-141757142D01*
X149926190Y-141757142D01*
X149926190Y-141923809D02*
X149926190Y-142209523D01*
X150426190Y-142066666D02*
X149926190Y-142066666D01*
X150426190Y-142638095D02*
X150426190Y-142352380D01*
X150426190Y-142495238D02*
X149926190Y-142495238D01*
X149997619Y-142447619D01*
X150045238Y-142400000D01*
X150069047Y-142352380D01*
X150473809Y-142733333D02*
X150473809Y-143114285D01*
X150378571Y-143519047D02*
X150402380Y-143495238D01*
X150426190Y-143423809D01*
X150426190Y-143376190D01*
X150402380Y-143304761D01*
X150354761Y-143257142D01*
X150307142Y-143233333D01*
X150211904Y-143209523D01*
X150140476Y-143209523D01*
X150045238Y-143233333D01*
X149997619Y-143257142D01*
X149950000Y-143304761D01*
X149926190Y-143376190D01*
X149926190Y-143423809D01*
X149950000Y-143495238D01*
X149973809Y-143519047D01*
X150426190Y-143733333D02*
X149926190Y-143733333D01*
X150164285Y-143733333D02*
X150164285Y-144019047D01*
X150426190Y-144019047D02*
X149926190Y-144019047D01*
X150426190Y-144519047D02*
X150426190Y-144233333D01*
X150426190Y-144376190D02*
X149926190Y-144376190D01*
X149997619Y-144328571D01*
X150045238Y-144280952D01*
X150069047Y-144233333D01*
X150473809Y-144614285D02*
X150473809Y-144995238D01*
X150164285Y-145114285D02*
X150164285Y-145280952D01*
X150426190Y-145352380D02*
X150426190Y-145114285D01*
X149926190Y-145114285D01*
X149926190Y-145352380D01*
X150426190Y-145566666D02*
X149926190Y-145566666D01*
X150426190Y-145852380D01*
X149926190Y-145852380D01*
X157426190Y-142038095D02*
X156926190Y-142038095D01*
X157283333Y-142204761D01*
X156926190Y-142371428D01*
X157426190Y-142371428D01*
X157378571Y-142895238D02*
X157402380Y-142871428D01*
X157426190Y-142800000D01*
X157426190Y-142752380D01*
X157402380Y-142680952D01*
X157354761Y-142633333D01*
X157307142Y-142609523D01*
X157211904Y-142585714D01*
X157140476Y-142585714D01*
X157045238Y-142609523D01*
X156997619Y-142633333D01*
X156950000Y-142680952D01*
X156926190Y-142752380D01*
X156926190Y-142800000D01*
X156950000Y-142871428D01*
X156973809Y-142895238D01*
X156926190Y-143109523D02*
X157330952Y-143109523D01*
X157378571Y-143133333D01*
X157402380Y-143157142D01*
X157426190Y-143204761D01*
X157426190Y-143300000D01*
X157402380Y-143347619D01*
X157378571Y-143371428D01*
X157330952Y-143395238D01*
X156926190Y-143395238D01*
X157473809Y-143514285D02*
X157473809Y-143895238D01*
X157402380Y-143990476D02*
X157426190Y-144061904D01*
X157426190Y-144180952D01*
X157402380Y-144228571D01*
X157378571Y-144252380D01*
X157330952Y-144276190D01*
X157283333Y-144276190D01*
X157235714Y-144252380D01*
X157211904Y-144228571D01*
X157188095Y-144180952D01*
X157164285Y-144085714D01*
X157140476Y-144038095D01*
X157116666Y-144014285D01*
X157069047Y-143990476D01*
X157021428Y-143990476D01*
X156973809Y-144014285D01*
X156950000Y-144038095D01*
X156926190Y-144085714D01*
X156926190Y-144204761D01*
X156950000Y-144276190D01*
X157164285Y-144490476D02*
X157164285Y-144657142D01*
X157426190Y-144728571D02*
X157426190Y-144490476D01*
X156926190Y-144490476D01*
X156926190Y-144728571D01*
X156926190Y-144871428D02*
X156926190Y-145157142D01*
X157426190Y-145014285D02*
X156926190Y-145014285D01*
X156926190Y-145276190D02*
X156926190Y-145585714D01*
X157116666Y-145419047D01*
X157116666Y-145490476D01*
X157140476Y-145538095D01*
X157164285Y-145561904D01*
X157211904Y-145585714D01*
X157330952Y-145585714D01*
X157378571Y-145561904D01*
X157402380Y-145538095D01*
X157426190Y-145490476D01*
X157426190Y-145347619D01*
X157402380Y-145300000D01*
X157378571Y-145276190D01*
X170426190Y-142038095D02*
X169926190Y-142038095D01*
X170283333Y-142204761D01*
X169926190Y-142371428D01*
X170426190Y-142371428D01*
X170378571Y-142895238D02*
X170402380Y-142871428D01*
X170426190Y-142800000D01*
X170426190Y-142752380D01*
X170402380Y-142680952D01*
X170354761Y-142633333D01*
X170307142Y-142609523D01*
X170211904Y-142585714D01*
X170140476Y-142585714D01*
X170045238Y-142609523D01*
X169997619Y-142633333D01*
X169950000Y-142680952D01*
X169926190Y-142752380D01*
X169926190Y-142800000D01*
X169950000Y-142871428D01*
X169973809Y-142895238D01*
X169926190Y-143109523D02*
X170330952Y-143109523D01*
X170378571Y-143133333D01*
X170402380Y-143157142D01*
X170426190Y-143204761D01*
X170426190Y-143300000D01*
X170402380Y-143347619D01*
X170378571Y-143371428D01*
X170330952Y-143395238D01*
X169926190Y-143395238D01*
X170473809Y-143514285D02*
X170473809Y-143895238D01*
X170402380Y-143990476D02*
X170426190Y-144061904D01*
X170426190Y-144180952D01*
X170402380Y-144228571D01*
X170378571Y-144252380D01*
X170330952Y-144276190D01*
X170283333Y-144276190D01*
X170235714Y-144252380D01*
X170211904Y-144228571D01*
X170188095Y-144180952D01*
X170164285Y-144085714D01*
X170140476Y-144038095D01*
X170116666Y-144014285D01*
X170069047Y-143990476D01*
X170021428Y-143990476D01*
X169973809Y-144014285D01*
X169950000Y-144038095D01*
X169926190Y-144085714D01*
X169926190Y-144204761D01*
X169950000Y-144276190D01*
X170164285Y-144490476D02*
X170164285Y-144657142D01*
X170426190Y-144728571D02*
X170426190Y-144490476D01*
X169926190Y-144490476D01*
X169926190Y-144728571D01*
X169926190Y-144871428D02*
X169926190Y-145157142D01*
X170426190Y-145014285D02*
X169926190Y-145014285D01*
X169973809Y-145300000D02*
X169950000Y-145323809D01*
X169926190Y-145371428D01*
X169926190Y-145490476D01*
X169950000Y-145538095D01*
X169973809Y-145561904D01*
X170021428Y-145585714D01*
X170069047Y-145585714D01*
X170140476Y-145561904D01*
X170426190Y-145276190D01*
X170426190Y-145585714D01*
X159926190Y-141123809D02*
X159926190Y-141409523D01*
X160426190Y-141266666D02*
X159926190Y-141266666D01*
X160426190Y-141861904D02*
X160188095Y-141695238D01*
X160426190Y-141576190D02*
X159926190Y-141576190D01*
X159926190Y-141766666D01*
X159950000Y-141814285D01*
X159973809Y-141838095D01*
X160021428Y-141861904D01*
X160092857Y-141861904D01*
X160140476Y-141838095D01*
X160164285Y-141814285D01*
X160188095Y-141766666D01*
X160188095Y-141576190D01*
X160426190Y-142076190D02*
X159926190Y-142076190D01*
X160378571Y-142600000D02*
X160402380Y-142576190D01*
X160426190Y-142504761D01*
X160426190Y-142457142D01*
X160402380Y-142385714D01*
X160354761Y-142338095D01*
X160307142Y-142314285D01*
X160211904Y-142290476D01*
X160140476Y-142290476D01*
X160045238Y-142314285D01*
X159997619Y-142338095D01*
X159950000Y-142385714D01*
X159926190Y-142457142D01*
X159926190Y-142504761D01*
X159950000Y-142576190D01*
X159973809Y-142600000D01*
X160426190Y-142814285D02*
X159926190Y-142814285D01*
X160426190Y-143100000D02*
X160140476Y-142885714D01*
X159926190Y-143100000D02*
X160211904Y-142814285D01*
X160426190Y-143552380D02*
X160426190Y-143314285D01*
X159926190Y-143314285D01*
X160164285Y-143719047D02*
X160164285Y-143885714D01*
X160426190Y-143957142D02*
X160426190Y-143719047D01*
X159926190Y-143719047D01*
X159926190Y-143957142D01*
X160473809Y-144052380D02*
X160473809Y-144433333D01*
X160426190Y-144552380D02*
X159926190Y-144552380D01*
X159926190Y-144671428D01*
X159950000Y-144742857D01*
X159997619Y-144790476D01*
X160045238Y-144814285D01*
X160140476Y-144838095D01*
X160211904Y-144838095D01*
X160307142Y-144814285D01*
X160354761Y-144790476D01*
X160402380Y-144742857D01*
X160426190Y-144671428D01*
X160426190Y-144552380D01*
X160426190Y-145052380D02*
X159926190Y-145052380D01*
X160402380Y-145266666D02*
X160426190Y-145338095D01*
X160426190Y-145457142D01*
X160402380Y-145504761D01*
X160378571Y-145528571D01*
X160330952Y-145552380D01*
X160283333Y-145552380D01*
X160235714Y-145528571D01*
X160211904Y-145504761D01*
X160188095Y-145457142D01*
X160164285Y-145361904D01*
X160140476Y-145314285D01*
X160116666Y-145290476D01*
X160069047Y-145266666D01*
X160021428Y-145266666D01*
X159973809Y-145290476D01*
X159950000Y-145314285D01*
X159926190Y-145361904D01*
X159926190Y-145480952D01*
X159950000Y-145552380D01*
X159926190Y-145719047D02*
X159926190Y-146028571D01*
X160116666Y-145861904D01*
X160116666Y-145933333D01*
X160140476Y-145980952D01*
X160164285Y-146004761D01*
X160211904Y-146028571D01*
X160330952Y-146028571D01*
X160378571Y-146004761D01*
X160402380Y-145980952D01*
X160426190Y-145933333D01*
X160426190Y-145790476D01*
X160402380Y-145742857D01*
X160378571Y-145719047D01*
X172126190Y-140823809D02*
X172126190Y-141109523D01*
X172626190Y-140966666D02*
X172126190Y-140966666D01*
X172626190Y-141561904D02*
X172388095Y-141395238D01*
X172626190Y-141276190D02*
X172126190Y-141276190D01*
X172126190Y-141466666D01*
X172150000Y-141514285D01*
X172173809Y-141538095D01*
X172221428Y-141561904D01*
X172292857Y-141561904D01*
X172340476Y-141538095D01*
X172364285Y-141514285D01*
X172388095Y-141466666D01*
X172388095Y-141276190D01*
X172626190Y-141776190D02*
X172126190Y-141776190D01*
X172578571Y-142300000D02*
X172602380Y-142276190D01*
X172626190Y-142204761D01*
X172626190Y-142157142D01*
X172602380Y-142085714D01*
X172554761Y-142038095D01*
X172507142Y-142014285D01*
X172411904Y-141990476D01*
X172340476Y-141990476D01*
X172245238Y-142014285D01*
X172197619Y-142038095D01*
X172150000Y-142085714D01*
X172126190Y-142157142D01*
X172126190Y-142204761D01*
X172150000Y-142276190D01*
X172173809Y-142300000D01*
X172626190Y-142514285D02*
X172126190Y-142514285D01*
X172626190Y-142800000D02*
X172340476Y-142585714D01*
X172126190Y-142800000D02*
X172411904Y-142514285D01*
X172626190Y-143252380D02*
X172626190Y-143014285D01*
X172126190Y-143014285D01*
X172364285Y-143419047D02*
X172364285Y-143585714D01*
X172626190Y-143657142D02*
X172626190Y-143419047D01*
X172126190Y-143419047D01*
X172126190Y-143657142D01*
X172673809Y-143752380D02*
X172673809Y-144133333D01*
X172626190Y-144252380D02*
X172126190Y-144252380D01*
X172126190Y-144371428D01*
X172150000Y-144442857D01*
X172197619Y-144490476D01*
X172245238Y-144514285D01*
X172340476Y-144538095D01*
X172411904Y-144538095D01*
X172507142Y-144514285D01*
X172554761Y-144490476D01*
X172602380Y-144442857D01*
X172626190Y-144371428D01*
X172626190Y-144252380D01*
X172626190Y-144752380D02*
X172126190Y-144752380D01*
X172602380Y-144966666D02*
X172626190Y-145038095D01*
X172626190Y-145157142D01*
X172602380Y-145204761D01*
X172578571Y-145228571D01*
X172530952Y-145252380D01*
X172483333Y-145252380D01*
X172435714Y-145228571D01*
X172411904Y-145204761D01*
X172388095Y-145157142D01*
X172364285Y-145061904D01*
X172340476Y-145014285D01*
X172316666Y-144990476D01*
X172269047Y-144966666D01*
X172221428Y-144966666D01*
X172173809Y-144990476D01*
X172150000Y-145014285D01*
X172126190Y-145061904D01*
X172126190Y-145180952D01*
X172150000Y-145252380D01*
X172173809Y-145442857D02*
X172150000Y-145466666D01*
X172126190Y-145514285D01*
X172126190Y-145633333D01*
X172150000Y-145680952D01*
X172173809Y-145704761D01*
X172221428Y-145728571D01*
X172269047Y-145728571D01*
X172340476Y-145704761D01*
X172626190Y-145419047D01*
X172626190Y-145728571D01*
X162778571Y-142476190D02*
X162802380Y-142452380D01*
X162826190Y-142380952D01*
X162826190Y-142333333D01*
X162802380Y-142261904D01*
X162754761Y-142214285D01*
X162707142Y-142190476D01*
X162611904Y-142166666D01*
X162540476Y-142166666D01*
X162445238Y-142190476D01*
X162397619Y-142214285D01*
X162350000Y-142261904D01*
X162326190Y-142333333D01*
X162326190Y-142380952D01*
X162350000Y-142452380D01*
X162373809Y-142476190D01*
X162826190Y-142690476D02*
X162326190Y-142690476D01*
X162564285Y-142690476D02*
X162564285Y-142976190D01*
X162826190Y-142976190D02*
X162326190Y-142976190D01*
X162826190Y-143500000D02*
X162588095Y-143333333D01*
X162826190Y-143214285D02*
X162326190Y-143214285D01*
X162326190Y-143404761D01*
X162350000Y-143452380D01*
X162373809Y-143476190D01*
X162421428Y-143500000D01*
X162492857Y-143500000D01*
X162540476Y-143476190D01*
X162564285Y-143452380D01*
X162588095Y-143404761D01*
X162588095Y-143214285D01*
X162350000Y-143976190D02*
X162326190Y-143928571D01*
X162326190Y-143857142D01*
X162350000Y-143785714D01*
X162397619Y-143738095D01*
X162445238Y-143714285D01*
X162540476Y-143690476D01*
X162611904Y-143690476D01*
X162707142Y-143714285D01*
X162754761Y-143738095D01*
X162802380Y-143785714D01*
X162826190Y-143857142D01*
X162826190Y-143904761D01*
X162802380Y-143976190D01*
X162778571Y-144000000D01*
X162611904Y-144000000D01*
X162611904Y-143904761D01*
X162873809Y-144095238D02*
X162873809Y-144476190D01*
X162564285Y-144595238D02*
X162564285Y-144761904D01*
X162826190Y-144833333D02*
X162826190Y-144595238D01*
X162326190Y-144595238D01*
X162326190Y-144833333D01*
X162826190Y-145047619D02*
X162326190Y-145047619D01*
X162826190Y-145333333D01*
X162326190Y-145333333D01*
X162326190Y-145523809D02*
X162326190Y-145833333D01*
X162516666Y-145666666D01*
X162516666Y-145738095D01*
X162540476Y-145785714D01*
X162564285Y-145809523D01*
X162611904Y-145833333D01*
X162730952Y-145833333D01*
X162778571Y-145809523D01*
X162802380Y-145785714D01*
X162826190Y-145738095D01*
X162826190Y-145595238D01*
X162802380Y-145547619D01*
X162778571Y-145523809D01*
X175578571Y-141276190D02*
X175602380Y-141252380D01*
X175626190Y-141180952D01*
X175626190Y-141133333D01*
X175602380Y-141061904D01*
X175554761Y-141014285D01*
X175507142Y-140990476D01*
X175411904Y-140966666D01*
X175340476Y-140966666D01*
X175245238Y-140990476D01*
X175197619Y-141014285D01*
X175150000Y-141061904D01*
X175126190Y-141133333D01*
X175126190Y-141180952D01*
X175150000Y-141252380D01*
X175173809Y-141276190D01*
X175626190Y-141490476D02*
X175126190Y-141490476D01*
X175364285Y-141490476D02*
X175364285Y-141776190D01*
X175626190Y-141776190D02*
X175126190Y-141776190D01*
X175626190Y-142300000D02*
X175388095Y-142133333D01*
X175626190Y-142014285D02*
X175126190Y-142014285D01*
X175126190Y-142204761D01*
X175150000Y-142252380D01*
X175173809Y-142276190D01*
X175221428Y-142300000D01*
X175292857Y-142300000D01*
X175340476Y-142276190D01*
X175364285Y-142252380D01*
X175388095Y-142204761D01*
X175388095Y-142014285D01*
X175150000Y-142776190D02*
X175126190Y-142728571D01*
X175126190Y-142657142D01*
X175150000Y-142585714D01*
X175197619Y-142538095D01*
X175245238Y-142514285D01*
X175340476Y-142490476D01*
X175411904Y-142490476D01*
X175507142Y-142514285D01*
X175554761Y-142538095D01*
X175602380Y-142585714D01*
X175626190Y-142657142D01*
X175626190Y-142704761D01*
X175602380Y-142776190D01*
X175578571Y-142800000D01*
X175411904Y-142800000D01*
X175411904Y-142704761D01*
X175673809Y-142895238D02*
X175673809Y-143276190D01*
X175364285Y-143395238D02*
X175364285Y-143561904D01*
X175626190Y-143633333D02*
X175626190Y-143395238D01*
X175126190Y-143395238D01*
X175126190Y-143633333D01*
X175626190Y-143847619D02*
X175126190Y-143847619D01*
X175626190Y-144133333D01*
X175126190Y-144133333D01*
X175173809Y-144347619D02*
X175150000Y-144371428D01*
X175126190Y-144419047D01*
X175126190Y-144538095D01*
X175150000Y-144585714D01*
X175173809Y-144609523D01*
X175221428Y-144633333D01*
X175269047Y-144633333D01*
X175340476Y-144609523D01*
X175626190Y-144323809D01*
X175626190Y-144633333D01*
X188088095Y-112226190D02*
X188088095Y-111726190D01*
X187873809Y-111773809D02*
X187850000Y-111750000D01*
X187802380Y-111726190D01*
X187683333Y-111726190D01*
X187635714Y-111750000D01*
X187611904Y-111773809D01*
X187588095Y-111821428D01*
X187588095Y-111869047D01*
X187611904Y-111940476D01*
X187897619Y-112226190D01*
X187588095Y-112226190D01*
X187088095Y-112178571D02*
X187111904Y-112202380D01*
X187183333Y-112226190D01*
X187230952Y-112226190D01*
X187302380Y-112202380D01*
X187350000Y-112154761D01*
X187373809Y-112107142D01*
X187397619Y-112011904D01*
X187397619Y-111940476D01*
X187373809Y-111845238D01*
X187350000Y-111797619D01*
X187302380Y-111750000D01*
X187230952Y-111726190D01*
X187183333Y-111726190D01*
X187111904Y-111750000D01*
X187088095Y-111773809D01*
X185261428Y-106870000D02*
X185237619Y-106893809D01*
X185213809Y-106965238D01*
X185213809Y-107012857D01*
X185237619Y-107084285D01*
X185285238Y-107131904D01*
X185332857Y-107155714D01*
X185428095Y-107179523D01*
X185499523Y-107179523D01*
X185594761Y-107155714D01*
X185642380Y-107131904D01*
X185690000Y-107084285D01*
X185713809Y-107012857D01*
X185713809Y-106965238D01*
X185690000Y-106893809D01*
X185666190Y-106870000D01*
X185213809Y-106655714D02*
X185713809Y-106655714D01*
X185475714Y-106655714D02*
X185475714Y-106370000D01*
X185213809Y-106370000D02*
X185713809Y-106370000D01*
X185213809Y-105846190D02*
X185451904Y-106012857D01*
X185213809Y-106131904D02*
X185713809Y-106131904D01*
X185713809Y-105941428D01*
X185690000Y-105893809D01*
X185666190Y-105870000D01*
X185618571Y-105846190D01*
X185547142Y-105846190D01*
X185499523Y-105870000D01*
X185475714Y-105893809D01*
X185451904Y-105941428D01*
X185451904Y-106131904D01*
X185690000Y-105370000D02*
X185713809Y-105417619D01*
X185713809Y-105489047D01*
X185690000Y-105560476D01*
X185642380Y-105608095D01*
X185594761Y-105631904D01*
X185499523Y-105655714D01*
X185428095Y-105655714D01*
X185332857Y-105631904D01*
X185285238Y-105608095D01*
X185237619Y-105560476D01*
X185213809Y-105489047D01*
X185213809Y-105441428D01*
X185237619Y-105370000D01*
X185261428Y-105346190D01*
X185428095Y-105346190D01*
X185428095Y-105441428D01*
X185166190Y-105250952D02*
X185166190Y-104870000D01*
X185713809Y-104822380D02*
X185213809Y-104655714D01*
X185713809Y-104489047D01*
X185213809Y-104060476D02*
X185213809Y-104346190D01*
X185213809Y-104203333D02*
X185713809Y-104203333D01*
X185642380Y-104250952D01*
X185594761Y-104298571D01*
X185570952Y-104346190D01*
X187801428Y-106774761D02*
X187777619Y-106798571D01*
X187753809Y-106870000D01*
X187753809Y-106917619D01*
X187777619Y-106989047D01*
X187825238Y-107036666D01*
X187872857Y-107060476D01*
X187968095Y-107084285D01*
X188039523Y-107084285D01*
X188134761Y-107060476D01*
X188182380Y-107036666D01*
X188230000Y-106989047D01*
X188253809Y-106917619D01*
X188253809Y-106870000D01*
X188230000Y-106798571D01*
X188206190Y-106774761D01*
X187753809Y-106560476D02*
X188253809Y-106560476D01*
X188015714Y-106560476D02*
X188015714Y-106274761D01*
X187753809Y-106274761D02*
X188253809Y-106274761D01*
X187753809Y-105750952D02*
X187991904Y-105917619D01*
X187753809Y-106036666D02*
X188253809Y-106036666D01*
X188253809Y-105846190D01*
X188230000Y-105798571D01*
X188206190Y-105774761D01*
X188158571Y-105750952D01*
X188087142Y-105750952D01*
X188039523Y-105774761D01*
X188015714Y-105798571D01*
X187991904Y-105846190D01*
X187991904Y-106036666D01*
X188230000Y-105274761D02*
X188253809Y-105322380D01*
X188253809Y-105393809D01*
X188230000Y-105465238D01*
X188182380Y-105512857D01*
X188134761Y-105536666D01*
X188039523Y-105560476D01*
X187968095Y-105560476D01*
X187872857Y-105536666D01*
X187825238Y-105512857D01*
X187777619Y-105465238D01*
X187753809Y-105393809D01*
X187753809Y-105346190D01*
X187777619Y-105274761D01*
X187801428Y-105250952D01*
X187968095Y-105250952D01*
X187968095Y-105346190D01*
X187706190Y-105155714D02*
X187706190Y-104774761D01*
X187753809Y-104655714D02*
X188253809Y-104655714D01*
X187753809Y-104155714D02*
X187753809Y-104441428D01*
X187753809Y-104298571D02*
X188253809Y-104298571D01*
X188182380Y-104346190D01*
X188134761Y-104393809D01*
X188110952Y-104441428D01*
X177978571Y-104130000D02*
X178002380Y-104106190D01*
X178026190Y-104034761D01*
X178026190Y-103987142D01*
X178002380Y-103915714D01*
X177954761Y-103868095D01*
X177907142Y-103844285D01*
X177811904Y-103820476D01*
X177740476Y-103820476D01*
X177645238Y-103844285D01*
X177597619Y-103868095D01*
X177550000Y-103915714D01*
X177526190Y-103987142D01*
X177526190Y-104034761D01*
X177550000Y-104106190D01*
X177573809Y-104130000D01*
X178026190Y-104344285D02*
X177526190Y-104344285D01*
X177764285Y-104344285D02*
X177764285Y-104630000D01*
X178026190Y-104630000D02*
X177526190Y-104630000D01*
X178026190Y-105153809D02*
X177788095Y-104987142D01*
X178026190Y-104868095D02*
X177526190Y-104868095D01*
X177526190Y-105058571D01*
X177550000Y-105106190D01*
X177573809Y-105130000D01*
X177621428Y-105153809D01*
X177692857Y-105153809D01*
X177740476Y-105130000D01*
X177764285Y-105106190D01*
X177788095Y-105058571D01*
X177788095Y-104868095D01*
X177550000Y-105630000D02*
X177526190Y-105582380D01*
X177526190Y-105510952D01*
X177550000Y-105439523D01*
X177597619Y-105391904D01*
X177645238Y-105368095D01*
X177740476Y-105344285D01*
X177811904Y-105344285D01*
X177907142Y-105368095D01*
X177954761Y-105391904D01*
X178002380Y-105439523D01*
X178026190Y-105510952D01*
X178026190Y-105558571D01*
X178002380Y-105630000D01*
X177978571Y-105653809D01*
X177811904Y-105653809D01*
X177811904Y-105558571D01*
X178073809Y-105749047D02*
X178073809Y-106130000D01*
X177526190Y-106177619D02*
X178026190Y-106344285D01*
X177526190Y-106510952D01*
X177573809Y-106653809D02*
X177550000Y-106677619D01*
X177526190Y-106725238D01*
X177526190Y-106844285D01*
X177550000Y-106891904D01*
X177573809Y-106915714D01*
X177621428Y-106939523D01*
X177669047Y-106939523D01*
X177740476Y-106915714D01*
X178026190Y-106630000D01*
X178026190Y-106939523D01*
X175438571Y-104225238D02*
X175462380Y-104201428D01*
X175486190Y-104130000D01*
X175486190Y-104082380D01*
X175462380Y-104010952D01*
X175414761Y-103963333D01*
X175367142Y-103939523D01*
X175271904Y-103915714D01*
X175200476Y-103915714D01*
X175105238Y-103939523D01*
X175057619Y-103963333D01*
X175010000Y-104010952D01*
X174986190Y-104082380D01*
X174986190Y-104130000D01*
X175010000Y-104201428D01*
X175033809Y-104225238D01*
X175486190Y-104439523D02*
X174986190Y-104439523D01*
X175224285Y-104439523D02*
X175224285Y-104725238D01*
X175486190Y-104725238D02*
X174986190Y-104725238D01*
X175486190Y-105249047D02*
X175248095Y-105082380D01*
X175486190Y-104963333D02*
X174986190Y-104963333D01*
X174986190Y-105153809D01*
X175010000Y-105201428D01*
X175033809Y-105225238D01*
X175081428Y-105249047D01*
X175152857Y-105249047D01*
X175200476Y-105225238D01*
X175224285Y-105201428D01*
X175248095Y-105153809D01*
X175248095Y-104963333D01*
X175010000Y-105725238D02*
X174986190Y-105677619D01*
X174986190Y-105606190D01*
X175010000Y-105534761D01*
X175057619Y-105487142D01*
X175105238Y-105463333D01*
X175200476Y-105439523D01*
X175271904Y-105439523D01*
X175367142Y-105463333D01*
X175414761Y-105487142D01*
X175462380Y-105534761D01*
X175486190Y-105606190D01*
X175486190Y-105653809D01*
X175462380Y-105725238D01*
X175438571Y-105749047D01*
X175271904Y-105749047D01*
X175271904Y-105653809D01*
X175533809Y-105844285D02*
X175533809Y-106225238D01*
X175486190Y-106344285D02*
X174986190Y-106344285D01*
X175033809Y-106558571D02*
X175010000Y-106582380D01*
X174986190Y-106630000D01*
X174986190Y-106749047D01*
X175010000Y-106796666D01*
X175033809Y-106820476D01*
X175081428Y-106844285D01*
X175129047Y-106844285D01*
X175200476Y-106820476D01*
X175486190Y-106534761D01*
X175486190Y-106844285D01*
X195219047Y-122250000D02*
X195171428Y-122273809D01*
X195100000Y-122273809D01*
X195028571Y-122250000D01*
X194980952Y-122202380D01*
X194957142Y-122154761D01*
X194933333Y-122059523D01*
X194933333Y-121988095D01*
X194957142Y-121892857D01*
X194980952Y-121845238D01*
X195028571Y-121797619D01*
X195100000Y-121773809D01*
X195147619Y-121773809D01*
X195219047Y-121797619D01*
X195242857Y-121821428D01*
X195242857Y-121988095D01*
X195147619Y-121988095D01*
X195457142Y-121773809D02*
X195457142Y-122273809D01*
X195742857Y-121773809D01*
X195742857Y-122273809D01*
X195980952Y-121773809D02*
X195980952Y-122273809D01*
X196100000Y-122273809D01*
X196171428Y-122250000D01*
X196219047Y-122202380D01*
X196242857Y-122154761D01*
X196266666Y-122059523D01*
X196266666Y-121988095D01*
X196242857Y-121892857D01*
X196219047Y-121845238D01*
X196171428Y-121797619D01*
X196100000Y-121773809D01*
X195980952Y-121773809D01*
X195516666Y-119173809D02*
X195350000Y-119411904D01*
X195230952Y-119173809D02*
X195230952Y-119673809D01*
X195421428Y-119673809D01*
X195469047Y-119650000D01*
X195492857Y-119626190D01*
X195516666Y-119578571D01*
X195516666Y-119507142D01*
X195492857Y-119459523D01*
X195469047Y-119435714D01*
X195421428Y-119411904D01*
X195230952Y-119411904D01*
X195683333Y-119673809D02*
X196016666Y-119173809D01*
X196016666Y-119673809D02*
X195683333Y-119173809D01*
X195119047Y-117173809D02*
X195404761Y-117173809D01*
X195261904Y-116673809D02*
X195261904Y-117173809D01*
X195523809Y-117173809D02*
X195857142Y-116673809D01*
X195857142Y-117173809D02*
X195523809Y-116673809D01*
X194880952Y-114573809D02*
X195190476Y-114573809D01*
X195023809Y-114383333D01*
X195095238Y-114383333D01*
X195142857Y-114359523D01*
X195166666Y-114335714D01*
X195190476Y-114288095D01*
X195190476Y-114169047D01*
X195166666Y-114121428D01*
X195142857Y-114097619D01*
X195095238Y-114073809D01*
X194952380Y-114073809D01*
X194904761Y-114097619D01*
X194880952Y-114121428D01*
X195333333Y-114573809D02*
X195500000Y-114073809D01*
X195666666Y-114573809D01*
X195785714Y-114573809D02*
X196095238Y-114573809D01*
X195928571Y-114383333D01*
X196000000Y-114383333D01*
X196047619Y-114359523D01*
X196071428Y-114335714D01*
X196095238Y-114288095D01*
X196095238Y-114169047D01*
X196071428Y-114121428D01*
X196047619Y-114097619D01*
X196000000Y-114073809D01*
X195857142Y-114073809D01*
X195809523Y-114097619D01*
X195785714Y-114121428D01*
X184880952Y-122373809D02*
X185190476Y-122373809D01*
X185023809Y-122183333D01*
X185095238Y-122183333D01*
X185142857Y-122159523D01*
X185166666Y-122135714D01*
X185190476Y-122088095D01*
X185190476Y-121969047D01*
X185166666Y-121921428D01*
X185142857Y-121897619D01*
X185095238Y-121873809D01*
X184952380Y-121873809D01*
X184904761Y-121897619D01*
X184880952Y-121921428D01*
X185333333Y-122373809D02*
X185500000Y-121873809D01*
X185666666Y-122373809D01*
X185785714Y-122373809D02*
X186095238Y-122373809D01*
X185928571Y-122183333D01*
X186000000Y-122183333D01*
X186047619Y-122159523D01*
X186071428Y-122135714D01*
X186095238Y-122088095D01*
X186095238Y-121969047D01*
X186071428Y-121921428D01*
X186047619Y-121897619D01*
X186000000Y-121873809D01*
X185857142Y-121873809D01*
X185809523Y-121897619D01*
X185785714Y-121921428D01*
X184804761Y-119297619D02*
X184876190Y-119273809D01*
X184995238Y-119273809D01*
X185042857Y-119297619D01*
X185066666Y-119321428D01*
X185090476Y-119369047D01*
X185090476Y-119416666D01*
X185066666Y-119464285D01*
X185042857Y-119488095D01*
X184995238Y-119511904D01*
X184900000Y-119535714D01*
X184852380Y-119559523D01*
X184828571Y-119583333D01*
X184804761Y-119630952D01*
X184804761Y-119678571D01*
X184828571Y-119726190D01*
X184852380Y-119750000D01*
X184900000Y-119773809D01*
X185019047Y-119773809D01*
X185090476Y-119750000D01*
X185590476Y-119321428D02*
X185566666Y-119297619D01*
X185495238Y-119273809D01*
X185447619Y-119273809D01*
X185376190Y-119297619D01*
X185328571Y-119345238D01*
X185304761Y-119392857D01*
X185280952Y-119488095D01*
X185280952Y-119559523D01*
X185304761Y-119654761D01*
X185328571Y-119702380D01*
X185376190Y-119750000D01*
X185447619Y-119773809D01*
X185495238Y-119773809D01*
X185566666Y-119750000D01*
X185590476Y-119726190D01*
X186042857Y-119273809D02*
X185804761Y-119273809D01*
X185804761Y-119773809D01*
X184792857Y-116697619D02*
X184864285Y-116673809D01*
X184983333Y-116673809D01*
X185030952Y-116697619D01*
X185054761Y-116721428D01*
X185078571Y-116769047D01*
X185078571Y-116816666D01*
X185054761Y-116864285D01*
X185030952Y-116888095D01*
X184983333Y-116911904D01*
X184888095Y-116935714D01*
X184840476Y-116959523D01*
X184816666Y-116983333D01*
X184792857Y-117030952D01*
X184792857Y-117078571D01*
X184816666Y-117126190D01*
X184840476Y-117150000D01*
X184888095Y-117173809D01*
X185007142Y-117173809D01*
X185078571Y-117150000D01*
X185292857Y-116673809D02*
X185292857Y-117173809D01*
X185411904Y-117173809D01*
X185483333Y-117150000D01*
X185530952Y-117102380D01*
X185554761Y-117054761D01*
X185578571Y-116959523D01*
X185578571Y-116888095D01*
X185554761Y-116792857D01*
X185530952Y-116745238D01*
X185483333Y-116697619D01*
X185411904Y-116673809D01*
X185292857Y-116673809D01*
X185769047Y-116816666D02*
X186007142Y-116816666D01*
X185721428Y-116673809D02*
X185888095Y-117173809D01*
X186054761Y-116673809D01*
X185019047Y-114650000D02*
X184971428Y-114673809D01*
X184900000Y-114673809D01*
X184828571Y-114650000D01*
X184780952Y-114602380D01*
X184757142Y-114554761D01*
X184733333Y-114459523D01*
X184733333Y-114388095D01*
X184757142Y-114292857D01*
X184780952Y-114245238D01*
X184828571Y-114197619D01*
X184900000Y-114173809D01*
X184947619Y-114173809D01*
X185019047Y-114197619D01*
X185042857Y-114221428D01*
X185042857Y-114388095D01*
X184947619Y-114388095D01*
X185257142Y-114173809D02*
X185257142Y-114673809D01*
X185542857Y-114173809D01*
X185542857Y-114673809D01*
X185780952Y-114173809D02*
X185780952Y-114673809D01*
X185900000Y-114673809D01*
X185971428Y-114650000D01*
X186019047Y-114602380D01*
X186042857Y-114554761D01*
X186066666Y-114459523D01*
X186066666Y-114388095D01*
X186042857Y-114292857D01*
X186019047Y-114245238D01*
X185971428Y-114197619D01*
X185900000Y-114173809D01*
X185780952Y-114173809D01*
X167818571Y-103950000D02*
X167842380Y-103926190D01*
X167866190Y-103854761D01*
X167866190Y-103807142D01*
X167842380Y-103735714D01*
X167794761Y-103688095D01*
X167747142Y-103664285D01*
X167651904Y-103640476D01*
X167580476Y-103640476D01*
X167485238Y-103664285D01*
X167437619Y-103688095D01*
X167390000Y-103735714D01*
X167366190Y-103807142D01*
X167366190Y-103854761D01*
X167390000Y-103926190D01*
X167413809Y-103950000D01*
X167866190Y-104164285D02*
X167366190Y-104164285D01*
X167604285Y-104164285D02*
X167604285Y-104450000D01*
X167866190Y-104450000D02*
X167366190Y-104450000D01*
X167866190Y-104973809D02*
X167628095Y-104807142D01*
X167866190Y-104688095D02*
X167366190Y-104688095D01*
X167366190Y-104878571D01*
X167390000Y-104926190D01*
X167413809Y-104950000D01*
X167461428Y-104973809D01*
X167532857Y-104973809D01*
X167580476Y-104950000D01*
X167604285Y-104926190D01*
X167628095Y-104878571D01*
X167628095Y-104688095D01*
X167390000Y-105450000D02*
X167366190Y-105402380D01*
X167366190Y-105330952D01*
X167390000Y-105259523D01*
X167437619Y-105211904D01*
X167485238Y-105188095D01*
X167580476Y-105164285D01*
X167651904Y-105164285D01*
X167747142Y-105188095D01*
X167794761Y-105211904D01*
X167842380Y-105259523D01*
X167866190Y-105330952D01*
X167866190Y-105378571D01*
X167842380Y-105450000D01*
X167818571Y-105473809D01*
X167651904Y-105473809D01*
X167651904Y-105378571D01*
X167913809Y-105569047D02*
X167913809Y-105950000D01*
X167366190Y-105997619D02*
X167866190Y-106164285D01*
X167366190Y-106330952D01*
X167366190Y-106450000D02*
X167366190Y-106759523D01*
X167556666Y-106592857D01*
X167556666Y-106664285D01*
X167580476Y-106711904D01*
X167604285Y-106735714D01*
X167651904Y-106759523D01*
X167770952Y-106759523D01*
X167818571Y-106735714D01*
X167842380Y-106711904D01*
X167866190Y-106664285D01*
X167866190Y-106521428D01*
X167842380Y-106473809D01*
X167818571Y-106450000D01*
X165378571Y-104045238D02*
X165402380Y-104021428D01*
X165426190Y-103950000D01*
X165426190Y-103902380D01*
X165402380Y-103830952D01*
X165354761Y-103783333D01*
X165307142Y-103759523D01*
X165211904Y-103735714D01*
X165140476Y-103735714D01*
X165045238Y-103759523D01*
X164997619Y-103783333D01*
X164950000Y-103830952D01*
X164926190Y-103902380D01*
X164926190Y-103950000D01*
X164950000Y-104021428D01*
X164973809Y-104045238D01*
X165426190Y-104259523D02*
X164926190Y-104259523D01*
X165164285Y-104259523D02*
X165164285Y-104545238D01*
X165426190Y-104545238D02*
X164926190Y-104545238D01*
X165426190Y-105069047D02*
X165188095Y-104902380D01*
X165426190Y-104783333D02*
X164926190Y-104783333D01*
X164926190Y-104973809D01*
X164950000Y-105021428D01*
X164973809Y-105045238D01*
X165021428Y-105069047D01*
X165092857Y-105069047D01*
X165140476Y-105045238D01*
X165164285Y-105021428D01*
X165188095Y-104973809D01*
X165188095Y-104783333D01*
X164950000Y-105545238D02*
X164926190Y-105497619D01*
X164926190Y-105426190D01*
X164950000Y-105354761D01*
X164997619Y-105307142D01*
X165045238Y-105283333D01*
X165140476Y-105259523D01*
X165211904Y-105259523D01*
X165307142Y-105283333D01*
X165354761Y-105307142D01*
X165402380Y-105354761D01*
X165426190Y-105426190D01*
X165426190Y-105473809D01*
X165402380Y-105545238D01*
X165378571Y-105569047D01*
X165211904Y-105569047D01*
X165211904Y-105473809D01*
X165473809Y-105664285D02*
X165473809Y-106045238D01*
X165426190Y-106164285D02*
X164926190Y-106164285D01*
X164926190Y-106354761D02*
X164926190Y-106664285D01*
X165116666Y-106497619D01*
X165116666Y-106569047D01*
X165140476Y-106616666D01*
X165164285Y-106640476D01*
X165211904Y-106664285D01*
X165330952Y-106664285D01*
X165378571Y-106640476D01*
X165402380Y-106616666D01*
X165426190Y-106569047D01*
X165426190Y-106426190D01*
X165402380Y-106378571D01*
X165378571Y-106354761D01*
X145545238Y-104178571D02*
X145569047Y-104202380D01*
X145640476Y-104226190D01*
X145688095Y-104226190D01*
X145759523Y-104202380D01*
X145807142Y-104154761D01*
X145830952Y-104107142D01*
X145854761Y-104011904D01*
X145854761Y-103940476D01*
X145830952Y-103845238D01*
X145807142Y-103797619D01*
X145759523Y-103750000D01*
X145688095Y-103726190D01*
X145640476Y-103726190D01*
X145569047Y-103750000D01*
X145545238Y-103773809D01*
X145330952Y-104226190D02*
X145330952Y-103726190D01*
X145330952Y-103964285D02*
X145045238Y-103964285D01*
X145045238Y-104226190D02*
X145045238Y-103726190D01*
X144592857Y-103892857D02*
X144592857Y-104226190D01*
X144711904Y-103702380D02*
X144830952Y-104059523D01*
X144521428Y-104059523D01*
X142945238Y-104178571D02*
X142969047Y-104202380D01*
X143040476Y-104226190D01*
X143088095Y-104226190D01*
X143159523Y-104202380D01*
X143207142Y-104154761D01*
X143230952Y-104107142D01*
X143254761Y-104011904D01*
X143254761Y-103940476D01*
X143230952Y-103845238D01*
X143207142Y-103797619D01*
X143159523Y-103750000D01*
X143088095Y-103726190D01*
X143040476Y-103726190D01*
X142969047Y-103750000D01*
X142945238Y-103773809D01*
X142730952Y-104226190D02*
X142730952Y-103726190D01*
X142730952Y-103964285D02*
X142445238Y-103964285D01*
X142445238Y-104226190D02*
X142445238Y-103726190D01*
X142254761Y-103726190D02*
X141945238Y-103726190D01*
X142111904Y-103916666D01*
X142040476Y-103916666D01*
X141992857Y-103940476D01*
X141969047Y-103964285D01*
X141945238Y-104011904D01*
X141945238Y-104130952D01*
X141969047Y-104178571D01*
X141992857Y-104202380D01*
X142040476Y-104226190D01*
X142183333Y-104226190D01*
X142230952Y-104202380D01*
X142254761Y-104178571D01*
X140345238Y-104178571D02*
X140369047Y-104202380D01*
X140440476Y-104226190D01*
X140488095Y-104226190D01*
X140559523Y-104202380D01*
X140607142Y-104154761D01*
X140630952Y-104107142D01*
X140654761Y-104011904D01*
X140654761Y-103940476D01*
X140630952Y-103845238D01*
X140607142Y-103797619D01*
X140559523Y-103750000D01*
X140488095Y-103726190D01*
X140440476Y-103726190D01*
X140369047Y-103750000D01*
X140345238Y-103773809D01*
X140130952Y-104226190D02*
X140130952Y-103726190D01*
X140130952Y-103964285D02*
X139845238Y-103964285D01*
X139845238Y-104226190D02*
X139845238Y-103726190D01*
X139630952Y-103773809D02*
X139607142Y-103750000D01*
X139559523Y-103726190D01*
X139440476Y-103726190D01*
X139392857Y-103750000D01*
X139369047Y-103773809D01*
X139345238Y-103821428D01*
X139345238Y-103869047D01*
X139369047Y-103940476D01*
X139654761Y-104226190D01*
X139345238Y-104226190D01*
X137945238Y-104178571D02*
X137969047Y-104202380D01*
X138040476Y-104226190D01*
X138088095Y-104226190D01*
X138159523Y-104202380D01*
X138207142Y-104154761D01*
X138230952Y-104107142D01*
X138254761Y-104011904D01*
X138254761Y-103940476D01*
X138230952Y-103845238D01*
X138207142Y-103797619D01*
X138159523Y-103750000D01*
X138088095Y-103726190D01*
X138040476Y-103726190D01*
X137969047Y-103750000D01*
X137945238Y-103773809D01*
X137730952Y-104226190D02*
X137730952Y-103726190D01*
X137730952Y-103964285D02*
X137445238Y-103964285D01*
X137445238Y-104226190D02*
X137445238Y-103726190D01*
X136945238Y-104226190D02*
X137230952Y-104226190D01*
X137088095Y-104226190D02*
X137088095Y-103726190D01*
X137135714Y-103797619D01*
X137183333Y-103845238D01*
X137230952Y-103869047D01*
X132526190Y-101261904D02*
X132526190Y-101357142D01*
X132550000Y-101404761D01*
X132597619Y-101452380D01*
X132692857Y-101476190D01*
X132859523Y-101476190D01*
X132954761Y-101452380D01*
X133002380Y-101404761D01*
X133026190Y-101357142D01*
X133026190Y-101261904D01*
X133002380Y-101214285D01*
X132954761Y-101166666D01*
X132859523Y-101142857D01*
X132692857Y-101142857D01*
X132597619Y-101166666D01*
X132550000Y-101214285D01*
X132526190Y-101261904D01*
X132526190Y-101690476D02*
X132930952Y-101690476D01*
X132978571Y-101714285D01*
X133002380Y-101738095D01*
X133026190Y-101785714D01*
X133026190Y-101880952D01*
X133002380Y-101928571D01*
X132978571Y-101952380D01*
X132930952Y-101976190D01*
X132526190Y-101976190D01*
X132526190Y-102142857D02*
X132526190Y-102428571D01*
X133026190Y-102285714D02*
X132526190Y-102285714D01*
X133026190Y-102857142D02*
X133026190Y-102571428D01*
X133026190Y-102714285D02*
X132526190Y-102714285D01*
X132597619Y-102666666D01*
X132645238Y-102619047D01*
X132669047Y-102571428D01*
X129945238Y-104178571D02*
X129969047Y-104202380D01*
X130040476Y-104226190D01*
X130088095Y-104226190D01*
X130159523Y-104202380D01*
X130207142Y-104154761D01*
X130230952Y-104107142D01*
X130254761Y-104011904D01*
X130254761Y-103940476D01*
X130230952Y-103845238D01*
X130207142Y-103797619D01*
X130159523Y-103750000D01*
X130088095Y-103726190D01*
X130040476Y-103726190D01*
X129969047Y-103750000D01*
X129945238Y-103773809D01*
X129730952Y-104226190D02*
X129730952Y-103726190D01*
X129730952Y-103964285D02*
X129445238Y-103964285D01*
X129445238Y-104226190D02*
X129445238Y-103726190D01*
X128992857Y-103892857D02*
X128992857Y-104226190D01*
X129111904Y-103702380D02*
X129230952Y-104059523D01*
X128921428Y-104059523D01*
X127345238Y-104178571D02*
X127369047Y-104202380D01*
X127440476Y-104226190D01*
X127488095Y-104226190D01*
X127559523Y-104202380D01*
X127607142Y-104154761D01*
X127630952Y-104107142D01*
X127654761Y-104011904D01*
X127654761Y-103940476D01*
X127630952Y-103845238D01*
X127607142Y-103797619D01*
X127559523Y-103750000D01*
X127488095Y-103726190D01*
X127440476Y-103726190D01*
X127369047Y-103750000D01*
X127345238Y-103773809D01*
X127130952Y-104226190D02*
X127130952Y-103726190D01*
X127130952Y-103964285D02*
X126845238Y-103964285D01*
X126845238Y-104226190D02*
X126845238Y-103726190D01*
X126654761Y-103726190D02*
X126345238Y-103726190D01*
X126511904Y-103916666D01*
X126440476Y-103916666D01*
X126392857Y-103940476D01*
X126369047Y-103964285D01*
X126345238Y-104011904D01*
X126345238Y-104130952D01*
X126369047Y-104178571D01*
X126392857Y-104202380D01*
X126440476Y-104226190D01*
X126583333Y-104226190D01*
X126630952Y-104202380D01*
X126654761Y-104178571D01*
X124745238Y-104178571D02*
X124769047Y-104202380D01*
X124840476Y-104226190D01*
X124888095Y-104226190D01*
X124959523Y-104202380D01*
X125007142Y-104154761D01*
X125030952Y-104107142D01*
X125054761Y-104011904D01*
X125054761Y-103940476D01*
X125030952Y-103845238D01*
X125007142Y-103797619D01*
X124959523Y-103750000D01*
X124888095Y-103726190D01*
X124840476Y-103726190D01*
X124769047Y-103750000D01*
X124745238Y-103773809D01*
X124530952Y-104226190D02*
X124530952Y-103726190D01*
X124530952Y-103964285D02*
X124245238Y-103964285D01*
X124245238Y-104226190D02*
X124245238Y-103726190D01*
X124030952Y-103773809D02*
X124007142Y-103750000D01*
X123959523Y-103726190D01*
X123840476Y-103726190D01*
X123792857Y-103750000D01*
X123769047Y-103773809D01*
X123745238Y-103821428D01*
X123745238Y-103869047D01*
X123769047Y-103940476D01*
X124054761Y-104226190D01*
X123745238Y-104226190D01*
X122345238Y-104178571D02*
X122369047Y-104202380D01*
X122440476Y-104226190D01*
X122488095Y-104226190D01*
X122559523Y-104202380D01*
X122607142Y-104154761D01*
X122630952Y-104107142D01*
X122654761Y-104011904D01*
X122654761Y-103940476D01*
X122630952Y-103845238D01*
X122607142Y-103797619D01*
X122559523Y-103750000D01*
X122488095Y-103726190D01*
X122440476Y-103726190D01*
X122369047Y-103750000D01*
X122345238Y-103773809D01*
X122130952Y-104226190D02*
X122130952Y-103726190D01*
X122130952Y-103964285D02*
X121845238Y-103964285D01*
X121845238Y-104226190D02*
X121845238Y-103726190D01*
X121345238Y-104226190D02*
X121630952Y-104226190D01*
X121488095Y-104226190D02*
X121488095Y-103726190D01*
X121535714Y-103797619D01*
X121583333Y-103845238D01*
X121630952Y-103869047D01*
X116826190Y-101261904D02*
X116826190Y-101357142D01*
X116850000Y-101404761D01*
X116897619Y-101452380D01*
X116992857Y-101476190D01*
X117159523Y-101476190D01*
X117254761Y-101452380D01*
X117302380Y-101404761D01*
X117326190Y-101357142D01*
X117326190Y-101261904D01*
X117302380Y-101214285D01*
X117254761Y-101166666D01*
X117159523Y-101142857D01*
X116992857Y-101142857D01*
X116897619Y-101166666D01*
X116850000Y-101214285D01*
X116826190Y-101261904D01*
X116826190Y-101690476D02*
X117230952Y-101690476D01*
X117278571Y-101714285D01*
X117302380Y-101738095D01*
X117326190Y-101785714D01*
X117326190Y-101880952D01*
X117302380Y-101928571D01*
X117278571Y-101952380D01*
X117230952Y-101976190D01*
X116826190Y-101976190D01*
X116826190Y-102142857D02*
X116826190Y-102428571D01*
X117326190Y-102285714D02*
X116826190Y-102285714D01*
X116873809Y-102571428D02*
X116850000Y-102595238D01*
X116826190Y-102642857D01*
X116826190Y-102761904D01*
X116850000Y-102809523D01*
X116873809Y-102833333D01*
X116921428Y-102857142D01*
X116969047Y-102857142D01*
X117040476Y-102833333D01*
X117326190Y-102547619D01*
X117326190Y-102857142D01*
D11*
X173552380Y-115547619D02*
X172552380Y-115547619D01*
X173266666Y-115880952D01*
X172552380Y-116214285D01*
X173552380Y-116214285D01*
X173457142Y-117261904D02*
X173504761Y-117214285D01*
X173552380Y-117071428D01*
X173552380Y-116976190D01*
X173504761Y-116833333D01*
X173409523Y-116738095D01*
X173314285Y-116690476D01*
X173123809Y-116642857D01*
X172980952Y-116642857D01*
X172790476Y-116690476D01*
X172695238Y-116738095D01*
X172600000Y-116833333D01*
X172552380Y-116976190D01*
X172552380Y-117071428D01*
X172600000Y-117214285D01*
X172647619Y-117261904D01*
X172552380Y-117690476D02*
X173361904Y-117690476D01*
X173457142Y-117738095D01*
X173504761Y-117785714D01*
X173552380Y-117880952D01*
X173552380Y-118071428D01*
X173504761Y-118166666D01*
X173457142Y-118214285D01*
X173361904Y-118261904D01*
X172552380Y-118261904D01*
X173457142Y-120071428D02*
X173504761Y-120023809D01*
X173552380Y-119880952D01*
X173552380Y-119785714D01*
X173504761Y-119642857D01*
X173409523Y-119547619D01*
X173314285Y-119500000D01*
X173123809Y-119452380D01*
X172980952Y-119452380D01*
X172790476Y-119500000D01*
X172695238Y-119547619D01*
X172600000Y-119642857D01*
X172552380Y-119785714D01*
X172552380Y-119880952D01*
X172600000Y-120023809D01*
X172647619Y-120071428D01*
X172552380Y-120690476D02*
X172552380Y-120880952D01*
X172600000Y-120976190D01*
X172695238Y-121071428D01*
X172885714Y-121119047D01*
X173219047Y-121119047D01*
X173409523Y-121071428D01*
X173504761Y-120976190D01*
X173552380Y-120880952D01*
X173552380Y-120690476D01*
X173504761Y-120595238D01*
X173409523Y-120500000D01*
X173219047Y-120452380D01*
X172885714Y-120452380D01*
X172695238Y-120500000D01*
X172600000Y-120595238D01*
X172552380Y-120690476D01*
X173552380Y-121547619D02*
X172552380Y-121547619D01*
X173552380Y-122119047D01*
X172552380Y-122119047D01*
X172552380Y-122452380D02*
X172552380Y-123023809D01*
X173552380Y-122738095D02*
X172552380Y-122738095D01*
X173552380Y-123928571D02*
X173076190Y-123595238D01*
X173552380Y-123357142D02*
X172552380Y-123357142D01*
X172552380Y-123738095D01*
X172600000Y-123833333D01*
X172647619Y-123880952D01*
X172742857Y-123928571D01*
X172885714Y-123928571D01*
X172980952Y-123880952D01*
X173028571Y-123833333D01*
X173076190Y-123738095D01*
X173076190Y-123357142D01*
X172552380Y-124547619D02*
X172552380Y-124738095D01*
X172600000Y-124833333D01*
X172695238Y-124928571D01*
X172885714Y-124976190D01*
X173219047Y-124976190D01*
X173409523Y-124928571D01*
X173504761Y-124833333D01*
X173552380Y-124738095D01*
X173552380Y-124547619D01*
X173504761Y-124452380D01*
X173409523Y-124357142D01*
X173219047Y-124309523D01*
X172885714Y-124309523D01*
X172695238Y-124357142D01*
X172600000Y-124452380D01*
X172552380Y-124547619D01*
X173552380Y-125880952D02*
X173552380Y-125404761D01*
X172552380Y-125404761D01*
X173552380Y-126690476D02*
X173552380Y-126214285D01*
X172552380Y-126214285D01*
X173028571Y-127023809D02*
X173028571Y-127357142D01*
X173552380Y-127499999D02*
X173552380Y-127023809D01*
X172552380Y-127023809D01*
X172552380Y-127499999D01*
X173552380Y-128499999D02*
X173076190Y-128166666D01*
X173552380Y-127928571D02*
X172552380Y-127928571D01*
X172552380Y-128309523D01*
X172600000Y-128404761D01*
X172647619Y-128452380D01*
X172742857Y-128499999D01*
X172885714Y-128499999D01*
X172980952Y-128452380D01*
X173028571Y-128404761D01*
X173076190Y-128309523D01*
X173076190Y-127928571D01*
X173552380Y-130214285D02*
X173552380Y-129642857D01*
X173552380Y-129928571D02*
X172552380Y-129928571D01*
X172695238Y-129833333D01*
X172790476Y-129738095D01*
X172838095Y-129642857D01*
X173457142Y-130642857D02*
X173504761Y-130690476D01*
X173552380Y-130642857D01*
X173504761Y-130595238D01*
X173457142Y-130642857D01*
X173552380Y-130642857D01*
X172552380Y-131309523D02*
X172552380Y-131404761D01*
X172600000Y-131499999D01*
X172647619Y-131547619D01*
X172742857Y-131595238D01*
X172933333Y-131642857D01*
X173171428Y-131642857D01*
X173361904Y-131595238D01*
X173457142Y-131547619D01*
X173504761Y-131499999D01*
X173552380Y-131404761D01*
X173552380Y-131309523D01*
X173504761Y-131214285D01*
X173457142Y-131166666D01*
X173361904Y-131119047D01*
X173171428Y-131071428D01*
X172933333Y-131071428D01*
X172742857Y-131119047D01*
X172647619Y-131166666D01*
X172600000Y-131214285D01*
X172552380Y-131309523D01*
X172552380Y-131928571D02*
X173552380Y-132261904D01*
X172552380Y-132595238D01*
X175252380Y-121904761D02*
X175252380Y-121333333D01*
X175252380Y-121619047D02*
X174252380Y-121619047D01*
X174395238Y-121523809D01*
X174490476Y-121428571D01*
X174538095Y-121333333D01*
X174680952Y-122476190D02*
X174633333Y-122380952D01*
X174585714Y-122333333D01*
X174490476Y-122285714D01*
X174442857Y-122285714D01*
X174347619Y-122333333D01*
X174300000Y-122380952D01*
X174252380Y-122476190D01*
X174252380Y-122666666D01*
X174300000Y-122761904D01*
X174347619Y-122809523D01*
X174442857Y-122857142D01*
X174490476Y-122857142D01*
X174585714Y-122809523D01*
X174633333Y-122761904D01*
X174680952Y-122666666D01*
X174680952Y-122476190D01*
X174728571Y-122380952D01*
X174776190Y-122333333D01*
X174871428Y-122285714D01*
X175061904Y-122285714D01*
X175157142Y-122333333D01*
X175204761Y-122380952D01*
X175252380Y-122476190D01*
X175252380Y-122666666D01*
X175204761Y-122761904D01*
X175157142Y-122809523D01*
X175061904Y-122857142D01*
X174871428Y-122857142D01*
X174776190Y-122809523D01*
X174728571Y-122761904D01*
X174680952Y-122666666D01*
X174252380Y-123476190D02*
X174252380Y-123571428D01*
X174300000Y-123666666D01*
X174347619Y-123714285D01*
X174442857Y-123761904D01*
X174633333Y-123809523D01*
X174871428Y-123809523D01*
X175061904Y-123761904D01*
X175157142Y-123714285D01*
X175204761Y-123666666D01*
X175252380Y-123571428D01*
X175252380Y-123476190D01*
X175204761Y-123380952D01*
X175157142Y-123333333D01*
X175061904Y-123285714D01*
X174871428Y-123238095D01*
X174633333Y-123238095D01*
X174442857Y-123285714D01*
X174347619Y-123333333D01*
X174300000Y-123380952D01*
X174252380Y-123476190D01*
X174252380Y-124714285D02*
X174252380Y-124238095D01*
X174728571Y-124190476D01*
X174680952Y-124238095D01*
X174633333Y-124333333D01*
X174633333Y-124571428D01*
X174680952Y-124666666D01*
X174728571Y-124714285D01*
X174823809Y-124761904D01*
X175061904Y-124761904D01*
X175157142Y-124714285D01*
X175204761Y-124666666D01*
X175252380Y-124571428D01*
X175252380Y-124333333D01*
X175204761Y-124238095D01*
X175157142Y-124190476D01*
X174252380Y-125095238D02*
X174252380Y-125714285D01*
X174633333Y-125380952D01*
X174633333Y-125523809D01*
X174680952Y-125619047D01*
X174728571Y-125666666D01*
X174823809Y-125714285D01*
X175061904Y-125714285D01*
X175157142Y-125666666D01*
X175204761Y-125619047D01*
X175252380Y-125523809D01*
X175252380Y-125238095D01*
X175204761Y-125142857D01*
X175157142Y-125095238D01*
X174252380Y-126333333D02*
X174252380Y-126428571D01*
X174300000Y-126523809D01*
X174347619Y-126571428D01*
X174442857Y-126619047D01*
X174633333Y-126666666D01*
X174871428Y-126666666D01*
X175061904Y-126619047D01*
X175157142Y-126571428D01*
X175204761Y-126523809D01*
X175252380Y-126428571D01*
X175252380Y-126333333D01*
X175204761Y-126238095D01*
X175157142Y-126190476D01*
X175061904Y-126142857D01*
X174871428Y-126095238D01*
X174633333Y-126095238D01*
X174442857Y-126142857D01*
X174347619Y-126190476D01*
X174300000Y-126238095D01*
X174252380Y-126333333D01*
X176428571Y-123047619D02*
X176428571Y-122714285D01*
X176952380Y-122714285D02*
X175952380Y-122714285D01*
X175952380Y-123190476D01*
X176952380Y-123571428D02*
X175952380Y-123571428D01*
X175952380Y-123904761D02*
X175952380Y-124476190D01*
X176952380Y-124190476D02*
X175952380Y-124190476D01*
X175952380Y-124714285D02*
X175952380Y-125380952D01*
X176952380Y-124714285D01*
X176952380Y-125380952D01*
D13*
G04 #@! TO.C,J20*
X189290000Y-125670000D02*
X186690000Y-125670000D01*
X189290000Y-125670000D02*
X189290000Y-138490000D01*
X189290000Y-138490000D02*
X184090000Y-138490000D01*
X184090000Y-128270000D02*
X184090000Y-138490000D01*
X186690000Y-128270000D02*
X184090000Y-128270000D01*
X186690000Y-125670000D02*
X186690000Y-128270000D01*
X184090000Y-125670000D02*
X184090000Y-127000000D01*
X185420000Y-125670000D02*
X184090000Y-125670000D01*
G04 #@! TD*
M02*
