M48
;DRILL file {KiCad 5.0.0-rc2-unknown-2cb65f9~65~ubuntu17.10.1} date Sun Jun  3 22:22:32 2018
;FORMAT={-:-/ absolute / inch / decimal}
FMAT,2
INCH,TZ
T1C0.0157
T2C0.0394
T3C0.0433
T4C0.0472
T5C0.1693
%
G90
G05
M72
T1
X4.3504Y-4.3898
X4.4291Y-5.2756
X4.4291Y-5.3346
X4.6063Y-5.5906
X4.6654Y-5.0197
X4.8031Y-4.8031
X4.8228Y-4.685
X4.9213Y-4.3504
X4.9409Y-5.2756
X5.Y-4.4685
X5.4134Y-4.4882
X5.4331Y-4.3504
X5.4921Y-4.8031
X5.5118Y-4.4882
X5.9018Y-4.6691
X6.0827Y-4.7441
X6.2205Y-5.4242
X6.3583Y-5.3848
X6.3976Y-4.7047
X6.4173Y-5.0984
X6.4567Y-4.7638
X6.4567Y-5.1378
X6.4783Y-4.7028
X6.6535Y-4.8622
X6.6535Y-5.0787
X6.6535Y-5.1378
X6.6732Y-4.685
X6.675Y-5.3455
X6.6929Y-4.7244
X6.698Y-5.186
X7.1378Y-5.0512
X7.1622Y-5.0984
X7.1654Y-4.8228
X7.189Y-5.2953
X7.189Y-5.3504
X7.2441Y-4.7047
X7.3228Y-4.7835
X7.4984Y-4.8346
X7.6969Y-5.1969
T2
X6.1Y-5.8268
X6.2Y-5.8268
X6.3Y-5.8268
X6.4Y-5.8268
X4.4Y-4.0157
X4.5Y-4.0157
X4.4Y-5.8268
X4.5Y-5.8268
X6.4Y-4.0157
X6.5Y-4.0157
X6.6Y-4.0157
X4.7Y-4.0157
X4.8Y-4.0157
X4.9Y-4.0157
X5.Y-4.0157
X5.1Y-4.0157
X4.7Y-5.8268
X4.8Y-5.8268
X6.8Y-4.0157
X6.9Y-4.0157
X7.Y-4.0157
X7.7953Y-4.5
X7.7953Y-4.6
X7.7953Y-4.7
X7.7953Y-4.8
X6.6Y-5.8268
X6.7Y-5.8268
X6.8Y-5.8268
X6.9Y-5.8268
X5.Y-5.8268
X5.1Y-5.8268
X5.2Y-5.8268
X5.3Y-5.8268
X5.4Y-5.8268
X7.2047Y-4.0157
X7.3047Y-4.0157
X7.4047Y-4.0157
X5.5055Y-5.8268
X5.6055Y-5.8268
X5.7055Y-5.8268
X5.8055Y-5.8268
X5.9055Y-5.8268
X7.3Y-5.
X7.3Y-5.1
X7.3Y-5.2
X7.3Y-5.3
X7.3Y-5.4
X7.4Y-5.
X7.4Y-5.1
X7.4Y-5.2
X7.4Y-5.3
X7.4Y-5.4
X7.7953Y-5.
X7.7953Y-5.1
X7.7953Y-5.2
X7.7953Y-5.3
X7.7953Y-5.4
X5.315Y-4.0157
X5.415Y-4.0157
X5.515Y-4.0157
X5.615Y-4.0157
X5.715Y-4.0157
X7.1Y-5.8268
X7.2Y-5.8268
X7.3Y-5.8268
X7.4Y-5.8268
X7.4Y-4.5
X7.4Y-4.6
X7.4Y-4.7
X7.4Y-4.8
T3
X5.2555Y-4.6213
X5.2555Y-5.2213
X5.3555Y-4.6213
X5.3555Y-4.7213
X5.3555Y-5.2213
X5.4555Y-4.6213
X5.4555Y-5.2213
X5.5555Y-4.6213
X5.5555Y-4.7213
X5.5555Y-5.2213
X5.6555Y-4.6213
X5.6555Y-4.7213
X5.6555Y-5.2213
X5.7555Y-4.6213
X5.7555Y-4.7213
X5.7555Y-5.2213
X5.8555Y-4.6213
X5.8555Y-5.2213
X5.9555Y-4.6213
X5.9555Y-5.2213
X6.0555Y-4.6213
X6.0555Y-5.2213
X6.1555Y-4.6213
X6.1555Y-5.2213
X6.2555Y-4.6213
X6.2555Y-5.2213
X6.3555Y-4.6213
X6.3555Y-5.2213
X6.4555Y-4.6213
X6.4555Y-5.2213
X6.5555Y-4.6213
X6.5555Y-4.7213
X6.5555Y-4.8213
X6.5555Y-4.9213
X6.5555Y-5.0213
X6.5555Y-5.1213
X6.5555Y-5.2213
T4
X4.1339Y-4.485
X4.1339Y-4.685
X4.1339Y-5.1
X4.1339Y-5.3
T5
X7.6772Y-5.7087
X4.1339Y-4.1339
X7.6772Y-4.1339
X4.1339Y-5.7087
T0
M30
