G04 #@! TF.GenerationSoftware,KiCad,Pcbnew,5.0.0-rc2-unknown-2cb65f9~65~ubuntu17.10.1*
G04 #@! TF.CreationDate,2018-06-03T22:22:17-07:00*
G04 #@! TF.ProjectId,mcu_controller,6D63755F636F6E74726F6C6C65722E6B,rev?*
G04 #@! TF.SameCoordinates,Original*
G04 #@! TF.FileFunction,Soldermask,Top*
G04 #@! TF.FilePolarity,Negative*
%FSLAX46Y46*%
G04 Gerber Fmt 4.6, Leading zero omitted, Abs format (unit mm)*
G04 Created by KiCad (PCBNEW 5.0.0-rc2-unknown-2cb65f9~65~ubuntu17.10.1) date Sun Jun  3 22:22:17 2018*
%MOMM*%
%LPD*%
G01*
G04 APERTURE LIST*
%ADD10R,1.700000X1.700000*%
%ADD11O,2.100000X2.100000*%
%ADD12R,1.000000X0.820000*%
%ADD13R,0.900000X0.800000*%
%ADD14R,2.000000X3.800000*%
%ADD15R,2.000000X1.500000*%
%ADD16R,1.500000X0.500000*%
%ADD17C,0.100000*%
%ADD18C,1.000000*%
%ADD19C,4.700000*%
%ADD20R,0.820000X1.000000*%
%ADD21R,1.220000X1.800000*%
%ADD22R,1.800000X1.220000*%
%ADD23R,3.600000X1.800000*%
%ADD24O,4.000000X2.200000*%
%ADD25R,0.600000X0.500000*%
%ADD26R,1.550000X0.600000*%
%ADD27R,1.600000X1.600000*%
%ADD28C,2.000000*%
G04 APERTURE END LIST*
D10*
G04 #@! TO.C,J20*
X185420000Y-127000000D03*
D11*
X187960000Y-127000000D03*
X185420000Y-129540000D03*
X187960000Y-129540000D03*
X185420000Y-132080000D03*
X187960000Y-132080000D03*
X185420000Y-134620000D03*
X187960000Y-134620000D03*
X185420000Y-137160000D03*
X187960000Y-137160000D03*
G04 #@! TD*
D12*
G04 #@! TO.C,R47*
X156000000Y-144800000D03*
X156000000Y-143200000D03*
G04 #@! TD*
G04 #@! TO.C,R46*
X168900000Y-143200000D03*
X168900000Y-144800000D03*
G04 #@! TD*
G04 #@! TO.C,R45*
X181900000Y-144500000D03*
X181900000Y-142900000D03*
G04 #@! TD*
D13*
G04 #@! TO.C,D2*
X134634394Y-109346305D03*
X134634394Y-111246305D03*
X136634394Y-110296305D03*
G04 #@! TD*
D14*
G04 #@! TO.C,U2*
X110850000Y-116500000D03*
D15*
X117150000Y-116500000D03*
X117150000Y-114200000D03*
X117150000Y-118800000D03*
G04 #@! TD*
D16*
G04 #@! TO.C,R29*
X148000000Y-143600000D03*
X148000000Y-144400000D03*
D17*
G36*
X148299009Y-144152407D02*
X148347545Y-144159606D01*
X148395142Y-144171529D01*
X148441342Y-144188059D01*
X148485698Y-144209038D01*
X148527785Y-144234264D01*
X148567197Y-144263494D01*
X148603553Y-144296446D01*
X148636505Y-144332802D01*
X148665735Y-144372214D01*
X148690961Y-144414301D01*
X148711940Y-144458657D01*
X148728470Y-144504857D01*
X148740393Y-144552454D01*
X148747592Y-144600990D01*
X148750000Y-144649999D01*
X148750000Y-144650001D01*
X148747592Y-144699010D01*
X148740393Y-144747546D01*
X148728470Y-144795143D01*
X148711940Y-144841343D01*
X148690961Y-144885699D01*
X148665735Y-144927786D01*
X148636505Y-144967198D01*
X148603553Y-145003554D01*
X148567197Y-145036506D01*
X148527785Y-145065736D01*
X148485698Y-145090962D01*
X148441342Y-145111941D01*
X148395142Y-145128471D01*
X148347545Y-145140394D01*
X148299009Y-145147593D01*
X148250000Y-145150001D01*
X147750000Y-145150001D01*
X147700991Y-145147593D01*
X147652455Y-145140394D01*
X147604858Y-145128471D01*
X147558658Y-145111941D01*
X147514302Y-145090962D01*
X147472215Y-145065736D01*
X147432803Y-145036506D01*
X147396447Y-145003554D01*
X147363495Y-144967198D01*
X147334265Y-144927786D01*
X147309039Y-144885699D01*
X147288060Y-144841343D01*
X147271530Y-144795143D01*
X147259607Y-144747546D01*
X147252408Y-144699010D01*
X147250000Y-144650001D01*
X147250000Y-144649999D01*
X147252408Y-144600990D01*
X147259607Y-144552454D01*
X147271530Y-144504857D01*
X147288060Y-144458657D01*
X147309039Y-144414301D01*
X147334265Y-144372214D01*
X147363495Y-144332802D01*
X147396447Y-144296446D01*
X147432803Y-144263494D01*
X147472215Y-144234264D01*
X147514302Y-144209038D01*
X147558658Y-144188059D01*
X147604858Y-144171529D01*
X147652455Y-144159606D01*
X147700991Y-144152407D01*
X147750000Y-144149999D01*
X148250000Y-144149999D01*
X148299009Y-144152407D01*
X148299009Y-144152407D01*
G37*
D18*
X148000000Y-144650000D03*
D17*
G36*
X148299009Y-142852407D02*
X148347545Y-142859606D01*
X148395142Y-142871529D01*
X148441342Y-142888059D01*
X148485698Y-142909038D01*
X148527785Y-142934264D01*
X148567197Y-142963494D01*
X148603553Y-142996446D01*
X148636505Y-143032802D01*
X148665735Y-143072214D01*
X148690961Y-143114301D01*
X148711940Y-143158657D01*
X148728470Y-143204857D01*
X148740393Y-143252454D01*
X148747592Y-143300990D01*
X148750000Y-143349999D01*
X148750000Y-143350001D01*
X148747592Y-143399010D01*
X148740393Y-143447546D01*
X148728470Y-143495143D01*
X148711940Y-143541343D01*
X148690961Y-143585699D01*
X148665735Y-143627786D01*
X148636505Y-143667198D01*
X148603553Y-143703554D01*
X148567197Y-143736506D01*
X148527785Y-143765736D01*
X148485698Y-143790962D01*
X148441342Y-143811941D01*
X148395142Y-143828471D01*
X148347545Y-143840394D01*
X148299009Y-143847593D01*
X148250000Y-143850001D01*
X147750000Y-143850001D01*
X147700991Y-143847593D01*
X147652455Y-143840394D01*
X147604858Y-143828471D01*
X147558658Y-143811941D01*
X147514302Y-143790962D01*
X147472215Y-143765736D01*
X147432803Y-143736506D01*
X147396447Y-143703554D01*
X147363495Y-143667198D01*
X147334265Y-143627786D01*
X147309039Y-143585699D01*
X147288060Y-143541343D01*
X147271530Y-143495143D01*
X147259607Y-143447546D01*
X147252408Y-143399010D01*
X147250000Y-143350001D01*
X147250000Y-143349999D01*
X147252408Y-143300990D01*
X147259607Y-143252454D01*
X147271530Y-143204857D01*
X147288060Y-143158657D01*
X147309039Y-143114301D01*
X147334265Y-143072214D01*
X147363495Y-143032802D01*
X147396447Y-142996446D01*
X147432803Y-142963494D01*
X147472215Y-142934264D01*
X147514302Y-142909038D01*
X147558658Y-142888059D01*
X147604858Y-142871529D01*
X147652455Y-142859606D01*
X147700991Y-142852407D01*
X147750000Y-142849999D01*
X148250000Y-142849999D01*
X148299009Y-142852407D01*
X148299009Y-142852407D01*
G37*
D18*
X148000000Y-143350000D03*
G04 #@! TD*
D17*
G04 #@! TO.C,R28*
G36*
X151299009Y-142852407D02*
X151347545Y-142859606D01*
X151395142Y-142871529D01*
X151441342Y-142888059D01*
X151485698Y-142909038D01*
X151527785Y-142934264D01*
X151567197Y-142963494D01*
X151603553Y-142996446D01*
X151636505Y-143032802D01*
X151665735Y-143072214D01*
X151690961Y-143114301D01*
X151711940Y-143158657D01*
X151728470Y-143204857D01*
X151740393Y-143252454D01*
X151747592Y-143300990D01*
X151750000Y-143349999D01*
X151750000Y-143350001D01*
X151747592Y-143399010D01*
X151740393Y-143447546D01*
X151728470Y-143495143D01*
X151711940Y-143541343D01*
X151690961Y-143585699D01*
X151665735Y-143627786D01*
X151636505Y-143667198D01*
X151603553Y-143703554D01*
X151567197Y-143736506D01*
X151527785Y-143765736D01*
X151485698Y-143790962D01*
X151441342Y-143811941D01*
X151395142Y-143828471D01*
X151347545Y-143840394D01*
X151299009Y-143847593D01*
X151250000Y-143850001D01*
X150750000Y-143850001D01*
X150700991Y-143847593D01*
X150652455Y-143840394D01*
X150604858Y-143828471D01*
X150558658Y-143811941D01*
X150514302Y-143790962D01*
X150472215Y-143765736D01*
X150432803Y-143736506D01*
X150396447Y-143703554D01*
X150363495Y-143667198D01*
X150334265Y-143627786D01*
X150309039Y-143585699D01*
X150288060Y-143541343D01*
X150271530Y-143495143D01*
X150259607Y-143447546D01*
X150252408Y-143399010D01*
X150250000Y-143350001D01*
X150250000Y-143349999D01*
X150252408Y-143300990D01*
X150259607Y-143252454D01*
X150271530Y-143204857D01*
X150288060Y-143158657D01*
X150309039Y-143114301D01*
X150334265Y-143072214D01*
X150363495Y-143032802D01*
X150396447Y-142996446D01*
X150432803Y-142963494D01*
X150472215Y-142934264D01*
X150514302Y-142909038D01*
X150558658Y-142888059D01*
X150604858Y-142871529D01*
X150652455Y-142859606D01*
X150700991Y-142852407D01*
X150750000Y-142849999D01*
X151250000Y-142849999D01*
X151299009Y-142852407D01*
X151299009Y-142852407D01*
G37*
D18*
X151000000Y-143350000D03*
D17*
G36*
X151299009Y-144152407D02*
X151347545Y-144159606D01*
X151395142Y-144171529D01*
X151441342Y-144188059D01*
X151485698Y-144209038D01*
X151527785Y-144234264D01*
X151567197Y-144263494D01*
X151603553Y-144296446D01*
X151636505Y-144332802D01*
X151665735Y-144372214D01*
X151690961Y-144414301D01*
X151711940Y-144458657D01*
X151728470Y-144504857D01*
X151740393Y-144552454D01*
X151747592Y-144600990D01*
X151750000Y-144649999D01*
X151750000Y-144650001D01*
X151747592Y-144699010D01*
X151740393Y-144747546D01*
X151728470Y-144795143D01*
X151711940Y-144841343D01*
X151690961Y-144885699D01*
X151665735Y-144927786D01*
X151636505Y-144967198D01*
X151603553Y-145003554D01*
X151567197Y-145036506D01*
X151527785Y-145065736D01*
X151485698Y-145090962D01*
X151441342Y-145111941D01*
X151395142Y-145128471D01*
X151347545Y-145140394D01*
X151299009Y-145147593D01*
X151250000Y-145150001D01*
X150750000Y-145150001D01*
X150700991Y-145147593D01*
X150652455Y-145140394D01*
X150604858Y-145128471D01*
X150558658Y-145111941D01*
X150514302Y-145090962D01*
X150472215Y-145065736D01*
X150432803Y-145036506D01*
X150396447Y-145003554D01*
X150363495Y-144967198D01*
X150334265Y-144927786D01*
X150309039Y-144885699D01*
X150288060Y-144841343D01*
X150271530Y-144795143D01*
X150259607Y-144747546D01*
X150252408Y-144699010D01*
X150250000Y-144650001D01*
X150250000Y-144649999D01*
X150252408Y-144600990D01*
X150259607Y-144552454D01*
X150271530Y-144504857D01*
X150288060Y-144458657D01*
X150309039Y-144414301D01*
X150334265Y-144372214D01*
X150363495Y-144332802D01*
X150396447Y-144296446D01*
X150432803Y-144263494D01*
X150472215Y-144234264D01*
X150514302Y-144209038D01*
X150558658Y-144188059D01*
X150604858Y-144171529D01*
X150652455Y-144159606D01*
X150700991Y-144152407D01*
X150750000Y-144149999D01*
X151250000Y-144149999D01*
X151299009Y-144152407D01*
X151299009Y-144152407D01*
G37*
D18*
X151000000Y-144650000D03*
D16*
X151000000Y-144400000D03*
X151000000Y-143600000D03*
G04 #@! TD*
G04 #@! TO.C,R7*
X118000000Y-105600000D03*
X118000000Y-106400000D03*
D17*
G36*
X118299009Y-106152407D02*
X118347545Y-106159606D01*
X118395142Y-106171529D01*
X118441342Y-106188059D01*
X118485698Y-106209038D01*
X118527785Y-106234264D01*
X118567197Y-106263494D01*
X118603553Y-106296446D01*
X118636505Y-106332802D01*
X118665735Y-106372214D01*
X118690961Y-106414301D01*
X118711940Y-106458657D01*
X118728470Y-106504857D01*
X118740393Y-106552454D01*
X118747592Y-106600990D01*
X118750000Y-106649999D01*
X118750000Y-106650001D01*
X118747592Y-106699010D01*
X118740393Y-106747546D01*
X118728470Y-106795143D01*
X118711940Y-106841343D01*
X118690961Y-106885699D01*
X118665735Y-106927786D01*
X118636505Y-106967198D01*
X118603553Y-107003554D01*
X118567197Y-107036506D01*
X118527785Y-107065736D01*
X118485698Y-107090962D01*
X118441342Y-107111941D01*
X118395142Y-107128471D01*
X118347545Y-107140394D01*
X118299009Y-107147593D01*
X118250000Y-107150001D01*
X117750000Y-107150001D01*
X117700991Y-107147593D01*
X117652455Y-107140394D01*
X117604858Y-107128471D01*
X117558658Y-107111941D01*
X117514302Y-107090962D01*
X117472215Y-107065736D01*
X117432803Y-107036506D01*
X117396447Y-107003554D01*
X117363495Y-106967198D01*
X117334265Y-106927786D01*
X117309039Y-106885699D01*
X117288060Y-106841343D01*
X117271530Y-106795143D01*
X117259607Y-106747546D01*
X117252408Y-106699010D01*
X117250000Y-106650001D01*
X117250000Y-106649999D01*
X117252408Y-106600990D01*
X117259607Y-106552454D01*
X117271530Y-106504857D01*
X117288060Y-106458657D01*
X117309039Y-106414301D01*
X117334265Y-106372214D01*
X117363495Y-106332802D01*
X117396447Y-106296446D01*
X117432803Y-106263494D01*
X117472215Y-106234264D01*
X117514302Y-106209038D01*
X117558658Y-106188059D01*
X117604858Y-106171529D01*
X117652455Y-106159606D01*
X117700991Y-106152407D01*
X117750000Y-106149999D01*
X118250000Y-106149999D01*
X118299009Y-106152407D01*
X118299009Y-106152407D01*
G37*
D18*
X118000000Y-106650000D03*
D17*
G36*
X118299009Y-104852407D02*
X118347545Y-104859606D01*
X118395142Y-104871529D01*
X118441342Y-104888059D01*
X118485698Y-104909038D01*
X118527785Y-104934264D01*
X118567197Y-104963494D01*
X118603553Y-104996446D01*
X118636505Y-105032802D01*
X118665735Y-105072214D01*
X118690961Y-105114301D01*
X118711940Y-105158657D01*
X118728470Y-105204857D01*
X118740393Y-105252454D01*
X118747592Y-105300990D01*
X118750000Y-105349999D01*
X118750000Y-105350001D01*
X118747592Y-105399010D01*
X118740393Y-105447546D01*
X118728470Y-105495143D01*
X118711940Y-105541343D01*
X118690961Y-105585699D01*
X118665735Y-105627786D01*
X118636505Y-105667198D01*
X118603553Y-105703554D01*
X118567197Y-105736506D01*
X118527785Y-105765736D01*
X118485698Y-105790962D01*
X118441342Y-105811941D01*
X118395142Y-105828471D01*
X118347545Y-105840394D01*
X118299009Y-105847593D01*
X118250000Y-105850001D01*
X117750000Y-105850001D01*
X117700991Y-105847593D01*
X117652455Y-105840394D01*
X117604858Y-105828471D01*
X117558658Y-105811941D01*
X117514302Y-105790962D01*
X117472215Y-105765736D01*
X117432803Y-105736506D01*
X117396447Y-105703554D01*
X117363495Y-105667198D01*
X117334265Y-105627786D01*
X117309039Y-105585699D01*
X117288060Y-105541343D01*
X117271530Y-105495143D01*
X117259607Y-105447546D01*
X117252408Y-105399010D01*
X117250000Y-105350001D01*
X117250000Y-105349999D01*
X117252408Y-105300990D01*
X117259607Y-105252454D01*
X117271530Y-105204857D01*
X117288060Y-105158657D01*
X117309039Y-105114301D01*
X117334265Y-105072214D01*
X117363495Y-105032802D01*
X117396447Y-104996446D01*
X117432803Y-104963494D01*
X117472215Y-104934264D01*
X117514302Y-104909038D01*
X117558658Y-104888059D01*
X117604858Y-104871529D01*
X117652455Y-104859606D01*
X117700991Y-104852407D01*
X117750000Y-104849999D01*
X118250000Y-104849999D01*
X118299009Y-104852407D01*
X118299009Y-104852407D01*
G37*
D18*
X118000000Y-105350000D03*
G04 #@! TD*
D17*
G04 #@! TO.C,R30*
G36*
X145299009Y-142852407D02*
X145347545Y-142859606D01*
X145395142Y-142871529D01*
X145441342Y-142888059D01*
X145485698Y-142909038D01*
X145527785Y-142934264D01*
X145567197Y-142963494D01*
X145603553Y-142996446D01*
X145636505Y-143032802D01*
X145665735Y-143072214D01*
X145690961Y-143114301D01*
X145711940Y-143158657D01*
X145728470Y-143204857D01*
X145740393Y-143252454D01*
X145747592Y-143300990D01*
X145750000Y-143349999D01*
X145750000Y-143350001D01*
X145747592Y-143399010D01*
X145740393Y-143447546D01*
X145728470Y-143495143D01*
X145711940Y-143541343D01*
X145690961Y-143585699D01*
X145665735Y-143627786D01*
X145636505Y-143667198D01*
X145603553Y-143703554D01*
X145567197Y-143736506D01*
X145527785Y-143765736D01*
X145485698Y-143790962D01*
X145441342Y-143811941D01*
X145395142Y-143828471D01*
X145347545Y-143840394D01*
X145299009Y-143847593D01*
X145250000Y-143850001D01*
X144750000Y-143850001D01*
X144700991Y-143847593D01*
X144652455Y-143840394D01*
X144604858Y-143828471D01*
X144558658Y-143811941D01*
X144514302Y-143790962D01*
X144472215Y-143765736D01*
X144432803Y-143736506D01*
X144396447Y-143703554D01*
X144363495Y-143667198D01*
X144334265Y-143627786D01*
X144309039Y-143585699D01*
X144288060Y-143541343D01*
X144271530Y-143495143D01*
X144259607Y-143447546D01*
X144252408Y-143399010D01*
X144250000Y-143350001D01*
X144250000Y-143349999D01*
X144252408Y-143300990D01*
X144259607Y-143252454D01*
X144271530Y-143204857D01*
X144288060Y-143158657D01*
X144309039Y-143114301D01*
X144334265Y-143072214D01*
X144363495Y-143032802D01*
X144396447Y-142996446D01*
X144432803Y-142963494D01*
X144472215Y-142934264D01*
X144514302Y-142909038D01*
X144558658Y-142888059D01*
X144604858Y-142871529D01*
X144652455Y-142859606D01*
X144700991Y-142852407D01*
X144750000Y-142849999D01*
X145250000Y-142849999D01*
X145299009Y-142852407D01*
X145299009Y-142852407D01*
G37*
D18*
X145000000Y-143350000D03*
D17*
G36*
X145299009Y-144152407D02*
X145347545Y-144159606D01*
X145395142Y-144171529D01*
X145441342Y-144188059D01*
X145485698Y-144209038D01*
X145527785Y-144234264D01*
X145567197Y-144263494D01*
X145603553Y-144296446D01*
X145636505Y-144332802D01*
X145665735Y-144372214D01*
X145690961Y-144414301D01*
X145711940Y-144458657D01*
X145728470Y-144504857D01*
X145740393Y-144552454D01*
X145747592Y-144600990D01*
X145750000Y-144649999D01*
X145750000Y-144650001D01*
X145747592Y-144699010D01*
X145740393Y-144747546D01*
X145728470Y-144795143D01*
X145711940Y-144841343D01*
X145690961Y-144885699D01*
X145665735Y-144927786D01*
X145636505Y-144967198D01*
X145603553Y-145003554D01*
X145567197Y-145036506D01*
X145527785Y-145065736D01*
X145485698Y-145090962D01*
X145441342Y-145111941D01*
X145395142Y-145128471D01*
X145347545Y-145140394D01*
X145299009Y-145147593D01*
X145250000Y-145150001D01*
X144750000Y-145150001D01*
X144700991Y-145147593D01*
X144652455Y-145140394D01*
X144604858Y-145128471D01*
X144558658Y-145111941D01*
X144514302Y-145090962D01*
X144472215Y-145065736D01*
X144432803Y-145036506D01*
X144396447Y-145003554D01*
X144363495Y-144967198D01*
X144334265Y-144927786D01*
X144309039Y-144885699D01*
X144288060Y-144841343D01*
X144271530Y-144795143D01*
X144259607Y-144747546D01*
X144252408Y-144699010D01*
X144250000Y-144650001D01*
X144250000Y-144649999D01*
X144252408Y-144600990D01*
X144259607Y-144552454D01*
X144271530Y-144504857D01*
X144288060Y-144458657D01*
X144309039Y-144414301D01*
X144334265Y-144372214D01*
X144363495Y-144332802D01*
X144396447Y-144296446D01*
X144432803Y-144263494D01*
X144472215Y-144234264D01*
X144514302Y-144209038D01*
X144558658Y-144188059D01*
X144604858Y-144171529D01*
X144652455Y-144159606D01*
X144700991Y-144152407D01*
X144750000Y-144149999D01*
X145250000Y-144149999D01*
X145299009Y-144152407D01*
X145299009Y-144152407D01*
G37*
D18*
X145000000Y-144650000D03*
D16*
X145000000Y-144400000D03*
X145000000Y-143600000D03*
G04 #@! TD*
G04 #@! TO.C,R31*
X142000000Y-143600000D03*
X142000000Y-144400000D03*
D17*
G36*
X142299009Y-144152407D02*
X142347545Y-144159606D01*
X142395142Y-144171529D01*
X142441342Y-144188059D01*
X142485698Y-144209038D01*
X142527785Y-144234264D01*
X142567197Y-144263494D01*
X142603553Y-144296446D01*
X142636505Y-144332802D01*
X142665735Y-144372214D01*
X142690961Y-144414301D01*
X142711940Y-144458657D01*
X142728470Y-144504857D01*
X142740393Y-144552454D01*
X142747592Y-144600990D01*
X142750000Y-144649999D01*
X142750000Y-144650001D01*
X142747592Y-144699010D01*
X142740393Y-144747546D01*
X142728470Y-144795143D01*
X142711940Y-144841343D01*
X142690961Y-144885699D01*
X142665735Y-144927786D01*
X142636505Y-144967198D01*
X142603553Y-145003554D01*
X142567197Y-145036506D01*
X142527785Y-145065736D01*
X142485698Y-145090962D01*
X142441342Y-145111941D01*
X142395142Y-145128471D01*
X142347545Y-145140394D01*
X142299009Y-145147593D01*
X142250000Y-145150001D01*
X141750000Y-145150001D01*
X141700991Y-145147593D01*
X141652455Y-145140394D01*
X141604858Y-145128471D01*
X141558658Y-145111941D01*
X141514302Y-145090962D01*
X141472215Y-145065736D01*
X141432803Y-145036506D01*
X141396447Y-145003554D01*
X141363495Y-144967198D01*
X141334265Y-144927786D01*
X141309039Y-144885699D01*
X141288060Y-144841343D01*
X141271530Y-144795143D01*
X141259607Y-144747546D01*
X141252408Y-144699010D01*
X141250000Y-144650001D01*
X141250000Y-144649999D01*
X141252408Y-144600990D01*
X141259607Y-144552454D01*
X141271530Y-144504857D01*
X141288060Y-144458657D01*
X141309039Y-144414301D01*
X141334265Y-144372214D01*
X141363495Y-144332802D01*
X141396447Y-144296446D01*
X141432803Y-144263494D01*
X141472215Y-144234264D01*
X141514302Y-144209038D01*
X141558658Y-144188059D01*
X141604858Y-144171529D01*
X141652455Y-144159606D01*
X141700991Y-144152407D01*
X141750000Y-144149999D01*
X142250000Y-144149999D01*
X142299009Y-144152407D01*
X142299009Y-144152407D01*
G37*
D18*
X142000000Y-144650000D03*
D17*
G36*
X142299009Y-142852407D02*
X142347545Y-142859606D01*
X142395142Y-142871529D01*
X142441342Y-142888059D01*
X142485698Y-142909038D01*
X142527785Y-142934264D01*
X142567197Y-142963494D01*
X142603553Y-142996446D01*
X142636505Y-143032802D01*
X142665735Y-143072214D01*
X142690961Y-143114301D01*
X142711940Y-143158657D01*
X142728470Y-143204857D01*
X142740393Y-143252454D01*
X142747592Y-143300990D01*
X142750000Y-143349999D01*
X142750000Y-143350001D01*
X142747592Y-143399010D01*
X142740393Y-143447546D01*
X142728470Y-143495143D01*
X142711940Y-143541343D01*
X142690961Y-143585699D01*
X142665735Y-143627786D01*
X142636505Y-143667198D01*
X142603553Y-143703554D01*
X142567197Y-143736506D01*
X142527785Y-143765736D01*
X142485698Y-143790962D01*
X142441342Y-143811941D01*
X142395142Y-143828471D01*
X142347545Y-143840394D01*
X142299009Y-143847593D01*
X142250000Y-143850001D01*
X141750000Y-143850001D01*
X141700991Y-143847593D01*
X141652455Y-143840394D01*
X141604858Y-143828471D01*
X141558658Y-143811941D01*
X141514302Y-143790962D01*
X141472215Y-143765736D01*
X141432803Y-143736506D01*
X141396447Y-143703554D01*
X141363495Y-143667198D01*
X141334265Y-143627786D01*
X141309039Y-143585699D01*
X141288060Y-143541343D01*
X141271530Y-143495143D01*
X141259607Y-143447546D01*
X141252408Y-143399010D01*
X141250000Y-143350001D01*
X141250000Y-143349999D01*
X141252408Y-143300990D01*
X141259607Y-143252454D01*
X141271530Y-143204857D01*
X141288060Y-143158657D01*
X141309039Y-143114301D01*
X141334265Y-143072214D01*
X141363495Y-143032802D01*
X141396447Y-142996446D01*
X141432803Y-142963494D01*
X141472215Y-142934264D01*
X141514302Y-142909038D01*
X141558658Y-142888059D01*
X141604858Y-142871529D01*
X141652455Y-142859606D01*
X141700991Y-142852407D01*
X141750000Y-142849999D01*
X142250000Y-142849999D01*
X142299009Y-142852407D01*
X142299009Y-142852407D01*
G37*
D18*
X142000000Y-143350000D03*
G04 #@! TD*
D17*
G04 #@! TO.C,R32*
G36*
X137799009Y-142852407D02*
X137847545Y-142859606D01*
X137895142Y-142871529D01*
X137941342Y-142888059D01*
X137985698Y-142909038D01*
X138027785Y-142934264D01*
X138067197Y-142963494D01*
X138103553Y-142996446D01*
X138136505Y-143032802D01*
X138165735Y-143072214D01*
X138190961Y-143114301D01*
X138211940Y-143158657D01*
X138228470Y-143204857D01*
X138240393Y-143252454D01*
X138247592Y-143300990D01*
X138250000Y-143349999D01*
X138250000Y-143350001D01*
X138247592Y-143399010D01*
X138240393Y-143447546D01*
X138228470Y-143495143D01*
X138211940Y-143541343D01*
X138190961Y-143585699D01*
X138165735Y-143627786D01*
X138136505Y-143667198D01*
X138103553Y-143703554D01*
X138067197Y-143736506D01*
X138027785Y-143765736D01*
X137985698Y-143790962D01*
X137941342Y-143811941D01*
X137895142Y-143828471D01*
X137847545Y-143840394D01*
X137799009Y-143847593D01*
X137750000Y-143850001D01*
X137250000Y-143850001D01*
X137200991Y-143847593D01*
X137152455Y-143840394D01*
X137104858Y-143828471D01*
X137058658Y-143811941D01*
X137014302Y-143790962D01*
X136972215Y-143765736D01*
X136932803Y-143736506D01*
X136896447Y-143703554D01*
X136863495Y-143667198D01*
X136834265Y-143627786D01*
X136809039Y-143585699D01*
X136788060Y-143541343D01*
X136771530Y-143495143D01*
X136759607Y-143447546D01*
X136752408Y-143399010D01*
X136750000Y-143350001D01*
X136750000Y-143349999D01*
X136752408Y-143300990D01*
X136759607Y-143252454D01*
X136771530Y-143204857D01*
X136788060Y-143158657D01*
X136809039Y-143114301D01*
X136834265Y-143072214D01*
X136863495Y-143032802D01*
X136896447Y-142996446D01*
X136932803Y-142963494D01*
X136972215Y-142934264D01*
X137014302Y-142909038D01*
X137058658Y-142888059D01*
X137104858Y-142871529D01*
X137152455Y-142859606D01*
X137200991Y-142852407D01*
X137250000Y-142849999D01*
X137750000Y-142849999D01*
X137799009Y-142852407D01*
X137799009Y-142852407D01*
G37*
D18*
X137500000Y-143350000D03*
D17*
G36*
X137799009Y-144152407D02*
X137847545Y-144159606D01*
X137895142Y-144171529D01*
X137941342Y-144188059D01*
X137985698Y-144209038D01*
X138027785Y-144234264D01*
X138067197Y-144263494D01*
X138103553Y-144296446D01*
X138136505Y-144332802D01*
X138165735Y-144372214D01*
X138190961Y-144414301D01*
X138211940Y-144458657D01*
X138228470Y-144504857D01*
X138240393Y-144552454D01*
X138247592Y-144600990D01*
X138250000Y-144649999D01*
X138250000Y-144650001D01*
X138247592Y-144699010D01*
X138240393Y-144747546D01*
X138228470Y-144795143D01*
X138211940Y-144841343D01*
X138190961Y-144885699D01*
X138165735Y-144927786D01*
X138136505Y-144967198D01*
X138103553Y-145003554D01*
X138067197Y-145036506D01*
X138027785Y-145065736D01*
X137985698Y-145090962D01*
X137941342Y-145111941D01*
X137895142Y-145128471D01*
X137847545Y-145140394D01*
X137799009Y-145147593D01*
X137750000Y-145150001D01*
X137250000Y-145150001D01*
X137200991Y-145147593D01*
X137152455Y-145140394D01*
X137104858Y-145128471D01*
X137058658Y-145111941D01*
X137014302Y-145090962D01*
X136972215Y-145065736D01*
X136932803Y-145036506D01*
X136896447Y-145003554D01*
X136863495Y-144967198D01*
X136834265Y-144927786D01*
X136809039Y-144885699D01*
X136788060Y-144841343D01*
X136771530Y-144795143D01*
X136759607Y-144747546D01*
X136752408Y-144699010D01*
X136750000Y-144650001D01*
X136750000Y-144649999D01*
X136752408Y-144600990D01*
X136759607Y-144552454D01*
X136771530Y-144504857D01*
X136788060Y-144458657D01*
X136809039Y-144414301D01*
X136834265Y-144372214D01*
X136863495Y-144332802D01*
X136896447Y-144296446D01*
X136932803Y-144263494D01*
X136972215Y-144234264D01*
X137014302Y-144209038D01*
X137058658Y-144188059D01*
X137104858Y-144171529D01*
X137152455Y-144159606D01*
X137200991Y-144152407D01*
X137250000Y-144149999D01*
X137750000Y-144149999D01*
X137799009Y-144152407D01*
X137799009Y-144152407D01*
G37*
D18*
X137500000Y-144650000D03*
D16*
X137500000Y-144400000D03*
X137500000Y-143600000D03*
G04 #@! TD*
G04 #@! TO.C,R33*
X134500000Y-143600000D03*
X134500000Y-144400000D03*
D17*
G36*
X134799009Y-144152407D02*
X134847545Y-144159606D01*
X134895142Y-144171529D01*
X134941342Y-144188059D01*
X134985698Y-144209038D01*
X135027785Y-144234264D01*
X135067197Y-144263494D01*
X135103553Y-144296446D01*
X135136505Y-144332802D01*
X135165735Y-144372214D01*
X135190961Y-144414301D01*
X135211940Y-144458657D01*
X135228470Y-144504857D01*
X135240393Y-144552454D01*
X135247592Y-144600990D01*
X135250000Y-144649999D01*
X135250000Y-144650001D01*
X135247592Y-144699010D01*
X135240393Y-144747546D01*
X135228470Y-144795143D01*
X135211940Y-144841343D01*
X135190961Y-144885699D01*
X135165735Y-144927786D01*
X135136505Y-144967198D01*
X135103553Y-145003554D01*
X135067197Y-145036506D01*
X135027785Y-145065736D01*
X134985698Y-145090962D01*
X134941342Y-145111941D01*
X134895142Y-145128471D01*
X134847545Y-145140394D01*
X134799009Y-145147593D01*
X134750000Y-145150001D01*
X134250000Y-145150001D01*
X134200991Y-145147593D01*
X134152455Y-145140394D01*
X134104858Y-145128471D01*
X134058658Y-145111941D01*
X134014302Y-145090962D01*
X133972215Y-145065736D01*
X133932803Y-145036506D01*
X133896447Y-145003554D01*
X133863495Y-144967198D01*
X133834265Y-144927786D01*
X133809039Y-144885699D01*
X133788060Y-144841343D01*
X133771530Y-144795143D01*
X133759607Y-144747546D01*
X133752408Y-144699010D01*
X133750000Y-144650001D01*
X133750000Y-144649999D01*
X133752408Y-144600990D01*
X133759607Y-144552454D01*
X133771530Y-144504857D01*
X133788060Y-144458657D01*
X133809039Y-144414301D01*
X133834265Y-144372214D01*
X133863495Y-144332802D01*
X133896447Y-144296446D01*
X133932803Y-144263494D01*
X133972215Y-144234264D01*
X134014302Y-144209038D01*
X134058658Y-144188059D01*
X134104858Y-144171529D01*
X134152455Y-144159606D01*
X134200991Y-144152407D01*
X134250000Y-144149999D01*
X134750000Y-144149999D01*
X134799009Y-144152407D01*
X134799009Y-144152407D01*
G37*
D18*
X134500000Y-144650000D03*
D17*
G36*
X134799009Y-142852407D02*
X134847545Y-142859606D01*
X134895142Y-142871529D01*
X134941342Y-142888059D01*
X134985698Y-142909038D01*
X135027785Y-142934264D01*
X135067197Y-142963494D01*
X135103553Y-142996446D01*
X135136505Y-143032802D01*
X135165735Y-143072214D01*
X135190961Y-143114301D01*
X135211940Y-143158657D01*
X135228470Y-143204857D01*
X135240393Y-143252454D01*
X135247592Y-143300990D01*
X135250000Y-143349999D01*
X135250000Y-143350001D01*
X135247592Y-143399010D01*
X135240393Y-143447546D01*
X135228470Y-143495143D01*
X135211940Y-143541343D01*
X135190961Y-143585699D01*
X135165735Y-143627786D01*
X135136505Y-143667198D01*
X135103553Y-143703554D01*
X135067197Y-143736506D01*
X135027785Y-143765736D01*
X134985698Y-143790962D01*
X134941342Y-143811941D01*
X134895142Y-143828471D01*
X134847545Y-143840394D01*
X134799009Y-143847593D01*
X134750000Y-143850001D01*
X134250000Y-143850001D01*
X134200991Y-143847593D01*
X134152455Y-143840394D01*
X134104858Y-143828471D01*
X134058658Y-143811941D01*
X134014302Y-143790962D01*
X133972215Y-143765736D01*
X133932803Y-143736506D01*
X133896447Y-143703554D01*
X133863495Y-143667198D01*
X133834265Y-143627786D01*
X133809039Y-143585699D01*
X133788060Y-143541343D01*
X133771530Y-143495143D01*
X133759607Y-143447546D01*
X133752408Y-143399010D01*
X133750000Y-143350001D01*
X133750000Y-143349999D01*
X133752408Y-143300990D01*
X133759607Y-143252454D01*
X133771530Y-143204857D01*
X133788060Y-143158657D01*
X133809039Y-143114301D01*
X133834265Y-143072214D01*
X133863495Y-143032802D01*
X133896447Y-142996446D01*
X133932803Y-142963494D01*
X133972215Y-142934264D01*
X134014302Y-142909038D01*
X134058658Y-142888059D01*
X134104858Y-142871529D01*
X134152455Y-142859606D01*
X134200991Y-142852407D01*
X134250000Y-142849999D01*
X134750000Y-142849999D01*
X134799009Y-142852407D01*
X134799009Y-142852407D01*
G37*
D18*
X134500000Y-143350000D03*
G04 #@! TD*
D17*
G04 #@! TO.C,R34*
G36*
X131799009Y-142852407D02*
X131847545Y-142859606D01*
X131895142Y-142871529D01*
X131941342Y-142888059D01*
X131985698Y-142909038D01*
X132027785Y-142934264D01*
X132067197Y-142963494D01*
X132103553Y-142996446D01*
X132136505Y-143032802D01*
X132165735Y-143072214D01*
X132190961Y-143114301D01*
X132211940Y-143158657D01*
X132228470Y-143204857D01*
X132240393Y-143252454D01*
X132247592Y-143300990D01*
X132250000Y-143349999D01*
X132250000Y-143350001D01*
X132247592Y-143399010D01*
X132240393Y-143447546D01*
X132228470Y-143495143D01*
X132211940Y-143541343D01*
X132190961Y-143585699D01*
X132165735Y-143627786D01*
X132136505Y-143667198D01*
X132103553Y-143703554D01*
X132067197Y-143736506D01*
X132027785Y-143765736D01*
X131985698Y-143790962D01*
X131941342Y-143811941D01*
X131895142Y-143828471D01*
X131847545Y-143840394D01*
X131799009Y-143847593D01*
X131750000Y-143850001D01*
X131250000Y-143850001D01*
X131200991Y-143847593D01*
X131152455Y-143840394D01*
X131104858Y-143828471D01*
X131058658Y-143811941D01*
X131014302Y-143790962D01*
X130972215Y-143765736D01*
X130932803Y-143736506D01*
X130896447Y-143703554D01*
X130863495Y-143667198D01*
X130834265Y-143627786D01*
X130809039Y-143585699D01*
X130788060Y-143541343D01*
X130771530Y-143495143D01*
X130759607Y-143447546D01*
X130752408Y-143399010D01*
X130750000Y-143350001D01*
X130750000Y-143349999D01*
X130752408Y-143300990D01*
X130759607Y-143252454D01*
X130771530Y-143204857D01*
X130788060Y-143158657D01*
X130809039Y-143114301D01*
X130834265Y-143072214D01*
X130863495Y-143032802D01*
X130896447Y-142996446D01*
X130932803Y-142963494D01*
X130972215Y-142934264D01*
X131014302Y-142909038D01*
X131058658Y-142888059D01*
X131104858Y-142871529D01*
X131152455Y-142859606D01*
X131200991Y-142852407D01*
X131250000Y-142849999D01*
X131750000Y-142849999D01*
X131799009Y-142852407D01*
X131799009Y-142852407D01*
G37*
D18*
X131500000Y-143350000D03*
D17*
G36*
X131799009Y-144152407D02*
X131847545Y-144159606D01*
X131895142Y-144171529D01*
X131941342Y-144188059D01*
X131985698Y-144209038D01*
X132027785Y-144234264D01*
X132067197Y-144263494D01*
X132103553Y-144296446D01*
X132136505Y-144332802D01*
X132165735Y-144372214D01*
X132190961Y-144414301D01*
X132211940Y-144458657D01*
X132228470Y-144504857D01*
X132240393Y-144552454D01*
X132247592Y-144600990D01*
X132250000Y-144649999D01*
X132250000Y-144650001D01*
X132247592Y-144699010D01*
X132240393Y-144747546D01*
X132228470Y-144795143D01*
X132211940Y-144841343D01*
X132190961Y-144885699D01*
X132165735Y-144927786D01*
X132136505Y-144967198D01*
X132103553Y-145003554D01*
X132067197Y-145036506D01*
X132027785Y-145065736D01*
X131985698Y-145090962D01*
X131941342Y-145111941D01*
X131895142Y-145128471D01*
X131847545Y-145140394D01*
X131799009Y-145147593D01*
X131750000Y-145150001D01*
X131250000Y-145150001D01*
X131200991Y-145147593D01*
X131152455Y-145140394D01*
X131104858Y-145128471D01*
X131058658Y-145111941D01*
X131014302Y-145090962D01*
X130972215Y-145065736D01*
X130932803Y-145036506D01*
X130896447Y-145003554D01*
X130863495Y-144967198D01*
X130834265Y-144927786D01*
X130809039Y-144885699D01*
X130788060Y-144841343D01*
X130771530Y-144795143D01*
X130759607Y-144747546D01*
X130752408Y-144699010D01*
X130750000Y-144650001D01*
X130750000Y-144649999D01*
X130752408Y-144600990D01*
X130759607Y-144552454D01*
X130771530Y-144504857D01*
X130788060Y-144458657D01*
X130809039Y-144414301D01*
X130834265Y-144372214D01*
X130863495Y-144332802D01*
X130896447Y-144296446D01*
X130932803Y-144263494D01*
X130972215Y-144234264D01*
X131014302Y-144209038D01*
X131058658Y-144188059D01*
X131104858Y-144171529D01*
X131152455Y-144159606D01*
X131200991Y-144152407D01*
X131250000Y-144149999D01*
X131750000Y-144149999D01*
X131799009Y-144152407D01*
X131799009Y-144152407D01*
G37*
D18*
X131500000Y-144650000D03*
D16*
X131500000Y-144400000D03*
X131500000Y-143600000D03*
G04 #@! TD*
G04 #@! TO.C,R18*
X127000000Y-105600000D03*
X127000000Y-106400000D03*
D17*
G36*
X127299009Y-106152407D02*
X127347545Y-106159606D01*
X127395142Y-106171529D01*
X127441342Y-106188059D01*
X127485698Y-106209038D01*
X127527785Y-106234264D01*
X127567197Y-106263494D01*
X127603553Y-106296446D01*
X127636505Y-106332802D01*
X127665735Y-106372214D01*
X127690961Y-106414301D01*
X127711940Y-106458657D01*
X127728470Y-106504857D01*
X127740393Y-106552454D01*
X127747592Y-106600990D01*
X127750000Y-106649999D01*
X127750000Y-106650001D01*
X127747592Y-106699010D01*
X127740393Y-106747546D01*
X127728470Y-106795143D01*
X127711940Y-106841343D01*
X127690961Y-106885699D01*
X127665735Y-106927786D01*
X127636505Y-106967198D01*
X127603553Y-107003554D01*
X127567197Y-107036506D01*
X127527785Y-107065736D01*
X127485698Y-107090962D01*
X127441342Y-107111941D01*
X127395142Y-107128471D01*
X127347545Y-107140394D01*
X127299009Y-107147593D01*
X127250000Y-107150001D01*
X126750000Y-107150001D01*
X126700991Y-107147593D01*
X126652455Y-107140394D01*
X126604858Y-107128471D01*
X126558658Y-107111941D01*
X126514302Y-107090962D01*
X126472215Y-107065736D01*
X126432803Y-107036506D01*
X126396447Y-107003554D01*
X126363495Y-106967198D01*
X126334265Y-106927786D01*
X126309039Y-106885699D01*
X126288060Y-106841343D01*
X126271530Y-106795143D01*
X126259607Y-106747546D01*
X126252408Y-106699010D01*
X126250000Y-106650001D01*
X126250000Y-106649999D01*
X126252408Y-106600990D01*
X126259607Y-106552454D01*
X126271530Y-106504857D01*
X126288060Y-106458657D01*
X126309039Y-106414301D01*
X126334265Y-106372214D01*
X126363495Y-106332802D01*
X126396447Y-106296446D01*
X126432803Y-106263494D01*
X126472215Y-106234264D01*
X126514302Y-106209038D01*
X126558658Y-106188059D01*
X126604858Y-106171529D01*
X126652455Y-106159606D01*
X126700991Y-106152407D01*
X126750000Y-106149999D01*
X127250000Y-106149999D01*
X127299009Y-106152407D01*
X127299009Y-106152407D01*
G37*
D18*
X127000000Y-106650000D03*
D17*
G36*
X127299009Y-104852407D02*
X127347545Y-104859606D01*
X127395142Y-104871529D01*
X127441342Y-104888059D01*
X127485698Y-104909038D01*
X127527785Y-104934264D01*
X127567197Y-104963494D01*
X127603553Y-104996446D01*
X127636505Y-105032802D01*
X127665735Y-105072214D01*
X127690961Y-105114301D01*
X127711940Y-105158657D01*
X127728470Y-105204857D01*
X127740393Y-105252454D01*
X127747592Y-105300990D01*
X127750000Y-105349999D01*
X127750000Y-105350001D01*
X127747592Y-105399010D01*
X127740393Y-105447546D01*
X127728470Y-105495143D01*
X127711940Y-105541343D01*
X127690961Y-105585699D01*
X127665735Y-105627786D01*
X127636505Y-105667198D01*
X127603553Y-105703554D01*
X127567197Y-105736506D01*
X127527785Y-105765736D01*
X127485698Y-105790962D01*
X127441342Y-105811941D01*
X127395142Y-105828471D01*
X127347545Y-105840394D01*
X127299009Y-105847593D01*
X127250000Y-105850001D01*
X126750000Y-105850001D01*
X126700991Y-105847593D01*
X126652455Y-105840394D01*
X126604858Y-105828471D01*
X126558658Y-105811941D01*
X126514302Y-105790962D01*
X126472215Y-105765736D01*
X126432803Y-105736506D01*
X126396447Y-105703554D01*
X126363495Y-105667198D01*
X126334265Y-105627786D01*
X126309039Y-105585699D01*
X126288060Y-105541343D01*
X126271530Y-105495143D01*
X126259607Y-105447546D01*
X126252408Y-105399010D01*
X126250000Y-105350001D01*
X126250000Y-105349999D01*
X126252408Y-105300990D01*
X126259607Y-105252454D01*
X126271530Y-105204857D01*
X126288060Y-105158657D01*
X126309039Y-105114301D01*
X126334265Y-105072214D01*
X126363495Y-105032802D01*
X126396447Y-104996446D01*
X126432803Y-104963494D01*
X126472215Y-104934264D01*
X126514302Y-104909038D01*
X126558658Y-104888059D01*
X126604858Y-104871529D01*
X126652455Y-104859606D01*
X126700991Y-104852407D01*
X126750000Y-104849999D01*
X127250000Y-104849999D01*
X127299009Y-104852407D01*
X127299009Y-104852407D01*
G37*
D18*
X127000000Y-105350000D03*
G04 #@! TD*
D17*
G04 #@! TO.C,R9*
G36*
X121299009Y-104852407D02*
X121347545Y-104859606D01*
X121395142Y-104871529D01*
X121441342Y-104888059D01*
X121485698Y-104909038D01*
X121527785Y-104934264D01*
X121567197Y-104963494D01*
X121603553Y-104996446D01*
X121636505Y-105032802D01*
X121665735Y-105072214D01*
X121690961Y-105114301D01*
X121711940Y-105158657D01*
X121728470Y-105204857D01*
X121740393Y-105252454D01*
X121747592Y-105300990D01*
X121750000Y-105349999D01*
X121750000Y-105350001D01*
X121747592Y-105399010D01*
X121740393Y-105447546D01*
X121728470Y-105495143D01*
X121711940Y-105541343D01*
X121690961Y-105585699D01*
X121665735Y-105627786D01*
X121636505Y-105667198D01*
X121603553Y-105703554D01*
X121567197Y-105736506D01*
X121527785Y-105765736D01*
X121485698Y-105790962D01*
X121441342Y-105811941D01*
X121395142Y-105828471D01*
X121347545Y-105840394D01*
X121299009Y-105847593D01*
X121250000Y-105850001D01*
X120750000Y-105850001D01*
X120700991Y-105847593D01*
X120652455Y-105840394D01*
X120604858Y-105828471D01*
X120558658Y-105811941D01*
X120514302Y-105790962D01*
X120472215Y-105765736D01*
X120432803Y-105736506D01*
X120396447Y-105703554D01*
X120363495Y-105667198D01*
X120334265Y-105627786D01*
X120309039Y-105585699D01*
X120288060Y-105541343D01*
X120271530Y-105495143D01*
X120259607Y-105447546D01*
X120252408Y-105399010D01*
X120250000Y-105350001D01*
X120250000Y-105349999D01*
X120252408Y-105300990D01*
X120259607Y-105252454D01*
X120271530Y-105204857D01*
X120288060Y-105158657D01*
X120309039Y-105114301D01*
X120334265Y-105072214D01*
X120363495Y-105032802D01*
X120396447Y-104996446D01*
X120432803Y-104963494D01*
X120472215Y-104934264D01*
X120514302Y-104909038D01*
X120558658Y-104888059D01*
X120604858Y-104871529D01*
X120652455Y-104859606D01*
X120700991Y-104852407D01*
X120750000Y-104849999D01*
X121250000Y-104849999D01*
X121299009Y-104852407D01*
X121299009Y-104852407D01*
G37*
D18*
X121000000Y-105350000D03*
D17*
G36*
X121299009Y-106152407D02*
X121347545Y-106159606D01*
X121395142Y-106171529D01*
X121441342Y-106188059D01*
X121485698Y-106209038D01*
X121527785Y-106234264D01*
X121567197Y-106263494D01*
X121603553Y-106296446D01*
X121636505Y-106332802D01*
X121665735Y-106372214D01*
X121690961Y-106414301D01*
X121711940Y-106458657D01*
X121728470Y-106504857D01*
X121740393Y-106552454D01*
X121747592Y-106600990D01*
X121750000Y-106649999D01*
X121750000Y-106650001D01*
X121747592Y-106699010D01*
X121740393Y-106747546D01*
X121728470Y-106795143D01*
X121711940Y-106841343D01*
X121690961Y-106885699D01*
X121665735Y-106927786D01*
X121636505Y-106967198D01*
X121603553Y-107003554D01*
X121567197Y-107036506D01*
X121527785Y-107065736D01*
X121485698Y-107090962D01*
X121441342Y-107111941D01*
X121395142Y-107128471D01*
X121347545Y-107140394D01*
X121299009Y-107147593D01*
X121250000Y-107150001D01*
X120750000Y-107150001D01*
X120700991Y-107147593D01*
X120652455Y-107140394D01*
X120604858Y-107128471D01*
X120558658Y-107111941D01*
X120514302Y-107090962D01*
X120472215Y-107065736D01*
X120432803Y-107036506D01*
X120396447Y-107003554D01*
X120363495Y-106967198D01*
X120334265Y-106927786D01*
X120309039Y-106885699D01*
X120288060Y-106841343D01*
X120271530Y-106795143D01*
X120259607Y-106747546D01*
X120252408Y-106699010D01*
X120250000Y-106650001D01*
X120250000Y-106649999D01*
X120252408Y-106600990D01*
X120259607Y-106552454D01*
X120271530Y-106504857D01*
X120288060Y-106458657D01*
X120309039Y-106414301D01*
X120334265Y-106372214D01*
X120363495Y-106332802D01*
X120396447Y-106296446D01*
X120432803Y-106263494D01*
X120472215Y-106234264D01*
X120514302Y-106209038D01*
X120558658Y-106188059D01*
X120604858Y-106171529D01*
X120652455Y-106159606D01*
X120700991Y-106152407D01*
X120750000Y-106149999D01*
X121250000Y-106149999D01*
X121299009Y-106152407D01*
X121299009Y-106152407D01*
G37*
D18*
X121000000Y-106650000D03*
D16*
X121000000Y-106400000D03*
X121000000Y-105600000D03*
G04 #@! TD*
G04 #@! TO.C,R15*
X124000000Y-105600000D03*
X124000000Y-106400000D03*
D17*
G36*
X124299009Y-106152407D02*
X124347545Y-106159606D01*
X124395142Y-106171529D01*
X124441342Y-106188059D01*
X124485698Y-106209038D01*
X124527785Y-106234264D01*
X124567197Y-106263494D01*
X124603553Y-106296446D01*
X124636505Y-106332802D01*
X124665735Y-106372214D01*
X124690961Y-106414301D01*
X124711940Y-106458657D01*
X124728470Y-106504857D01*
X124740393Y-106552454D01*
X124747592Y-106600990D01*
X124750000Y-106649999D01*
X124750000Y-106650001D01*
X124747592Y-106699010D01*
X124740393Y-106747546D01*
X124728470Y-106795143D01*
X124711940Y-106841343D01*
X124690961Y-106885699D01*
X124665735Y-106927786D01*
X124636505Y-106967198D01*
X124603553Y-107003554D01*
X124567197Y-107036506D01*
X124527785Y-107065736D01*
X124485698Y-107090962D01*
X124441342Y-107111941D01*
X124395142Y-107128471D01*
X124347545Y-107140394D01*
X124299009Y-107147593D01*
X124250000Y-107150001D01*
X123750000Y-107150001D01*
X123700991Y-107147593D01*
X123652455Y-107140394D01*
X123604858Y-107128471D01*
X123558658Y-107111941D01*
X123514302Y-107090962D01*
X123472215Y-107065736D01*
X123432803Y-107036506D01*
X123396447Y-107003554D01*
X123363495Y-106967198D01*
X123334265Y-106927786D01*
X123309039Y-106885699D01*
X123288060Y-106841343D01*
X123271530Y-106795143D01*
X123259607Y-106747546D01*
X123252408Y-106699010D01*
X123250000Y-106650001D01*
X123250000Y-106649999D01*
X123252408Y-106600990D01*
X123259607Y-106552454D01*
X123271530Y-106504857D01*
X123288060Y-106458657D01*
X123309039Y-106414301D01*
X123334265Y-106372214D01*
X123363495Y-106332802D01*
X123396447Y-106296446D01*
X123432803Y-106263494D01*
X123472215Y-106234264D01*
X123514302Y-106209038D01*
X123558658Y-106188059D01*
X123604858Y-106171529D01*
X123652455Y-106159606D01*
X123700991Y-106152407D01*
X123750000Y-106149999D01*
X124250000Y-106149999D01*
X124299009Y-106152407D01*
X124299009Y-106152407D01*
G37*
D18*
X124000000Y-106650000D03*
D17*
G36*
X124299009Y-104852407D02*
X124347545Y-104859606D01*
X124395142Y-104871529D01*
X124441342Y-104888059D01*
X124485698Y-104909038D01*
X124527785Y-104934264D01*
X124567197Y-104963494D01*
X124603553Y-104996446D01*
X124636505Y-105032802D01*
X124665735Y-105072214D01*
X124690961Y-105114301D01*
X124711940Y-105158657D01*
X124728470Y-105204857D01*
X124740393Y-105252454D01*
X124747592Y-105300990D01*
X124750000Y-105349999D01*
X124750000Y-105350001D01*
X124747592Y-105399010D01*
X124740393Y-105447546D01*
X124728470Y-105495143D01*
X124711940Y-105541343D01*
X124690961Y-105585699D01*
X124665735Y-105627786D01*
X124636505Y-105667198D01*
X124603553Y-105703554D01*
X124567197Y-105736506D01*
X124527785Y-105765736D01*
X124485698Y-105790962D01*
X124441342Y-105811941D01*
X124395142Y-105828471D01*
X124347545Y-105840394D01*
X124299009Y-105847593D01*
X124250000Y-105850001D01*
X123750000Y-105850001D01*
X123700991Y-105847593D01*
X123652455Y-105840394D01*
X123604858Y-105828471D01*
X123558658Y-105811941D01*
X123514302Y-105790962D01*
X123472215Y-105765736D01*
X123432803Y-105736506D01*
X123396447Y-105703554D01*
X123363495Y-105667198D01*
X123334265Y-105627786D01*
X123309039Y-105585699D01*
X123288060Y-105541343D01*
X123271530Y-105495143D01*
X123259607Y-105447546D01*
X123252408Y-105399010D01*
X123250000Y-105350001D01*
X123250000Y-105349999D01*
X123252408Y-105300990D01*
X123259607Y-105252454D01*
X123271530Y-105204857D01*
X123288060Y-105158657D01*
X123309039Y-105114301D01*
X123334265Y-105072214D01*
X123363495Y-105032802D01*
X123396447Y-104996446D01*
X123432803Y-104963494D01*
X123472215Y-104934264D01*
X123514302Y-104909038D01*
X123558658Y-104888059D01*
X123604858Y-104871529D01*
X123652455Y-104859606D01*
X123700991Y-104852407D01*
X123750000Y-104849999D01*
X124250000Y-104849999D01*
X124299009Y-104852407D01*
X124299009Y-104852407D01*
G37*
D18*
X124000000Y-105350000D03*
G04 #@! TD*
D17*
G04 #@! TO.C,R35*
G36*
X128799009Y-142852407D02*
X128847545Y-142859606D01*
X128895142Y-142871529D01*
X128941342Y-142888059D01*
X128985698Y-142909038D01*
X129027785Y-142934264D01*
X129067197Y-142963494D01*
X129103553Y-142996446D01*
X129136505Y-143032802D01*
X129165735Y-143072214D01*
X129190961Y-143114301D01*
X129211940Y-143158657D01*
X129228470Y-143204857D01*
X129240393Y-143252454D01*
X129247592Y-143300990D01*
X129250000Y-143349999D01*
X129250000Y-143350001D01*
X129247592Y-143399010D01*
X129240393Y-143447546D01*
X129228470Y-143495143D01*
X129211940Y-143541343D01*
X129190961Y-143585699D01*
X129165735Y-143627786D01*
X129136505Y-143667198D01*
X129103553Y-143703554D01*
X129067197Y-143736506D01*
X129027785Y-143765736D01*
X128985698Y-143790962D01*
X128941342Y-143811941D01*
X128895142Y-143828471D01*
X128847545Y-143840394D01*
X128799009Y-143847593D01*
X128750000Y-143850001D01*
X128250000Y-143850001D01*
X128200991Y-143847593D01*
X128152455Y-143840394D01*
X128104858Y-143828471D01*
X128058658Y-143811941D01*
X128014302Y-143790962D01*
X127972215Y-143765736D01*
X127932803Y-143736506D01*
X127896447Y-143703554D01*
X127863495Y-143667198D01*
X127834265Y-143627786D01*
X127809039Y-143585699D01*
X127788060Y-143541343D01*
X127771530Y-143495143D01*
X127759607Y-143447546D01*
X127752408Y-143399010D01*
X127750000Y-143350001D01*
X127750000Y-143349999D01*
X127752408Y-143300990D01*
X127759607Y-143252454D01*
X127771530Y-143204857D01*
X127788060Y-143158657D01*
X127809039Y-143114301D01*
X127834265Y-143072214D01*
X127863495Y-143032802D01*
X127896447Y-142996446D01*
X127932803Y-142963494D01*
X127972215Y-142934264D01*
X128014302Y-142909038D01*
X128058658Y-142888059D01*
X128104858Y-142871529D01*
X128152455Y-142859606D01*
X128200991Y-142852407D01*
X128250000Y-142849999D01*
X128750000Y-142849999D01*
X128799009Y-142852407D01*
X128799009Y-142852407D01*
G37*
D18*
X128500000Y-143350000D03*
D17*
G36*
X128799009Y-144152407D02*
X128847545Y-144159606D01*
X128895142Y-144171529D01*
X128941342Y-144188059D01*
X128985698Y-144209038D01*
X129027785Y-144234264D01*
X129067197Y-144263494D01*
X129103553Y-144296446D01*
X129136505Y-144332802D01*
X129165735Y-144372214D01*
X129190961Y-144414301D01*
X129211940Y-144458657D01*
X129228470Y-144504857D01*
X129240393Y-144552454D01*
X129247592Y-144600990D01*
X129250000Y-144649999D01*
X129250000Y-144650001D01*
X129247592Y-144699010D01*
X129240393Y-144747546D01*
X129228470Y-144795143D01*
X129211940Y-144841343D01*
X129190961Y-144885699D01*
X129165735Y-144927786D01*
X129136505Y-144967198D01*
X129103553Y-145003554D01*
X129067197Y-145036506D01*
X129027785Y-145065736D01*
X128985698Y-145090962D01*
X128941342Y-145111941D01*
X128895142Y-145128471D01*
X128847545Y-145140394D01*
X128799009Y-145147593D01*
X128750000Y-145150001D01*
X128250000Y-145150001D01*
X128200991Y-145147593D01*
X128152455Y-145140394D01*
X128104858Y-145128471D01*
X128058658Y-145111941D01*
X128014302Y-145090962D01*
X127972215Y-145065736D01*
X127932803Y-145036506D01*
X127896447Y-145003554D01*
X127863495Y-144967198D01*
X127834265Y-144927786D01*
X127809039Y-144885699D01*
X127788060Y-144841343D01*
X127771530Y-144795143D01*
X127759607Y-144747546D01*
X127752408Y-144699010D01*
X127750000Y-144650001D01*
X127750000Y-144649999D01*
X127752408Y-144600990D01*
X127759607Y-144552454D01*
X127771530Y-144504857D01*
X127788060Y-144458657D01*
X127809039Y-144414301D01*
X127834265Y-144372214D01*
X127863495Y-144332802D01*
X127896447Y-144296446D01*
X127932803Y-144263494D01*
X127972215Y-144234264D01*
X128014302Y-144209038D01*
X128058658Y-144188059D01*
X128104858Y-144171529D01*
X128152455Y-144159606D01*
X128200991Y-144152407D01*
X128250000Y-144149999D01*
X128750000Y-144149999D01*
X128799009Y-144152407D01*
X128799009Y-144152407D01*
G37*
D18*
X128500000Y-144650000D03*
D16*
X128500000Y-144400000D03*
X128500000Y-143600000D03*
G04 #@! TD*
D19*
G04 #@! TO.C,MK4*
X195000000Y-105000000D03*
G04 #@! TD*
G04 #@! TO.C,MK1*
X195000000Y-145000000D03*
G04 #@! TD*
G04 #@! TO.C,MK2*
X105000000Y-105000000D03*
G04 #@! TD*
G04 #@! TO.C,MK3*
X105000000Y-145000000D03*
G04 #@! TD*
D20*
G04 #@! TO.C,C2*
X112700000Y-137000000D03*
X114300000Y-137000000D03*
G04 #@! TD*
D21*
G04 #@! TO.C,C1*
X112070000Y-111000000D03*
X114930000Y-111000000D03*
G04 #@! TD*
D22*
G04 #@! TO.C,C3*
X120500000Y-118930000D03*
X120500000Y-116070000D03*
G04 #@! TD*
D23*
G04 #@! TO.C,J1*
X105000000Y-119000000D03*
D24*
X105000000Y-113920000D03*
G04 #@! TD*
D23*
G04 #@! TO.C,J2*
X105000000Y-134620000D03*
D24*
X105000000Y-129540000D03*
G04 #@! TD*
D11*
G04 #@! TO.C,SW1*
X114300000Y-102000000D03*
D10*
X111760000Y-102000000D03*
G04 #@! TD*
D11*
G04 #@! TO.C,J16*
X121920000Y-148000000D03*
D10*
X119380000Y-148000000D03*
G04 #@! TD*
G04 #@! TO.C,J17*
X111760000Y-148000000D03*
D11*
X114300000Y-148000000D03*
G04 #@! TD*
D10*
G04 #@! TO.C,J4*
X172720000Y-102000000D03*
D11*
X175260000Y-102000000D03*
X177800000Y-102000000D03*
G04 #@! TD*
G04 #@! TO.C,J5*
X167640000Y-102000000D03*
X165100000Y-102000000D03*
D10*
X162560000Y-102000000D03*
G04 #@! TD*
G04 #@! TO.C,J3*
X183000000Y-102000000D03*
D11*
X185540000Y-102000000D03*
X188080000Y-102000000D03*
G04 #@! TD*
D10*
G04 #@! TO.C,J12*
X187960000Y-121920000D03*
D11*
X187960000Y-119380000D03*
X187960000Y-116840000D03*
X187960000Y-114300000D03*
G04 #@! TD*
G04 #@! TO.C,J19*
X198000000Y-121920000D03*
X198000000Y-119380000D03*
X198000000Y-116840000D03*
D10*
X198000000Y-114300000D03*
G04 #@! TD*
G04 #@! TO.C,J15*
X162560000Y-148000000D03*
D11*
X160020000Y-148000000D03*
X157480000Y-148000000D03*
X154940000Y-148000000D03*
G04 #@! TD*
G04 #@! TO.C,J14*
X167640000Y-148000000D03*
X170180000Y-148000000D03*
X172720000Y-148000000D03*
D10*
X175260000Y-148000000D03*
G04 #@! TD*
G04 #@! TO.C,J13*
X187960000Y-148000000D03*
D11*
X185420000Y-148000000D03*
X182880000Y-148000000D03*
X180340000Y-148000000D03*
G04 #@! TD*
D10*
G04 #@! TO.C,J11*
X198000000Y-127000000D03*
D11*
X198000000Y-129540000D03*
X198000000Y-132080000D03*
X198000000Y-134620000D03*
X198000000Y-137160000D03*
G04 #@! TD*
G04 #@! TO.C,J10*
X127000000Y-148000000D03*
X129540000Y-148000000D03*
X132080000Y-148000000D03*
X134620000Y-148000000D03*
D10*
X137160000Y-148000000D03*
G04 #@! TD*
G04 #@! TO.C,J7*
X119380000Y-102000000D03*
D11*
X121920000Y-102000000D03*
X124460000Y-102000000D03*
X127000000Y-102000000D03*
X129540000Y-102000000D03*
G04 #@! TD*
G04 #@! TO.C,J6*
X145160000Y-102000000D03*
X142620000Y-102000000D03*
X140080000Y-102000000D03*
X137540000Y-102000000D03*
D10*
X135000000Y-102000000D03*
G04 #@! TD*
G04 #@! TO.C,J9*
X150000000Y-148000000D03*
D11*
X147460000Y-148000000D03*
X144920000Y-148000000D03*
X142380000Y-148000000D03*
X139840000Y-148000000D03*
G04 #@! TD*
D16*
G04 #@! TO.C,JP1*
X151000000Y-113400000D03*
X151000000Y-112600000D03*
D17*
G36*
X151299009Y-111852407D02*
X151347545Y-111859606D01*
X151395142Y-111871529D01*
X151441342Y-111888059D01*
X151485698Y-111909038D01*
X151527785Y-111934264D01*
X151567197Y-111963494D01*
X151603553Y-111996446D01*
X151636505Y-112032802D01*
X151665735Y-112072214D01*
X151690961Y-112114301D01*
X151711940Y-112158657D01*
X151728470Y-112204857D01*
X151740393Y-112252454D01*
X151747592Y-112300990D01*
X151750000Y-112349999D01*
X151750000Y-112350001D01*
X151747592Y-112399010D01*
X151740393Y-112447546D01*
X151728470Y-112495143D01*
X151711940Y-112541343D01*
X151690961Y-112585699D01*
X151665735Y-112627786D01*
X151636505Y-112667198D01*
X151603553Y-112703554D01*
X151567197Y-112736506D01*
X151527785Y-112765736D01*
X151485698Y-112790962D01*
X151441342Y-112811941D01*
X151395142Y-112828471D01*
X151347545Y-112840394D01*
X151299009Y-112847593D01*
X151250000Y-112850001D01*
X150750000Y-112850001D01*
X150700991Y-112847593D01*
X150652455Y-112840394D01*
X150604858Y-112828471D01*
X150558658Y-112811941D01*
X150514302Y-112790962D01*
X150472215Y-112765736D01*
X150432803Y-112736506D01*
X150396447Y-112703554D01*
X150363495Y-112667198D01*
X150334265Y-112627786D01*
X150309039Y-112585699D01*
X150288060Y-112541343D01*
X150271530Y-112495143D01*
X150259607Y-112447546D01*
X150252408Y-112399010D01*
X150250000Y-112350001D01*
X150250000Y-112349999D01*
X150252408Y-112300990D01*
X150259607Y-112252454D01*
X150271530Y-112204857D01*
X150288060Y-112158657D01*
X150309039Y-112114301D01*
X150334265Y-112072214D01*
X150363495Y-112032802D01*
X150396447Y-111996446D01*
X150432803Y-111963494D01*
X150472215Y-111934264D01*
X150514302Y-111909038D01*
X150558658Y-111888059D01*
X150604858Y-111871529D01*
X150652455Y-111859606D01*
X150700991Y-111852407D01*
X150750000Y-111849999D01*
X151250000Y-111849999D01*
X151299009Y-111852407D01*
X151299009Y-111852407D01*
G37*
D18*
X151000000Y-112350000D03*
D17*
G36*
X151299009Y-113152407D02*
X151347545Y-113159606D01*
X151395142Y-113171529D01*
X151441342Y-113188059D01*
X151485698Y-113209038D01*
X151527785Y-113234264D01*
X151567197Y-113263494D01*
X151603553Y-113296446D01*
X151636505Y-113332802D01*
X151665735Y-113372214D01*
X151690961Y-113414301D01*
X151711940Y-113458657D01*
X151728470Y-113504857D01*
X151740393Y-113552454D01*
X151747592Y-113600990D01*
X151750000Y-113649999D01*
X151750000Y-113650001D01*
X151747592Y-113699010D01*
X151740393Y-113747546D01*
X151728470Y-113795143D01*
X151711940Y-113841343D01*
X151690961Y-113885699D01*
X151665735Y-113927786D01*
X151636505Y-113967198D01*
X151603553Y-114003554D01*
X151567197Y-114036506D01*
X151527785Y-114065736D01*
X151485698Y-114090962D01*
X151441342Y-114111941D01*
X151395142Y-114128471D01*
X151347545Y-114140394D01*
X151299009Y-114147593D01*
X151250000Y-114150001D01*
X150750000Y-114150001D01*
X150700991Y-114147593D01*
X150652455Y-114140394D01*
X150604858Y-114128471D01*
X150558658Y-114111941D01*
X150514302Y-114090962D01*
X150472215Y-114065736D01*
X150432803Y-114036506D01*
X150396447Y-114003554D01*
X150363495Y-113967198D01*
X150334265Y-113927786D01*
X150309039Y-113885699D01*
X150288060Y-113841343D01*
X150271530Y-113795143D01*
X150259607Y-113747546D01*
X150252408Y-113699010D01*
X150250000Y-113650001D01*
X150250000Y-113649999D01*
X150252408Y-113600990D01*
X150259607Y-113552454D01*
X150271530Y-113504857D01*
X150288060Y-113458657D01*
X150309039Y-113414301D01*
X150334265Y-113372214D01*
X150363495Y-113332802D01*
X150396447Y-113296446D01*
X150432803Y-113263494D01*
X150472215Y-113234264D01*
X150514302Y-113209038D01*
X150558658Y-113188059D01*
X150604858Y-113171529D01*
X150652455Y-113159606D01*
X150700991Y-113152407D01*
X150750000Y-113149999D01*
X151250000Y-113149999D01*
X151299009Y-113152407D01*
X151299009Y-113152407D01*
G37*
D18*
X151000000Y-113650000D03*
D25*
X151000000Y-113000000D03*
G04 #@! TD*
G04 #@! TO.C,JP2*
X154000000Y-113000000D03*
D17*
G36*
X154299009Y-113152407D02*
X154347545Y-113159606D01*
X154395142Y-113171529D01*
X154441342Y-113188059D01*
X154485698Y-113209038D01*
X154527785Y-113234264D01*
X154567197Y-113263494D01*
X154603553Y-113296446D01*
X154636505Y-113332802D01*
X154665735Y-113372214D01*
X154690961Y-113414301D01*
X154711940Y-113458657D01*
X154728470Y-113504857D01*
X154740393Y-113552454D01*
X154747592Y-113600990D01*
X154750000Y-113649999D01*
X154750000Y-113650001D01*
X154747592Y-113699010D01*
X154740393Y-113747546D01*
X154728470Y-113795143D01*
X154711940Y-113841343D01*
X154690961Y-113885699D01*
X154665735Y-113927786D01*
X154636505Y-113967198D01*
X154603553Y-114003554D01*
X154567197Y-114036506D01*
X154527785Y-114065736D01*
X154485698Y-114090962D01*
X154441342Y-114111941D01*
X154395142Y-114128471D01*
X154347545Y-114140394D01*
X154299009Y-114147593D01*
X154250000Y-114150001D01*
X153750000Y-114150001D01*
X153700991Y-114147593D01*
X153652455Y-114140394D01*
X153604858Y-114128471D01*
X153558658Y-114111941D01*
X153514302Y-114090962D01*
X153472215Y-114065736D01*
X153432803Y-114036506D01*
X153396447Y-114003554D01*
X153363495Y-113967198D01*
X153334265Y-113927786D01*
X153309039Y-113885699D01*
X153288060Y-113841343D01*
X153271530Y-113795143D01*
X153259607Y-113747546D01*
X153252408Y-113699010D01*
X153250000Y-113650001D01*
X153250000Y-113649999D01*
X153252408Y-113600990D01*
X153259607Y-113552454D01*
X153271530Y-113504857D01*
X153288060Y-113458657D01*
X153309039Y-113414301D01*
X153334265Y-113372214D01*
X153363495Y-113332802D01*
X153396447Y-113296446D01*
X153432803Y-113263494D01*
X153472215Y-113234264D01*
X153514302Y-113209038D01*
X153558658Y-113188059D01*
X153604858Y-113171529D01*
X153652455Y-113159606D01*
X153700991Y-113152407D01*
X153750000Y-113149999D01*
X154250000Y-113149999D01*
X154299009Y-113152407D01*
X154299009Y-113152407D01*
G37*
D18*
X154000000Y-113650000D03*
D17*
G36*
X154299009Y-111852407D02*
X154347545Y-111859606D01*
X154395142Y-111871529D01*
X154441342Y-111888059D01*
X154485698Y-111909038D01*
X154527785Y-111934264D01*
X154567197Y-111963494D01*
X154603553Y-111996446D01*
X154636505Y-112032802D01*
X154665735Y-112072214D01*
X154690961Y-112114301D01*
X154711940Y-112158657D01*
X154728470Y-112204857D01*
X154740393Y-112252454D01*
X154747592Y-112300990D01*
X154750000Y-112349999D01*
X154750000Y-112350001D01*
X154747592Y-112399010D01*
X154740393Y-112447546D01*
X154728470Y-112495143D01*
X154711940Y-112541343D01*
X154690961Y-112585699D01*
X154665735Y-112627786D01*
X154636505Y-112667198D01*
X154603553Y-112703554D01*
X154567197Y-112736506D01*
X154527785Y-112765736D01*
X154485698Y-112790962D01*
X154441342Y-112811941D01*
X154395142Y-112828471D01*
X154347545Y-112840394D01*
X154299009Y-112847593D01*
X154250000Y-112850001D01*
X153750000Y-112850001D01*
X153700991Y-112847593D01*
X153652455Y-112840394D01*
X153604858Y-112828471D01*
X153558658Y-112811941D01*
X153514302Y-112790962D01*
X153472215Y-112765736D01*
X153432803Y-112736506D01*
X153396447Y-112703554D01*
X153363495Y-112667198D01*
X153334265Y-112627786D01*
X153309039Y-112585699D01*
X153288060Y-112541343D01*
X153271530Y-112495143D01*
X153259607Y-112447546D01*
X153252408Y-112399010D01*
X153250000Y-112350001D01*
X153250000Y-112349999D01*
X153252408Y-112300990D01*
X153259607Y-112252454D01*
X153271530Y-112204857D01*
X153288060Y-112158657D01*
X153309039Y-112114301D01*
X153334265Y-112072214D01*
X153363495Y-112032802D01*
X153396447Y-111996446D01*
X153432803Y-111963494D01*
X153472215Y-111934264D01*
X153514302Y-111909038D01*
X153558658Y-111888059D01*
X153604858Y-111871529D01*
X153652455Y-111859606D01*
X153700991Y-111852407D01*
X153750000Y-111849999D01*
X154250000Y-111849999D01*
X154299009Y-111852407D01*
X154299009Y-111852407D01*
G37*
D18*
X154000000Y-112350000D03*
D16*
X154000000Y-112600000D03*
X154000000Y-113400000D03*
G04 #@! TD*
D12*
G04 #@! TO.C,D3*
X114500000Y-143200000D03*
X114500000Y-144800000D03*
G04 #@! TD*
D20*
G04 #@! TO.C,D1*
X121800000Y-113500000D03*
X120200000Y-113500000D03*
G04 #@! TD*
D26*
G04 #@! TO.C,U1*
X114300000Y-131095000D03*
X114300000Y-132365000D03*
X114300000Y-133635000D03*
X114300000Y-134905000D03*
X119700000Y-134905000D03*
X119700000Y-133635000D03*
X119700000Y-132365000D03*
X119700000Y-131095000D03*
G04 #@! TD*
D12*
G04 #@! TO.C,R8*
X138000000Y-105200000D03*
X138000000Y-106800000D03*
G04 #@! TD*
G04 #@! TO.C,R10*
X185500000Y-105200000D03*
X185500000Y-106800000D03*
G04 #@! TD*
G04 #@! TO.C,R11*
X175000000Y-105200000D03*
X175000000Y-106800000D03*
G04 #@! TD*
G04 #@! TO.C,R12*
X165000000Y-106800000D03*
X165000000Y-105200000D03*
G04 #@! TD*
D20*
G04 #@! TO.C,R13*
X120300000Y-122000000D03*
X118700000Y-122000000D03*
G04 #@! TD*
D12*
G04 #@! TO.C,R6*
X135000000Y-105200000D03*
X135000000Y-106800000D03*
G04 #@! TD*
D20*
G04 #@! TO.C,R16*
X116300000Y-122000000D03*
X114700000Y-122000000D03*
G04 #@! TD*
D12*
G04 #@! TO.C,R14*
X141000000Y-106800000D03*
X141000000Y-105200000D03*
G04 #@! TD*
G04 #@! TO.C,R5*
X168000000Y-105200000D03*
X168000000Y-106800000D03*
G04 #@! TD*
G04 #@! TO.C,R4*
X178000000Y-106800000D03*
X178000000Y-105200000D03*
G04 #@! TD*
D20*
G04 #@! TO.C,R2*
X123800000Y-110500000D03*
X122200000Y-110500000D03*
G04 #@! TD*
G04 #@! TO.C,R1*
X118200000Y-110500000D03*
X119800000Y-110500000D03*
G04 #@! TD*
D12*
G04 #@! TO.C,R20*
X120000000Y-127500000D03*
X120000000Y-129100000D03*
G04 #@! TD*
D20*
G04 #@! TO.C,R21*
X124300000Y-131500000D03*
X122700000Y-131500000D03*
G04 #@! TD*
G04 #@! TO.C,R22*
X124300000Y-134000000D03*
X122700000Y-134000000D03*
G04 #@! TD*
G04 #@! TO.C,R23*
X124200000Y-113500000D03*
X125800000Y-113500000D03*
G04 #@! TD*
D12*
G04 #@! TO.C,R19*
X122500000Y-129100000D03*
X122500000Y-127500000D03*
G04 #@! TD*
G04 #@! TO.C,R17*
X144000000Y-106800000D03*
X144000000Y-105200000D03*
G04 #@! TD*
G04 #@! TO.C,R3*
X188500000Y-105200000D03*
X188500000Y-106800000D03*
G04 #@! TD*
D20*
G04 #@! TO.C,R25*
X130834394Y-111796305D03*
X132434394Y-111796305D03*
G04 #@! TD*
G04 #@! TO.C,R27*
X132434394Y-109296305D03*
X130834394Y-109296305D03*
G04 #@! TD*
D12*
G04 #@! TO.C,R36*
X117000000Y-144800000D03*
X117000000Y-143200000D03*
G04 #@! TD*
G04 #@! TO.C,R37*
X187872598Y-142930903D03*
X187872598Y-144530903D03*
G04 #@! TD*
G04 #@! TO.C,R38*
X175000000Y-144800000D03*
X175000000Y-143200000D03*
G04 #@! TD*
G04 #@! TO.C,R39*
X162000000Y-143200000D03*
X162000000Y-144800000D03*
G04 #@! TD*
G04 #@! TO.C,R40*
X184872598Y-144530903D03*
X184872598Y-142930903D03*
G04 #@! TD*
G04 #@! TO.C,R41*
X172000000Y-143200000D03*
X172000000Y-144800000D03*
G04 #@! TD*
G04 #@! TO.C,R42*
X159000000Y-144800000D03*
X159000000Y-143200000D03*
G04 #@! TD*
G04 #@! TO.C,R43*
X119500000Y-143200000D03*
X119500000Y-144800000D03*
G04 #@! TD*
G04 #@! TO.C,R44*
X112000000Y-144800000D03*
X112000000Y-143200000D03*
G04 #@! TD*
D20*
G04 #@! TO.C,R26*
X134634394Y-113796305D03*
X136234394Y-113796305D03*
G04 #@! TD*
G04 #@! TO.C,R24*
X127800000Y-110500000D03*
X126200000Y-110500000D03*
G04 #@! TD*
D27*
G04 #@! TO.C,U3*
X133490000Y-132620000D03*
D28*
X136030000Y-132620000D03*
X138570000Y-132620000D03*
X141110000Y-132620000D03*
X143650000Y-132620000D03*
X146190000Y-132620000D03*
X148730000Y-132620000D03*
X151270000Y-132620000D03*
X153810000Y-132620000D03*
X156350000Y-132620000D03*
X158890000Y-132620000D03*
X161430000Y-132620000D03*
X163970000Y-132620000D03*
X146190000Y-119920000D03*
X143650000Y-119920000D03*
X141110000Y-119920000D03*
X136030000Y-119920000D03*
X133490000Y-117380000D03*
X136030000Y-117380000D03*
X138570000Y-117380000D03*
X141110000Y-117380000D03*
X143650000Y-117380000D03*
X146190000Y-117380000D03*
X148730000Y-117380000D03*
X151270000Y-117380000D03*
X153810000Y-117380000D03*
X156350000Y-117380000D03*
X158890000Y-117380000D03*
X161430000Y-117380000D03*
X163970000Y-117380000D03*
X166510000Y-132620000D03*
X166510000Y-130080000D03*
X166510000Y-127540000D03*
X166510000Y-117380000D03*
X166510000Y-119920000D03*
X166510000Y-122460000D03*
X166510000Y-125000000D03*
G04 #@! TD*
M02*
