G04 #@! TF.GenerationSoftware,KiCad,Pcbnew,5.0.0-rc2-unknown-2cb65f9~65~ubuntu17.10.1*
G04 #@! TF.CreationDate,2018-06-03T22:22:17-07:00*
G04 #@! TF.ProjectId,mcu_controller,6D63755F636F6E74726F6C6C65722E6B,rev?*
G04 #@! TF.SameCoordinates,Original*
G04 #@! TF.FileFunction,Copper,L1,Top,Signal*
G04 #@! TF.FilePolarity,Positive*
%FSLAX46Y46*%
G04 Gerber Fmt 4.6, Leading zero omitted, Abs format (unit mm)*
G04 Created by KiCad (PCBNEW 5.0.0-rc2-unknown-2cb65f9~65~ubuntu17.10.1) date Sun Jun  3 22:22:17 2018*
%MOMM*%
%LPD*%
G01*
G04 APERTURE LIST*
G04 #@! TA.AperFunction,ComponentPad*
%ADD10R,1.700000X1.700000*%
G04 #@! TD*
G04 #@! TA.AperFunction,ComponentPad*
%ADD11O,1.700000X1.700000*%
G04 #@! TD*
G04 #@! TA.AperFunction,SMDPad,CuDef*
%ADD12R,1.000000X0.820000*%
G04 #@! TD*
G04 #@! TA.AperFunction,SMDPad,CuDef*
%ADD13R,0.900000X0.800000*%
G04 #@! TD*
G04 #@! TA.AperFunction,SMDPad,CuDef*
%ADD14R,2.000000X3.800000*%
G04 #@! TD*
G04 #@! TA.AperFunction,SMDPad,CuDef*
%ADD15R,2.000000X1.500000*%
G04 #@! TD*
G04 #@! TA.AperFunction,SMDPad,CuDef*
%ADD16R,1.500000X0.500000*%
G04 #@! TD*
G04 #@! TA.AperFunction,Conductor*
%ADD17C,0.100000*%
G04 #@! TD*
G04 #@! TA.AperFunction,SMDPad,CuDef*
%ADD18C,1.000000*%
G04 #@! TD*
G04 #@! TA.AperFunction,SMDPad,CuDef*
%ADD19R,0.820000X1.000000*%
G04 #@! TD*
G04 #@! TA.AperFunction,SMDPad,CuDef*
%ADD20R,1.220000X1.800000*%
G04 #@! TD*
G04 #@! TA.AperFunction,SMDPad,CuDef*
%ADD21R,1.800000X1.220000*%
G04 #@! TD*
G04 #@! TA.AperFunction,ComponentPad*
%ADD22R,3.600000X1.800000*%
G04 #@! TD*
G04 #@! TA.AperFunction,ComponentPad*
%ADD23O,3.600000X1.800000*%
G04 #@! TD*
G04 #@! TA.AperFunction,SMDPad,CuDef*
%ADD24R,0.600000X0.500000*%
G04 #@! TD*
G04 #@! TA.AperFunction,SMDPad,CuDef*
%ADD25R,1.550000X0.600000*%
G04 #@! TD*
G04 #@! TA.AperFunction,ComponentPad*
%ADD26R,1.600000X1.600000*%
G04 #@! TD*
G04 #@! TA.AperFunction,ComponentPad*
%ADD27C,1.600000*%
G04 #@! TD*
G04 #@! TA.AperFunction,ViaPad*
%ADD28C,0.800000*%
G04 #@! TD*
G04 #@! TA.AperFunction,Conductor*
%ADD29C,0.500000*%
G04 #@! TD*
G04 #@! TA.AperFunction,Conductor*
%ADD30C,0.250000*%
G04 #@! TD*
G04 APERTURE END LIST*
D10*
G04 #@! TO.P,J20,1*
G04 #@! TO.N,/3V3*
X185420000Y-127000000D03*
D11*
G04 #@! TO.P,J20,2*
G04 #@! TO.N,GND*
X187960000Y-127000000D03*
G04 #@! TO.P,J20,3*
G04 #@! TO.N,/TX*
X185420000Y-129540000D03*
G04 #@! TO.P,J20,4*
G04 #@! TO.N,/RX*
X187960000Y-129540000D03*
G04 #@! TO.P,J20,5*
G04 #@! TO.N,/I2C_SCL*
X185420000Y-132080000D03*
G04 #@! TO.P,J20,6*
G04 #@! TO.N,/I2C_SDA*
X187960000Y-132080000D03*
G04 #@! TO.P,J20,7*
G04 #@! TO.N,/MISO*
X185420000Y-134620000D03*
G04 #@! TO.P,J20,8*
G04 #@! TO.N,/MOSI*
X187960000Y-134620000D03*
G04 #@! TO.P,J20,9*
G04 #@! TO.N,/SCK*
X185420000Y-137160000D03*
G04 #@! TO.P,J20,10*
G04 #@! TO.N,/RESET*
X187960000Y-137160000D03*
G04 #@! TD*
D12*
G04 #@! TO.P,R47,1*
G04 #@! TO.N,/mcu3_set*
X156000000Y-144800000D03*
G04 #@! TO.P,R47,2*
G04 #@! TO.N,Net-(R47-Pad2)*
X156000000Y-143200000D03*
G04 #@! TD*
G04 #@! TO.P,R46,2*
G04 #@! TO.N,Net-(R46-Pad2)*
X168900000Y-143200000D03*
G04 #@! TO.P,R46,1*
G04 #@! TO.N,/mcu2_set*
X168900000Y-144800000D03*
G04 #@! TD*
G04 #@! TO.P,R45,1*
G04 #@! TO.N,/mcu1_set*
X181900000Y-144500000D03*
G04 #@! TO.P,R45,2*
G04 #@! TO.N,Net-(R45-Pad2)*
X181900000Y-142900000D03*
G04 #@! TD*
D13*
G04 #@! TO.P,D2,1*
G04 #@! TO.N,Net-(D2-Pad1)*
X134634394Y-109346305D03*
G04 #@! TO.P,D2,2*
G04 #@! TO.N,Net-(D2-Pad2)*
X134634394Y-111246305D03*
G04 #@! TO.P,D2,3*
G04 #@! TO.N,GND*
X136634394Y-110296305D03*
G04 #@! TD*
D14*
G04 #@! TO.P,U2,2*
G04 #@! TO.N,+5V*
X110850000Y-116500000D03*
D15*
X117150000Y-116500000D03*
G04 #@! TO.P,U2,3*
G04 #@! TO.N,/BATT_SW*
X117150000Y-114200000D03*
G04 #@! TO.P,U2,1*
G04 #@! TO.N,Net-(R13-Pad2)*
X117150000Y-118800000D03*
G04 #@! TD*
D16*
G04 #@! TO.P,R29,2*
G04 #@! TO.N,Net-(R29-Pad2)*
X148000000Y-143600000D03*
G04 #@! TO.P,R29,1*
G04 #@! TO.N,/out1_ch2_en*
X148000000Y-144400000D03*
D17*
G04 #@! TD*
G04 #@! TO.N,/out1_ch2_en*
G04 #@! TO.C,R29*
G36*
X148299009Y-144152407D02*
X148347545Y-144159606D01*
X148395142Y-144171529D01*
X148441342Y-144188059D01*
X148485698Y-144209038D01*
X148527785Y-144234264D01*
X148567197Y-144263494D01*
X148603553Y-144296446D01*
X148636505Y-144332802D01*
X148665735Y-144372214D01*
X148690961Y-144414301D01*
X148711940Y-144458657D01*
X148728470Y-144504857D01*
X148740393Y-144552454D01*
X148747592Y-144600990D01*
X148750000Y-144649999D01*
X148750000Y-144650001D01*
X148747592Y-144699010D01*
X148740393Y-144747546D01*
X148728470Y-144795143D01*
X148711940Y-144841343D01*
X148690961Y-144885699D01*
X148665735Y-144927786D01*
X148636505Y-144967198D01*
X148603553Y-145003554D01*
X148567197Y-145036506D01*
X148527785Y-145065736D01*
X148485698Y-145090962D01*
X148441342Y-145111941D01*
X148395142Y-145128471D01*
X148347545Y-145140394D01*
X148299009Y-145147593D01*
X148250000Y-145150001D01*
X147750000Y-145150001D01*
X147700991Y-145147593D01*
X147652455Y-145140394D01*
X147604858Y-145128471D01*
X147558658Y-145111941D01*
X147514302Y-145090962D01*
X147472215Y-145065736D01*
X147432803Y-145036506D01*
X147396447Y-145003554D01*
X147363495Y-144967198D01*
X147334265Y-144927786D01*
X147309039Y-144885699D01*
X147288060Y-144841343D01*
X147271530Y-144795143D01*
X147259607Y-144747546D01*
X147252408Y-144699010D01*
X147250000Y-144650001D01*
X147250000Y-144649999D01*
X147252408Y-144600990D01*
X147259607Y-144552454D01*
X147271530Y-144504857D01*
X147288060Y-144458657D01*
X147309039Y-144414301D01*
X147334265Y-144372214D01*
X147363495Y-144332802D01*
X147396447Y-144296446D01*
X147432803Y-144263494D01*
X147472215Y-144234264D01*
X147514302Y-144209038D01*
X147558658Y-144188059D01*
X147604858Y-144171529D01*
X147652455Y-144159606D01*
X147700991Y-144152407D01*
X147750000Y-144149999D01*
X148250000Y-144149999D01*
X148299009Y-144152407D01*
X148299009Y-144152407D01*
G37*
D18*
G04 #@! TO.P,R29,1*
G04 #@! TO.N,/out1_ch2_en*
X148000000Y-144650000D03*
D17*
G04 #@! TD*
G04 #@! TO.N,Net-(R29-Pad2)*
G04 #@! TO.C,R29*
G36*
X148299009Y-142852407D02*
X148347545Y-142859606D01*
X148395142Y-142871529D01*
X148441342Y-142888059D01*
X148485698Y-142909038D01*
X148527785Y-142934264D01*
X148567197Y-142963494D01*
X148603553Y-142996446D01*
X148636505Y-143032802D01*
X148665735Y-143072214D01*
X148690961Y-143114301D01*
X148711940Y-143158657D01*
X148728470Y-143204857D01*
X148740393Y-143252454D01*
X148747592Y-143300990D01*
X148750000Y-143349999D01*
X148750000Y-143350001D01*
X148747592Y-143399010D01*
X148740393Y-143447546D01*
X148728470Y-143495143D01*
X148711940Y-143541343D01*
X148690961Y-143585699D01*
X148665735Y-143627786D01*
X148636505Y-143667198D01*
X148603553Y-143703554D01*
X148567197Y-143736506D01*
X148527785Y-143765736D01*
X148485698Y-143790962D01*
X148441342Y-143811941D01*
X148395142Y-143828471D01*
X148347545Y-143840394D01*
X148299009Y-143847593D01*
X148250000Y-143850001D01*
X147750000Y-143850001D01*
X147700991Y-143847593D01*
X147652455Y-143840394D01*
X147604858Y-143828471D01*
X147558658Y-143811941D01*
X147514302Y-143790962D01*
X147472215Y-143765736D01*
X147432803Y-143736506D01*
X147396447Y-143703554D01*
X147363495Y-143667198D01*
X147334265Y-143627786D01*
X147309039Y-143585699D01*
X147288060Y-143541343D01*
X147271530Y-143495143D01*
X147259607Y-143447546D01*
X147252408Y-143399010D01*
X147250000Y-143350001D01*
X147250000Y-143349999D01*
X147252408Y-143300990D01*
X147259607Y-143252454D01*
X147271530Y-143204857D01*
X147288060Y-143158657D01*
X147309039Y-143114301D01*
X147334265Y-143072214D01*
X147363495Y-143032802D01*
X147396447Y-142996446D01*
X147432803Y-142963494D01*
X147472215Y-142934264D01*
X147514302Y-142909038D01*
X147558658Y-142888059D01*
X147604858Y-142871529D01*
X147652455Y-142859606D01*
X147700991Y-142852407D01*
X147750000Y-142849999D01*
X148250000Y-142849999D01*
X148299009Y-142852407D01*
X148299009Y-142852407D01*
G37*
D18*
G04 #@! TO.P,R29,2*
G04 #@! TO.N,Net-(R29-Pad2)*
X148000000Y-143350000D03*
G04 #@! TD*
D17*
G04 #@! TO.N,Net-(R28-Pad2)*
G04 #@! TO.C,R28*
G36*
X151299009Y-142852407D02*
X151347545Y-142859606D01*
X151395142Y-142871529D01*
X151441342Y-142888059D01*
X151485698Y-142909038D01*
X151527785Y-142934264D01*
X151567197Y-142963494D01*
X151603553Y-142996446D01*
X151636505Y-143032802D01*
X151665735Y-143072214D01*
X151690961Y-143114301D01*
X151711940Y-143158657D01*
X151728470Y-143204857D01*
X151740393Y-143252454D01*
X151747592Y-143300990D01*
X151750000Y-143349999D01*
X151750000Y-143350001D01*
X151747592Y-143399010D01*
X151740393Y-143447546D01*
X151728470Y-143495143D01*
X151711940Y-143541343D01*
X151690961Y-143585699D01*
X151665735Y-143627786D01*
X151636505Y-143667198D01*
X151603553Y-143703554D01*
X151567197Y-143736506D01*
X151527785Y-143765736D01*
X151485698Y-143790962D01*
X151441342Y-143811941D01*
X151395142Y-143828471D01*
X151347545Y-143840394D01*
X151299009Y-143847593D01*
X151250000Y-143850001D01*
X150750000Y-143850001D01*
X150700991Y-143847593D01*
X150652455Y-143840394D01*
X150604858Y-143828471D01*
X150558658Y-143811941D01*
X150514302Y-143790962D01*
X150472215Y-143765736D01*
X150432803Y-143736506D01*
X150396447Y-143703554D01*
X150363495Y-143667198D01*
X150334265Y-143627786D01*
X150309039Y-143585699D01*
X150288060Y-143541343D01*
X150271530Y-143495143D01*
X150259607Y-143447546D01*
X150252408Y-143399010D01*
X150250000Y-143350001D01*
X150250000Y-143349999D01*
X150252408Y-143300990D01*
X150259607Y-143252454D01*
X150271530Y-143204857D01*
X150288060Y-143158657D01*
X150309039Y-143114301D01*
X150334265Y-143072214D01*
X150363495Y-143032802D01*
X150396447Y-142996446D01*
X150432803Y-142963494D01*
X150472215Y-142934264D01*
X150514302Y-142909038D01*
X150558658Y-142888059D01*
X150604858Y-142871529D01*
X150652455Y-142859606D01*
X150700991Y-142852407D01*
X150750000Y-142849999D01*
X151250000Y-142849999D01*
X151299009Y-142852407D01*
X151299009Y-142852407D01*
G37*
D18*
G04 #@! TD*
G04 #@! TO.P,R28,2*
G04 #@! TO.N,Net-(R28-Pad2)*
X151000000Y-143350000D03*
D17*
G04 #@! TO.N,/out1_ch1_en*
G04 #@! TO.C,R28*
G36*
X151299009Y-144152407D02*
X151347545Y-144159606D01*
X151395142Y-144171529D01*
X151441342Y-144188059D01*
X151485698Y-144209038D01*
X151527785Y-144234264D01*
X151567197Y-144263494D01*
X151603553Y-144296446D01*
X151636505Y-144332802D01*
X151665735Y-144372214D01*
X151690961Y-144414301D01*
X151711940Y-144458657D01*
X151728470Y-144504857D01*
X151740393Y-144552454D01*
X151747592Y-144600990D01*
X151750000Y-144649999D01*
X151750000Y-144650001D01*
X151747592Y-144699010D01*
X151740393Y-144747546D01*
X151728470Y-144795143D01*
X151711940Y-144841343D01*
X151690961Y-144885699D01*
X151665735Y-144927786D01*
X151636505Y-144967198D01*
X151603553Y-145003554D01*
X151567197Y-145036506D01*
X151527785Y-145065736D01*
X151485698Y-145090962D01*
X151441342Y-145111941D01*
X151395142Y-145128471D01*
X151347545Y-145140394D01*
X151299009Y-145147593D01*
X151250000Y-145150001D01*
X150750000Y-145150001D01*
X150700991Y-145147593D01*
X150652455Y-145140394D01*
X150604858Y-145128471D01*
X150558658Y-145111941D01*
X150514302Y-145090962D01*
X150472215Y-145065736D01*
X150432803Y-145036506D01*
X150396447Y-145003554D01*
X150363495Y-144967198D01*
X150334265Y-144927786D01*
X150309039Y-144885699D01*
X150288060Y-144841343D01*
X150271530Y-144795143D01*
X150259607Y-144747546D01*
X150252408Y-144699010D01*
X150250000Y-144650001D01*
X150250000Y-144649999D01*
X150252408Y-144600990D01*
X150259607Y-144552454D01*
X150271530Y-144504857D01*
X150288060Y-144458657D01*
X150309039Y-144414301D01*
X150334265Y-144372214D01*
X150363495Y-144332802D01*
X150396447Y-144296446D01*
X150432803Y-144263494D01*
X150472215Y-144234264D01*
X150514302Y-144209038D01*
X150558658Y-144188059D01*
X150604858Y-144171529D01*
X150652455Y-144159606D01*
X150700991Y-144152407D01*
X150750000Y-144149999D01*
X151250000Y-144149999D01*
X151299009Y-144152407D01*
X151299009Y-144152407D01*
G37*
D18*
G04 #@! TD*
G04 #@! TO.P,R28,1*
G04 #@! TO.N,/out1_ch1_en*
X151000000Y-144650000D03*
D16*
G04 #@! TO.P,R28,1*
G04 #@! TO.N,/out1_ch1_en*
X151000000Y-144400000D03*
G04 #@! TO.P,R28,2*
G04 #@! TO.N,Net-(R28-Pad2)*
X151000000Y-143600000D03*
G04 #@! TD*
G04 #@! TO.P,R7,2*
G04 #@! TO.N,/out2_ch1_i*
X118000000Y-105600000D03*
G04 #@! TO.P,R7,1*
G04 #@! TO.N,Net-(R7-Pad1)*
X118000000Y-106400000D03*
D17*
G04 #@! TD*
G04 #@! TO.N,Net-(R7-Pad1)*
G04 #@! TO.C,R7*
G36*
X118299009Y-106152407D02*
X118347545Y-106159606D01*
X118395142Y-106171529D01*
X118441342Y-106188059D01*
X118485698Y-106209038D01*
X118527785Y-106234264D01*
X118567197Y-106263494D01*
X118603553Y-106296446D01*
X118636505Y-106332802D01*
X118665735Y-106372214D01*
X118690961Y-106414301D01*
X118711940Y-106458657D01*
X118728470Y-106504857D01*
X118740393Y-106552454D01*
X118747592Y-106600990D01*
X118750000Y-106649999D01*
X118750000Y-106650001D01*
X118747592Y-106699010D01*
X118740393Y-106747546D01*
X118728470Y-106795143D01*
X118711940Y-106841343D01*
X118690961Y-106885699D01*
X118665735Y-106927786D01*
X118636505Y-106967198D01*
X118603553Y-107003554D01*
X118567197Y-107036506D01*
X118527785Y-107065736D01*
X118485698Y-107090962D01*
X118441342Y-107111941D01*
X118395142Y-107128471D01*
X118347545Y-107140394D01*
X118299009Y-107147593D01*
X118250000Y-107150001D01*
X117750000Y-107150001D01*
X117700991Y-107147593D01*
X117652455Y-107140394D01*
X117604858Y-107128471D01*
X117558658Y-107111941D01*
X117514302Y-107090962D01*
X117472215Y-107065736D01*
X117432803Y-107036506D01*
X117396447Y-107003554D01*
X117363495Y-106967198D01*
X117334265Y-106927786D01*
X117309039Y-106885699D01*
X117288060Y-106841343D01*
X117271530Y-106795143D01*
X117259607Y-106747546D01*
X117252408Y-106699010D01*
X117250000Y-106650001D01*
X117250000Y-106649999D01*
X117252408Y-106600990D01*
X117259607Y-106552454D01*
X117271530Y-106504857D01*
X117288060Y-106458657D01*
X117309039Y-106414301D01*
X117334265Y-106372214D01*
X117363495Y-106332802D01*
X117396447Y-106296446D01*
X117432803Y-106263494D01*
X117472215Y-106234264D01*
X117514302Y-106209038D01*
X117558658Y-106188059D01*
X117604858Y-106171529D01*
X117652455Y-106159606D01*
X117700991Y-106152407D01*
X117750000Y-106149999D01*
X118250000Y-106149999D01*
X118299009Y-106152407D01*
X118299009Y-106152407D01*
G37*
D18*
G04 #@! TO.P,R7,1*
G04 #@! TO.N,Net-(R7-Pad1)*
X118000000Y-106650000D03*
D17*
G04 #@! TD*
G04 #@! TO.N,/out2_ch1_i*
G04 #@! TO.C,R7*
G36*
X118299009Y-104852407D02*
X118347545Y-104859606D01*
X118395142Y-104871529D01*
X118441342Y-104888059D01*
X118485698Y-104909038D01*
X118527785Y-104934264D01*
X118567197Y-104963494D01*
X118603553Y-104996446D01*
X118636505Y-105032802D01*
X118665735Y-105072214D01*
X118690961Y-105114301D01*
X118711940Y-105158657D01*
X118728470Y-105204857D01*
X118740393Y-105252454D01*
X118747592Y-105300990D01*
X118750000Y-105349999D01*
X118750000Y-105350001D01*
X118747592Y-105399010D01*
X118740393Y-105447546D01*
X118728470Y-105495143D01*
X118711940Y-105541343D01*
X118690961Y-105585699D01*
X118665735Y-105627786D01*
X118636505Y-105667198D01*
X118603553Y-105703554D01*
X118567197Y-105736506D01*
X118527785Y-105765736D01*
X118485698Y-105790962D01*
X118441342Y-105811941D01*
X118395142Y-105828471D01*
X118347545Y-105840394D01*
X118299009Y-105847593D01*
X118250000Y-105850001D01*
X117750000Y-105850001D01*
X117700991Y-105847593D01*
X117652455Y-105840394D01*
X117604858Y-105828471D01*
X117558658Y-105811941D01*
X117514302Y-105790962D01*
X117472215Y-105765736D01*
X117432803Y-105736506D01*
X117396447Y-105703554D01*
X117363495Y-105667198D01*
X117334265Y-105627786D01*
X117309039Y-105585699D01*
X117288060Y-105541343D01*
X117271530Y-105495143D01*
X117259607Y-105447546D01*
X117252408Y-105399010D01*
X117250000Y-105350001D01*
X117250000Y-105349999D01*
X117252408Y-105300990D01*
X117259607Y-105252454D01*
X117271530Y-105204857D01*
X117288060Y-105158657D01*
X117309039Y-105114301D01*
X117334265Y-105072214D01*
X117363495Y-105032802D01*
X117396447Y-104996446D01*
X117432803Y-104963494D01*
X117472215Y-104934264D01*
X117514302Y-104909038D01*
X117558658Y-104888059D01*
X117604858Y-104871529D01*
X117652455Y-104859606D01*
X117700991Y-104852407D01*
X117750000Y-104849999D01*
X118250000Y-104849999D01*
X118299009Y-104852407D01*
X118299009Y-104852407D01*
G37*
D18*
G04 #@! TO.P,R7,2*
G04 #@! TO.N,/out2_ch1_i*
X118000000Y-105350000D03*
G04 #@! TD*
D17*
G04 #@! TO.N,Net-(R30-Pad2)*
G04 #@! TO.C,R30*
G36*
X145299009Y-142852407D02*
X145347545Y-142859606D01*
X145395142Y-142871529D01*
X145441342Y-142888059D01*
X145485698Y-142909038D01*
X145527785Y-142934264D01*
X145567197Y-142963494D01*
X145603553Y-142996446D01*
X145636505Y-143032802D01*
X145665735Y-143072214D01*
X145690961Y-143114301D01*
X145711940Y-143158657D01*
X145728470Y-143204857D01*
X145740393Y-143252454D01*
X145747592Y-143300990D01*
X145750000Y-143349999D01*
X145750000Y-143350001D01*
X145747592Y-143399010D01*
X145740393Y-143447546D01*
X145728470Y-143495143D01*
X145711940Y-143541343D01*
X145690961Y-143585699D01*
X145665735Y-143627786D01*
X145636505Y-143667198D01*
X145603553Y-143703554D01*
X145567197Y-143736506D01*
X145527785Y-143765736D01*
X145485698Y-143790962D01*
X145441342Y-143811941D01*
X145395142Y-143828471D01*
X145347545Y-143840394D01*
X145299009Y-143847593D01*
X145250000Y-143850001D01*
X144750000Y-143850001D01*
X144700991Y-143847593D01*
X144652455Y-143840394D01*
X144604858Y-143828471D01*
X144558658Y-143811941D01*
X144514302Y-143790962D01*
X144472215Y-143765736D01*
X144432803Y-143736506D01*
X144396447Y-143703554D01*
X144363495Y-143667198D01*
X144334265Y-143627786D01*
X144309039Y-143585699D01*
X144288060Y-143541343D01*
X144271530Y-143495143D01*
X144259607Y-143447546D01*
X144252408Y-143399010D01*
X144250000Y-143350001D01*
X144250000Y-143349999D01*
X144252408Y-143300990D01*
X144259607Y-143252454D01*
X144271530Y-143204857D01*
X144288060Y-143158657D01*
X144309039Y-143114301D01*
X144334265Y-143072214D01*
X144363495Y-143032802D01*
X144396447Y-142996446D01*
X144432803Y-142963494D01*
X144472215Y-142934264D01*
X144514302Y-142909038D01*
X144558658Y-142888059D01*
X144604858Y-142871529D01*
X144652455Y-142859606D01*
X144700991Y-142852407D01*
X144750000Y-142849999D01*
X145250000Y-142849999D01*
X145299009Y-142852407D01*
X145299009Y-142852407D01*
G37*
D18*
G04 #@! TD*
G04 #@! TO.P,R30,2*
G04 #@! TO.N,Net-(R30-Pad2)*
X145000000Y-143350000D03*
D17*
G04 #@! TO.N,/out1_ch3_en*
G04 #@! TO.C,R30*
G36*
X145299009Y-144152407D02*
X145347545Y-144159606D01*
X145395142Y-144171529D01*
X145441342Y-144188059D01*
X145485698Y-144209038D01*
X145527785Y-144234264D01*
X145567197Y-144263494D01*
X145603553Y-144296446D01*
X145636505Y-144332802D01*
X145665735Y-144372214D01*
X145690961Y-144414301D01*
X145711940Y-144458657D01*
X145728470Y-144504857D01*
X145740393Y-144552454D01*
X145747592Y-144600990D01*
X145750000Y-144649999D01*
X145750000Y-144650001D01*
X145747592Y-144699010D01*
X145740393Y-144747546D01*
X145728470Y-144795143D01*
X145711940Y-144841343D01*
X145690961Y-144885699D01*
X145665735Y-144927786D01*
X145636505Y-144967198D01*
X145603553Y-145003554D01*
X145567197Y-145036506D01*
X145527785Y-145065736D01*
X145485698Y-145090962D01*
X145441342Y-145111941D01*
X145395142Y-145128471D01*
X145347545Y-145140394D01*
X145299009Y-145147593D01*
X145250000Y-145150001D01*
X144750000Y-145150001D01*
X144700991Y-145147593D01*
X144652455Y-145140394D01*
X144604858Y-145128471D01*
X144558658Y-145111941D01*
X144514302Y-145090962D01*
X144472215Y-145065736D01*
X144432803Y-145036506D01*
X144396447Y-145003554D01*
X144363495Y-144967198D01*
X144334265Y-144927786D01*
X144309039Y-144885699D01*
X144288060Y-144841343D01*
X144271530Y-144795143D01*
X144259607Y-144747546D01*
X144252408Y-144699010D01*
X144250000Y-144650001D01*
X144250000Y-144649999D01*
X144252408Y-144600990D01*
X144259607Y-144552454D01*
X144271530Y-144504857D01*
X144288060Y-144458657D01*
X144309039Y-144414301D01*
X144334265Y-144372214D01*
X144363495Y-144332802D01*
X144396447Y-144296446D01*
X144432803Y-144263494D01*
X144472215Y-144234264D01*
X144514302Y-144209038D01*
X144558658Y-144188059D01*
X144604858Y-144171529D01*
X144652455Y-144159606D01*
X144700991Y-144152407D01*
X144750000Y-144149999D01*
X145250000Y-144149999D01*
X145299009Y-144152407D01*
X145299009Y-144152407D01*
G37*
D18*
G04 #@! TD*
G04 #@! TO.P,R30,1*
G04 #@! TO.N,/out1_ch3_en*
X145000000Y-144650000D03*
D16*
G04 #@! TO.P,R30,1*
G04 #@! TO.N,/out1_ch3_en*
X145000000Y-144400000D03*
G04 #@! TO.P,R30,2*
G04 #@! TO.N,Net-(R30-Pad2)*
X145000000Y-143600000D03*
G04 #@! TD*
G04 #@! TO.P,R31,2*
G04 #@! TO.N,Net-(R31-Pad2)*
X142000000Y-143600000D03*
G04 #@! TO.P,R31,1*
G04 #@! TO.N,/out1_ch4_en*
X142000000Y-144400000D03*
D17*
G04 #@! TD*
G04 #@! TO.N,/out1_ch4_en*
G04 #@! TO.C,R31*
G36*
X142299009Y-144152407D02*
X142347545Y-144159606D01*
X142395142Y-144171529D01*
X142441342Y-144188059D01*
X142485698Y-144209038D01*
X142527785Y-144234264D01*
X142567197Y-144263494D01*
X142603553Y-144296446D01*
X142636505Y-144332802D01*
X142665735Y-144372214D01*
X142690961Y-144414301D01*
X142711940Y-144458657D01*
X142728470Y-144504857D01*
X142740393Y-144552454D01*
X142747592Y-144600990D01*
X142750000Y-144649999D01*
X142750000Y-144650001D01*
X142747592Y-144699010D01*
X142740393Y-144747546D01*
X142728470Y-144795143D01*
X142711940Y-144841343D01*
X142690961Y-144885699D01*
X142665735Y-144927786D01*
X142636505Y-144967198D01*
X142603553Y-145003554D01*
X142567197Y-145036506D01*
X142527785Y-145065736D01*
X142485698Y-145090962D01*
X142441342Y-145111941D01*
X142395142Y-145128471D01*
X142347545Y-145140394D01*
X142299009Y-145147593D01*
X142250000Y-145150001D01*
X141750000Y-145150001D01*
X141700991Y-145147593D01*
X141652455Y-145140394D01*
X141604858Y-145128471D01*
X141558658Y-145111941D01*
X141514302Y-145090962D01*
X141472215Y-145065736D01*
X141432803Y-145036506D01*
X141396447Y-145003554D01*
X141363495Y-144967198D01*
X141334265Y-144927786D01*
X141309039Y-144885699D01*
X141288060Y-144841343D01*
X141271530Y-144795143D01*
X141259607Y-144747546D01*
X141252408Y-144699010D01*
X141250000Y-144650001D01*
X141250000Y-144649999D01*
X141252408Y-144600990D01*
X141259607Y-144552454D01*
X141271530Y-144504857D01*
X141288060Y-144458657D01*
X141309039Y-144414301D01*
X141334265Y-144372214D01*
X141363495Y-144332802D01*
X141396447Y-144296446D01*
X141432803Y-144263494D01*
X141472215Y-144234264D01*
X141514302Y-144209038D01*
X141558658Y-144188059D01*
X141604858Y-144171529D01*
X141652455Y-144159606D01*
X141700991Y-144152407D01*
X141750000Y-144149999D01*
X142250000Y-144149999D01*
X142299009Y-144152407D01*
X142299009Y-144152407D01*
G37*
D18*
G04 #@! TO.P,R31,1*
G04 #@! TO.N,/out1_ch4_en*
X142000000Y-144650000D03*
D17*
G04 #@! TD*
G04 #@! TO.N,Net-(R31-Pad2)*
G04 #@! TO.C,R31*
G36*
X142299009Y-142852407D02*
X142347545Y-142859606D01*
X142395142Y-142871529D01*
X142441342Y-142888059D01*
X142485698Y-142909038D01*
X142527785Y-142934264D01*
X142567197Y-142963494D01*
X142603553Y-142996446D01*
X142636505Y-143032802D01*
X142665735Y-143072214D01*
X142690961Y-143114301D01*
X142711940Y-143158657D01*
X142728470Y-143204857D01*
X142740393Y-143252454D01*
X142747592Y-143300990D01*
X142750000Y-143349999D01*
X142750000Y-143350001D01*
X142747592Y-143399010D01*
X142740393Y-143447546D01*
X142728470Y-143495143D01*
X142711940Y-143541343D01*
X142690961Y-143585699D01*
X142665735Y-143627786D01*
X142636505Y-143667198D01*
X142603553Y-143703554D01*
X142567197Y-143736506D01*
X142527785Y-143765736D01*
X142485698Y-143790962D01*
X142441342Y-143811941D01*
X142395142Y-143828471D01*
X142347545Y-143840394D01*
X142299009Y-143847593D01*
X142250000Y-143850001D01*
X141750000Y-143850001D01*
X141700991Y-143847593D01*
X141652455Y-143840394D01*
X141604858Y-143828471D01*
X141558658Y-143811941D01*
X141514302Y-143790962D01*
X141472215Y-143765736D01*
X141432803Y-143736506D01*
X141396447Y-143703554D01*
X141363495Y-143667198D01*
X141334265Y-143627786D01*
X141309039Y-143585699D01*
X141288060Y-143541343D01*
X141271530Y-143495143D01*
X141259607Y-143447546D01*
X141252408Y-143399010D01*
X141250000Y-143350001D01*
X141250000Y-143349999D01*
X141252408Y-143300990D01*
X141259607Y-143252454D01*
X141271530Y-143204857D01*
X141288060Y-143158657D01*
X141309039Y-143114301D01*
X141334265Y-143072214D01*
X141363495Y-143032802D01*
X141396447Y-142996446D01*
X141432803Y-142963494D01*
X141472215Y-142934264D01*
X141514302Y-142909038D01*
X141558658Y-142888059D01*
X141604858Y-142871529D01*
X141652455Y-142859606D01*
X141700991Y-142852407D01*
X141750000Y-142849999D01*
X142250000Y-142849999D01*
X142299009Y-142852407D01*
X142299009Y-142852407D01*
G37*
D18*
G04 #@! TO.P,R31,2*
G04 #@! TO.N,Net-(R31-Pad2)*
X142000000Y-143350000D03*
G04 #@! TD*
D17*
G04 #@! TO.N,Net-(R32-Pad2)*
G04 #@! TO.C,R32*
G36*
X137799009Y-142852407D02*
X137847545Y-142859606D01*
X137895142Y-142871529D01*
X137941342Y-142888059D01*
X137985698Y-142909038D01*
X138027785Y-142934264D01*
X138067197Y-142963494D01*
X138103553Y-142996446D01*
X138136505Y-143032802D01*
X138165735Y-143072214D01*
X138190961Y-143114301D01*
X138211940Y-143158657D01*
X138228470Y-143204857D01*
X138240393Y-143252454D01*
X138247592Y-143300990D01*
X138250000Y-143349999D01*
X138250000Y-143350001D01*
X138247592Y-143399010D01*
X138240393Y-143447546D01*
X138228470Y-143495143D01*
X138211940Y-143541343D01*
X138190961Y-143585699D01*
X138165735Y-143627786D01*
X138136505Y-143667198D01*
X138103553Y-143703554D01*
X138067197Y-143736506D01*
X138027785Y-143765736D01*
X137985698Y-143790962D01*
X137941342Y-143811941D01*
X137895142Y-143828471D01*
X137847545Y-143840394D01*
X137799009Y-143847593D01*
X137750000Y-143850001D01*
X137250000Y-143850001D01*
X137200991Y-143847593D01*
X137152455Y-143840394D01*
X137104858Y-143828471D01*
X137058658Y-143811941D01*
X137014302Y-143790962D01*
X136972215Y-143765736D01*
X136932803Y-143736506D01*
X136896447Y-143703554D01*
X136863495Y-143667198D01*
X136834265Y-143627786D01*
X136809039Y-143585699D01*
X136788060Y-143541343D01*
X136771530Y-143495143D01*
X136759607Y-143447546D01*
X136752408Y-143399010D01*
X136750000Y-143350001D01*
X136750000Y-143349999D01*
X136752408Y-143300990D01*
X136759607Y-143252454D01*
X136771530Y-143204857D01*
X136788060Y-143158657D01*
X136809039Y-143114301D01*
X136834265Y-143072214D01*
X136863495Y-143032802D01*
X136896447Y-142996446D01*
X136932803Y-142963494D01*
X136972215Y-142934264D01*
X137014302Y-142909038D01*
X137058658Y-142888059D01*
X137104858Y-142871529D01*
X137152455Y-142859606D01*
X137200991Y-142852407D01*
X137250000Y-142849999D01*
X137750000Y-142849999D01*
X137799009Y-142852407D01*
X137799009Y-142852407D01*
G37*
D18*
G04 #@! TD*
G04 #@! TO.P,R32,2*
G04 #@! TO.N,Net-(R32-Pad2)*
X137500000Y-143350000D03*
D17*
G04 #@! TO.N,/out2_ch1_en*
G04 #@! TO.C,R32*
G36*
X137799009Y-144152407D02*
X137847545Y-144159606D01*
X137895142Y-144171529D01*
X137941342Y-144188059D01*
X137985698Y-144209038D01*
X138027785Y-144234264D01*
X138067197Y-144263494D01*
X138103553Y-144296446D01*
X138136505Y-144332802D01*
X138165735Y-144372214D01*
X138190961Y-144414301D01*
X138211940Y-144458657D01*
X138228470Y-144504857D01*
X138240393Y-144552454D01*
X138247592Y-144600990D01*
X138250000Y-144649999D01*
X138250000Y-144650001D01*
X138247592Y-144699010D01*
X138240393Y-144747546D01*
X138228470Y-144795143D01*
X138211940Y-144841343D01*
X138190961Y-144885699D01*
X138165735Y-144927786D01*
X138136505Y-144967198D01*
X138103553Y-145003554D01*
X138067197Y-145036506D01*
X138027785Y-145065736D01*
X137985698Y-145090962D01*
X137941342Y-145111941D01*
X137895142Y-145128471D01*
X137847545Y-145140394D01*
X137799009Y-145147593D01*
X137750000Y-145150001D01*
X137250000Y-145150001D01*
X137200991Y-145147593D01*
X137152455Y-145140394D01*
X137104858Y-145128471D01*
X137058658Y-145111941D01*
X137014302Y-145090962D01*
X136972215Y-145065736D01*
X136932803Y-145036506D01*
X136896447Y-145003554D01*
X136863495Y-144967198D01*
X136834265Y-144927786D01*
X136809039Y-144885699D01*
X136788060Y-144841343D01*
X136771530Y-144795143D01*
X136759607Y-144747546D01*
X136752408Y-144699010D01*
X136750000Y-144650001D01*
X136750000Y-144649999D01*
X136752408Y-144600990D01*
X136759607Y-144552454D01*
X136771530Y-144504857D01*
X136788060Y-144458657D01*
X136809039Y-144414301D01*
X136834265Y-144372214D01*
X136863495Y-144332802D01*
X136896447Y-144296446D01*
X136932803Y-144263494D01*
X136972215Y-144234264D01*
X137014302Y-144209038D01*
X137058658Y-144188059D01*
X137104858Y-144171529D01*
X137152455Y-144159606D01*
X137200991Y-144152407D01*
X137250000Y-144149999D01*
X137750000Y-144149999D01*
X137799009Y-144152407D01*
X137799009Y-144152407D01*
G37*
D18*
G04 #@! TD*
G04 #@! TO.P,R32,1*
G04 #@! TO.N,/out2_ch1_en*
X137500000Y-144650000D03*
D16*
G04 #@! TO.P,R32,1*
G04 #@! TO.N,/out2_ch1_en*
X137500000Y-144400000D03*
G04 #@! TO.P,R32,2*
G04 #@! TO.N,Net-(R32-Pad2)*
X137500000Y-143600000D03*
G04 #@! TD*
G04 #@! TO.P,R33,2*
G04 #@! TO.N,Net-(R33-Pad2)*
X134500000Y-143600000D03*
G04 #@! TO.P,R33,1*
G04 #@! TO.N,/out2_ch2_en*
X134500000Y-144400000D03*
D17*
G04 #@! TD*
G04 #@! TO.N,/out2_ch2_en*
G04 #@! TO.C,R33*
G36*
X134799009Y-144152407D02*
X134847545Y-144159606D01*
X134895142Y-144171529D01*
X134941342Y-144188059D01*
X134985698Y-144209038D01*
X135027785Y-144234264D01*
X135067197Y-144263494D01*
X135103553Y-144296446D01*
X135136505Y-144332802D01*
X135165735Y-144372214D01*
X135190961Y-144414301D01*
X135211940Y-144458657D01*
X135228470Y-144504857D01*
X135240393Y-144552454D01*
X135247592Y-144600990D01*
X135250000Y-144649999D01*
X135250000Y-144650001D01*
X135247592Y-144699010D01*
X135240393Y-144747546D01*
X135228470Y-144795143D01*
X135211940Y-144841343D01*
X135190961Y-144885699D01*
X135165735Y-144927786D01*
X135136505Y-144967198D01*
X135103553Y-145003554D01*
X135067197Y-145036506D01*
X135027785Y-145065736D01*
X134985698Y-145090962D01*
X134941342Y-145111941D01*
X134895142Y-145128471D01*
X134847545Y-145140394D01*
X134799009Y-145147593D01*
X134750000Y-145150001D01*
X134250000Y-145150001D01*
X134200991Y-145147593D01*
X134152455Y-145140394D01*
X134104858Y-145128471D01*
X134058658Y-145111941D01*
X134014302Y-145090962D01*
X133972215Y-145065736D01*
X133932803Y-145036506D01*
X133896447Y-145003554D01*
X133863495Y-144967198D01*
X133834265Y-144927786D01*
X133809039Y-144885699D01*
X133788060Y-144841343D01*
X133771530Y-144795143D01*
X133759607Y-144747546D01*
X133752408Y-144699010D01*
X133750000Y-144650001D01*
X133750000Y-144649999D01*
X133752408Y-144600990D01*
X133759607Y-144552454D01*
X133771530Y-144504857D01*
X133788060Y-144458657D01*
X133809039Y-144414301D01*
X133834265Y-144372214D01*
X133863495Y-144332802D01*
X133896447Y-144296446D01*
X133932803Y-144263494D01*
X133972215Y-144234264D01*
X134014302Y-144209038D01*
X134058658Y-144188059D01*
X134104858Y-144171529D01*
X134152455Y-144159606D01*
X134200991Y-144152407D01*
X134250000Y-144149999D01*
X134750000Y-144149999D01*
X134799009Y-144152407D01*
X134799009Y-144152407D01*
G37*
D18*
G04 #@! TO.P,R33,1*
G04 #@! TO.N,/out2_ch2_en*
X134500000Y-144650000D03*
D17*
G04 #@! TD*
G04 #@! TO.N,Net-(R33-Pad2)*
G04 #@! TO.C,R33*
G36*
X134799009Y-142852407D02*
X134847545Y-142859606D01*
X134895142Y-142871529D01*
X134941342Y-142888059D01*
X134985698Y-142909038D01*
X135027785Y-142934264D01*
X135067197Y-142963494D01*
X135103553Y-142996446D01*
X135136505Y-143032802D01*
X135165735Y-143072214D01*
X135190961Y-143114301D01*
X135211940Y-143158657D01*
X135228470Y-143204857D01*
X135240393Y-143252454D01*
X135247592Y-143300990D01*
X135250000Y-143349999D01*
X135250000Y-143350001D01*
X135247592Y-143399010D01*
X135240393Y-143447546D01*
X135228470Y-143495143D01*
X135211940Y-143541343D01*
X135190961Y-143585699D01*
X135165735Y-143627786D01*
X135136505Y-143667198D01*
X135103553Y-143703554D01*
X135067197Y-143736506D01*
X135027785Y-143765736D01*
X134985698Y-143790962D01*
X134941342Y-143811941D01*
X134895142Y-143828471D01*
X134847545Y-143840394D01*
X134799009Y-143847593D01*
X134750000Y-143850001D01*
X134250000Y-143850001D01*
X134200991Y-143847593D01*
X134152455Y-143840394D01*
X134104858Y-143828471D01*
X134058658Y-143811941D01*
X134014302Y-143790962D01*
X133972215Y-143765736D01*
X133932803Y-143736506D01*
X133896447Y-143703554D01*
X133863495Y-143667198D01*
X133834265Y-143627786D01*
X133809039Y-143585699D01*
X133788060Y-143541343D01*
X133771530Y-143495143D01*
X133759607Y-143447546D01*
X133752408Y-143399010D01*
X133750000Y-143350001D01*
X133750000Y-143349999D01*
X133752408Y-143300990D01*
X133759607Y-143252454D01*
X133771530Y-143204857D01*
X133788060Y-143158657D01*
X133809039Y-143114301D01*
X133834265Y-143072214D01*
X133863495Y-143032802D01*
X133896447Y-142996446D01*
X133932803Y-142963494D01*
X133972215Y-142934264D01*
X134014302Y-142909038D01*
X134058658Y-142888059D01*
X134104858Y-142871529D01*
X134152455Y-142859606D01*
X134200991Y-142852407D01*
X134250000Y-142849999D01*
X134750000Y-142849999D01*
X134799009Y-142852407D01*
X134799009Y-142852407D01*
G37*
D18*
G04 #@! TO.P,R33,2*
G04 #@! TO.N,Net-(R33-Pad2)*
X134500000Y-143350000D03*
G04 #@! TD*
D17*
G04 #@! TO.N,Net-(R34-Pad2)*
G04 #@! TO.C,R34*
G36*
X131799009Y-142852407D02*
X131847545Y-142859606D01*
X131895142Y-142871529D01*
X131941342Y-142888059D01*
X131985698Y-142909038D01*
X132027785Y-142934264D01*
X132067197Y-142963494D01*
X132103553Y-142996446D01*
X132136505Y-143032802D01*
X132165735Y-143072214D01*
X132190961Y-143114301D01*
X132211940Y-143158657D01*
X132228470Y-143204857D01*
X132240393Y-143252454D01*
X132247592Y-143300990D01*
X132250000Y-143349999D01*
X132250000Y-143350001D01*
X132247592Y-143399010D01*
X132240393Y-143447546D01*
X132228470Y-143495143D01*
X132211940Y-143541343D01*
X132190961Y-143585699D01*
X132165735Y-143627786D01*
X132136505Y-143667198D01*
X132103553Y-143703554D01*
X132067197Y-143736506D01*
X132027785Y-143765736D01*
X131985698Y-143790962D01*
X131941342Y-143811941D01*
X131895142Y-143828471D01*
X131847545Y-143840394D01*
X131799009Y-143847593D01*
X131750000Y-143850001D01*
X131250000Y-143850001D01*
X131200991Y-143847593D01*
X131152455Y-143840394D01*
X131104858Y-143828471D01*
X131058658Y-143811941D01*
X131014302Y-143790962D01*
X130972215Y-143765736D01*
X130932803Y-143736506D01*
X130896447Y-143703554D01*
X130863495Y-143667198D01*
X130834265Y-143627786D01*
X130809039Y-143585699D01*
X130788060Y-143541343D01*
X130771530Y-143495143D01*
X130759607Y-143447546D01*
X130752408Y-143399010D01*
X130750000Y-143350001D01*
X130750000Y-143349999D01*
X130752408Y-143300990D01*
X130759607Y-143252454D01*
X130771530Y-143204857D01*
X130788060Y-143158657D01*
X130809039Y-143114301D01*
X130834265Y-143072214D01*
X130863495Y-143032802D01*
X130896447Y-142996446D01*
X130932803Y-142963494D01*
X130972215Y-142934264D01*
X131014302Y-142909038D01*
X131058658Y-142888059D01*
X131104858Y-142871529D01*
X131152455Y-142859606D01*
X131200991Y-142852407D01*
X131250000Y-142849999D01*
X131750000Y-142849999D01*
X131799009Y-142852407D01*
X131799009Y-142852407D01*
G37*
D18*
G04 #@! TD*
G04 #@! TO.P,R34,2*
G04 #@! TO.N,Net-(R34-Pad2)*
X131500000Y-143350000D03*
D17*
G04 #@! TO.N,/out2_ch3_en*
G04 #@! TO.C,R34*
G36*
X131799009Y-144152407D02*
X131847545Y-144159606D01*
X131895142Y-144171529D01*
X131941342Y-144188059D01*
X131985698Y-144209038D01*
X132027785Y-144234264D01*
X132067197Y-144263494D01*
X132103553Y-144296446D01*
X132136505Y-144332802D01*
X132165735Y-144372214D01*
X132190961Y-144414301D01*
X132211940Y-144458657D01*
X132228470Y-144504857D01*
X132240393Y-144552454D01*
X132247592Y-144600990D01*
X132250000Y-144649999D01*
X132250000Y-144650001D01*
X132247592Y-144699010D01*
X132240393Y-144747546D01*
X132228470Y-144795143D01*
X132211940Y-144841343D01*
X132190961Y-144885699D01*
X132165735Y-144927786D01*
X132136505Y-144967198D01*
X132103553Y-145003554D01*
X132067197Y-145036506D01*
X132027785Y-145065736D01*
X131985698Y-145090962D01*
X131941342Y-145111941D01*
X131895142Y-145128471D01*
X131847545Y-145140394D01*
X131799009Y-145147593D01*
X131750000Y-145150001D01*
X131250000Y-145150001D01*
X131200991Y-145147593D01*
X131152455Y-145140394D01*
X131104858Y-145128471D01*
X131058658Y-145111941D01*
X131014302Y-145090962D01*
X130972215Y-145065736D01*
X130932803Y-145036506D01*
X130896447Y-145003554D01*
X130863495Y-144967198D01*
X130834265Y-144927786D01*
X130809039Y-144885699D01*
X130788060Y-144841343D01*
X130771530Y-144795143D01*
X130759607Y-144747546D01*
X130752408Y-144699010D01*
X130750000Y-144650001D01*
X130750000Y-144649999D01*
X130752408Y-144600990D01*
X130759607Y-144552454D01*
X130771530Y-144504857D01*
X130788060Y-144458657D01*
X130809039Y-144414301D01*
X130834265Y-144372214D01*
X130863495Y-144332802D01*
X130896447Y-144296446D01*
X130932803Y-144263494D01*
X130972215Y-144234264D01*
X131014302Y-144209038D01*
X131058658Y-144188059D01*
X131104858Y-144171529D01*
X131152455Y-144159606D01*
X131200991Y-144152407D01*
X131250000Y-144149999D01*
X131750000Y-144149999D01*
X131799009Y-144152407D01*
X131799009Y-144152407D01*
G37*
D18*
G04 #@! TD*
G04 #@! TO.P,R34,1*
G04 #@! TO.N,/out2_ch3_en*
X131500000Y-144650000D03*
D16*
G04 #@! TO.P,R34,1*
G04 #@! TO.N,/out2_ch3_en*
X131500000Y-144400000D03*
G04 #@! TO.P,R34,2*
G04 #@! TO.N,Net-(R34-Pad2)*
X131500000Y-143600000D03*
G04 #@! TD*
G04 #@! TO.P,R18,2*
G04 #@! TO.N,/out2_ch4_i*
X127000000Y-105600000D03*
G04 #@! TO.P,R18,1*
G04 #@! TO.N,Net-(R18-Pad1)*
X127000000Y-106400000D03*
D17*
G04 #@! TD*
G04 #@! TO.N,Net-(R18-Pad1)*
G04 #@! TO.C,R18*
G36*
X127299009Y-106152407D02*
X127347545Y-106159606D01*
X127395142Y-106171529D01*
X127441342Y-106188059D01*
X127485698Y-106209038D01*
X127527785Y-106234264D01*
X127567197Y-106263494D01*
X127603553Y-106296446D01*
X127636505Y-106332802D01*
X127665735Y-106372214D01*
X127690961Y-106414301D01*
X127711940Y-106458657D01*
X127728470Y-106504857D01*
X127740393Y-106552454D01*
X127747592Y-106600990D01*
X127750000Y-106649999D01*
X127750000Y-106650001D01*
X127747592Y-106699010D01*
X127740393Y-106747546D01*
X127728470Y-106795143D01*
X127711940Y-106841343D01*
X127690961Y-106885699D01*
X127665735Y-106927786D01*
X127636505Y-106967198D01*
X127603553Y-107003554D01*
X127567197Y-107036506D01*
X127527785Y-107065736D01*
X127485698Y-107090962D01*
X127441342Y-107111941D01*
X127395142Y-107128471D01*
X127347545Y-107140394D01*
X127299009Y-107147593D01*
X127250000Y-107150001D01*
X126750000Y-107150001D01*
X126700991Y-107147593D01*
X126652455Y-107140394D01*
X126604858Y-107128471D01*
X126558658Y-107111941D01*
X126514302Y-107090962D01*
X126472215Y-107065736D01*
X126432803Y-107036506D01*
X126396447Y-107003554D01*
X126363495Y-106967198D01*
X126334265Y-106927786D01*
X126309039Y-106885699D01*
X126288060Y-106841343D01*
X126271530Y-106795143D01*
X126259607Y-106747546D01*
X126252408Y-106699010D01*
X126250000Y-106650001D01*
X126250000Y-106649999D01*
X126252408Y-106600990D01*
X126259607Y-106552454D01*
X126271530Y-106504857D01*
X126288060Y-106458657D01*
X126309039Y-106414301D01*
X126334265Y-106372214D01*
X126363495Y-106332802D01*
X126396447Y-106296446D01*
X126432803Y-106263494D01*
X126472215Y-106234264D01*
X126514302Y-106209038D01*
X126558658Y-106188059D01*
X126604858Y-106171529D01*
X126652455Y-106159606D01*
X126700991Y-106152407D01*
X126750000Y-106149999D01*
X127250000Y-106149999D01*
X127299009Y-106152407D01*
X127299009Y-106152407D01*
G37*
D18*
G04 #@! TO.P,R18,1*
G04 #@! TO.N,Net-(R18-Pad1)*
X127000000Y-106650000D03*
D17*
G04 #@! TD*
G04 #@! TO.N,/out2_ch4_i*
G04 #@! TO.C,R18*
G36*
X127299009Y-104852407D02*
X127347545Y-104859606D01*
X127395142Y-104871529D01*
X127441342Y-104888059D01*
X127485698Y-104909038D01*
X127527785Y-104934264D01*
X127567197Y-104963494D01*
X127603553Y-104996446D01*
X127636505Y-105032802D01*
X127665735Y-105072214D01*
X127690961Y-105114301D01*
X127711940Y-105158657D01*
X127728470Y-105204857D01*
X127740393Y-105252454D01*
X127747592Y-105300990D01*
X127750000Y-105349999D01*
X127750000Y-105350001D01*
X127747592Y-105399010D01*
X127740393Y-105447546D01*
X127728470Y-105495143D01*
X127711940Y-105541343D01*
X127690961Y-105585699D01*
X127665735Y-105627786D01*
X127636505Y-105667198D01*
X127603553Y-105703554D01*
X127567197Y-105736506D01*
X127527785Y-105765736D01*
X127485698Y-105790962D01*
X127441342Y-105811941D01*
X127395142Y-105828471D01*
X127347545Y-105840394D01*
X127299009Y-105847593D01*
X127250000Y-105850001D01*
X126750000Y-105850001D01*
X126700991Y-105847593D01*
X126652455Y-105840394D01*
X126604858Y-105828471D01*
X126558658Y-105811941D01*
X126514302Y-105790962D01*
X126472215Y-105765736D01*
X126432803Y-105736506D01*
X126396447Y-105703554D01*
X126363495Y-105667198D01*
X126334265Y-105627786D01*
X126309039Y-105585699D01*
X126288060Y-105541343D01*
X126271530Y-105495143D01*
X126259607Y-105447546D01*
X126252408Y-105399010D01*
X126250000Y-105350001D01*
X126250000Y-105349999D01*
X126252408Y-105300990D01*
X126259607Y-105252454D01*
X126271530Y-105204857D01*
X126288060Y-105158657D01*
X126309039Y-105114301D01*
X126334265Y-105072214D01*
X126363495Y-105032802D01*
X126396447Y-104996446D01*
X126432803Y-104963494D01*
X126472215Y-104934264D01*
X126514302Y-104909038D01*
X126558658Y-104888059D01*
X126604858Y-104871529D01*
X126652455Y-104859606D01*
X126700991Y-104852407D01*
X126750000Y-104849999D01*
X127250000Y-104849999D01*
X127299009Y-104852407D01*
X127299009Y-104852407D01*
G37*
D18*
G04 #@! TO.P,R18,2*
G04 #@! TO.N,/out2_ch4_i*
X127000000Y-105350000D03*
G04 #@! TD*
D17*
G04 #@! TO.N,/out2_ch2_i*
G04 #@! TO.C,R9*
G36*
X121299009Y-104852407D02*
X121347545Y-104859606D01*
X121395142Y-104871529D01*
X121441342Y-104888059D01*
X121485698Y-104909038D01*
X121527785Y-104934264D01*
X121567197Y-104963494D01*
X121603553Y-104996446D01*
X121636505Y-105032802D01*
X121665735Y-105072214D01*
X121690961Y-105114301D01*
X121711940Y-105158657D01*
X121728470Y-105204857D01*
X121740393Y-105252454D01*
X121747592Y-105300990D01*
X121750000Y-105349999D01*
X121750000Y-105350001D01*
X121747592Y-105399010D01*
X121740393Y-105447546D01*
X121728470Y-105495143D01*
X121711940Y-105541343D01*
X121690961Y-105585699D01*
X121665735Y-105627786D01*
X121636505Y-105667198D01*
X121603553Y-105703554D01*
X121567197Y-105736506D01*
X121527785Y-105765736D01*
X121485698Y-105790962D01*
X121441342Y-105811941D01*
X121395142Y-105828471D01*
X121347545Y-105840394D01*
X121299009Y-105847593D01*
X121250000Y-105850001D01*
X120750000Y-105850001D01*
X120700991Y-105847593D01*
X120652455Y-105840394D01*
X120604858Y-105828471D01*
X120558658Y-105811941D01*
X120514302Y-105790962D01*
X120472215Y-105765736D01*
X120432803Y-105736506D01*
X120396447Y-105703554D01*
X120363495Y-105667198D01*
X120334265Y-105627786D01*
X120309039Y-105585699D01*
X120288060Y-105541343D01*
X120271530Y-105495143D01*
X120259607Y-105447546D01*
X120252408Y-105399010D01*
X120250000Y-105350001D01*
X120250000Y-105349999D01*
X120252408Y-105300990D01*
X120259607Y-105252454D01*
X120271530Y-105204857D01*
X120288060Y-105158657D01*
X120309039Y-105114301D01*
X120334265Y-105072214D01*
X120363495Y-105032802D01*
X120396447Y-104996446D01*
X120432803Y-104963494D01*
X120472215Y-104934264D01*
X120514302Y-104909038D01*
X120558658Y-104888059D01*
X120604858Y-104871529D01*
X120652455Y-104859606D01*
X120700991Y-104852407D01*
X120750000Y-104849999D01*
X121250000Y-104849999D01*
X121299009Y-104852407D01*
X121299009Y-104852407D01*
G37*
D18*
G04 #@! TD*
G04 #@! TO.P,R9,2*
G04 #@! TO.N,/out2_ch2_i*
X121000000Y-105350000D03*
D17*
G04 #@! TO.N,Net-(R9-Pad1)*
G04 #@! TO.C,R9*
G36*
X121299009Y-106152407D02*
X121347545Y-106159606D01*
X121395142Y-106171529D01*
X121441342Y-106188059D01*
X121485698Y-106209038D01*
X121527785Y-106234264D01*
X121567197Y-106263494D01*
X121603553Y-106296446D01*
X121636505Y-106332802D01*
X121665735Y-106372214D01*
X121690961Y-106414301D01*
X121711940Y-106458657D01*
X121728470Y-106504857D01*
X121740393Y-106552454D01*
X121747592Y-106600990D01*
X121750000Y-106649999D01*
X121750000Y-106650001D01*
X121747592Y-106699010D01*
X121740393Y-106747546D01*
X121728470Y-106795143D01*
X121711940Y-106841343D01*
X121690961Y-106885699D01*
X121665735Y-106927786D01*
X121636505Y-106967198D01*
X121603553Y-107003554D01*
X121567197Y-107036506D01*
X121527785Y-107065736D01*
X121485698Y-107090962D01*
X121441342Y-107111941D01*
X121395142Y-107128471D01*
X121347545Y-107140394D01*
X121299009Y-107147593D01*
X121250000Y-107150001D01*
X120750000Y-107150001D01*
X120700991Y-107147593D01*
X120652455Y-107140394D01*
X120604858Y-107128471D01*
X120558658Y-107111941D01*
X120514302Y-107090962D01*
X120472215Y-107065736D01*
X120432803Y-107036506D01*
X120396447Y-107003554D01*
X120363495Y-106967198D01*
X120334265Y-106927786D01*
X120309039Y-106885699D01*
X120288060Y-106841343D01*
X120271530Y-106795143D01*
X120259607Y-106747546D01*
X120252408Y-106699010D01*
X120250000Y-106650001D01*
X120250000Y-106649999D01*
X120252408Y-106600990D01*
X120259607Y-106552454D01*
X120271530Y-106504857D01*
X120288060Y-106458657D01*
X120309039Y-106414301D01*
X120334265Y-106372214D01*
X120363495Y-106332802D01*
X120396447Y-106296446D01*
X120432803Y-106263494D01*
X120472215Y-106234264D01*
X120514302Y-106209038D01*
X120558658Y-106188059D01*
X120604858Y-106171529D01*
X120652455Y-106159606D01*
X120700991Y-106152407D01*
X120750000Y-106149999D01*
X121250000Y-106149999D01*
X121299009Y-106152407D01*
X121299009Y-106152407D01*
G37*
D18*
G04 #@! TD*
G04 #@! TO.P,R9,1*
G04 #@! TO.N,Net-(R9-Pad1)*
X121000000Y-106650000D03*
D16*
G04 #@! TO.P,R9,1*
G04 #@! TO.N,Net-(R9-Pad1)*
X121000000Y-106400000D03*
G04 #@! TO.P,R9,2*
G04 #@! TO.N,/out2_ch2_i*
X121000000Y-105600000D03*
G04 #@! TD*
G04 #@! TO.P,R15,2*
G04 #@! TO.N,/out2_ch3_i*
X124000000Y-105600000D03*
G04 #@! TO.P,R15,1*
G04 #@! TO.N,Net-(R15-Pad1)*
X124000000Y-106400000D03*
D17*
G04 #@! TD*
G04 #@! TO.N,Net-(R15-Pad1)*
G04 #@! TO.C,R15*
G36*
X124299009Y-106152407D02*
X124347545Y-106159606D01*
X124395142Y-106171529D01*
X124441342Y-106188059D01*
X124485698Y-106209038D01*
X124527785Y-106234264D01*
X124567197Y-106263494D01*
X124603553Y-106296446D01*
X124636505Y-106332802D01*
X124665735Y-106372214D01*
X124690961Y-106414301D01*
X124711940Y-106458657D01*
X124728470Y-106504857D01*
X124740393Y-106552454D01*
X124747592Y-106600990D01*
X124750000Y-106649999D01*
X124750000Y-106650001D01*
X124747592Y-106699010D01*
X124740393Y-106747546D01*
X124728470Y-106795143D01*
X124711940Y-106841343D01*
X124690961Y-106885699D01*
X124665735Y-106927786D01*
X124636505Y-106967198D01*
X124603553Y-107003554D01*
X124567197Y-107036506D01*
X124527785Y-107065736D01*
X124485698Y-107090962D01*
X124441342Y-107111941D01*
X124395142Y-107128471D01*
X124347545Y-107140394D01*
X124299009Y-107147593D01*
X124250000Y-107150001D01*
X123750000Y-107150001D01*
X123700991Y-107147593D01*
X123652455Y-107140394D01*
X123604858Y-107128471D01*
X123558658Y-107111941D01*
X123514302Y-107090962D01*
X123472215Y-107065736D01*
X123432803Y-107036506D01*
X123396447Y-107003554D01*
X123363495Y-106967198D01*
X123334265Y-106927786D01*
X123309039Y-106885699D01*
X123288060Y-106841343D01*
X123271530Y-106795143D01*
X123259607Y-106747546D01*
X123252408Y-106699010D01*
X123250000Y-106650001D01*
X123250000Y-106649999D01*
X123252408Y-106600990D01*
X123259607Y-106552454D01*
X123271530Y-106504857D01*
X123288060Y-106458657D01*
X123309039Y-106414301D01*
X123334265Y-106372214D01*
X123363495Y-106332802D01*
X123396447Y-106296446D01*
X123432803Y-106263494D01*
X123472215Y-106234264D01*
X123514302Y-106209038D01*
X123558658Y-106188059D01*
X123604858Y-106171529D01*
X123652455Y-106159606D01*
X123700991Y-106152407D01*
X123750000Y-106149999D01*
X124250000Y-106149999D01*
X124299009Y-106152407D01*
X124299009Y-106152407D01*
G37*
D18*
G04 #@! TO.P,R15,1*
G04 #@! TO.N,Net-(R15-Pad1)*
X124000000Y-106650000D03*
D17*
G04 #@! TD*
G04 #@! TO.N,/out2_ch3_i*
G04 #@! TO.C,R15*
G36*
X124299009Y-104852407D02*
X124347545Y-104859606D01*
X124395142Y-104871529D01*
X124441342Y-104888059D01*
X124485698Y-104909038D01*
X124527785Y-104934264D01*
X124567197Y-104963494D01*
X124603553Y-104996446D01*
X124636505Y-105032802D01*
X124665735Y-105072214D01*
X124690961Y-105114301D01*
X124711940Y-105158657D01*
X124728470Y-105204857D01*
X124740393Y-105252454D01*
X124747592Y-105300990D01*
X124750000Y-105349999D01*
X124750000Y-105350001D01*
X124747592Y-105399010D01*
X124740393Y-105447546D01*
X124728470Y-105495143D01*
X124711940Y-105541343D01*
X124690961Y-105585699D01*
X124665735Y-105627786D01*
X124636505Y-105667198D01*
X124603553Y-105703554D01*
X124567197Y-105736506D01*
X124527785Y-105765736D01*
X124485698Y-105790962D01*
X124441342Y-105811941D01*
X124395142Y-105828471D01*
X124347545Y-105840394D01*
X124299009Y-105847593D01*
X124250000Y-105850001D01*
X123750000Y-105850001D01*
X123700991Y-105847593D01*
X123652455Y-105840394D01*
X123604858Y-105828471D01*
X123558658Y-105811941D01*
X123514302Y-105790962D01*
X123472215Y-105765736D01*
X123432803Y-105736506D01*
X123396447Y-105703554D01*
X123363495Y-105667198D01*
X123334265Y-105627786D01*
X123309039Y-105585699D01*
X123288060Y-105541343D01*
X123271530Y-105495143D01*
X123259607Y-105447546D01*
X123252408Y-105399010D01*
X123250000Y-105350001D01*
X123250000Y-105349999D01*
X123252408Y-105300990D01*
X123259607Y-105252454D01*
X123271530Y-105204857D01*
X123288060Y-105158657D01*
X123309039Y-105114301D01*
X123334265Y-105072214D01*
X123363495Y-105032802D01*
X123396447Y-104996446D01*
X123432803Y-104963494D01*
X123472215Y-104934264D01*
X123514302Y-104909038D01*
X123558658Y-104888059D01*
X123604858Y-104871529D01*
X123652455Y-104859606D01*
X123700991Y-104852407D01*
X123750000Y-104849999D01*
X124250000Y-104849999D01*
X124299009Y-104852407D01*
X124299009Y-104852407D01*
G37*
D18*
G04 #@! TO.P,R15,2*
G04 #@! TO.N,/out2_ch3_i*
X124000000Y-105350000D03*
G04 #@! TD*
D17*
G04 #@! TO.N,Net-(R35-Pad2)*
G04 #@! TO.C,R35*
G36*
X128799009Y-142852407D02*
X128847545Y-142859606D01*
X128895142Y-142871529D01*
X128941342Y-142888059D01*
X128985698Y-142909038D01*
X129027785Y-142934264D01*
X129067197Y-142963494D01*
X129103553Y-142996446D01*
X129136505Y-143032802D01*
X129165735Y-143072214D01*
X129190961Y-143114301D01*
X129211940Y-143158657D01*
X129228470Y-143204857D01*
X129240393Y-143252454D01*
X129247592Y-143300990D01*
X129250000Y-143349999D01*
X129250000Y-143350001D01*
X129247592Y-143399010D01*
X129240393Y-143447546D01*
X129228470Y-143495143D01*
X129211940Y-143541343D01*
X129190961Y-143585699D01*
X129165735Y-143627786D01*
X129136505Y-143667198D01*
X129103553Y-143703554D01*
X129067197Y-143736506D01*
X129027785Y-143765736D01*
X128985698Y-143790962D01*
X128941342Y-143811941D01*
X128895142Y-143828471D01*
X128847545Y-143840394D01*
X128799009Y-143847593D01*
X128750000Y-143850001D01*
X128250000Y-143850001D01*
X128200991Y-143847593D01*
X128152455Y-143840394D01*
X128104858Y-143828471D01*
X128058658Y-143811941D01*
X128014302Y-143790962D01*
X127972215Y-143765736D01*
X127932803Y-143736506D01*
X127896447Y-143703554D01*
X127863495Y-143667198D01*
X127834265Y-143627786D01*
X127809039Y-143585699D01*
X127788060Y-143541343D01*
X127771530Y-143495143D01*
X127759607Y-143447546D01*
X127752408Y-143399010D01*
X127750000Y-143350001D01*
X127750000Y-143349999D01*
X127752408Y-143300990D01*
X127759607Y-143252454D01*
X127771530Y-143204857D01*
X127788060Y-143158657D01*
X127809039Y-143114301D01*
X127834265Y-143072214D01*
X127863495Y-143032802D01*
X127896447Y-142996446D01*
X127932803Y-142963494D01*
X127972215Y-142934264D01*
X128014302Y-142909038D01*
X128058658Y-142888059D01*
X128104858Y-142871529D01*
X128152455Y-142859606D01*
X128200991Y-142852407D01*
X128250000Y-142849999D01*
X128750000Y-142849999D01*
X128799009Y-142852407D01*
X128799009Y-142852407D01*
G37*
D18*
G04 #@! TD*
G04 #@! TO.P,R35,2*
G04 #@! TO.N,Net-(R35-Pad2)*
X128500000Y-143350000D03*
D17*
G04 #@! TO.N,/out2_ch4_en*
G04 #@! TO.C,R35*
G36*
X128799009Y-144152407D02*
X128847545Y-144159606D01*
X128895142Y-144171529D01*
X128941342Y-144188059D01*
X128985698Y-144209038D01*
X129027785Y-144234264D01*
X129067197Y-144263494D01*
X129103553Y-144296446D01*
X129136505Y-144332802D01*
X129165735Y-144372214D01*
X129190961Y-144414301D01*
X129211940Y-144458657D01*
X129228470Y-144504857D01*
X129240393Y-144552454D01*
X129247592Y-144600990D01*
X129250000Y-144649999D01*
X129250000Y-144650001D01*
X129247592Y-144699010D01*
X129240393Y-144747546D01*
X129228470Y-144795143D01*
X129211940Y-144841343D01*
X129190961Y-144885699D01*
X129165735Y-144927786D01*
X129136505Y-144967198D01*
X129103553Y-145003554D01*
X129067197Y-145036506D01*
X129027785Y-145065736D01*
X128985698Y-145090962D01*
X128941342Y-145111941D01*
X128895142Y-145128471D01*
X128847545Y-145140394D01*
X128799009Y-145147593D01*
X128750000Y-145150001D01*
X128250000Y-145150001D01*
X128200991Y-145147593D01*
X128152455Y-145140394D01*
X128104858Y-145128471D01*
X128058658Y-145111941D01*
X128014302Y-145090962D01*
X127972215Y-145065736D01*
X127932803Y-145036506D01*
X127896447Y-145003554D01*
X127863495Y-144967198D01*
X127834265Y-144927786D01*
X127809039Y-144885699D01*
X127788060Y-144841343D01*
X127771530Y-144795143D01*
X127759607Y-144747546D01*
X127752408Y-144699010D01*
X127750000Y-144650001D01*
X127750000Y-144649999D01*
X127752408Y-144600990D01*
X127759607Y-144552454D01*
X127771530Y-144504857D01*
X127788060Y-144458657D01*
X127809039Y-144414301D01*
X127834265Y-144372214D01*
X127863495Y-144332802D01*
X127896447Y-144296446D01*
X127932803Y-144263494D01*
X127972215Y-144234264D01*
X128014302Y-144209038D01*
X128058658Y-144188059D01*
X128104858Y-144171529D01*
X128152455Y-144159606D01*
X128200991Y-144152407D01*
X128250000Y-144149999D01*
X128750000Y-144149999D01*
X128799009Y-144152407D01*
X128799009Y-144152407D01*
G37*
D18*
G04 #@! TD*
G04 #@! TO.P,R35,1*
G04 #@! TO.N,/out2_ch4_en*
X128500000Y-144650000D03*
D16*
G04 #@! TO.P,R35,1*
G04 #@! TO.N,/out2_ch4_en*
X128500000Y-144400000D03*
G04 #@! TO.P,R35,2*
G04 #@! TO.N,Net-(R35-Pad2)*
X128500000Y-143600000D03*
G04 #@! TD*
D19*
G04 #@! TO.P,C2,2*
G04 #@! TO.N,GND*
X112700000Y-137000000D03*
G04 #@! TO.P,C2,1*
G04 #@! TO.N,+5V*
X114300000Y-137000000D03*
G04 #@! TD*
D20*
G04 #@! TO.P,C1,2*
G04 #@! TO.N,GND*
X112070000Y-111000000D03*
G04 #@! TO.P,C1,1*
G04 #@! TO.N,/BATT_SW*
X114930000Y-111000000D03*
G04 #@! TD*
D21*
G04 #@! TO.P,C3,2*
G04 #@! TO.N,GND*
X120500000Y-118930000D03*
G04 #@! TO.P,C3,1*
G04 #@! TO.N,+5V*
X120500000Y-116070000D03*
G04 #@! TD*
D22*
G04 #@! TO.P,J1,1*
G04 #@! TO.N,GND*
X105000000Y-119000000D03*
D23*
G04 #@! TO.P,J1,2*
G04 #@! TO.N,/BATT_IN*
X105000000Y-113920000D03*
G04 #@! TD*
D22*
G04 #@! TO.P,J2,1*
G04 #@! TO.N,Net-(J2-Pad1)*
X105000000Y-134620000D03*
D23*
G04 #@! TO.P,J2,2*
G04 #@! TO.N,Net-(J2-Pad2)*
X105000000Y-129540000D03*
G04 #@! TD*
D11*
G04 #@! TO.P,SW1,2*
G04 #@! TO.N,/BATT_SW*
X114300000Y-102000000D03*
D10*
G04 #@! TO.P,SW1,1*
G04 #@! TO.N,/BATT_IN*
X111760000Y-102000000D03*
G04 #@! TD*
D11*
G04 #@! TO.P,J16,2*
G04 #@! TO.N,GND*
X121920000Y-148000000D03*
D10*
G04 #@! TO.P,J16,1*
G04 #@! TO.N,/out1_en*
X119380000Y-148000000D03*
G04 #@! TD*
G04 #@! TO.P,J17,1*
G04 #@! TO.N,/out2_en*
X111760000Y-148000000D03*
D11*
G04 #@! TO.P,J17,2*
G04 #@! TO.N,GND*
X114300000Y-148000000D03*
G04 #@! TD*
D10*
G04 #@! TO.P,J4,1*
G04 #@! TO.N,GND*
X172720000Y-102000000D03*
D11*
G04 #@! TO.P,J4,2*
G04 #@! TO.N,/chrg2_i*
X175260000Y-102000000D03*
G04 #@! TO.P,J4,3*
G04 #@! TO.N,/chrg2_v*
X177800000Y-102000000D03*
G04 #@! TD*
G04 #@! TO.P,J5,3*
G04 #@! TO.N,/chrg3_v*
X167640000Y-102000000D03*
G04 #@! TO.P,J5,2*
G04 #@! TO.N,/chrg3_i*
X165100000Y-102000000D03*
D10*
G04 #@! TO.P,J5,1*
G04 #@! TO.N,GND*
X162560000Y-102000000D03*
G04 #@! TD*
G04 #@! TO.P,J3,1*
G04 #@! TO.N,GND*
X183000000Y-102000000D03*
D11*
G04 #@! TO.P,J3,2*
G04 #@! TO.N,/chrg1_i*
X185540000Y-102000000D03*
G04 #@! TO.P,J3,3*
G04 #@! TO.N,/chrg1_v*
X188080000Y-102000000D03*
G04 #@! TD*
D10*
G04 #@! TO.P,J12,1*
G04 #@! TO.N,/3V3*
X187960000Y-121920000D03*
D11*
G04 #@! TO.P,J12,2*
G04 #@! TO.N,/I2C_SCL*
X187960000Y-119380000D03*
G04 #@! TO.P,J12,3*
G04 #@! TO.N,/I2C_SDA*
X187960000Y-116840000D03*
G04 #@! TO.P,J12,4*
G04 #@! TO.N,GND*
X187960000Y-114300000D03*
G04 #@! TD*
G04 #@! TO.P,J19,4*
G04 #@! TO.N,GND*
X198000000Y-121920000D03*
G04 #@! TO.P,J19,3*
G04 #@! TO.N,/RX*
X198000000Y-119380000D03*
G04 #@! TO.P,J19,2*
G04 #@! TO.N,/TX*
X198000000Y-116840000D03*
D10*
G04 #@! TO.P,J19,1*
G04 #@! TO.N,/3V3*
X198000000Y-114300000D03*
G04 #@! TD*
G04 #@! TO.P,J15,1*
G04 #@! TO.N,/chrg3_en*
X162560000Y-148000000D03*
D11*
G04 #@! TO.P,J15,2*
G04 #@! TO.N,/trickle3_dis*
X160020000Y-148000000D03*
G04 #@! TO.P,J15,3*
G04 #@! TO.N,/mcu3_set*
X157480000Y-148000000D03*
G04 #@! TO.P,J15,4*
G04 #@! TO.N,GND*
X154940000Y-148000000D03*
G04 #@! TD*
G04 #@! TO.P,J14,4*
G04 #@! TO.N,GND*
X167640000Y-148000000D03*
G04 #@! TO.P,J14,3*
G04 #@! TO.N,/mcu2_set*
X170180000Y-148000000D03*
G04 #@! TO.P,J14,2*
G04 #@! TO.N,/trickle2_dis*
X172720000Y-148000000D03*
D10*
G04 #@! TO.P,J14,1*
G04 #@! TO.N,/chrg2_en*
X175260000Y-148000000D03*
G04 #@! TD*
G04 #@! TO.P,J13,1*
G04 #@! TO.N,/chrg1_en*
X187960000Y-148000000D03*
D11*
G04 #@! TO.P,J13,2*
G04 #@! TO.N,/trickle1_dis*
X185420000Y-148000000D03*
G04 #@! TO.P,J13,3*
G04 #@! TO.N,/mcu1_set*
X182880000Y-148000000D03*
G04 #@! TO.P,J13,4*
G04 #@! TO.N,GND*
X180340000Y-148000000D03*
G04 #@! TD*
D10*
G04 #@! TO.P,J11,1*
G04 #@! TO.N,/3V3*
X198000000Y-127000000D03*
D11*
G04 #@! TO.P,J11,2*
G04 #@! TO.N,/MOSI*
X198000000Y-129540000D03*
G04 #@! TO.P,J11,3*
G04 #@! TO.N,/MISO*
X198000000Y-132080000D03*
G04 #@! TO.P,J11,4*
G04 #@! TO.N,/SCK*
X198000000Y-134620000D03*
G04 #@! TO.P,J11,5*
G04 #@! TO.N,GND*
X198000000Y-137160000D03*
G04 #@! TD*
G04 #@! TO.P,J10,5*
G04 #@! TO.N,GND*
X127000000Y-148000000D03*
G04 #@! TO.P,J10,4*
G04 #@! TO.N,/out2_ch4_en*
X129540000Y-148000000D03*
G04 #@! TO.P,J10,3*
G04 #@! TO.N,/out2_ch3_en*
X132080000Y-148000000D03*
G04 #@! TO.P,J10,2*
G04 #@! TO.N,/out2_ch2_en*
X134620000Y-148000000D03*
D10*
G04 #@! TO.P,J10,1*
G04 #@! TO.N,/out2_ch1_en*
X137160000Y-148000000D03*
G04 #@! TD*
G04 #@! TO.P,J7,1*
G04 #@! TO.N,/out2_ch1_i*
X119380000Y-102000000D03*
D11*
G04 #@! TO.P,J7,2*
G04 #@! TO.N,/out2_ch2_i*
X121920000Y-102000000D03*
G04 #@! TO.P,J7,3*
G04 #@! TO.N,/out2_ch3_i*
X124460000Y-102000000D03*
G04 #@! TO.P,J7,4*
G04 #@! TO.N,/out2_ch4_i*
X127000000Y-102000000D03*
G04 #@! TO.P,J7,5*
G04 #@! TO.N,GND*
X129540000Y-102000000D03*
G04 #@! TD*
G04 #@! TO.P,J6,5*
G04 #@! TO.N,GND*
X145160000Y-102000000D03*
G04 #@! TO.P,J6,4*
G04 #@! TO.N,/out1_ch4_i*
X142620000Y-102000000D03*
G04 #@! TO.P,J6,3*
G04 #@! TO.N,/out1_ch3_i*
X140080000Y-102000000D03*
G04 #@! TO.P,J6,2*
G04 #@! TO.N,/out1_ch2_i*
X137540000Y-102000000D03*
D10*
G04 #@! TO.P,J6,1*
G04 #@! TO.N,/out1_ch1_i*
X135000000Y-102000000D03*
G04 #@! TD*
G04 #@! TO.P,J9,1*
G04 #@! TO.N,/out1_ch1_en*
X150000000Y-148000000D03*
D11*
G04 #@! TO.P,J9,2*
G04 #@! TO.N,/out1_ch2_en*
X147460000Y-148000000D03*
G04 #@! TO.P,J9,3*
G04 #@! TO.N,/out1_ch3_en*
X144920000Y-148000000D03*
G04 #@! TO.P,J9,4*
G04 #@! TO.N,/out1_ch4_en*
X142380000Y-148000000D03*
G04 #@! TO.P,J9,5*
G04 #@! TO.N,GND*
X139840000Y-148000000D03*
G04 #@! TD*
D16*
G04 #@! TO.P,JP1,2*
G04 #@! TO.N,/A5*
X151000000Y-113400000D03*
G04 #@! TO.P,JP1,1*
G04 #@! TO.N,/I2C_SCL*
X151000000Y-112600000D03*
D17*
G04 #@! TD*
G04 #@! TO.N,/I2C_SCL*
G04 #@! TO.C,JP1*
G36*
X151299009Y-111852407D02*
X151347545Y-111859606D01*
X151395142Y-111871529D01*
X151441342Y-111888059D01*
X151485698Y-111909038D01*
X151527785Y-111934264D01*
X151567197Y-111963494D01*
X151603553Y-111996446D01*
X151636505Y-112032802D01*
X151665735Y-112072214D01*
X151690961Y-112114301D01*
X151711940Y-112158657D01*
X151728470Y-112204857D01*
X151740393Y-112252454D01*
X151747592Y-112300990D01*
X151750000Y-112349999D01*
X151750000Y-112350001D01*
X151747592Y-112399010D01*
X151740393Y-112447546D01*
X151728470Y-112495143D01*
X151711940Y-112541343D01*
X151690961Y-112585699D01*
X151665735Y-112627786D01*
X151636505Y-112667198D01*
X151603553Y-112703554D01*
X151567197Y-112736506D01*
X151527785Y-112765736D01*
X151485698Y-112790962D01*
X151441342Y-112811941D01*
X151395142Y-112828471D01*
X151347545Y-112840394D01*
X151299009Y-112847593D01*
X151250000Y-112850001D01*
X150750000Y-112850001D01*
X150700991Y-112847593D01*
X150652455Y-112840394D01*
X150604858Y-112828471D01*
X150558658Y-112811941D01*
X150514302Y-112790962D01*
X150472215Y-112765736D01*
X150432803Y-112736506D01*
X150396447Y-112703554D01*
X150363495Y-112667198D01*
X150334265Y-112627786D01*
X150309039Y-112585699D01*
X150288060Y-112541343D01*
X150271530Y-112495143D01*
X150259607Y-112447546D01*
X150252408Y-112399010D01*
X150250000Y-112350001D01*
X150250000Y-112349999D01*
X150252408Y-112300990D01*
X150259607Y-112252454D01*
X150271530Y-112204857D01*
X150288060Y-112158657D01*
X150309039Y-112114301D01*
X150334265Y-112072214D01*
X150363495Y-112032802D01*
X150396447Y-111996446D01*
X150432803Y-111963494D01*
X150472215Y-111934264D01*
X150514302Y-111909038D01*
X150558658Y-111888059D01*
X150604858Y-111871529D01*
X150652455Y-111859606D01*
X150700991Y-111852407D01*
X150750000Y-111849999D01*
X151250000Y-111849999D01*
X151299009Y-111852407D01*
X151299009Y-111852407D01*
G37*
D18*
G04 #@! TO.P,JP1,1*
G04 #@! TO.N,/I2C_SCL*
X151000000Y-112350000D03*
D17*
G04 #@! TD*
G04 #@! TO.N,/A5*
G04 #@! TO.C,JP1*
G36*
X151299009Y-113152407D02*
X151347545Y-113159606D01*
X151395142Y-113171529D01*
X151441342Y-113188059D01*
X151485698Y-113209038D01*
X151527785Y-113234264D01*
X151567197Y-113263494D01*
X151603553Y-113296446D01*
X151636505Y-113332802D01*
X151665735Y-113372214D01*
X151690961Y-113414301D01*
X151711940Y-113458657D01*
X151728470Y-113504857D01*
X151740393Y-113552454D01*
X151747592Y-113600990D01*
X151750000Y-113649999D01*
X151750000Y-113650001D01*
X151747592Y-113699010D01*
X151740393Y-113747546D01*
X151728470Y-113795143D01*
X151711940Y-113841343D01*
X151690961Y-113885699D01*
X151665735Y-113927786D01*
X151636505Y-113967198D01*
X151603553Y-114003554D01*
X151567197Y-114036506D01*
X151527785Y-114065736D01*
X151485698Y-114090962D01*
X151441342Y-114111941D01*
X151395142Y-114128471D01*
X151347545Y-114140394D01*
X151299009Y-114147593D01*
X151250000Y-114150001D01*
X150750000Y-114150001D01*
X150700991Y-114147593D01*
X150652455Y-114140394D01*
X150604858Y-114128471D01*
X150558658Y-114111941D01*
X150514302Y-114090962D01*
X150472215Y-114065736D01*
X150432803Y-114036506D01*
X150396447Y-114003554D01*
X150363495Y-113967198D01*
X150334265Y-113927786D01*
X150309039Y-113885699D01*
X150288060Y-113841343D01*
X150271530Y-113795143D01*
X150259607Y-113747546D01*
X150252408Y-113699010D01*
X150250000Y-113650001D01*
X150250000Y-113649999D01*
X150252408Y-113600990D01*
X150259607Y-113552454D01*
X150271530Y-113504857D01*
X150288060Y-113458657D01*
X150309039Y-113414301D01*
X150334265Y-113372214D01*
X150363495Y-113332802D01*
X150396447Y-113296446D01*
X150432803Y-113263494D01*
X150472215Y-113234264D01*
X150514302Y-113209038D01*
X150558658Y-113188059D01*
X150604858Y-113171529D01*
X150652455Y-113159606D01*
X150700991Y-113152407D01*
X150750000Y-113149999D01*
X151250000Y-113149999D01*
X151299009Y-113152407D01*
X151299009Y-113152407D01*
G37*
D18*
G04 #@! TO.P,JP1,2*
G04 #@! TO.N,/A5*
X151000000Y-113650000D03*
D24*
G04 #@! TO.P,JP1,1*
G04 #@! TO.N,/I2C_SCL*
X151000000Y-113000000D03*
G04 #@! TD*
G04 #@! TO.P,JP2,1*
G04 #@! TO.N,/I2C_SDA*
X154000000Y-113000000D03*
D17*
G04 #@! TD*
G04 #@! TO.N,/A4*
G04 #@! TO.C,JP2*
G36*
X154299009Y-113152407D02*
X154347545Y-113159606D01*
X154395142Y-113171529D01*
X154441342Y-113188059D01*
X154485698Y-113209038D01*
X154527785Y-113234264D01*
X154567197Y-113263494D01*
X154603553Y-113296446D01*
X154636505Y-113332802D01*
X154665735Y-113372214D01*
X154690961Y-113414301D01*
X154711940Y-113458657D01*
X154728470Y-113504857D01*
X154740393Y-113552454D01*
X154747592Y-113600990D01*
X154750000Y-113649999D01*
X154750000Y-113650001D01*
X154747592Y-113699010D01*
X154740393Y-113747546D01*
X154728470Y-113795143D01*
X154711940Y-113841343D01*
X154690961Y-113885699D01*
X154665735Y-113927786D01*
X154636505Y-113967198D01*
X154603553Y-114003554D01*
X154567197Y-114036506D01*
X154527785Y-114065736D01*
X154485698Y-114090962D01*
X154441342Y-114111941D01*
X154395142Y-114128471D01*
X154347545Y-114140394D01*
X154299009Y-114147593D01*
X154250000Y-114150001D01*
X153750000Y-114150001D01*
X153700991Y-114147593D01*
X153652455Y-114140394D01*
X153604858Y-114128471D01*
X153558658Y-114111941D01*
X153514302Y-114090962D01*
X153472215Y-114065736D01*
X153432803Y-114036506D01*
X153396447Y-114003554D01*
X153363495Y-113967198D01*
X153334265Y-113927786D01*
X153309039Y-113885699D01*
X153288060Y-113841343D01*
X153271530Y-113795143D01*
X153259607Y-113747546D01*
X153252408Y-113699010D01*
X153250000Y-113650001D01*
X153250000Y-113649999D01*
X153252408Y-113600990D01*
X153259607Y-113552454D01*
X153271530Y-113504857D01*
X153288060Y-113458657D01*
X153309039Y-113414301D01*
X153334265Y-113372214D01*
X153363495Y-113332802D01*
X153396447Y-113296446D01*
X153432803Y-113263494D01*
X153472215Y-113234264D01*
X153514302Y-113209038D01*
X153558658Y-113188059D01*
X153604858Y-113171529D01*
X153652455Y-113159606D01*
X153700991Y-113152407D01*
X153750000Y-113149999D01*
X154250000Y-113149999D01*
X154299009Y-113152407D01*
X154299009Y-113152407D01*
G37*
D18*
G04 #@! TO.P,JP2,2*
G04 #@! TO.N,/A4*
X154000000Y-113650000D03*
D17*
G04 #@! TD*
G04 #@! TO.N,/I2C_SDA*
G04 #@! TO.C,JP2*
G36*
X154299009Y-111852407D02*
X154347545Y-111859606D01*
X154395142Y-111871529D01*
X154441342Y-111888059D01*
X154485698Y-111909038D01*
X154527785Y-111934264D01*
X154567197Y-111963494D01*
X154603553Y-111996446D01*
X154636505Y-112032802D01*
X154665735Y-112072214D01*
X154690961Y-112114301D01*
X154711940Y-112158657D01*
X154728470Y-112204857D01*
X154740393Y-112252454D01*
X154747592Y-112300990D01*
X154750000Y-112349999D01*
X154750000Y-112350001D01*
X154747592Y-112399010D01*
X154740393Y-112447546D01*
X154728470Y-112495143D01*
X154711940Y-112541343D01*
X154690961Y-112585699D01*
X154665735Y-112627786D01*
X154636505Y-112667198D01*
X154603553Y-112703554D01*
X154567197Y-112736506D01*
X154527785Y-112765736D01*
X154485698Y-112790962D01*
X154441342Y-112811941D01*
X154395142Y-112828471D01*
X154347545Y-112840394D01*
X154299009Y-112847593D01*
X154250000Y-112850001D01*
X153750000Y-112850001D01*
X153700991Y-112847593D01*
X153652455Y-112840394D01*
X153604858Y-112828471D01*
X153558658Y-112811941D01*
X153514302Y-112790962D01*
X153472215Y-112765736D01*
X153432803Y-112736506D01*
X153396447Y-112703554D01*
X153363495Y-112667198D01*
X153334265Y-112627786D01*
X153309039Y-112585699D01*
X153288060Y-112541343D01*
X153271530Y-112495143D01*
X153259607Y-112447546D01*
X153252408Y-112399010D01*
X153250000Y-112350001D01*
X153250000Y-112349999D01*
X153252408Y-112300990D01*
X153259607Y-112252454D01*
X153271530Y-112204857D01*
X153288060Y-112158657D01*
X153309039Y-112114301D01*
X153334265Y-112072214D01*
X153363495Y-112032802D01*
X153396447Y-111996446D01*
X153432803Y-111963494D01*
X153472215Y-111934264D01*
X153514302Y-111909038D01*
X153558658Y-111888059D01*
X153604858Y-111871529D01*
X153652455Y-111859606D01*
X153700991Y-111852407D01*
X153750000Y-111849999D01*
X154250000Y-111849999D01*
X154299009Y-111852407D01*
X154299009Y-111852407D01*
G37*
D18*
G04 #@! TO.P,JP2,1*
G04 #@! TO.N,/I2C_SDA*
X154000000Y-112350000D03*
D16*
X154000000Y-112600000D03*
G04 #@! TO.P,JP2,2*
G04 #@! TO.N,/A4*
X154000000Y-113400000D03*
G04 #@! TD*
D12*
G04 #@! TO.P,D3,2*
G04 #@! TO.N,Net-(D3-Pad2)*
X114500000Y-143200000D03*
G04 #@! TO.P,D3,1*
G04 #@! TO.N,Net-(D3-Pad1)*
X114500000Y-144800000D03*
G04 #@! TD*
D19*
G04 #@! TO.P,D1,1*
G04 #@! TO.N,Net-(D1-Pad1)*
X121800000Y-113500000D03*
G04 #@! TO.P,D1,2*
G04 #@! TO.N,+5V*
X120200000Y-113500000D03*
G04 #@! TD*
D25*
G04 #@! TO.P,U1,1*
G04 #@! TO.N,Net-(J2-Pad2)*
X114300000Y-131095000D03*
G04 #@! TO.P,U1,2*
G04 #@! TO.N,Net-(J2-Pad1)*
X114300000Y-132365000D03*
G04 #@! TO.P,U1,3*
G04 #@! TO.N,GND*
X114300000Y-133635000D03*
G04 #@! TO.P,U1,4*
G04 #@! TO.N,+5V*
X114300000Y-134905000D03*
G04 #@! TO.P,U1,5*
G04 #@! TO.N,/I2C_SDA*
X119700000Y-134905000D03*
G04 #@! TO.P,U1,6*
G04 #@! TO.N,/I2C_SCL*
X119700000Y-133635000D03*
G04 #@! TO.P,U1,7*
G04 #@! TO.N,Net-(R21-Pad2)*
X119700000Y-132365000D03*
G04 #@! TO.P,U1,8*
G04 #@! TO.N,Net-(R19-Pad2)*
X119700000Y-131095000D03*
G04 #@! TD*
D12*
G04 #@! TO.P,R8,2*
G04 #@! TO.N,/out1_ch2_i*
X138000000Y-105200000D03*
G04 #@! TO.P,R8,1*
G04 #@! TO.N,/A9*
X138000000Y-106800000D03*
G04 #@! TD*
G04 #@! TO.P,R10,1*
G04 #@! TO.N,/chrg1_i*
X185500000Y-105200000D03*
G04 #@! TO.P,R10,2*
G04 #@! TO.N,/A1*
X185500000Y-106800000D03*
G04 #@! TD*
G04 #@! TO.P,R11,1*
G04 #@! TO.N,/chrg2_i*
X175000000Y-105200000D03*
G04 #@! TO.P,R11,2*
G04 #@! TO.N,/A3*
X175000000Y-106800000D03*
G04 #@! TD*
G04 #@! TO.P,R12,2*
G04 #@! TO.N,/A7*
X165000000Y-106800000D03*
G04 #@! TO.P,R12,1*
G04 #@! TO.N,/chrg3_i*
X165000000Y-105200000D03*
G04 #@! TD*
D19*
G04 #@! TO.P,R13,1*
G04 #@! TO.N,GND*
X120300000Y-122000000D03*
G04 #@! TO.P,R13,2*
G04 #@! TO.N,Net-(R13-Pad2)*
X118700000Y-122000000D03*
G04 #@! TD*
D12*
G04 #@! TO.P,R6,2*
G04 #@! TO.N,/out1_ch1_i*
X135000000Y-105200000D03*
G04 #@! TO.P,R6,1*
G04 #@! TO.N,/A8*
X135000000Y-106800000D03*
G04 #@! TD*
D19*
G04 #@! TO.P,R16,2*
G04 #@! TO.N,Net-(R13-Pad2)*
X116300000Y-122000000D03*
G04 #@! TO.P,R16,1*
G04 #@! TO.N,+5V*
X114700000Y-122000000D03*
G04 #@! TD*
D12*
G04 #@! TO.P,R14,1*
G04 #@! TO.N,Net-(R14-Pad1)*
X141000000Y-106800000D03*
G04 #@! TO.P,R14,2*
G04 #@! TO.N,/out1_ch3_i*
X141000000Y-105200000D03*
G04 #@! TD*
G04 #@! TO.P,R5,2*
G04 #@! TO.N,/chrg3_v*
X168000000Y-105200000D03*
G04 #@! TO.P,R5,1*
G04 #@! TO.N,/A6*
X168000000Y-106800000D03*
G04 #@! TD*
G04 #@! TO.P,R4,1*
G04 #@! TO.N,/A2*
X178000000Y-106800000D03*
G04 #@! TO.P,R4,2*
G04 #@! TO.N,/chrg2_v*
X178000000Y-105200000D03*
G04 #@! TD*
D19*
G04 #@! TO.P,R2,2*
G04 #@! TO.N,GND*
X123800000Y-110500000D03*
G04 #@! TO.P,R2,1*
G04 #@! TO.N,Net-(R1-Pad2)*
X122200000Y-110500000D03*
G04 #@! TD*
G04 #@! TO.P,R1,1*
G04 #@! TO.N,/BATT_SW*
X118200000Y-110500000D03*
G04 #@! TO.P,R1,2*
G04 #@! TO.N,Net-(R1-Pad2)*
X119800000Y-110500000D03*
G04 #@! TD*
D12*
G04 #@! TO.P,R20,2*
G04 #@! TO.N,GND*
X120000000Y-127500000D03*
G04 #@! TO.P,R20,1*
G04 #@! TO.N,Net-(R19-Pad2)*
X120000000Y-129100000D03*
G04 #@! TD*
D19*
G04 #@! TO.P,R21,1*
G04 #@! TO.N,+5V*
X124300000Y-131500000D03*
G04 #@! TO.P,R21,2*
G04 #@! TO.N,Net-(R21-Pad2)*
X122700000Y-131500000D03*
G04 #@! TD*
G04 #@! TO.P,R22,2*
G04 #@! TO.N,GND*
X124300000Y-134000000D03*
G04 #@! TO.P,R22,1*
G04 #@! TO.N,Net-(R21-Pad2)*
X122700000Y-134000000D03*
G04 #@! TD*
G04 #@! TO.P,R23,1*
G04 #@! TO.N,Net-(D1-Pad1)*
X124200000Y-113500000D03*
G04 #@! TO.P,R23,2*
G04 #@! TO.N,GND*
X125800000Y-113500000D03*
G04 #@! TD*
D12*
G04 #@! TO.P,R19,2*
G04 #@! TO.N,Net-(R19-Pad2)*
X122500000Y-129100000D03*
G04 #@! TO.P,R19,1*
G04 #@! TO.N,+5V*
X122500000Y-127500000D03*
G04 #@! TD*
G04 #@! TO.P,R17,1*
G04 #@! TO.N,Net-(R17-Pad1)*
X144000000Y-106800000D03*
G04 #@! TO.P,R17,2*
G04 #@! TO.N,/out1_ch4_i*
X144000000Y-105200000D03*
G04 #@! TD*
G04 #@! TO.P,R3,2*
G04 #@! TO.N,/chrg1_v*
X188500000Y-105200000D03*
G04 #@! TO.P,R3,1*
G04 #@! TO.N,/A0*
X188500000Y-106800000D03*
G04 #@! TD*
D19*
G04 #@! TO.P,R25,1*
G04 #@! TO.N,+5V*
X130834394Y-111796305D03*
G04 #@! TO.P,R25,2*
G04 #@! TO.N,Net-(D2-Pad2)*
X132434394Y-111796305D03*
G04 #@! TD*
G04 #@! TO.P,R27,2*
G04 #@! TO.N,Net-(D2-Pad1)*
X132434394Y-109296305D03*
G04 #@! TO.P,R27,1*
G04 #@! TO.N,+5V*
X130834394Y-109296305D03*
G04 #@! TD*
D12*
G04 #@! TO.P,R36,1*
G04 #@! TO.N,Net-(D3-Pad1)*
X117000000Y-144800000D03*
G04 #@! TO.P,R36,2*
G04 #@! TO.N,GND*
X117000000Y-143200000D03*
G04 #@! TD*
G04 #@! TO.P,R37,2*
G04 #@! TO.N,Net-(R37-Pad2)*
X187872598Y-142930903D03*
G04 #@! TO.P,R37,1*
G04 #@! TO.N,/chrg1_en*
X187872598Y-144530903D03*
G04 #@! TD*
G04 #@! TO.P,R38,1*
G04 #@! TO.N,/chrg2_en*
X175000000Y-144800000D03*
G04 #@! TO.P,R38,2*
G04 #@! TO.N,Net-(R38-Pad2)*
X175000000Y-143200000D03*
G04 #@! TD*
G04 #@! TO.P,R39,2*
G04 #@! TO.N,Net-(R39-Pad2)*
X162000000Y-143200000D03*
G04 #@! TO.P,R39,1*
G04 #@! TO.N,/chrg3_en*
X162000000Y-144800000D03*
G04 #@! TD*
G04 #@! TO.P,R40,1*
G04 #@! TO.N,/trickle1_dis*
X184872598Y-144530903D03*
G04 #@! TO.P,R40,2*
G04 #@! TO.N,Net-(R40-Pad2)*
X184872598Y-142930903D03*
G04 #@! TD*
G04 #@! TO.P,R41,2*
G04 #@! TO.N,Net-(R41-Pad2)*
X172000000Y-143200000D03*
G04 #@! TO.P,R41,1*
G04 #@! TO.N,/trickle2_dis*
X172000000Y-144800000D03*
G04 #@! TD*
G04 #@! TO.P,R42,1*
G04 #@! TO.N,/trickle3_dis*
X159000000Y-144800000D03*
G04 #@! TO.P,R42,2*
G04 #@! TO.N,Net-(R42-Pad2)*
X159000000Y-143200000D03*
G04 #@! TD*
G04 #@! TO.P,R43,2*
G04 #@! TO.N,Net-(D3-Pad2)*
X119500000Y-143200000D03*
G04 #@! TO.P,R43,1*
G04 #@! TO.N,/out1_en*
X119500000Y-144800000D03*
G04 #@! TD*
G04 #@! TO.P,R44,1*
G04 #@! TO.N,/out2_en*
X112000000Y-144800000D03*
G04 #@! TO.P,R44,2*
G04 #@! TO.N,Net-(D3-Pad2)*
X112000000Y-143200000D03*
G04 #@! TD*
D19*
G04 #@! TO.P,R26,1*
G04 #@! TO.N,Net-(D2-Pad2)*
X134634394Y-113796305D03*
G04 #@! TO.P,R26,2*
G04 #@! TO.N,GND*
X136234394Y-113796305D03*
G04 #@! TD*
G04 #@! TO.P,R24,2*
G04 #@! TO.N,Net-(R17-Pad1)*
X127800000Y-110500000D03*
G04 #@! TO.P,R24,1*
G04 #@! TO.N,Net-(R1-Pad2)*
X126200000Y-110500000D03*
G04 #@! TD*
D26*
G04 #@! TO.P,U3,1*
G04 #@! TO.N,GND*
X133490000Y-132620000D03*
D27*
G04 #@! TO.P,U3,2*
G04 #@! TO.N,/RX*
X136030000Y-132620000D03*
G04 #@! TO.P,U3,3*
G04 #@! TO.N,/TX*
X138570000Y-132620000D03*
G04 #@! TO.P,U3,4*
G04 #@! TO.N,Net-(D3-Pad2)*
X141110000Y-132620000D03*
G04 #@! TO.P,U3,5*
G04 #@! TO.N,Net-(R42-Pad2)*
X143650000Y-132620000D03*
G04 #@! TO.P,U3,6*
G04 #@! TO.N,Net-(R39-Pad2)*
X146190000Y-132620000D03*
G04 #@! TO.P,U3,7*
G04 #@! TO.N,Net-(R41-Pad2)*
X148730000Y-132620000D03*
G04 #@! TO.P,U3,8*
G04 #@! TO.N,Net-(R38-Pad2)*
X151270000Y-132620000D03*
G04 #@! TO.P,U3,9*
G04 #@! TO.N,Net-(R40-Pad2)*
X153810000Y-132620000D03*
G04 #@! TO.P,U3,10*
G04 #@! TO.N,Net-(R37-Pad2)*
X156350000Y-132620000D03*
G04 #@! TO.P,U3,11*
G04 #@! TO.N,Net-(R47-Pad2)*
X158890000Y-132620000D03*
G04 #@! TO.P,U3,12*
G04 #@! TO.N,Net-(R46-Pad2)*
X161430000Y-132620000D03*
G04 #@! TO.P,U3,13*
G04 #@! TO.N,/MOSI*
X163970000Y-132620000D03*
G04 #@! TO.P,U3,37*
G04 #@! TO.N,Net-(R17-Pad1)*
X146190000Y-119920000D03*
G04 #@! TO.P,U3,36*
G04 #@! TO.N,Net-(R14-Pad1)*
X143650000Y-119920000D03*
G04 #@! TO.P,U3,35*
G04 #@! TO.N,Net-(D2-Pad1)*
X141110000Y-119920000D03*
G04 #@! TO.P,U3,34*
G04 #@! TO.N,Net-(U3-Pad34)*
X136030000Y-119920000D03*
G04 #@! TO.P,U3,33*
G04 #@! TO.N,+5V*
X133490000Y-117380000D03*
G04 #@! TO.P,U3,32*
G04 #@! TO.N,GND*
X136030000Y-117380000D03*
G04 #@! TO.P,U3,31*
G04 #@! TO.N,/3V3*
X138570000Y-117380000D03*
G04 #@! TO.P,U3,30*
G04 #@! TO.N,/A9*
X141110000Y-117380000D03*
G04 #@! TO.P,U3,29*
G04 #@! TO.N,/A8*
X143650000Y-117380000D03*
G04 #@! TO.P,U3,28*
G04 #@! TO.N,/A7*
X146190000Y-117380000D03*
G04 #@! TO.P,U3,27*
G04 #@! TO.N,/A6*
X148730000Y-117380000D03*
G04 #@! TO.P,U3,26*
G04 #@! TO.N,/A5*
X151270000Y-117380000D03*
G04 #@! TO.P,U3,25*
G04 #@! TO.N,/A4*
X153810000Y-117380000D03*
G04 #@! TO.P,U3,24*
G04 #@! TO.N,/A3*
X156350000Y-117380000D03*
G04 #@! TO.P,U3,23*
G04 #@! TO.N,/A2*
X158890000Y-117380000D03*
G04 #@! TO.P,U3,22*
G04 #@! TO.N,/A1*
X161430000Y-117380000D03*
G04 #@! TO.P,U3,21*
G04 #@! TO.N,/A0*
X163970000Y-117380000D03*
G04 #@! TO.P,U3,14*
G04 #@! TO.N,/MISO*
X166510000Y-132620000D03*
G04 #@! TO.P,U3,15*
G04 #@! TO.N,Net-(U3-Pad15)*
X166510000Y-130080000D03*
G04 #@! TO.P,U3,16*
G04 #@! TO.N,Net-(U3-Pad16)*
X166510000Y-127540000D03*
G04 #@! TO.P,U3,20*
G04 #@! TO.N,/SCK*
X166510000Y-117380000D03*
G04 #@! TO.P,U3,19*
G04 #@! TO.N,Net-(R45-Pad2)*
X166510000Y-119920000D03*
G04 #@! TO.P,U3,18*
G04 #@! TO.N,/RESET*
X166510000Y-122460000D03*
G04 #@! TO.P,U3,17*
G04 #@! TO.N,GND*
X166510000Y-125000000D03*
G04 #@! TD*
D28*
G04 #@! TO.N,GND*
X138000000Y-110500000D03*
X137500000Y-114000000D03*
X125000000Y-110500000D03*
X127000000Y-113500000D03*
X122500000Y-119000000D03*
X112500000Y-135500000D03*
X112500000Y-134000000D03*
X118500000Y-127500000D03*
X125500000Y-134000000D03*
X117000000Y-142000000D03*
X122000000Y-122000000D03*
X110500000Y-111500000D03*
G04 #@! TO.N,/MISO*
X182600000Y-134500000D03*
X195499992Y-132000000D03*
G04 #@! TO.N,/3V3*
X169500000Y-119000000D03*
X139500000Y-122000000D03*
X164548015Y-119451985D03*
X190460032Y-122800000D03*
G04 #@! TO.N,/MOSI*
X182600002Y-135900000D03*
G04 #@! TO.N,/A8*
X140000000Y-114000000D03*
G04 #@! TO.N,/TX*
X164000000Y-130500000D03*
X169000000Y-130500000D03*
X181919953Y-129500000D03*
G04 #@! TO.N,/RX*
X163000000Y-129500000D03*
X169000000Y-129000000D03*
X181300001Y-128300000D03*
G04 #@! TO.N,Net-(R45-Pad2)*
X170128373Y-131724979D03*
X169545270Y-135775021D03*
G04 #@! TO.N,Net-(R46-Pad2)*
X161499999Y-136775043D03*
G04 #@! TO.N,Net-(R47-Pad2)*
X157999999Y-137775063D03*
G04 #@! TO.N,/I2C_SDA*
X184000000Y-119500000D03*
X170000000Y-120000000D03*
X162500000Y-119500000D03*
G04 #@! TO.N,/I2C_SCL*
X186000000Y-121500000D03*
X154500000Y-120500000D03*
X164000000Y-121000000D03*
X169000000Y-123500000D03*
X182000000Y-122500000D03*
X149905001Y-118594999D03*
G04 #@! TD*
D29*
G04 #@! TO.N,GND*
X137796305Y-110296305D02*
X138000000Y-110500000D01*
X136634394Y-110296305D02*
X137796305Y-110296305D01*
X136234394Y-113796305D02*
X137296305Y-113796305D01*
X137296305Y-113796305D02*
X137500000Y-114000000D01*
X123800000Y-110500000D02*
X125000000Y-110500000D01*
X125800000Y-113500000D02*
X127000000Y-113500000D01*
X120500000Y-118930000D02*
X122430000Y-118930000D01*
X122430000Y-118930000D02*
X122500000Y-119000000D01*
X112700000Y-137000000D02*
X112700000Y-135700000D01*
X112700000Y-135700000D02*
X112500000Y-135500000D01*
X114300000Y-133635000D02*
X112865000Y-133635000D01*
X112865000Y-133635000D02*
X112500000Y-134000000D01*
X120000000Y-127500000D02*
X118500000Y-127500000D01*
X124300000Y-134000000D02*
X125500000Y-134000000D01*
D30*
X117000000Y-143200000D02*
X117000000Y-142000000D01*
D29*
X120300000Y-122000000D02*
X122000000Y-122000000D01*
X112070000Y-111000000D02*
X111000000Y-111000000D01*
X111000000Y-111000000D02*
X110500000Y-111500000D01*
D30*
X187960000Y-126960000D02*
X188000000Y-127000000D01*
G04 #@! TO.N,/mcu1_set*
X181900000Y-147020000D02*
X182880000Y-148000000D01*
X181900000Y-144500000D02*
X181900000Y-147020000D01*
G04 #@! TO.N,/SCK*
X198000000Y-134620000D02*
X194234999Y-138385001D01*
X189660000Y-135845001D02*
X192200000Y-138385001D01*
X186734999Y-135845001D02*
X189660000Y-135845001D01*
X185420000Y-137160000D02*
X186734999Y-135845001D01*
X194234999Y-138385001D02*
X192200000Y-138385001D01*
X184570001Y-136310001D02*
X185420000Y-137160000D01*
X170577994Y-121724998D02*
X182372002Y-121724998D01*
X183194978Y-132540852D02*
X184175013Y-133520887D01*
X166510000Y-117380000D02*
X167309999Y-118179999D01*
X184175013Y-133520887D02*
X184175013Y-135915013D01*
X184175013Y-135915013D02*
X184570001Y-136310001D01*
X182372002Y-121724998D02*
X183194978Y-122547974D01*
X183194978Y-122547974D02*
X183194978Y-132540852D01*
X167309999Y-118457003D02*
X170577994Y-121724998D01*
X167309999Y-118179999D02*
X167309999Y-118457003D01*
D29*
G04 #@! TO.N,+5V*
X120070000Y-116500000D02*
X120500000Y-116070000D01*
X117150000Y-116500000D02*
X120070000Y-116500000D01*
X120200000Y-115770000D02*
X120500000Y-116070000D01*
X120200000Y-113500000D02*
X120200000Y-115770000D01*
X130834394Y-111796305D02*
X130834394Y-109296305D01*
X120200000Y-112500000D02*
X120200000Y-113500000D01*
X120903695Y-111796305D02*
X120200000Y-112500000D01*
X130834394Y-111796305D02*
X120903695Y-111796305D01*
X110850000Y-116500000D02*
X114500000Y-116500000D01*
X114500000Y-116500000D02*
X117150000Y-116500000D01*
X114700000Y-116700000D02*
X114500000Y-116500000D01*
X114700000Y-122000000D02*
X114700000Y-116700000D01*
X114300000Y-137000000D02*
X114300000Y-134905000D01*
X113790000Y-122000000D02*
X113000000Y-122790000D01*
X114700000Y-122000000D02*
X113790000Y-122000000D01*
X117500000Y-135500000D02*
X116000000Y-137000000D01*
X116000000Y-137000000D02*
X114300000Y-137000000D01*
X113000000Y-125500000D02*
X117500000Y-130000000D01*
X113000000Y-122790000D02*
X113000000Y-125500000D01*
X117500000Y-130000000D02*
X117500000Y-135500000D01*
X122410000Y-127500000D02*
X122500000Y-127500000D01*
X119410000Y-124500000D02*
X122410000Y-127500000D01*
X116000000Y-124500000D02*
X119410000Y-124500000D01*
X114700000Y-122000000D02*
X114700000Y-123200000D01*
X114700000Y-123200000D02*
X116000000Y-124500000D01*
X123500000Y-127500000D02*
X122500000Y-127500000D01*
X124300000Y-128300000D02*
X123500000Y-127500000D01*
X124300000Y-131500000D02*
X124300000Y-128300000D01*
X130834394Y-114724394D02*
X130834394Y-111796305D01*
X133490000Y-117380000D02*
X130834394Y-114724394D01*
D30*
G04 #@! TO.N,/MISO*
X182200001Y-134100001D02*
X182600000Y-134500000D01*
X166510000Y-132620000D02*
X180720000Y-132620000D01*
X180720000Y-132620000D02*
X182200001Y-134100001D01*
X186146998Y-134620000D02*
X187371999Y-133394999D01*
X192939316Y-133394999D02*
X194334315Y-132000000D01*
X194934307Y-132000000D02*
X195499992Y-132000000D01*
X194334315Y-132000000D02*
X194934307Y-132000000D01*
X187371999Y-133394999D02*
X192939316Y-133394999D01*
X185420000Y-134620000D02*
X186146998Y-134620000D01*
G04 #@! TO.N,/3V3*
X169899999Y-118600001D02*
X169500000Y-119000000D01*
X187960000Y-121920000D02*
X184640001Y-118600001D01*
X184640001Y-118600001D02*
X169899999Y-118600001D01*
X164775002Y-120244657D02*
X164548015Y-120017670D01*
X164775002Y-121372002D02*
X164775002Y-120244657D01*
X139500000Y-122000000D02*
X139999999Y-122499999D01*
X164548015Y-120017670D02*
X164548015Y-119451985D01*
X163647005Y-122499999D02*
X164775002Y-121372002D01*
X139999999Y-122499999D02*
X163647005Y-122499999D01*
X187960000Y-124460000D02*
X185420000Y-127000000D01*
X187960000Y-121920000D02*
X187960000Y-124460000D01*
X195580000Y-114300000D02*
X187960000Y-121920000D01*
X198000000Y-114300000D02*
X195580000Y-114300000D01*
X194660032Y-127000000D02*
X190860031Y-123199999D01*
X198000000Y-127000000D02*
X194660032Y-127000000D01*
X190860031Y-123199999D02*
X190460032Y-122800000D01*
G04 #@! TO.N,Net-(R14-Pad1)*
X142850001Y-119120001D02*
X143650000Y-119920000D01*
X142474999Y-118744999D02*
X142850001Y-119120001D01*
X142474999Y-108934999D02*
X142474999Y-118744999D01*
X141000000Y-107460000D02*
X142474999Y-108934999D01*
X141000000Y-106800000D02*
X141000000Y-107460000D01*
G04 #@! TO.N,Net-(R17-Pad1)*
X143250000Y-106800000D02*
X144000000Y-106800000D01*
X142464999Y-106014999D02*
X143250000Y-106800000D01*
X132195001Y-106014999D02*
X142464999Y-106014999D01*
X127800000Y-110410000D02*
X132195001Y-106014999D01*
X127800000Y-110500000D02*
X127800000Y-110410000D01*
X144000000Y-107460000D02*
X144000000Y-106800000D01*
X145014999Y-108474999D02*
X144000000Y-107460000D01*
X145014999Y-118744999D02*
X145014999Y-108474999D01*
X146190000Y-119920000D02*
X145014999Y-118744999D01*
G04 #@! TO.N,/MOSI*
X194145001Y-133394999D02*
X194240000Y-133300000D01*
X193940000Y-133600000D02*
X194240000Y-133300000D01*
X187960000Y-134620000D02*
X192920000Y-134620000D01*
X192920000Y-134620000D02*
X193940000Y-133600000D01*
X163970000Y-132620000D02*
X165350000Y-134000000D01*
X180700002Y-134000000D02*
X182200003Y-135500001D01*
X165350000Y-134000000D02*
X180700002Y-134000000D01*
X182200003Y-135500001D02*
X182600002Y-135900000D01*
X196575002Y-132372002D02*
X196575002Y-130964998D01*
X194240000Y-133300000D02*
X195647004Y-133300000D01*
X195647004Y-133300000D02*
X196575002Y-132372002D01*
X197150001Y-130389999D02*
X198000000Y-129540000D01*
X196575002Y-130964998D02*
X197150001Y-130389999D01*
G04 #@! TO.N,/mcu2_set*
X170180000Y-146797919D02*
X170180000Y-148000000D01*
X170180000Y-145990000D02*
X170180000Y-146797919D01*
X168990000Y-144800000D02*
X170180000Y-145990000D01*
X168900000Y-144800000D02*
X168990000Y-144800000D01*
G04 #@! TO.N,/mcu3_set*
X156000000Y-146520000D02*
X157480000Y-148000000D01*
X156000000Y-144800000D02*
X156000000Y-146520000D01*
G04 #@! TO.N,Net-(R37-Pad2)*
X157149999Y-133419999D02*
X156350000Y-132620000D01*
X179351695Y-134500000D02*
X158230000Y-134500000D01*
X187782598Y-142930903D02*
X179351695Y-134500000D01*
X187872598Y-142930903D02*
X187782598Y-142930903D01*
X158230000Y-134500000D02*
X157149999Y-133419999D01*
G04 #@! TO.N,Net-(R40-Pad2)*
X176191706Y-135000011D02*
X184122598Y-142930903D01*
X184122598Y-142930903D02*
X184872598Y-142930903D01*
X153810000Y-132620000D02*
X156190011Y-135000011D01*
X156190011Y-135000011D02*
X176191706Y-135000011D01*
G04 #@! TO.N,Net-(R38-Pad2)*
X152069999Y-133419999D02*
X151270000Y-132620000D01*
X154150022Y-135500022D02*
X152069999Y-133419999D01*
X174250000Y-143200000D02*
X166550022Y-135500022D01*
X175000000Y-143200000D02*
X174250000Y-143200000D01*
X166550022Y-135500022D02*
X154150022Y-135500022D01*
G04 #@! TO.N,Net-(R41-Pad2)*
X164050033Y-136000033D02*
X152110033Y-136000033D01*
X171250000Y-143200000D02*
X164050033Y-136000033D01*
X152110033Y-136000033D02*
X149529999Y-133419999D01*
X149529999Y-133419999D02*
X148730000Y-132620000D01*
X172000000Y-143200000D02*
X171250000Y-143200000D01*
G04 #@! TO.N,Net-(R39-Pad2)*
X162000000Y-143200000D02*
X162000000Y-139145874D01*
X162000000Y-139145874D02*
X159354172Y-136500043D01*
X159354172Y-136500043D02*
X150070043Y-136500043D01*
X150070043Y-136500043D02*
X146989999Y-133419999D01*
X146989999Y-133419999D02*
X146190000Y-132620000D01*
G04 #@! TO.N,Net-(R42-Pad2)*
X159000000Y-142540000D02*
X159750000Y-141790000D01*
X159750000Y-141790000D02*
X159750000Y-137750053D01*
X159000000Y-137000053D02*
X148030053Y-137000053D01*
X159000000Y-143200000D02*
X159000000Y-142540000D01*
X159750000Y-137750053D02*
X159000000Y-137000053D01*
X144449999Y-133419999D02*
X143650000Y-132620000D01*
X148030053Y-137000053D02*
X144449999Y-133419999D01*
G04 #@! TO.N,Net-(D3-Pad2)*
X112750000Y-143200000D02*
X114500000Y-143200000D01*
X112000000Y-143200000D02*
X112750000Y-143200000D01*
X116565002Y-141224998D02*
X114590000Y-143200000D01*
X119410000Y-143200000D02*
X117434998Y-141224998D01*
X114590000Y-143200000D02*
X114500000Y-143200000D01*
X117434998Y-141224998D02*
X116565002Y-141224998D01*
X119500000Y-143200000D02*
X119410000Y-143200000D01*
X120250000Y-143200000D02*
X126450000Y-137000000D01*
X119500000Y-143200000D02*
X120250000Y-143200000D01*
X136730000Y-137000000D02*
X141110000Y-132620000D01*
X126450000Y-137000000D02*
X136730000Y-137000000D01*
G04 #@! TO.N,/out2_ch4_i*
X127000000Y-103202081D02*
X127000000Y-105350000D01*
X127000000Y-102000000D02*
X127000000Y-103202081D01*
G04 #@! TO.N,Net-(R1-Pad2)*
X119800000Y-110500000D02*
X122200000Y-110500000D01*
X122740000Y-109210000D02*
X122200000Y-109750000D01*
X122200000Y-109750000D02*
X122200000Y-110500000D01*
X125000000Y-109210000D02*
X122740000Y-109210000D01*
X126200000Y-110410000D02*
X125000000Y-109210000D01*
X126200000Y-110500000D02*
X126200000Y-110410000D01*
G04 #@! TO.N,/out2_en*
X112000000Y-147760000D02*
X111760000Y-148000000D01*
X112000000Y-144800000D02*
X112000000Y-147760000D01*
G04 #@! TO.N,/out1_en*
X119500000Y-147880000D02*
X119380000Y-148000000D01*
X119500000Y-144800000D02*
X119500000Y-147880000D01*
G04 #@! TO.N,/trickle3_dis*
X159000000Y-146980000D02*
X160020000Y-148000000D01*
X159000000Y-144800000D02*
X159000000Y-146980000D01*
G04 #@! TO.N,/trickle2_dis*
X172000000Y-147280000D02*
X172720000Y-148000000D01*
X172000000Y-144800000D02*
X172000000Y-147280000D01*
G04 #@! TO.N,/trickle1_dis*
X184872598Y-147452598D02*
X185420000Y-148000000D01*
X184872598Y-144530903D02*
X184872598Y-147452598D01*
G04 #@! TO.N,/chrg3_en*
X162000000Y-147440000D02*
X162560000Y-148000000D01*
X162000000Y-144800000D02*
X162000000Y-147440000D01*
G04 #@! TO.N,/chrg2_en*
X175000000Y-147740000D02*
X175260000Y-148000000D01*
X175000000Y-144800000D02*
X175000000Y-147740000D01*
G04 #@! TO.N,/chrg1_en*
X187872598Y-147912598D02*
X187960000Y-148000000D01*
X187872598Y-144530903D02*
X187872598Y-147912598D01*
G04 #@! TO.N,Net-(D3-Pad1)*
X117000000Y-144800000D02*
X114500000Y-144800000D01*
G04 #@! TO.N,/out2_ch4_en*
X128500000Y-145000000D02*
X128500000Y-144400000D01*
X129540000Y-148000000D02*
X129540000Y-146040000D01*
X129540000Y-146040000D02*
X128500000Y-145000000D01*
G04 #@! TO.N,/out2_ch3_en*
X132080000Y-145230000D02*
X131500000Y-144650000D01*
X132080000Y-148000000D02*
X132080000Y-145230000D01*
G04 #@! TO.N,/out2_ch2_en*
X134620000Y-144770000D02*
X134500000Y-144650000D01*
X134620000Y-148000000D02*
X134620000Y-144770000D01*
G04 #@! TO.N,/out2_ch1_en*
X137160000Y-144990000D02*
X137500000Y-144650000D01*
X137160000Y-148000000D02*
X137160000Y-144990000D01*
G04 #@! TO.N,/out1_ch4_en*
X142000000Y-147620000D02*
X142380000Y-148000000D01*
X142000000Y-144400000D02*
X142000000Y-147620000D01*
G04 #@! TO.N,/out1_ch3_en*
X145000000Y-147920000D02*
X144920000Y-148000000D01*
X145000000Y-144650000D02*
X145000000Y-147920000D01*
G04 #@! TO.N,/out1_ch2_en*
X148000000Y-147460000D02*
X147460000Y-148000000D01*
X148000000Y-144400000D02*
X148000000Y-147460000D01*
G04 #@! TO.N,/out1_ch1_en*
X151000000Y-147000000D02*
X150000000Y-148000000D01*
X151000000Y-144400000D02*
X151000000Y-147000000D01*
G04 #@! TO.N,/chrg1_v*
X188080000Y-104780000D02*
X188500000Y-105200000D01*
X188080000Y-102000000D02*
X188080000Y-104780000D01*
G04 #@! TO.N,/out1_ch4_i*
X143910000Y-105200000D02*
X144000000Y-105200000D01*
X142620000Y-103910000D02*
X143910000Y-105200000D01*
X142620000Y-102000000D02*
X142620000Y-103910000D01*
G04 #@! TO.N,Net-(R19-Pad2)*
X119700000Y-129400000D02*
X120000000Y-129100000D01*
X119700000Y-131095000D02*
X119700000Y-129400000D01*
X122500000Y-129100000D02*
X120000000Y-129100000D01*
G04 #@! TO.N,Net-(D1-Pad1)*
X124200000Y-113500000D02*
X121800000Y-113500000D01*
G04 #@! TO.N,Net-(R21-Pad2)*
X120725000Y-132365000D02*
X119700000Y-132365000D01*
X121175000Y-132365000D02*
X120725000Y-132365000D01*
X122040000Y-131500000D02*
X121175000Y-132365000D01*
X122700000Y-131500000D02*
X122040000Y-131500000D01*
X122700000Y-134000000D02*
X122700000Y-131500000D01*
G04 #@! TO.N,/chrg2_v*
X177800000Y-105000000D02*
X178000000Y-105200000D01*
X177800000Y-102000000D02*
X177800000Y-105000000D01*
G04 #@! TO.N,/chrg3_v*
X167640000Y-104840000D02*
X168000000Y-105200000D01*
X167640000Y-102000000D02*
X167640000Y-104840000D01*
G04 #@! TO.N,/out1_ch3_i*
X140910000Y-105200000D02*
X141000000Y-105200000D01*
X140080000Y-104370000D02*
X140910000Y-105200000D01*
X140080000Y-102000000D02*
X140080000Y-104370000D01*
G04 #@! TO.N,/out2_ch3_i*
X124460000Y-104890000D02*
X124000000Y-105350000D01*
X124460000Y-102000000D02*
X124460000Y-104890000D01*
G04 #@! TO.N,/out1_ch1_i*
X135000000Y-102000000D02*
X135000000Y-105200000D01*
G04 #@! TO.N,/chrg3_i*
X165100000Y-105100000D02*
X165000000Y-105200000D01*
X165100000Y-102000000D02*
X165100000Y-105100000D01*
G04 #@! TO.N,/chrg2_i*
X175260000Y-104940000D02*
X175000000Y-105200000D01*
X175260000Y-102000000D02*
X175260000Y-104940000D01*
G04 #@! TO.N,/chrg1_i*
X185540000Y-105160000D02*
X185500000Y-105200000D01*
X185540000Y-102000000D02*
X185540000Y-105160000D01*
G04 #@! TO.N,/out2_ch2_i*
X121920000Y-104430000D02*
X121000000Y-105350000D01*
X121920000Y-102000000D02*
X121920000Y-104430000D01*
G04 #@! TO.N,/out1_ch2_i*
X137540000Y-104740000D02*
X138000000Y-105200000D01*
X137540000Y-102000000D02*
X137540000Y-104740000D01*
G04 #@! TO.N,/out2_ch1_i*
X118280000Y-102000000D02*
X119380000Y-102000000D01*
X118000000Y-102280000D02*
X118280000Y-102000000D01*
X118000000Y-105350000D02*
X118000000Y-102280000D01*
G04 #@! TO.N,Net-(J2-Pad1)*
X105000000Y-133470000D02*
X105000000Y-134620000D01*
X106105000Y-132365000D02*
X105000000Y-133470000D01*
X114300000Y-132365000D02*
X106105000Y-132365000D01*
G04 #@! TO.N,Net-(J2-Pad2)*
X105000000Y-130690000D02*
X105000000Y-129540000D01*
X105405000Y-131095000D02*
X105000000Y-130690000D01*
X114300000Y-131095000D02*
X105405000Y-131095000D01*
G04 #@! TO.N,Net-(R13-Pad2)*
X116300000Y-120650000D02*
X116300000Y-122000000D01*
X117150000Y-118800000D02*
X117150000Y-119800000D01*
X117150000Y-119800000D02*
X116300000Y-120650000D01*
X116300000Y-122000000D02*
X118700000Y-122000000D01*
G04 #@! TO.N,/A0*
X178345001Y-116204999D02*
X187750000Y-106800000D01*
X163970000Y-117380000D02*
X165145001Y-116204999D01*
X187750000Y-106800000D02*
X188500000Y-106800000D01*
X165145001Y-116204999D02*
X178345001Y-116204999D01*
G04 #@! TO.N,/A1*
X163105012Y-115704988D02*
X162229999Y-116580001D01*
X162229999Y-116580001D02*
X161430000Y-117380000D01*
X184750000Y-106800000D02*
X175845012Y-115704988D01*
X175845012Y-115704988D02*
X163105012Y-115704988D01*
X185500000Y-106800000D02*
X184750000Y-106800000D01*
G04 #@! TO.N,/A2*
X176464999Y-107585001D02*
X177250000Y-106800000D01*
X169485997Y-107585001D02*
X176464999Y-107585001D01*
X158890000Y-117380000D02*
X159690998Y-117380000D01*
X177250000Y-106800000D02*
X178000000Y-106800000D01*
X159690998Y-117380000D02*
X169485997Y-107585001D01*
G04 #@! TO.N,/A3*
X164230011Y-109499989D02*
X157149999Y-116580001D01*
X166863887Y-109499989D02*
X164230011Y-109499989D01*
X157149999Y-116580001D02*
X156350000Y-117380000D01*
X169563876Y-106800000D02*
X166863887Y-109499989D01*
X175000000Y-106800000D02*
X169563876Y-106800000D01*
G04 #@! TO.N,/A4*
X153810000Y-113840000D02*
X154000000Y-113650000D01*
X153810000Y-117380000D02*
X153810000Y-113840000D01*
G04 #@! TO.N,/A5*
X151270000Y-113920000D02*
X151000000Y-113650000D01*
X151270000Y-117380000D02*
X151270000Y-113920000D01*
G04 #@! TO.N,/A6*
X168000000Y-107000000D02*
X168000000Y-106800000D01*
X166500000Y-108500000D02*
X168000000Y-107000000D01*
X151207122Y-108500000D02*
X166500000Y-108500000D01*
X148730000Y-117380000D02*
X148730000Y-110977122D01*
X148730000Y-110977122D02*
X151207122Y-108500000D01*
G04 #@! TO.N,/A7*
X146190000Y-116248630D02*
X146190000Y-117380000D01*
X146190000Y-112810000D02*
X146190000Y-116248630D01*
X152200000Y-106800000D02*
X146190000Y-112810000D01*
X165000000Y-106800000D02*
X152200000Y-106800000D01*
G04 #@! TO.N,/A8*
X135750000Y-106800000D02*
X140000000Y-111050000D01*
X140000000Y-111050000D02*
X140000000Y-113434315D01*
X135000000Y-106800000D02*
X135750000Y-106800000D01*
X140000000Y-113434315D02*
X140000000Y-114000000D01*
G04 #@! TO.N,/A9*
X141110000Y-109820000D02*
X138090000Y-106800000D01*
X138090000Y-106800000D02*
X138000000Y-106800000D01*
X141110000Y-117380000D02*
X141110000Y-109820000D01*
D29*
G04 #@! TO.N,/BATT_SW*
X114300000Y-110370000D02*
X114930000Y-111000000D01*
X114300000Y-104140000D02*
X114300000Y-110370000D01*
X117150000Y-113220000D02*
X114930000Y-111000000D01*
X117150000Y-114200000D02*
X117150000Y-113220000D01*
X115430000Y-110500000D02*
X114930000Y-111000000D01*
X118200000Y-110500000D02*
X115430000Y-110500000D01*
X114300000Y-104140000D02*
X114300000Y-102000000D01*
G04 #@! TO.N,/BATT_IN*
X105900000Y-113920000D02*
X105000000Y-113920000D01*
X111760000Y-108060000D02*
X105900000Y-113920000D01*
X111760000Y-104140000D02*
X111760000Y-108060000D01*
X111760000Y-104140000D02*
X111760000Y-102000000D01*
D30*
G04 #@! TO.N,/RESET*
X183675002Y-137228004D02*
X183675002Y-133727998D01*
X183675002Y-133727998D02*
X182694967Y-132747963D01*
X184831999Y-138385001D02*
X183675002Y-137228004D01*
X181610603Y-127339140D02*
X171389140Y-127339140D01*
X182694967Y-132747963D02*
X182694967Y-128423504D01*
X171389140Y-127339140D02*
X167309999Y-123259999D01*
X187960000Y-137160000D02*
X186734999Y-138385001D01*
X182694967Y-128423504D02*
X181610603Y-127339140D01*
X186734999Y-138385001D02*
X184831999Y-138385001D01*
X167309999Y-123259999D02*
X166510000Y-122460000D01*
G04 #@! TO.N,/TX*
X138570000Y-132620000D02*
X140690000Y-130500000D01*
X140690000Y-130500000D02*
X164000000Y-130500000D01*
X189185001Y-127649314D02*
X188519316Y-128314999D01*
X186269999Y-128690001D02*
X185420000Y-129540000D01*
X188519316Y-128314999D02*
X186645001Y-128314999D01*
X198000000Y-116840000D02*
X194405874Y-116840000D01*
X189185001Y-122060873D02*
X189185001Y-127649314D01*
X194405874Y-116840000D02*
X189185001Y-122060873D01*
X186645001Y-128314999D02*
X186269999Y-128690001D01*
X181354268Y-129500000D02*
X181919953Y-129500000D01*
X169000000Y-130500000D02*
X170000000Y-129500000D01*
X170000000Y-129500000D02*
X181354268Y-129500000D01*
G04 #@! TO.N,/RX*
X138650000Y-130000000D02*
X162500000Y-130000000D01*
X136030000Y-132620000D02*
X138650000Y-130000000D01*
X162500000Y-130000000D02*
X163000000Y-129500000D01*
X189685012Y-129017069D02*
X189162081Y-129540000D01*
X192672996Y-119380000D02*
X189685012Y-122367984D01*
X189685012Y-122367984D02*
X189685012Y-129017069D01*
X198000000Y-119380000D02*
X192672996Y-119380000D01*
X189162081Y-129540000D02*
X187960000Y-129540000D01*
X180734316Y-128300000D02*
X181300001Y-128300000D01*
X169700000Y-128300000D02*
X180734316Y-128300000D01*
X169000000Y-129000000D02*
X169700000Y-128300000D01*
G04 #@! TO.N,Net-(D2-Pad1)*
X140310001Y-119120001D02*
X141110000Y-119920000D01*
X134684394Y-109346305D02*
X135500000Y-110161911D01*
X134634394Y-109346305D02*
X134684394Y-109346305D01*
X135500000Y-110161911D02*
X135500000Y-110686913D01*
X135500000Y-110686913D02*
X139934999Y-115121912D01*
X139934999Y-115121912D02*
X139934999Y-118744999D01*
X139934999Y-118744999D02*
X140310001Y-119120001D01*
X134584394Y-109296305D02*
X134634394Y-109346305D01*
X132434394Y-109296305D02*
X134584394Y-109296305D01*
G04 #@! TO.N,Net-(D2-Pad2)*
X134634394Y-113796305D02*
X134634394Y-111246305D01*
X134084394Y-111796305D02*
X134634394Y-111246305D01*
X132434394Y-111796305D02*
X134084394Y-111796305D01*
G04 #@! TO.N,Net-(R45-Pad2)*
X169728374Y-131324980D02*
X170128373Y-131724979D01*
X165275013Y-121154987D02*
X165275013Y-130628009D01*
X165275013Y-130628009D02*
X165971984Y-131324980D01*
X165971984Y-131324980D02*
X169728374Y-131324980D01*
X166510000Y-119920000D02*
X165275013Y-121154987D01*
X176670249Y-142900000D02*
X169945269Y-136175020D01*
X181900000Y-142900000D02*
X176670249Y-142900000D01*
X169945269Y-136175020D02*
X169545270Y-135775021D01*
G04 #@! TO.N,Net-(R46-Pad2)*
X161899998Y-137175042D02*
X161499999Y-136775043D01*
X168900000Y-143200000D02*
X167924956Y-143200000D01*
X167924956Y-143200000D02*
X161899998Y-137175042D01*
G04 #@! TO.N,Net-(R47-Pad2)*
X156000000Y-139775062D02*
X157600000Y-138175062D01*
X156000000Y-143200000D02*
X156000000Y-139775062D01*
X157600000Y-138175062D02*
X157999999Y-137775063D01*
G04 #@! TO.N,/I2C_SDA*
X120725000Y-135455000D02*
X126337878Y-135455000D01*
X140646992Y-121999988D02*
X151500012Y-121999988D01*
X119700000Y-134905000D02*
X120175000Y-134905000D01*
X139127998Y-121224998D02*
X139872002Y-121224998D01*
X120175000Y-134905000D02*
X120725000Y-135455000D01*
X138724998Y-121627998D02*
X139127998Y-121224998D01*
X126337878Y-135455000D02*
X138724998Y-123067880D01*
X138724998Y-123067880D02*
X138724998Y-121627998D01*
X139872002Y-121224998D02*
X140646992Y-121999988D01*
X151500012Y-121999988D02*
X155174999Y-118325001D01*
X154850000Y-112350000D02*
X154000000Y-112350000D01*
X155174999Y-112674999D02*
X154850000Y-112350000D01*
X154000000Y-112600000D02*
X154000000Y-112774989D01*
X184234999Y-119734999D02*
X184000000Y-119500000D01*
X184000000Y-119500000D02*
X170500000Y-119500000D01*
X170500000Y-119500000D02*
X170000000Y-120000000D01*
X155174999Y-118325001D02*
X155174999Y-118200000D01*
X155174999Y-118200000D02*
X155174999Y-112674999D01*
X156400000Y-119500000D02*
X162500000Y-119500000D01*
X155174999Y-118200000D02*
X155174999Y-118274999D01*
X155174999Y-118274999D02*
X156400000Y-119500000D01*
X183694989Y-132333741D02*
X183694989Y-120370696D01*
X184666249Y-133305001D02*
X183694989Y-132333741D01*
X187960000Y-132080000D02*
X186734999Y-133305001D01*
X184000000Y-120065685D02*
X184000000Y-119500000D01*
X183694989Y-120370696D02*
X184000000Y-120065685D01*
X186734999Y-133305001D02*
X184666249Y-133305001D01*
G04 #@! TO.N,/I2C_SCL*
X150150000Y-112350000D02*
X151000000Y-112350000D01*
X138920887Y-120724987D02*
X140079114Y-120724988D01*
X147404999Y-121095001D02*
X149905001Y-118594999D01*
X149905001Y-118594999D02*
X149905001Y-114905001D01*
X149874999Y-112625001D02*
X150150000Y-112350000D01*
X120749998Y-133635000D02*
X121989999Y-134875001D01*
X149874999Y-114874999D02*
X149874999Y-112625001D01*
X149905001Y-114905001D02*
X149874999Y-114874999D01*
X119700000Y-133635000D02*
X120749998Y-133635000D01*
X140079114Y-120724988D02*
X140449127Y-121095001D01*
X138224987Y-122579113D02*
X138224988Y-121420886D01*
X125929099Y-134875001D02*
X138224987Y-122579113D01*
X140449127Y-121095001D02*
X147404999Y-121095001D01*
X121989999Y-134875001D02*
X125929099Y-134875001D01*
X138224988Y-121420886D02*
X138920887Y-120724987D01*
X151000000Y-112600000D02*
X151000000Y-112350000D01*
X154500000Y-120500000D02*
X155000000Y-121000000D01*
X155000000Y-121000000D02*
X164000000Y-121000000D01*
X169000000Y-123500000D02*
X170000000Y-122500000D01*
X170000000Y-122500000D02*
X182000000Y-122500000D01*
X185600001Y-121899999D02*
X186000000Y-121500000D01*
X184195000Y-123305000D02*
X185600001Y-121899999D01*
X184195000Y-130855000D02*
X184195000Y-123305000D01*
X185420000Y-132080000D02*
X184195000Y-130855000D01*
G04 #@! TD*
M02*
