G04 #@! TF.GenerationSoftware,KiCad,Pcbnew,5.0.0-rc2-unknown-2cb65f9~65~ubuntu17.10.1*
G04 #@! TF.CreationDate,2018-06-03T22:22:17-07:00*
G04 #@! TF.ProjectId,mcu_controller,6D63755F636F6E74726F6C6C65722E6B,rev?*
G04 #@! TF.SameCoordinates,Original*
G04 #@! TF.FileFunction,Copper,L2,Bot,Signal*
G04 #@! TF.FilePolarity,Positive*
%FSLAX46Y46*%
G04 Gerber Fmt 4.6, Leading zero omitted, Abs format (unit mm)*
G04 Created by KiCad (PCBNEW 5.0.0-rc2-unknown-2cb65f9~65~ubuntu17.10.1) date Sun Jun  3 22:22:17 2018*
%MOMM*%
%LPD*%
G01*
G04 APERTURE LIST*
G04 #@! TA.AperFunction,ComponentPad*
%ADD10R,1.700000X1.700000*%
G04 #@! TD*
G04 #@! TA.AperFunction,ComponentPad*
%ADD11O,1.700000X1.700000*%
G04 #@! TD*
G04 #@! TA.AperFunction,ComponentPad*
%ADD12R,3.600000X1.800000*%
G04 #@! TD*
G04 #@! TA.AperFunction,ComponentPad*
%ADD13O,3.600000X1.800000*%
G04 #@! TD*
G04 #@! TA.AperFunction,ComponentPad*
%ADD14R,1.600000X1.600000*%
G04 #@! TD*
G04 #@! TA.AperFunction,ComponentPad*
%ADD15C,1.600000*%
G04 #@! TD*
G04 #@! TA.AperFunction,ViaPad*
%ADD16C,0.800000*%
G04 #@! TD*
G04 #@! TA.AperFunction,Conductor*
%ADD17C,0.500000*%
G04 #@! TD*
G04 #@! TA.AperFunction,Conductor*
%ADD18C,0.250000*%
G04 #@! TD*
G04 #@! TA.AperFunction,Conductor*
%ADD19C,0.254000*%
G04 #@! TD*
G04 APERTURE END LIST*
D10*
G04 #@! TO.P,J20,1*
G04 #@! TO.N,/3V3*
X185420000Y-127000000D03*
D11*
G04 #@! TO.P,J20,2*
G04 #@! TO.N,GND*
X187960000Y-127000000D03*
G04 #@! TO.P,J20,3*
G04 #@! TO.N,/TX*
X185420000Y-129540000D03*
G04 #@! TO.P,J20,4*
G04 #@! TO.N,/RX*
X187960000Y-129540000D03*
G04 #@! TO.P,J20,5*
G04 #@! TO.N,/I2C_SCL*
X185420000Y-132080000D03*
G04 #@! TO.P,J20,6*
G04 #@! TO.N,/I2C_SDA*
X187960000Y-132080000D03*
G04 #@! TO.P,J20,7*
G04 #@! TO.N,/MISO*
X185420000Y-134620000D03*
G04 #@! TO.P,J20,8*
G04 #@! TO.N,/MOSI*
X187960000Y-134620000D03*
G04 #@! TO.P,J20,9*
G04 #@! TO.N,/SCK*
X185420000Y-137160000D03*
G04 #@! TO.P,J20,10*
G04 #@! TO.N,/RESET*
X187960000Y-137160000D03*
G04 #@! TD*
D12*
G04 #@! TO.P,J1,1*
G04 #@! TO.N,GND*
X105000000Y-119000000D03*
D13*
G04 #@! TO.P,J1,2*
G04 #@! TO.N,/BATT_IN*
X105000000Y-113920000D03*
G04 #@! TD*
D12*
G04 #@! TO.P,J2,1*
G04 #@! TO.N,Net-(J2-Pad1)*
X105000000Y-134620000D03*
D13*
G04 #@! TO.P,J2,2*
G04 #@! TO.N,Net-(J2-Pad2)*
X105000000Y-129540000D03*
G04 #@! TD*
D11*
G04 #@! TO.P,SW1,2*
G04 #@! TO.N,/BATT_SW*
X114300000Y-102000000D03*
D10*
G04 #@! TO.P,SW1,1*
G04 #@! TO.N,/BATT_IN*
X111760000Y-102000000D03*
G04 #@! TD*
D11*
G04 #@! TO.P,J16,2*
G04 #@! TO.N,GND*
X121920000Y-148000000D03*
D10*
G04 #@! TO.P,J16,1*
G04 #@! TO.N,/out1_en*
X119380000Y-148000000D03*
G04 #@! TD*
G04 #@! TO.P,J17,1*
G04 #@! TO.N,/out2_en*
X111760000Y-148000000D03*
D11*
G04 #@! TO.P,J17,2*
G04 #@! TO.N,GND*
X114300000Y-148000000D03*
G04 #@! TD*
D10*
G04 #@! TO.P,J4,1*
G04 #@! TO.N,GND*
X172720000Y-102000000D03*
D11*
G04 #@! TO.P,J4,2*
G04 #@! TO.N,/chrg2_i*
X175260000Y-102000000D03*
G04 #@! TO.P,J4,3*
G04 #@! TO.N,/chrg2_v*
X177800000Y-102000000D03*
G04 #@! TD*
G04 #@! TO.P,J5,3*
G04 #@! TO.N,/chrg3_v*
X167640000Y-102000000D03*
G04 #@! TO.P,J5,2*
G04 #@! TO.N,/chrg3_i*
X165100000Y-102000000D03*
D10*
G04 #@! TO.P,J5,1*
G04 #@! TO.N,GND*
X162560000Y-102000000D03*
G04 #@! TD*
G04 #@! TO.P,J3,1*
G04 #@! TO.N,GND*
X183000000Y-102000000D03*
D11*
G04 #@! TO.P,J3,2*
G04 #@! TO.N,/chrg1_i*
X185540000Y-102000000D03*
G04 #@! TO.P,J3,3*
G04 #@! TO.N,/chrg1_v*
X188080000Y-102000000D03*
G04 #@! TD*
D10*
G04 #@! TO.P,J12,1*
G04 #@! TO.N,/3V3*
X187960000Y-121920000D03*
D11*
G04 #@! TO.P,J12,2*
G04 #@! TO.N,/I2C_SCL*
X187960000Y-119380000D03*
G04 #@! TO.P,J12,3*
G04 #@! TO.N,/I2C_SDA*
X187960000Y-116840000D03*
G04 #@! TO.P,J12,4*
G04 #@! TO.N,GND*
X187960000Y-114300000D03*
G04 #@! TD*
G04 #@! TO.P,J19,4*
G04 #@! TO.N,GND*
X198000000Y-121920000D03*
G04 #@! TO.P,J19,3*
G04 #@! TO.N,/RX*
X198000000Y-119380000D03*
G04 #@! TO.P,J19,2*
G04 #@! TO.N,/TX*
X198000000Y-116840000D03*
D10*
G04 #@! TO.P,J19,1*
G04 #@! TO.N,/3V3*
X198000000Y-114300000D03*
G04 #@! TD*
G04 #@! TO.P,J15,1*
G04 #@! TO.N,/chrg3_en*
X162560000Y-148000000D03*
D11*
G04 #@! TO.P,J15,2*
G04 #@! TO.N,/trickle3_dis*
X160020000Y-148000000D03*
G04 #@! TO.P,J15,3*
G04 #@! TO.N,/mcu3_set*
X157480000Y-148000000D03*
G04 #@! TO.P,J15,4*
G04 #@! TO.N,GND*
X154940000Y-148000000D03*
G04 #@! TD*
G04 #@! TO.P,J14,4*
G04 #@! TO.N,GND*
X167640000Y-148000000D03*
G04 #@! TO.P,J14,3*
G04 #@! TO.N,/mcu2_set*
X170180000Y-148000000D03*
G04 #@! TO.P,J14,2*
G04 #@! TO.N,/trickle2_dis*
X172720000Y-148000000D03*
D10*
G04 #@! TO.P,J14,1*
G04 #@! TO.N,/chrg2_en*
X175260000Y-148000000D03*
G04 #@! TD*
G04 #@! TO.P,J13,1*
G04 #@! TO.N,/chrg1_en*
X187960000Y-148000000D03*
D11*
G04 #@! TO.P,J13,2*
G04 #@! TO.N,/trickle1_dis*
X185420000Y-148000000D03*
G04 #@! TO.P,J13,3*
G04 #@! TO.N,/mcu1_set*
X182880000Y-148000000D03*
G04 #@! TO.P,J13,4*
G04 #@! TO.N,GND*
X180340000Y-148000000D03*
G04 #@! TD*
D10*
G04 #@! TO.P,J11,1*
G04 #@! TO.N,/3V3*
X198000000Y-127000000D03*
D11*
G04 #@! TO.P,J11,2*
G04 #@! TO.N,/MOSI*
X198000000Y-129540000D03*
G04 #@! TO.P,J11,3*
G04 #@! TO.N,/MISO*
X198000000Y-132080000D03*
G04 #@! TO.P,J11,4*
G04 #@! TO.N,/SCK*
X198000000Y-134620000D03*
G04 #@! TO.P,J11,5*
G04 #@! TO.N,GND*
X198000000Y-137160000D03*
G04 #@! TD*
G04 #@! TO.P,J10,5*
G04 #@! TO.N,GND*
X127000000Y-148000000D03*
G04 #@! TO.P,J10,4*
G04 #@! TO.N,/out2_ch4_en*
X129540000Y-148000000D03*
G04 #@! TO.P,J10,3*
G04 #@! TO.N,/out2_ch3_en*
X132080000Y-148000000D03*
G04 #@! TO.P,J10,2*
G04 #@! TO.N,/out2_ch2_en*
X134620000Y-148000000D03*
D10*
G04 #@! TO.P,J10,1*
G04 #@! TO.N,/out2_ch1_en*
X137160000Y-148000000D03*
G04 #@! TD*
G04 #@! TO.P,J7,1*
G04 #@! TO.N,/out2_ch1_i*
X119380000Y-102000000D03*
D11*
G04 #@! TO.P,J7,2*
G04 #@! TO.N,/out2_ch2_i*
X121920000Y-102000000D03*
G04 #@! TO.P,J7,3*
G04 #@! TO.N,/out2_ch3_i*
X124460000Y-102000000D03*
G04 #@! TO.P,J7,4*
G04 #@! TO.N,/out2_ch4_i*
X127000000Y-102000000D03*
G04 #@! TO.P,J7,5*
G04 #@! TO.N,GND*
X129540000Y-102000000D03*
G04 #@! TD*
G04 #@! TO.P,J6,5*
G04 #@! TO.N,GND*
X145160000Y-102000000D03*
G04 #@! TO.P,J6,4*
G04 #@! TO.N,/out1_ch4_i*
X142620000Y-102000000D03*
G04 #@! TO.P,J6,3*
G04 #@! TO.N,/out1_ch3_i*
X140080000Y-102000000D03*
G04 #@! TO.P,J6,2*
G04 #@! TO.N,/out1_ch2_i*
X137540000Y-102000000D03*
D10*
G04 #@! TO.P,J6,1*
G04 #@! TO.N,/out1_ch1_i*
X135000000Y-102000000D03*
G04 #@! TD*
G04 #@! TO.P,J9,1*
G04 #@! TO.N,/out1_ch1_en*
X150000000Y-148000000D03*
D11*
G04 #@! TO.P,J9,2*
G04 #@! TO.N,/out1_ch2_en*
X147460000Y-148000000D03*
G04 #@! TO.P,J9,3*
G04 #@! TO.N,/out1_ch3_en*
X144920000Y-148000000D03*
G04 #@! TO.P,J9,4*
G04 #@! TO.N,/out1_ch4_en*
X142380000Y-148000000D03*
G04 #@! TO.P,J9,5*
G04 #@! TO.N,GND*
X139840000Y-148000000D03*
G04 #@! TD*
D14*
G04 #@! TO.P,U3,1*
G04 #@! TO.N,GND*
X133490000Y-132620000D03*
D15*
G04 #@! TO.P,U3,2*
G04 #@! TO.N,/RX*
X136030000Y-132620000D03*
G04 #@! TO.P,U3,3*
G04 #@! TO.N,/TX*
X138570000Y-132620000D03*
G04 #@! TO.P,U3,4*
G04 #@! TO.N,Net-(D3-Pad2)*
X141110000Y-132620000D03*
G04 #@! TO.P,U3,5*
G04 #@! TO.N,Net-(R42-Pad2)*
X143650000Y-132620000D03*
G04 #@! TO.P,U3,6*
G04 #@! TO.N,Net-(R39-Pad2)*
X146190000Y-132620000D03*
G04 #@! TO.P,U3,7*
G04 #@! TO.N,Net-(R41-Pad2)*
X148730000Y-132620000D03*
G04 #@! TO.P,U3,8*
G04 #@! TO.N,Net-(R38-Pad2)*
X151270000Y-132620000D03*
G04 #@! TO.P,U3,9*
G04 #@! TO.N,Net-(R40-Pad2)*
X153810000Y-132620000D03*
G04 #@! TO.P,U3,10*
G04 #@! TO.N,Net-(R37-Pad2)*
X156350000Y-132620000D03*
G04 #@! TO.P,U3,11*
G04 #@! TO.N,Net-(R47-Pad2)*
X158890000Y-132620000D03*
G04 #@! TO.P,U3,12*
G04 #@! TO.N,Net-(R46-Pad2)*
X161430000Y-132620000D03*
G04 #@! TO.P,U3,13*
G04 #@! TO.N,/MOSI*
X163970000Y-132620000D03*
G04 #@! TO.P,U3,37*
G04 #@! TO.N,Net-(R17-Pad1)*
X146190000Y-119920000D03*
G04 #@! TO.P,U3,36*
G04 #@! TO.N,Net-(R14-Pad1)*
X143650000Y-119920000D03*
G04 #@! TO.P,U3,35*
G04 #@! TO.N,Net-(D2-Pad1)*
X141110000Y-119920000D03*
G04 #@! TO.P,U3,34*
G04 #@! TO.N,Net-(U3-Pad34)*
X136030000Y-119920000D03*
G04 #@! TO.P,U3,33*
G04 #@! TO.N,+5V*
X133490000Y-117380000D03*
G04 #@! TO.P,U3,32*
G04 #@! TO.N,GND*
X136030000Y-117380000D03*
G04 #@! TO.P,U3,31*
G04 #@! TO.N,/3V3*
X138570000Y-117380000D03*
G04 #@! TO.P,U3,30*
G04 #@! TO.N,/A9*
X141110000Y-117380000D03*
G04 #@! TO.P,U3,29*
G04 #@! TO.N,/A8*
X143650000Y-117380000D03*
G04 #@! TO.P,U3,28*
G04 #@! TO.N,/A7*
X146190000Y-117380000D03*
G04 #@! TO.P,U3,27*
G04 #@! TO.N,/A6*
X148730000Y-117380000D03*
G04 #@! TO.P,U3,26*
G04 #@! TO.N,/A5*
X151270000Y-117380000D03*
G04 #@! TO.P,U3,25*
G04 #@! TO.N,/A4*
X153810000Y-117380000D03*
G04 #@! TO.P,U3,24*
G04 #@! TO.N,/A3*
X156350000Y-117380000D03*
G04 #@! TO.P,U3,23*
G04 #@! TO.N,/A2*
X158890000Y-117380000D03*
G04 #@! TO.P,U3,22*
G04 #@! TO.N,/A1*
X161430000Y-117380000D03*
G04 #@! TO.P,U3,21*
G04 #@! TO.N,/A0*
X163970000Y-117380000D03*
G04 #@! TO.P,U3,14*
G04 #@! TO.N,/MISO*
X166510000Y-132620000D03*
G04 #@! TO.P,U3,15*
G04 #@! TO.N,Net-(U3-Pad15)*
X166510000Y-130080000D03*
G04 #@! TO.P,U3,16*
G04 #@! TO.N,Net-(U3-Pad16)*
X166510000Y-127540000D03*
G04 #@! TO.P,U3,20*
G04 #@! TO.N,/SCK*
X166510000Y-117380000D03*
G04 #@! TO.P,U3,19*
G04 #@! TO.N,Net-(R45-Pad2)*
X166510000Y-119920000D03*
G04 #@! TO.P,U3,18*
G04 #@! TO.N,/RESET*
X166510000Y-122460000D03*
G04 #@! TO.P,U3,17*
G04 #@! TO.N,GND*
X166510000Y-125000000D03*
G04 #@! TD*
D16*
G04 #@! TO.N,GND*
X138000000Y-110500000D03*
X137500000Y-114000000D03*
X125000000Y-110500000D03*
X127000000Y-113500000D03*
X122500000Y-119000000D03*
X112500000Y-135500000D03*
X112500000Y-134000000D03*
X118500000Y-127500000D03*
X125500000Y-134000000D03*
X117000000Y-142000000D03*
X122000000Y-122000000D03*
X110500000Y-111500000D03*
G04 #@! TO.N,/MISO*
X182600000Y-134500000D03*
X195499992Y-132000000D03*
G04 #@! TO.N,/3V3*
X169500000Y-119000000D03*
X139500000Y-122000000D03*
X164548015Y-119451985D03*
X190460032Y-122800000D03*
G04 #@! TO.N,/MOSI*
X182600002Y-135900000D03*
G04 #@! TO.N,/A8*
X140000000Y-114000000D03*
G04 #@! TO.N,/TX*
X164000000Y-130500000D03*
X169000000Y-130500000D03*
X181919953Y-129500000D03*
G04 #@! TO.N,/RX*
X163000000Y-129500000D03*
X169000000Y-129000000D03*
X181300001Y-128300000D03*
G04 #@! TO.N,Net-(R45-Pad2)*
X170128373Y-131724979D03*
X169545270Y-135775021D03*
G04 #@! TO.N,Net-(R46-Pad2)*
X161499999Y-136775043D03*
G04 #@! TO.N,Net-(R47-Pad2)*
X157999999Y-137775063D03*
G04 #@! TO.N,/I2C_SDA*
X184000000Y-119500000D03*
X170000000Y-120000000D03*
X162500000Y-119500000D03*
G04 #@! TO.N,/I2C_SCL*
X186000000Y-121500000D03*
X154500000Y-120500000D03*
X164000000Y-121000000D03*
X169000000Y-123500000D03*
X182000000Y-122500000D03*
X149905001Y-118594999D03*
G04 #@! TD*
D17*
G04 #@! TO.N,GND*
X193040000Y-121920000D02*
X198000000Y-121920000D01*
X187960000Y-127000000D02*
X193040000Y-121920000D01*
D18*
G04 #@! TO.N,/MISO*
X182720000Y-134620000D02*
X182600000Y-134500000D01*
X185420000Y-134620000D02*
X182720000Y-134620000D01*
X198000000Y-132080000D02*
X195579992Y-132080000D01*
X195579992Y-132080000D02*
X195499992Y-132000000D01*
G04 #@! TO.N,/3V3*
X138570000Y-121070000D02*
X138570000Y-117380000D01*
X139500000Y-122000000D02*
X138570000Y-121070000D01*
X169500000Y-119000000D02*
X169100001Y-118600001D01*
X165399999Y-118600001D02*
X164948014Y-119051986D01*
X164948014Y-119051986D02*
X164548015Y-119451985D01*
X169100001Y-118600001D02*
X165399999Y-118600001D01*
X189580032Y-121920000D02*
X190060033Y-122400001D01*
X187960000Y-121920000D02*
X189580032Y-121920000D01*
X190060033Y-122400001D02*
X190460032Y-122800000D01*
G04 #@! TO.N,/MOSI*
X186680000Y-135900000D02*
X183165687Y-135900000D01*
X183165687Y-135900000D02*
X182600002Y-135900000D01*
X187960000Y-134620000D02*
X186680000Y-135900000D01*
G04 #@! TO.N,/A4*
X153810000Y-117810000D02*
X153810000Y-117380000D01*
G04 #@! TO.N,/A8*
X143380000Y-117380000D02*
X143650000Y-117380000D01*
X140000000Y-114000000D02*
X143380000Y-117380000D01*
G04 #@! TO.N,/TX*
X164755001Y-131255001D02*
X168244999Y-131255001D01*
X164000000Y-130500000D02*
X164755001Y-131255001D01*
X168244999Y-131255001D02*
X169000000Y-130500000D01*
X185000000Y-130000000D02*
X185460000Y-129540000D01*
X181959953Y-129540000D02*
X181919953Y-129500000D01*
X185420000Y-129540000D02*
X181959953Y-129540000D01*
G04 #@! TO.N,/RX*
X168904999Y-128904999D02*
X169000000Y-129000000D01*
X163000000Y-129500000D02*
X163595001Y-128904999D01*
X163595001Y-128904999D02*
X168904999Y-128904999D01*
X186720000Y-128300000D02*
X181865686Y-128300000D01*
X181865686Y-128300000D02*
X181300001Y-128300000D01*
X187960000Y-129540000D02*
X186720000Y-128300000D01*
G04 #@! TO.N,Net-(R45-Pad2)*
X169545270Y-132308082D02*
X169545270Y-135209336D01*
X170128373Y-131724979D02*
X169545270Y-132308082D01*
X169545270Y-135209336D02*
X169545270Y-135775021D01*
G04 #@! TO.N,Net-(R46-Pad2)*
X161430000Y-136705044D02*
X161499999Y-136775043D01*
X161430000Y-132620000D02*
X161430000Y-136705044D01*
G04 #@! TO.N,Net-(R47-Pad2)*
X158890000Y-132620000D02*
X158890000Y-136885062D01*
X158890000Y-136885062D02*
X158399998Y-137375064D01*
X158399998Y-137375064D02*
X157999999Y-137775063D01*
G04 #@! TO.N,/I2C_SDA*
X186660000Y-116840000D02*
X187960000Y-116840000D01*
X184000000Y-119500000D02*
X186660000Y-116840000D01*
X164372001Y-120224999D02*
X163224999Y-120224999D01*
X170000000Y-120000000D02*
X168904999Y-121095001D01*
X163224999Y-120224999D02*
X162899999Y-119899999D01*
X168904999Y-121095001D02*
X165242003Y-121095001D01*
X165242003Y-121095001D02*
X164372001Y-120224999D01*
X162899999Y-119899999D02*
X162500000Y-119500000D01*
G04 #@! TO.N,/I2C_SCL*
X187960000Y-119380000D02*
X186000000Y-121340000D01*
X186000000Y-121340000D02*
X186000000Y-121500000D01*
X165945999Y-123635001D02*
X168864999Y-123635001D01*
X164000000Y-121000000D02*
X164000000Y-121689002D01*
X164000000Y-121689002D02*
X165945999Y-123635001D01*
X168864999Y-123635001D02*
X169000000Y-123500000D01*
X183000000Y-121500000D02*
X186000000Y-121500000D01*
X182000000Y-122500000D02*
X183000000Y-121500000D01*
X154500000Y-120500000D02*
X151810002Y-120500000D01*
X151810002Y-120500000D02*
X149905001Y-118594999D01*
G04 #@! TD*
D19*
G04 #@! TO.N,GND*
G36*
X110311843Y-100902235D02*
X110262560Y-101150000D01*
X110262560Y-102850000D01*
X110311843Y-103097765D01*
X110452191Y-103307809D01*
X110662235Y-103448157D01*
X110910000Y-103497440D01*
X112610000Y-103497440D01*
X112857765Y-103448157D01*
X113067809Y-103307809D01*
X113208157Y-103097765D01*
X113217184Y-103052381D01*
X113229375Y-103070625D01*
X113720582Y-103398839D01*
X114153744Y-103485000D01*
X114446256Y-103485000D01*
X114879418Y-103398839D01*
X115370625Y-103070625D01*
X115698839Y-102579418D01*
X115814092Y-102000000D01*
X115698839Y-101420582D01*
X115370625Y-100929375D01*
X115042307Y-100710000D01*
X118060291Y-100710000D01*
X117931843Y-100902235D01*
X117882560Y-101150000D01*
X117882560Y-102850000D01*
X117931843Y-103097765D01*
X118072191Y-103307809D01*
X118282235Y-103448157D01*
X118530000Y-103497440D01*
X120230000Y-103497440D01*
X120477765Y-103448157D01*
X120687809Y-103307809D01*
X120828157Y-103097765D01*
X120837184Y-103052381D01*
X120849375Y-103070625D01*
X121340582Y-103398839D01*
X121773744Y-103485000D01*
X122066256Y-103485000D01*
X122499418Y-103398839D01*
X122990625Y-103070625D01*
X123190000Y-102772239D01*
X123389375Y-103070625D01*
X123880582Y-103398839D01*
X124313744Y-103485000D01*
X124606256Y-103485000D01*
X125039418Y-103398839D01*
X125530625Y-103070625D01*
X125730000Y-102772239D01*
X125929375Y-103070625D01*
X126420582Y-103398839D01*
X126853744Y-103485000D01*
X127146256Y-103485000D01*
X127579418Y-103398839D01*
X128070625Y-103070625D01*
X128283843Y-102751522D01*
X128344817Y-102881358D01*
X128773076Y-103271645D01*
X129183110Y-103441476D01*
X129413000Y-103320155D01*
X129413000Y-102127000D01*
X129667000Y-102127000D01*
X129667000Y-103320155D01*
X129896890Y-103441476D01*
X130306924Y-103271645D01*
X130735183Y-102881358D01*
X130981486Y-102356892D01*
X130860819Y-102127000D01*
X129667000Y-102127000D01*
X129413000Y-102127000D01*
X129393000Y-102127000D01*
X129393000Y-101873000D01*
X129413000Y-101873000D01*
X129413000Y-101853000D01*
X129667000Y-101853000D01*
X129667000Y-101873000D01*
X130860819Y-101873000D01*
X130981486Y-101643108D01*
X130735183Y-101118642D01*
X130306924Y-100728355D01*
X130262608Y-100710000D01*
X133680291Y-100710000D01*
X133551843Y-100902235D01*
X133502560Y-101150000D01*
X133502560Y-102850000D01*
X133551843Y-103097765D01*
X133692191Y-103307809D01*
X133902235Y-103448157D01*
X134150000Y-103497440D01*
X135850000Y-103497440D01*
X136097765Y-103448157D01*
X136307809Y-103307809D01*
X136448157Y-103097765D01*
X136457184Y-103052381D01*
X136469375Y-103070625D01*
X136960582Y-103398839D01*
X137393744Y-103485000D01*
X137686256Y-103485000D01*
X138119418Y-103398839D01*
X138610625Y-103070625D01*
X138810000Y-102772239D01*
X139009375Y-103070625D01*
X139500582Y-103398839D01*
X139933744Y-103485000D01*
X140226256Y-103485000D01*
X140659418Y-103398839D01*
X141150625Y-103070625D01*
X141350000Y-102772239D01*
X141549375Y-103070625D01*
X142040582Y-103398839D01*
X142473744Y-103485000D01*
X142766256Y-103485000D01*
X143199418Y-103398839D01*
X143690625Y-103070625D01*
X143903843Y-102751522D01*
X143964817Y-102881358D01*
X144393076Y-103271645D01*
X144803110Y-103441476D01*
X145033000Y-103320155D01*
X145033000Y-102127000D01*
X145287000Y-102127000D01*
X145287000Y-103320155D01*
X145516890Y-103441476D01*
X145926924Y-103271645D01*
X146355183Y-102881358D01*
X146601486Y-102356892D01*
X146564145Y-102285750D01*
X161075000Y-102285750D01*
X161075000Y-102976309D01*
X161171673Y-103209698D01*
X161350301Y-103388327D01*
X161583690Y-103485000D01*
X162274250Y-103485000D01*
X162433000Y-103326250D01*
X162433000Y-102127000D01*
X161233750Y-102127000D01*
X161075000Y-102285750D01*
X146564145Y-102285750D01*
X146480819Y-102127000D01*
X145287000Y-102127000D01*
X145033000Y-102127000D01*
X145013000Y-102127000D01*
X145013000Y-101873000D01*
X145033000Y-101873000D01*
X145033000Y-101853000D01*
X145287000Y-101853000D01*
X145287000Y-101873000D01*
X146480819Y-101873000D01*
X146601486Y-101643108D01*
X146355183Y-101118642D01*
X145926924Y-100728355D01*
X145882608Y-100710000D01*
X161251975Y-100710000D01*
X161171673Y-100790302D01*
X161075000Y-101023691D01*
X161075000Y-101714250D01*
X161233750Y-101873000D01*
X162433000Y-101873000D01*
X162433000Y-101853000D01*
X162687000Y-101853000D01*
X162687000Y-101873000D01*
X162707000Y-101873000D01*
X162707000Y-102127000D01*
X162687000Y-102127000D01*
X162687000Y-103326250D01*
X162845750Y-103485000D01*
X163536310Y-103485000D01*
X163769699Y-103388327D01*
X163948327Y-103209698D01*
X164014904Y-103048967D01*
X164029375Y-103070625D01*
X164520582Y-103398839D01*
X164953744Y-103485000D01*
X165246256Y-103485000D01*
X165679418Y-103398839D01*
X166170625Y-103070625D01*
X166370000Y-102772239D01*
X166569375Y-103070625D01*
X167060582Y-103398839D01*
X167493744Y-103485000D01*
X167786256Y-103485000D01*
X168219418Y-103398839D01*
X168710625Y-103070625D01*
X169038839Y-102579418D01*
X169097252Y-102285750D01*
X171235000Y-102285750D01*
X171235000Y-102976309D01*
X171331673Y-103209698D01*
X171510301Y-103388327D01*
X171743690Y-103485000D01*
X172434250Y-103485000D01*
X172593000Y-103326250D01*
X172593000Y-102127000D01*
X171393750Y-102127000D01*
X171235000Y-102285750D01*
X169097252Y-102285750D01*
X169154092Y-102000000D01*
X169038839Y-101420582D01*
X168710625Y-100929375D01*
X168382307Y-100710000D01*
X171411975Y-100710000D01*
X171331673Y-100790302D01*
X171235000Y-101023691D01*
X171235000Y-101714250D01*
X171393750Y-101873000D01*
X172593000Y-101873000D01*
X172593000Y-101853000D01*
X172847000Y-101853000D01*
X172847000Y-101873000D01*
X172867000Y-101873000D01*
X172867000Y-102127000D01*
X172847000Y-102127000D01*
X172847000Y-103326250D01*
X173005750Y-103485000D01*
X173696310Y-103485000D01*
X173929699Y-103388327D01*
X174108327Y-103209698D01*
X174174904Y-103048967D01*
X174189375Y-103070625D01*
X174680582Y-103398839D01*
X175113744Y-103485000D01*
X175406256Y-103485000D01*
X175839418Y-103398839D01*
X176330625Y-103070625D01*
X176530000Y-102772239D01*
X176729375Y-103070625D01*
X177220582Y-103398839D01*
X177653744Y-103485000D01*
X177946256Y-103485000D01*
X178379418Y-103398839D01*
X178870625Y-103070625D01*
X179198839Y-102579418D01*
X179257252Y-102285750D01*
X181515000Y-102285750D01*
X181515000Y-102976309D01*
X181611673Y-103209698D01*
X181790301Y-103388327D01*
X182023690Y-103485000D01*
X182714250Y-103485000D01*
X182873000Y-103326250D01*
X182873000Y-102127000D01*
X181673750Y-102127000D01*
X181515000Y-102285750D01*
X179257252Y-102285750D01*
X179314092Y-102000000D01*
X179198839Y-101420582D01*
X178870625Y-100929375D01*
X178542307Y-100710000D01*
X181691975Y-100710000D01*
X181611673Y-100790302D01*
X181515000Y-101023691D01*
X181515000Y-101714250D01*
X181673750Y-101873000D01*
X182873000Y-101873000D01*
X182873000Y-101853000D01*
X183127000Y-101853000D01*
X183127000Y-101873000D01*
X183147000Y-101873000D01*
X183147000Y-102127000D01*
X183127000Y-102127000D01*
X183127000Y-103326250D01*
X183285750Y-103485000D01*
X183976310Y-103485000D01*
X184209699Y-103388327D01*
X184388327Y-103209698D01*
X184454904Y-103048967D01*
X184469375Y-103070625D01*
X184960582Y-103398839D01*
X185393744Y-103485000D01*
X185686256Y-103485000D01*
X186119418Y-103398839D01*
X186610625Y-103070625D01*
X186810000Y-102772239D01*
X187009375Y-103070625D01*
X187500582Y-103398839D01*
X187933744Y-103485000D01*
X188226256Y-103485000D01*
X188659418Y-103398839D01*
X189150625Y-103070625D01*
X189478839Y-102579418D01*
X189594092Y-102000000D01*
X189478839Y-101420582D01*
X189150625Y-100929375D01*
X188822307Y-100710000D01*
X199290001Y-100710000D01*
X199290001Y-112980292D01*
X199097765Y-112851843D01*
X198850000Y-112802560D01*
X197150000Y-112802560D01*
X196902235Y-112851843D01*
X196692191Y-112992191D01*
X196551843Y-113202235D01*
X196502560Y-113450000D01*
X196502560Y-115150000D01*
X196551843Y-115397765D01*
X196692191Y-115607809D01*
X196902235Y-115748157D01*
X196947619Y-115757184D01*
X196929375Y-115769375D01*
X196601161Y-116260582D01*
X196485908Y-116840000D01*
X196601161Y-117419418D01*
X196929375Y-117910625D01*
X197227761Y-118110000D01*
X196929375Y-118309375D01*
X196601161Y-118800582D01*
X196485908Y-119380000D01*
X196601161Y-119959418D01*
X196929375Y-120450625D01*
X197248478Y-120663843D01*
X197118642Y-120724817D01*
X196728355Y-121153076D01*
X196558524Y-121563110D01*
X196679845Y-121793000D01*
X197873000Y-121793000D01*
X197873000Y-121773000D01*
X198127000Y-121773000D01*
X198127000Y-121793000D01*
X198147000Y-121793000D01*
X198147000Y-122047000D01*
X198127000Y-122047000D01*
X198127000Y-123240819D01*
X198356892Y-123361486D01*
X198881358Y-123115183D01*
X199271645Y-122686924D01*
X199290001Y-122642607D01*
X199290000Y-125680292D01*
X199097765Y-125551843D01*
X198850000Y-125502560D01*
X197150000Y-125502560D01*
X196902235Y-125551843D01*
X196692191Y-125692191D01*
X196551843Y-125902235D01*
X196502560Y-126150000D01*
X196502560Y-127850000D01*
X196551843Y-128097765D01*
X196692191Y-128307809D01*
X196902235Y-128448157D01*
X196947619Y-128457184D01*
X196929375Y-128469375D01*
X196601161Y-128960582D01*
X196485908Y-129540000D01*
X196601161Y-130119418D01*
X196929375Y-130610625D01*
X197227761Y-130810000D01*
X196929375Y-131009375D01*
X196721822Y-131320000D01*
X196283703Y-131320000D01*
X196086272Y-131122569D01*
X195705866Y-130965000D01*
X195294118Y-130965000D01*
X194913712Y-131122569D01*
X194622561Y-131413720D01*
X194464992Y-131794126D01*
X194464992Y-132205874D01*
X194622561Y-132586280D01*
X194913712Y-132877431D01*
X195294118Y-133035000D01*
X195705866Y-133035000D01*
X196086272Y-132877431D01*
X196123703Y-132840000D01*
X196721822Y-132840000D01*
X196929375Y-133150625D01*
X197227761Y-133350000D01*
X196929375Y-133549375D01*
X196601161Y-134040582D01*
X196485908Y-134620000D01*
X196601161Y-135199418D01*
X196929375Y-135690625D01*
X197248478Y-135903843D01*
X197118642Y-135964817D01*
X196728355Y-136393076D01*
X196558524Y-136803110D01*
X196679845Y-137033000D01*
X197873000Y-137033000D01*
X197873000Y-137013000D01*
X198127000Y-137013000D01*
X198127000Y-137033000D01*
X198147000Y-137033000D01*
X198147000Y-137287000D01*
X198127000Y-137287000D01*
X198127000Y-138480819D01*
X198356892Y-138601486D01*
X198881358Y-138355183D01*
X199271645Y-137926924D01*
X199290000Y-137882608D01*
X199290000Y-149290000D01*
X189279709Y-149290000D01*
X189408157Y-149097765D01*
X189457440Y-148850000D01*
X189457440Y-147150000D01*
X189408157Y-146902235D01*
X189267809Y-146692191D01*
X189057765Y-146551843D01*
X188810000Y-146502560D01*
X187110000Y-146502560D01*
X186862235Y-146551843D01*
X186652191Y-146692191D01*
X186511843Y-146902235D01*
X186502816Y-146947619D01*
X186490625Y-146929375D01*
X185999418Y-146601161D01*
X185566256Y-146515000D01*
X185273744Y-146515000D01*
X184840582Y-146601161D01*
X184349375Y-146929375D01*
X184150000Y-147227761D01*
X183950625Y-146929375D01*
X183459418Y-146601161D01*
X183026256Y-146515000D01*
X182733744Y-146515000D01*
X182300582Y-146601161D01*
X181809375Y-146929375D01*
X181596157Y-147248478D01*
X181535183Y-147118642D01*
X181106924Y-146728355D01*
X180696890Y-146558524D01*
X180467000Y-146679845D01*
X180467000Y-147873000D01*
X180487000Y-147873000D01*
X180487000Y-148127000D01*
X180467000Y-148127000D01*
X180467000Y-148147000D01*
X180213000Y-148147000D01*
X180213000Y-148127000D01*
X179019181Y-148127000D01*
X178898514Y-148356892D01*
X179144817Y-148881358D01*
X179573076Y-149271645D01*
X179617392Y-149290000D01*
X176579709Y-149290000D01*
X176708157Y-149097765D01*
X176757440Y-148850000D01*
X176757440Y-147643108D01*
X178898514Y-147643108D01*
X179019181Y-147873000D01*
X180213000Y-147873000D01*
X180213000Y-146679845D01*
X179983110Y-146558524D01*
X179573076Y-146728355D01*
X179144817Y-147118642D01*
X178898514Y-147643108D01*
X176757440Y-147643108D01*
X176757440Y-147150000D01*
X176708157Y-146902235D01*
X176567809Y-146692191D01*
X176357765Y-146551843D01*
X176110000Y-146502560D01*
X174410000Y-146502560D01*
X174162235Y-146551843D01*
X173952191Y-146692191D01*
X173811843Y-146902235D01*
X173802816Y-146947619D01*
X173790625Y-146929375D01*
X173299418Y-146601161D01*
X172866256Y-146515000D01*
X172573744Y-146515000D01*
X172140582Y-146601161D01*
X171649375Y-146929375D01*
X171450000Y-147227761D01*
X171250625Y-146929375D01*
X170759418Y-146601161D01*
X170326256Y-146515000D01*
X170033744Y-146515000D01*
X169600582Y-146601161D01*
X169109375Y-146929375D01*
X168896157Y-147248478D01*
X168835183Y-147118642D01*
X168406924Y-146728355D01*
X167996890Y-146558524D01*
X167767000Y-146679845D01*
X167767000Y-147873000D01*
X167787000Y-147873000D01*
X167787000Y-148127000D01*
X167767000Y-148127000D01*
X167767000Y-148147000D01*
X167513000Y-148147000D01*
X167513000Y-148127000D01*
X166319181Y-148127000D01*
X166198514Y-148356892D01*
X166444817Y-148881358D01*
X166873076Y-149271645D01*
X166917392Y-149290000D01*
X163879709Y-149290000D01*
X164008157Y-149097765D01*
X164057440Y-148850000D01*
X164057440Y-147643108D01*
X166198514Y-147643108D01*
X166319181Y-147873000D01*
X167513000Y-147873000D01*
X167513000Y-146679845D01*
X167283110Y-146558524D01*
X166873076Y-146728355D01*
X166444817Y-147118642D01*
X166198514Y-147643108D01*
X164057440Y-147643108D01*
X164057440Y-147150000D01*
X164008157Y-146902235D01*
X163867809Y-146692191D01*
X163657765Y-146551843D01*
X163410000Y-146502560D01*
X161710000Y-146502560D01*
X161462235Y-146551843D01*
X161252191Y-146692191D01*
X161111843Y-146902235D01*
X161102816Y-146947619D01*
X161090625Y-146929375D01*
X160599418Y-146601161D01*
X160166256Y-146515000D01*
X159873744Y-146515000D01*
X159440582Y-146601161D01*
X158949375Y-146929375D01*
X158750000Y-147227761D01*
X158550625Y-146929375D01*
X158059418Y-146601161D01*
X157626256Y-146515000D01*
X157333744Y-146515000D01*
X156900582Y-146601161D01*
X156409375Y-146929375D01*
X156196157Y-147248478D01*
X156135183Y-147118642D01*
X155706924Y-146728355D01*
X155296890Y-146558524D01*
X155067000Y-146679845D01*
X155067000Y-147873000D01*
X155087000Y-147873000D01*
X155087000Y-148127000D01*
X155067000Y-148127000D01*
X155067000Y-148147000D01*
X154813000Y-148147000D01*
X154813000Y-148127000D01*
X153619181Y-148127000D01*
X153498514Y-148356892D01*
X153744817Y-148881358D01*
X154173076Y-149271645D01*
X154217392Y-149290000D01*
X151319709Y-149290000D01*
X151448157Y-149097765D01*
X151497440Y-148850000D01*
X151497440Y-147643108D01*
X153498514Y-147643108D01*
X153619181Y-147873000D01*
X154813000Y-147873000D01*
X154813000Y-146679845D01*
X154583110Y-146558524D01*
X154173076Y-146728355D01*
X153744817Y-147118642D01*
X153498514Y-147643108D01*
X151497440Y-147643108D01*
X151497440Y-147150000D01*
X151448157Y-146902235D01*
X151307809Y-146692191D01*
X151097765Y-146551843D01*
X150850000Y-146502560D01*
X149150000Y-146502560D01*
X148902235Y-146551843D01*
X148692191Y-146692191D01*
X148551843Y-146902235D01*
X148542816Y-146947619D01*
X148530625Y-146929375D01*
X148039418Y-146601161D01*
X147606256Y-146515000D01*
X147313744Y-146515000D01*
X146880582Y-146601161D01*
X146389375Y-146929375D01*
X146190000Y-147227761D01*
X145990625Y-146929375D01*
X145499418Y-146601161D01*
X145066256Y-146515000D01*
X144773744Y-146515000D01*
X144340582Y-146601161D01*
X143849375Y-146929375D01*
X143650000Y-147227761D01*
X143450625Y-146929375D01*
X142959418Y-146601161D01*
X142526256Y-146515000D01*
X142233744Y-146515000D01*
X141800582Y-146601161D01*
X141309375Y-146929375D01*
X141096157Y-147248478D01*
X141035183Y-147118642D01*
X140606924Y-146728355D01*
X140196890Y-146558524D01*
X139967000Y-146679845D01*
X139967000Y-147873000D01*
X139987000Y-147873000D01*
X139987000Y-148127000D01*
X139967000Y-148127000D01*
X139967000Y-148147000D01*
X139713000Y-148147000D01*
X139713000Y-148127000D01*
X139693000Y-148127000D01*
X139693000Y-147873000D01*
X139713000Y-147873000D01*
X139713000Y-146679845D01*
X139483110Y-146558524D01*
X139073076Y-146728355D01*
X138650223Y-147113716D01*
X138608157Y-146902235D01*
X138467809Y-146692191D01*
X138257765Y-146551843D01*
X138010000Y-146502560D01*
X136310000Y-146502560D01*
X136062235Y-146551843D01*
X135852191Y-146692191D01*
X135711843Y-146902235D01*
X135702816Y-146947619D01*
X135690625Y-146929375D01*
X135199418Y-146601161D01*
X134766256Y-146515000D01*
X134473744Y-146515000D01*
X134040582Y-146601161D01*
X133549375Y-146929375D01*
X133350000Y-147227761D01*
X133150625Y-146929375D01*
X132659418Y-146601161D01*
X132226256Y-146515000D01*
X131933744Y-146515000D01*
X131500582Y-146601161D01*
X131009375Y-146929375D01*
X130810000Y-147227761D01*
X130610625Y-146929375D01*
X130119418Y-146601161D01*
X129686256Y-146515000D01*
X129393744Y-146515000D01*
X128960582Y-146601161D01*
X128469375Y-146929375D01*
X128256157Y-147248478D01*
X128195183Y-147118642D01*
X127766924Y-146728355D01*
X127356890Y-146558524D01*
X127127000Y-146679845D01*
X127127000Y-147873000D01*
X127147000Y-147873000D01*
X127147000Y-148127000D01*
X127127000Y-148127000D01*
X127127000Y-148147000D01*
X126873000Y-148147000D01*
X126873000Y-148127000D01*
X125679181Y-148127000D01*
X125558514Y-148356892D01*
X125804817Y-148881358D01*
X126233076Y-149271645D01*
X126277392Y-149290000D01*
X122642608Y-149290000D01*
X122686924Y-149271645D01*
X123115183Y-148881358D01*
X123361486Y-148356892D01*
X123240819Y-148127000D01*
X122047000Y-148127000D01*
X122047000Y-148147000D01*
X121793000Y-148147000D01*
X121793000Y-148127000D01*
X121773000Y-148127000D01*
X121773000Y-147873000D01*
X121793000Y-147873000D01*
X121793000Y-146679845D01*
X122047000Y-146679845D01*
X122047000Y-147873000D01*
X123240819Y-147873000D01*
X123361486Y-147643108D01*
X125558514Y-147643108D01*
X125679181Y-147873000D01*
X126873000Y-147873000D01*
X126873000Y-146679845D01*
X126643110Y-146558524D01*
X126233076Y-146728355D01*
X125804817Y-147118642D01*
X125558514Y-147643108D01*
X123361486Y-147643108D01*
X123115183Y-147118642D01*
X122686924Y-146728355D01*
X122276890Y-146558524D01*
X122047000Y-146679845D01*
X121793000Y-146679845D01*
X121563110Y-146558524D01*
X121153076Y-146728355D01*
X120848739Y-147005708D01*
X120828157Y-146902235D01*
X120687809Y-146692191D01*
X120477765Y-146551843D01*
X120230000Y-146502560D01*
X118530000Y-146502560D01*
X118282235Y-146551843D01*
X118072191Y-146692191D01*
X117931843Y-146902235D01*
X117882560Y-147150000D01*
X117882560Y-148850000D01*
X117931843Y-149097765D01*
X118060291Y-149290000D01*
X115022608Y-149290000D01*
X115066924Y-149271645D01*
X115495183Y-148881358D01*
X115741486Y-148356892D01*
X115620819Y-148127000D01*
X114427000Y-148127000D01*
X114427000Y-148147000D01*
X114173000Y-148147000D01*
X114173000Y-148127000D01*
X114153000Y-148127000D01*
X114153000Y-147873000D01*
X114173000Y-147873000D01*
X114173000Y-146679845D01*
X114427000Y-146679845D01*
X114427000Y-147873000D01*
X115620819Y-147873000D01*
X115741486Y-147643108D01*
X115495183Y-147118642D01*
X115066924Y-146728355D01*
X114656890Y-146558524D01*
X114427000Y-146679845D01*
X114173000Y-146679845D01*
X113943110Y-146558524D01*
X113533076Y-146728355D01*
X113228739Y-147005708D01*
X113208157Y-146902235D01*
X113067809Y-146692191D01*
X112857765Y-146551843D01*
X112610000Y-146502560D01*
X110910000Y-146502560D01*
X110662235Y-146551843D01*
X110452191Y-146692191D01*
X110311843Y-146902235D01*
X110262560Y-147150000D01*
X110262560Y-148850000D01*
X110311843Y-149097765D01*
X110440291Y-149290000D01*
X100710000Y-149290000D01*
X100710000Y-144446029D01*
X102215000Y-144446029D01*
X102215000Y-145553971D01*
X102638991Y-146577576D01*
X103422424Y-147361009D01*
X104446029Y-147785000D01*
X105553971Y-147785000D01*
X106577576Y-147361009D01*
X107361009Y-146577576D01*
X107785000Y-145553971D01*
X107785000Y-144446029D01*
X192215000Y-144446029D01*
X192215000Y-145553971D01*
X192638991Y-146577576D01*
X193422424Y-147361009D01*
X194446029Y-147785000D01*
X195553971Y-147785000D01*
X196577576Y-147361009D01*
X197361009Y-146577576D01*
X197785000Y-145553971D01*
X197785000Y-144446029D01*
X197361009Y-143422424D01*
X196577576Y-142638991D01*
X195553971Y-142215000D01*
X194446029Y-142215000D01*
X193422424Y-142638991D01*
X192638991Y-143422424D01*
X192215000Y-144446029D01*
X107785000Y-144446029D01*
X107361009Y-143422424D01*
X106577576Y-142638991D01*
X105553971Y-142215000D01*
X104446029Y-142215000D01*
X103422424Y-142638991D01*
X102638991Y-143422424D01*
X102215000Y-144446029D01*
X100710000Y-144446029D01*
X100710000Y-133720000D01*
X102552560Y-133720000D01*
X102552560Y-135520000D01*
X102601843Y-135767765D01*
X102742191Y-135977809D01*
X102952235Y-136118157D01*
X103200000Y-136167440D01*
X106800000Y-136167440D01*
X107047765Y-136118157D01*
X107257809Y-135977809D01*
X107398157Y-135767765D01*
X107447440Y-135520000D01*
X107447440Y-133720000D01*
X107398157Y-133472235D01*
X107257809Y-133262191D01*
X107047765Y-133121843D01*
X106800000Y-133072560D01*
X103200000Y-133072560D01*
X102952235Y-133121843D01*
X102742191Y-133262191D01*
X102601843Y-133472235D01*
X102552560Y-133720000D01*
X100710000Y-133720000D01*
X100710000Y-132905750D01*
X132055000Y-132905750D01*
X132055000Y-133546310D01*
X132151673Y-133779699D01*
X132330302Y-133958327D01*
X132563691Y-134055000D01*
X133204250Y-134055000D01*
X133363000Y-133896250D01*
X133363000Y-132747000D01*
X132213750Y-132747000D01*
X132055000Y-132905750D01*
X100710000Y-132905750D01*
X100710000Y-131693690D01*
X132055000Y-131693690D01*
X132055000Y-132334250D01*
X132213750Y-132493000D01*
X133363000Y-132493000D01*
X133363000Y-131343750D01*
X133617000Y-131343750D01*
X133617000Y-132493000D01*
X133637000Y-132493000D01*
X133637000Y-132747000D01*
X133617000Y-132747000D01*
X133617000Y-133896250D01*
X133775750Y-134055000D01*
X134416309Y-134055000D01*
X134649698Y-133958327D01*
X134828327Y-133779699D01*
X134925000Y-133546310D01*
X134925000Y-133544396D01*
X135217138Y-133836534D01*
X135744561Y-134055000D01*
X136315439Y-134055000D01*
X136842862Y-133836534D01*
X137246534Y-133432862D01*
X137300000Y-133303784D01*
X137353466Y-133432862D01*
X137757138Y-133836534D01*
X138284561Y-134055000D01*
X138855439Y-134055000D01*
X139382862Y-133836534D01*
X139786534Y-133432862D01*
X139840000Y-133303784D01*
X139893466Y-133432862D01*
X140297138Y-133836534D01*
X140824561Y-134055000D01*
X141395439Y-134055000D01*
X141922862Y-133836534D01*
X142326534Y-133432862D01*
X142380000Y-133303784D01*
X142433466Y-133432862D01*
X142837138Y-133836534D01*
X143364561Y-134055000D01*
X143935439Y-134055000D01*
X144462862Y-133836534D01*
X144866534Y-133432862D01*
X144920000Y-133303784D01*
X144973466Y-133432862D01*
X145377138Y-133836534D01*
X145904561Y-134055000D01*
X146475439Y-134055000D01*
X147002862Y-133836534D01*
X147406534Y-133432862D01*
X147460000Y-133303784D01*
X147513466Y-133432862D01*
X147917138Y-133836534D01*
X148444561Y-134055000D01*
X149015439Y-134055000D01*
X149542862Y-133836534D01*
X149946534Y-133432862D01*
X150000000Y-133303784D01*
X150053466Y-133432862D01*
X150457138Y-133836534D01*
X150984561Y-134055000D01*
X151555439Y-134055000D01*
X152082862Y-133836534D01*
X152486534Y-133432862D01*
X152540000Y-133303784D01*
X152593466Y-133432862D01*
X152997138Y-133836534D01*
X153524561Y-134055000D01*
X154095439Y-134055000D01*
X154622862Y-133836534D01*
X155026534Y-133432862D01*
X155080000Y-133303784D01*
X155133466Y-133432862D01*
X155537138Y-133836534D01*
X156064561Y-134055000D01*
X156635439Y-134055000D01*
X157162862Y-133836534D01*
X157566534Y-133432862D01*
X157620000Y-133303784D01*
X157673466Y-133432862D01*
X158077138Y-133836534D01*
X158130000Y-133858430D01*
X158130001Y-136570259D01*
X157960197Y-136740063D01*
X157794125Y-136740063D01*
X157413719Y-136897632D01*
X157122568Y-137188783D01*
X156964999Y-137569189D01*
X156964999Y-137980937D01*
X157122568Y-138361343D01*
X157413719Y-138652494D01*
X157794125Y-138810063D01*
X158205873Y-138810063D01*
X158586279Y-138652494D01*
X158877430Y-138361343D01*
X159034999Y-137980937D01*
X159034999Y-137814865D01*
X159374475Y-137475390D01*
X159437929Y-137432991D01*
X159480327Y-137369538D01*
X159480329Y-137369536D01*
X159605903Y-137181600D01*
X159605904Y-137181599D01*
X159650000Y-136959914D01*
X159650000Y-136959910D01*
X159664888Y-136885063D01*
X159650000Y-136810216D01*
X159650000Y-133858430D01*
X159702862Y-133836534D01*
X160106534Y-133432862D01*
X160160000Y-133303784D01*
X160213466Y-133432862D01*
X160617138Y-133836534D01*
X160670000Y-133858430D01*
X160670001Y-136141330D01*
X160622568Y-136188763D01*
X160464999Y-136569169D01*
X160464999Y-136980917D01*
X160622568Y-137361323D01*
X160913719Y-137652474D01*
X161294125Y-137810043D01*
X161705873Y-137810043D01*
X162086279Y-137652474D01*
X162377430Y-137361323D01*
X162534999Y-136980917D01*
X162534999Y-136569169D01*
X162377430Y-136188763D01*
X162190000Y-136001333D01*
X162190000Y-133858430D01*
X162242862Y-133836534D01*
X162646534Y-133432862D01*
X162700000Y-133303784D01*
X162753466Y-133432862D01*
X163157138Y-133836534D01*
X163684561Y-134055000D01*
X164255439Y-134055000D01*
X164782862Y-133836534D01*
X165186534Y-133432862D01*
X165240000Y-133303784D01*
X165293466Y-133432862D01*
X165697138Y-133836534D01*
X166224561Y-134055000D01*
X166795439Y-134055000D01*
X167322862Y-133836534D01*
X167726534Y-133432862D01*
X167945000Y-132905439D01*
X167945000Y-132334561D01*
X167812634Y-132015001D01*
X168170152Y-132015001D01*
X168244999Y-132029889D01*
X168319846Y-132015001D01*
X168319851Y-132015001D01*
X168541536Y-131970905D01*
X168792928Y-131802930D01*
X168835330Y-131739471D01*
X169039801Y-131535000D01*
X169093373Y-131535000D01*
X169093373Y-131685178D01*
X169060800Y-131717751D01*
X168997341Y-131760153D01*
X168829366Y-132011546D01*
X168785270Y-132233231D01*
X168785270Y-132233235D01*
X168770382Y-132308082D01*
X168785270Y-132382929D01*
X168785271Y-135071309D01*
X168667839Y-135188741D01*
X168510270Y-135569147D01*
X168510270Y-135980895D01*
X168667839Y-136361301D01*
X168958990Y-136652452D01*
X169339396Y-136810021D01*
X169751144Y-136810021D01*
X170131550Y-136652452D01*
X170422701Y-136361301D01*
X170580270Y-135980895D01*
X170580270Y-135569147D01*
X170422701Y-135188741D01*
X170305270Y-135071310D01*
X170305270Y-132759979D01*
X170334247Y-132759979D01*
X170714653Y-132602410D01*
X171005804Y-132311259D01*
X171163373Y-131930853D01*
X171163373Y-131519105D01*
X171005804Y-131138699D01*
X170714653Y-130847548D01*
X170334247Y-130689979D01*
X170035000Y-130689979D01*
X170035000Y-130294126D01*
X169877431Y-129913720D01*
X169713711Y-129750000D01*
X169877431Y-129586280D01*
X170035000Y-129205874D01*
X170035000Y-128794126D01*
X169877431Y-128413720D01*
X169586280Y-128122569D01*
X169517613Y-128094126D01*
X180265001Y-128094126D01*
X180265001Y-128505874D01*
X180422570Y-128886280D01*
X180713721Y-129177431D01*
X180901135Y-129255060D01*
X180884953Y-129294126D01*
X180884953Y-129705874D01*
X181042522Y-130086280D01*
X181333673Y-130377431D01*
X181714079Y-130535000D01*
X182125827Y-130535000D01*
X182506233Y-130377431D01*
X182583664Y-130300000D01*
X184141822Y-130300000D01*
X184349375Y-130610625D01*
X184647761Y-130810000D01*
X184349375Y-131009375D01*
X184021161Y-131500582D01*
X183905908Y-132080000D01*
X184021161Y-132659418D01*
X184349375Y-133150625D01*
X184647761Y-133350000D01*
X184349375Y-133549375D01*
X184141822Y-133860000D01*
X183423711Y-133860000D01*
X183186280Y-133622569D01*
X182805874Y-133465000D01*
X182394126Y-133465000D01*
X182013720Y-133622569D01*
X181722569Y-133913720D01*
X181565000Y-134294126D01*
X181565000Y-134705874D01*
X181722569Y-135086280D01*
X181836290Y-135200001D01*
X181722571Y-135313720D01*
X181565002Y-135694126D01*
X181565002Y-136105874D01*
X181722571Y-136486280D01*
X182013722Y-136777431D01*
X182394128Y-136935000D01*
X182805876Y-136935000D01*
X183186282Y-136777431D01*
X183303713Y-136660000D01*
X184005364Y-136660000D01*
X183905908Y-137160000D01*
X184021161Y-137739418D01*
X184349375Y-138230625D01*
X184840582Y-138558839D01*
X185273744Y-138645000D01*
X185566256Y-138645000D01*
X185999418Y-138558839D01*
X186490625Y-138230625D01*
X186690000Y-137932239D01*
X186889375Y-138230625D01*
X187380582Y-138558839D01*
X187813744Y-138645000D01*
X188106256Y-138645000D01*
X188539418Y-138558839D01*
X189030625Y-138230625D01*
X189358839Y-137739418D01*
X189403102Y-137516890D01*
X196558524Y-137516890D01*
X196728355Y-137926924D01*
X197118642Y-138355183D01*
X197643108Y-138601486D01*
X197873000Y-138480819D01*
X197873000Y-137287000D01*
X196679845Y-137287000D01*
X196558524Y-137516890D01*
X189403102Y-137516890D01*
X189474092Y-137160000D01*
X189358839Y-136580582D01*
X189030625Y-136089375D01*
X188732239Y-135890000D01*
X189030625Y-135690625D01*
X189358839Y-135199418D01*
X189474092Y-134620000D01*
X189358839Y-134040582D01*
X189030625Y-133549375D01*
X188732239Y-133350000D01*
X189030625Y-133150625D01*
X189358839Y-132659418D01*
X189474092Y-132080000D01*
X189358839Y-131500582D01*
X189030625Y-131009375D01*
X188732239Y-130810000D01*
X189030625Y-130610625D01*
X189358839Y-130119418D01*
X189474092Y-129540000D01*
X189358839Y-128960582D01*
X189030625Y-128469375D01*
X188711522Y-128256157D01*
X188841358Y-128195183D01*
X189231645Y-127766924D01*
X189401476Y-127356890D01*
X189280155Y-127127000D01*
X188087000Y-127127000D01*
X188087000Y-127147000D01*
X187833000Y-127147000D01*
X187833000Y-127127000D01*
X187813000Y-127127000D01*
X187813000Y-126873000D01*
X187833000Y-126873000D01*
X187833000Y-125679181D01*
X188087000Y-125679181D01*
X188087000Y-126873000D01*
X189280155Y-126873000D01*
X189401476Y-126643110D01*
X189231645Y-126233076D01*
X188841358Y-125804817D01*
X188316892Y-125558514D01*
X188087000Y-125679181D01*
X187833000Y-125679181D01*
X187603108Y-125558514D01*
X187078642Y-125804817D01*
X186889961Y-126011855D01*
X186868157Y-125902235D01*
X186727809Y-125692191D01*
X186517765Y-125551843D01*
X186270000Y-125502560D01*
X184570000Y-125502560D01*
X184322235Y-125551843D01*
X184112191Y-125692191D01*
X183971843Y-125902235D01*
X183922560Y-126150000D01*
X183922560Y-127540000D01*
X182003712Y-127540000D01*
X181886281Y-127422569D01*
X181505875Y-127265000D01*
X181094127Y-127265000D01*
X180713721Y-127422569D01*
X180422570Y-127713720D01*
X180265001Y-128094126D01*
X169517613Y-128094126D01*
X169205874Y-127965000D01*
X168794126Y-127965000D01*
X168413720Y-128122569D01*
X168391290Y-128144999D01*
X167812634Y-128144999D01*
X167945000Y-127825439D01*
X167945000Y-127254561D01*
X167726534Y-126727138D01*
X167322862Y-126323466D01*
X167209417Y-126276475D01*
X167264005Y-126253864D01*
X167338139Y-126007745D01*
X166510000Y-125179605D01*
X165681861Y-126007745D01*
X165755995Y-126253864D01*
X165814448Y-126274874D01*
X165697138Y-126323466D01*
X165293466Y-126727138D01*
X165075000Y-127254561D01*
X165075000Y-127825439D01*
X165207366Y-128144999D01*
X163669847Y-128144999D01*
X163595000Y-128130111D01*
X163520153Y-128144999D01*
X163520149Y-128144999D01*
X163298464Y-128189095D01*
X163298462Y-128189096D01*
X163298463Y-128189096D01*
X163110527Y-128314670D01*
X163110525Y-128314672D01*
X163047072Y-128357070D01*
X163004673Y-128420524D01*
X162960197Y-128465000D01*
X162794126Y-128465000D01*
X162413720Y-128622569D01*
X162122569Y-128913720D01*
X161965000Y-129294126D01*
X161965000Y-129705874D01*
X162122569Y-130086280D01*
X162413720Y-130377431D01*
X162794126Y-130535000D01*
X162965000Y-130535000D01*
X162965000Y-130705874D01*
X163122569Y-131086280D01*
X163356978Y-131320689D01*
X163157138Y-131403466D01*
X162753466Y-131807138D01*
X162700000Y-131936216D01*
X162646534Y-131807138D01*
X162242862Y-131403466D01*
X161715439Y-131185000D01*
X161144561Y-131185000D01*
X160617138Y-131403466D01*
X160213466Y-131807138D01*
X160160000Y-131936216D01*
X160106534Y-131807138D01*
X159702862Y-131403466D01*
X159175439Y-131185000D01*
X158604561Y-131185000D01*
X158077138Y-131403466D01*
X157673466Y-131807138D01*
X157620000Y-131936216D01*
X157566534Y-131807138D01*
X157162862Y-131403466D01*
X156635439Y-131185000D01*
X156064561Y-131185000D01*
X155537138Y-131403466D01*
X155133466Y-131807138D01*
X155080000Y-131936216D01*
X155026534Y-131807138D01*
X154622862Y-131403466D01*
X154095439Y-131185000D01*
X153524561Y-131185000D01*
X152997138Y-131403466D01*
X152593466Y-131807138D01*
X152540000Y-131936216D01*
X152486534Y-131807138D01*
X152082862Y-131403466D01*
X151555439Y-131185000D01*
X150984561Y-131185000D01*
X150457138Y-131403466D01*
X150053466Y-131807138D01*
X150000000Y-131936216D01*
X149946534Y-131807138D01*
X149542862Y-131403466D01*
X149015439Y-131185000D01*
X148444561Y-131185000D01*
X147917138Y-131403466D01*
X147513466Y-131807138D01*
X147460000Y-131936216D01*
X147406534Y-131807138D01*
X147002862Y-131403466D01*
X146475439Y-131185000D01*
X145904561Y-131185000D01*
X145377138Y-131403466D01*
X144973466Y-131807138D01*
X144920000Y-131936216D01*
X144866534Y-131807138D01*
X144462862Y-131403466D01*
X143935439Y-131185000D01*
X143364561Y-131185000D01*
X142837138Y-131403466D01*
X142433466Y-131807138D01*
X142380000Y-131936216D01*
X142326534Y-131807138D01*
X141922862Y-131403466D01*
X141395439Y-131185000D01*
X140824561Y-131185000D01*
X140297138Y-131403466D01*
X139893466Y-131807138D01*
X139840000Y-131936216D01*
X139786534Y-131807138D01*
X139382862Y-131403466D01*
X138855439Y-131185000D01*
X138284561Y-131185000D01*
X137757138Y-131403466D01*
X137353466Y-131807138D01*
X137300000Y-131936216D01*
X137246534Y-131807138D01*
X136842862Y-131403466D01*
X136315439Y-131185000D01*
X135744561Y-131185000D01*
X135217138Y-131403466D01*
X134925000Y-131695604D01*
X134925000Y-131693690D01*
X134828327Y-131460301D01*
X134649698Y-131281673D01*
X134416309Y-131185000D01*
X133775750Y-131185000D01*
X133617000Y-131343750D01*
X133363000Y-131343750D01*
X133204250Y-131185000D01*
X132563691Y-131185000D01*
X132330302Y-131281673D01*
X132151673Y-131460301D01*
X132055000Y-131693690D01*
X100710000Y-131693690D01*
X100710000Y-129540000D01*
X102534928Y-129540000D01*
X102654062Y-130138927D01*
X102993327Y-130646673D01*
X103501073Y-130985938D01*
X103948818Y-131075000D01*
X106051182Y-131075000D01*
X106498927Y-130985938D01*
X107006673Y-130646673D01*
X107345938Y-130138927D01*
X107465072Y-129540000D01*
X107345938Y-128941073D01*
X107006673Y-128433327D01*
X106498927Y-128094062D01*
X106051182Y-128005000D01*
X103948818Y-128005000D01*
X103501073Y-128094062D01*
X102993327Y-128433327D01*
X102654062Y-128941073D01*
X102534928Y-129540000D01*
X100710000Y-129540000D01*
X100710000Y-119285750D01*
X102565000Y-119285750D01*
X102565000Y-120026309D01*
X102661673Y-120259698D01*
X102840301Y-120438327D01*
X103073690Y-120535000D01*
X104714250Y-120535000D01*
X104873000Y-120376250D01*
X104873000Y-119127000D01*
X105127000Y-119127000D01*
X105127000Y-120376250D01*
X105285750Y-120535000D01*
X106926310Y-120535000D01*
X107159699Y-120438327D01*
X107338327Y-120259698D01*
X107435000Y-120026309D01*
X107435000Y-119634561D01*
X134595000Y-119634561D01*
X134595000Y-120205439D01*
X134813466Y-120732862D01*
X135217138Y-121136534D01*
X135744561Y-121355000D01*
X136315439Y-121355000D01*
X136842862Y-121136534D01*
X137246534Y-120732862D01*
X137465000Y-120205439D01*
X137465000Y-119634561D01*
X137246534Y-119107138D01*
X136842862Y-118703466D01*
X136729417Y-118656475D01*
X136784005Y-118633864D01*
X136858139Y-118387745D01*
X136030000Y-117559605D01*
X135201861Y-118387745D01*
X135275995Y-118633864D01*
X135334448Y-118654874D01*
X135217138Y-118703466D01*
X134813466Y-119107138D01*
X134595000Y-119634561D01*
X107435000Y-119634561D01*
X107435000Y-119285750D01*
X107276250Y-119127000D01*
X105127000Y-119127000D01*
X104873000Y-119127000D01*
X102723750Y-119127000D01*
X102565000Y-119285750D01*
X100710000Y-119285750D01*
X100710000Y-117973691D01*
X102565000Y-117973691D01*
X102565000Y-118714250D01*
X102723750Y-118873000D01*
X104873000Y-118873000D01*
X104873000Y-117623750D01*
X105127000Y-117623750D01*
X105127000Y-118873000D01*
X107276250Y-118873000D01*
X107435000Y-118714250D01*
X107435000Y-117973691D01*
X107338327Y-117740302D01*
X107159699Y-117561673D01*
X106926310Y-117465000D01*
X105285750Y-117465000D01*
X105127000Y-117623750D01*
X104873000Y-117623750D01*
X104714250Y-117465000D01*
X103073690Y-117465000D01*
X102840301Y-117561673D01*
X102661673Y-117740302D01*
X102565000Y-117973691D01*
X100710000Y-117973691D01*
X100710000Y-117094561D01*
X132055000Y-117094561D01*
X132055000Y-117665439D01*
X132273466Y-118192862D01*
X132677138Y-118596534D01*
X133204561Y-118815000D01*
X133775439Y-118815000D01*
X134302862Y-118596534D01*
X134706534Y-118192862D01*
X134753525Y-118079417D01*
X134776136Y-118134005D01*
X135022255Y-118208139D01*
X135850395Y-117380000D01*
X136209605Y-117380000D01*
X137037745Y-118208139D01*
X137283864Y-118134005D01*
X137304874Y-118075552D01*
X137353466Y-118192862D01*
X137757138Y-118596534D01*
X137810001Y-118618430D01*
X137810000Y-120995153D01*
X137795112Y-121070000D01*
X137810000Y-121144847D01*
X137810000Y-121144851D01*
X137854096Y-121366536D01*
X138022071Y-121617929D01*
X138085530Y-121660331D01*
X138465000Y-122039801D01*
X138465000Y-122205874D01*
X138622569Y-122586280D01*
X138913720Y-122877431D01*
X139294126Y-123035000D01*
X139705874Y-123035000D01*
X140086280Y-122877431D01*
X140377431Y-122586280D01*
X140535000Y-122205874D01*
X140535000Y-121794126D01*
X140377431Y-121413720D01*
X140086280Y-121122569D01*
X139705874Y-120965000D01*
X139539801Y-120965000D01*
X139330000Y-120755199D01*
X139330000Y-118618430D01*
X139382862Y-118596534D01*
X139786534Y-118192862D01*
X139840000Y-118063784D01*
X139893466Y-118192862D01*
X140297138Y-118596534D01*
X140426216Y-118650000D01*
X140297138Y-118703466D01*
X139893466Y-119107138D01*
X139675000Y-119634561D01*
X139675000Y-120205439D01*
X139893466Y-120732862D01*
X140297138Y-121136534D01*
X140824561Y-121355000D01*
X141395439Y-121355000D01*
X141922862Y-121136534D01*
X142326534Y-120732862D01*
X142380000Y-120603784D01*
X142433466Y-120732862D01*
X142837138Y-121136534D01*
X143364561Y-121355000D01*
X143935439Y-121355000D01*
X144462862Y-121136534D01*
X144866534Y-120732862D01*
X144920000Y-120603784D01*
X144973466Y-120732862D01*
X145377138Y-121136534D01*
X145904561Y-121355000D01*
X146475439Y-121355000D01*
X147002862Y-121136534D01*
X147406534Y-120732862D01*
X147625000Y-120205439D01*
X147625000Y-119634561D01*
X147406534Y-119107138D01*
X147002862Y-118703466D01*
X146873784Y-118650000D01*
X147002862Y-118596534D01*
X147406534Y-118192862D01*
X147460000Y-118063784D01*
X147513466Y-118192862D01*
X147917138Y-118596534D01*
X148444561Y-118815000D01*
X148875853Y-118815000D01*
X149027570Y-119181279D01*
X149318721Y-119472430D01*
X149699127Y-119629999D01*
X149865200Y-119629999D01*
X151219673Y-120984473D01*
X151262073Y-121047929D01*
X151513465Y-121215904D01*
X151735150Y-121260000D01*
X151735154Y-121260000D01*
X151810001Y-121274888D01*
X151884848Y-121260000D01*
X153796289Y-121260000D01*
X153913720Y-121377431D01*
X154294126Y-121535000D01*
X154705874Y-121535000D01*
X155086280Y-121377431D01*
X155377431Y-121086280D01*
X155535000Y-120705874D01*
X155535000Y-120294126D01*
X155377431Y-119913720D01*
X155086280Y-119622569D01*
X154705874Y-119465000D01*
X154294126Y-119465000D01*
X153913720Y-119622569D01*
X153796289Y-119740000D01*
X152124804Y-119740000D01*
X151199803Y-118815000D01*
X151555439Y-118815000D01*
X152082862Y-118596534D01*
X152486534Y-118192862D01*
X152540000Y-118063784D01*
X152593466Y-118192862D01*
X152997138Y-118596534D01*
X153524561Y-118815000D01*
X154095439Y-118815000D01*
X154622862Y-118596534D01*
X155026534Y-118192862D01*
X155080000Y-118063784D01*
X155133466Y-118192862D01*
X155537138Y-118596534D01*
X156064561Y-118815000D01*
X156635439Y-118815000D01*
X157162862Y-118596534D01*
X157566534Y-118192862D01*
X157620000Y-118063784D01*
X157673466Y-118192862D01*
X158077138Y-118596534D01*
X158604561Y-118815000D01*
X159175439Y-118815000D01*
X159702862Y-118596534D01*
X160106534Y-118192862D01*
X160160000Y-118063784D01*
X160213466Y-118192862D01*
X160617138Y-118596534D01*
X161144561Y-118815000D01*
X161715439Y-118815000D01*
X161725426Y-118810863D01*
X161622569Y-118913720D01*
X161465000Y-119294126D01*
X161465000Y-119705874D01*
X161622569Y-120086280D01*
X161913720Y-120377431D01*
X162294126Y-120535000D01*
X162460199Y-120535000D01*
X162634669Y-120709471D01*
X162677070Y-120772928D01*
X162928462Y-120940903D01*
X162965000Y-120948171D01*
X162965000Y-121205874D01*
X163122569Y-121586280D01*
X163225142Y-121688853D01*
X163225112Y-121689002D01*
X163240000Y-121763849D01*
X163240000Y-121763854D01*
X163284097Y-121985539D01*
X163452072Y-122236931D01*
X163515528Y-122279331D01*
X165355670Y-124119474D01*
X165398070Y-124182930D01*
X165419024Y-124196931D01*
X165256136Y-124245995D01*
X165063035Y-124783223D01*
X165090222Y-125353454D01*
X165256136Y-125754005D01*
X165502255Y-125828139D01*
X166330395Y-125000000D01*
X166316253Y-124985858D01*
X166495858Y-124806252D01*
X166510000Y-124820395D01*
X166524142Y-124806252D01*
X166703748Y-124985858D01*
X166689605Y-125000000D01*
X167517745Y-125828139D01*
X167763864Y-125754005D01*
X167956965Y-125216777D01*
X167929778Y-124646546D01*
X167825584Y-124395001D01*
X168456138Y-124395001D01*
X168794126Y-124535000D01*
X169205874Y-124535000D01*
X169586280Y-124377431D01*
X169877431Y-124086280D01*
X170035000Y-123705874D01*
X170035000Y-123294126D01*
X169877431Y-122913720D01*
X169586280Y-122622569D01*
X169205874Y-122465000D01*
X168794126Y-122465000D01*
X168413720Y-122622569D01*
X168161288Y-122875001D01*
X167891334Y-122875001D01*
X167945000Y-122745439D01*
X167945000Y-122294126D01*
X180965000Y-122294126D01*
X180965000Y-122705874D01*
X181122569Y-123086280D01*
X181413720Y-123377431D01*
X181794126Y-123535000D01*
X182205874Y-123535000D01*
X182586280Y-123377431D01*
X182877431Y-123086280D01*
X183035000Y-122705874D01*
X183035000Y-122539801D01*
X183314802Y-122260000D01*
X185296289Y-122260000D01*
X185413720Y-122377431D01*
X185794126Y-122535000D01*
X186205874Y-122535000D01*
X186462560Y-122428677D01*
X186462560Y-122770000D01*
X186511843Y-123017765D01*
X186652191Y-123227809D01*
X186862235Y-123368157D01*
X187110000Y-123417440D01*
X188810000Y-123417440D01*
X189057765Y-123368157D01*
X189267809Y-123227809D01*
X189408157Y-123017765D01*
X189425032Y-122932928D01*
X189425032Y-123005874D01*
X189582601Y-123386280D01*
X189873752Y-123677431D01*
X190254158Y-123835000D01*
X190665906Y-123835000D01*
X191046312Y-123677431D01*
X191337463Y-123386280D01*
X191495032Y-123005874D01*
X191495032Y-122594126D01*
X191363629Y-122276890D01*
X196558524Y-122276890D01*
X196728355Y-122686924D01*
X197118642Y-123115183D01*
X197643108Y-123361486D01*
X197873000Y-123240819D01*
X197873000Y-122047000D01*
X196679845Y-122047000D01*
X196558524Y-122276890D01*
X191363629Y-122276890D01*
X191337463Y-122213720D01*
X191046312Y-121922569D01*
X190665906Y-121765000D01*
X190499833Y-121765000D01*
X190170363Y-121435530D01*
X190127961Y-121372071D01*
X189876569Y-121204096D01*
X189654884Y-121160000D01*
X189654879Y-121160000D01*
X189580032Y-121145112D01*
X189505185Y-121160000D01*
X189457440Y-121160000D01*
X189457440Y-121070000D01*
X189408157Y-120822235D01*
X189267809Y-120612191D01*
X189057765Y-120471843D01*
X189012381Y-120462816D01*
X189030625Y-120450625D01*
X189358839Y-119959418D01*
X189474092Y-119380000D01*
X189358839Y-118800582D01*
X189030625Y-118309375D01*
X188732239Y-118110000D01*
X189030625Y-117910625D01*
X189358839Y-117419418D01*
X189474092Y-116840000D01*
X189358839Y-116260582D01*
X189030625Y-115769375D01*
X188711522Y-115556157D01*
X188841358Y-115495183D01*
X189231645Y-115066924D01*
X189401476Y-114656890D01*
X189280155Y-114427000D01*
X188087000Y-114427000D01*
X188087000Y-114447000D01*
X187833000Y-114447000D01*
X187833000Y-114427000D01*
X186639845Y-114427000D01*
X186518524Y-114656890D01*
X186688355Y-115066924D01*
X187078642Y-115495183D01*
X187208478Y-115556157D01*
X186889375Y-115769375D01*
X186688043Y-116070690D01*
X186659999Y-116065112D01*
X186585152Y-116080000D01*
X186585148Y-116080000D01*
X186363463Y-116124096D01*
X186112071Y-116292071D01*
X186069671Y-116355527D01*
X183960199Y-118465000D01*
X183794126Y-118465000D01*
X183413720Y-118622569D01*
X183122569Y-118913720D01*
X182965000Y-119294126D01*
X182965000Y-119705874D01*
X183122569Y-120086280D01*
X183413720Y-120377431D01*
X183794126Y-120535000D01*
X184205874Y-120535000D01*
X184586280Y-120377431D01*
X184877431Y-120086280D01*
X185035000Y-119705874D01*
X185035000Y-119539801D01*
X186799173Y-117775629D01*
X186889375Y-117910625D01*
X187187761Y-118110000D01*
X186889375Y-118309375D01*
X186561161Y-118800582D01*
X186445908Y-119380000D01*
X186518791Y-119746408D01*
X185800199Y-120465000D01*
X185794126Y-120465000D01*
X185413720Y-120622569D01*
X185296289Y-120740000D01*
X183074848Y-120740000D01*
X183000000Y-120725112D01*
X182925152Y-120740000D01*
X182925148Y-120740000D01*
X182703463Y-120784096D01*
X182452071Y-120952071D01*
X182409671Y-121015527D01*
X181960199Y-121465000D01*
X181794126Y-121465000D01*
X181413720Y-121622569D01*
X181122569Y-121913720D01*
X180965000Y-122294126D01*
X167945000Y-122294126D01*
X167945000Y-122174561D01*
X167812634Y-121855001D01*
X168830152Y-121855001D01*
X168904999Y-121869889D01*
X168979846Y-121855001D01*
X168979851Y-121855001D01*
X169201536Y-121810905D01*
X169452928Y-121642930D01*
X169495330Y-121579471D01*
X170039802Y-121035000D01*
X170205874Y-121035000D01*
X170586280Y-120877431D01*
X170877431Y-120586280D01*
X171035000Y-120205874D01*
X171035000Y-119794126D01*
X170877431Y-119413720D01*
X170586280Y-119122569D01*
X170535000Y-119101328D01*
X170535000Y-118794126D01*
X170377431Y-118413720D01*
X170086280Y-118122569D01*
X169705874Y-117965000D01*
X169517618Y-117965000D01*
X169396538Y-117884097D01*
X169174853Y-117840001D01*
X169174848Y-117840001D01*
X169100001Y-117825113D01*
X169025154Y-117840001D01*
X167872694Y-117840001D01*
X167945000Y-117665439D01*
X167945000Y-117094561D01*
X167726534Y-116567138D01*
X167322862Y-116163466D01*
X166795439Y-115945000D01*
X166224561Y-115945000D01*
X165697138Y-116163466D01*
X165293466Y-116567138D01*
X165240000Y-116696216D01*
X165186534Y-116567138D01*
X164782862Y-116163466D01*
X164255439Y-115945000D01*
X163684561Y-115945000D01*
X163157138Y-116163466D01*
X162753466Y-116567138D01*
X162700000Y-116696216D01*
X162646534Y-116567138D01*
X162242862Y-116163466D01*
X161715439Y-115945000D01*
X161144561Y-115945000D01*
X160617138Y-116163466D01*
X160213466Y-116567138D01*
X160160000Y-116696216D01*
X160106534Y-116567138D01*
X159702862Y-116163466D01*
X159175439Y-115945000D01*
X158604561Y-115945000D01*
X158077138Y-116163466D01*
X157673466Y-116567138D01*
X157620000Y-116696216D01*
X157566534Y-116567138D01*
X157162862Y-116163466D01*
X156635439Y-115945000D01*
X156064561Y-115945000D01*
X155537138Y-116163466D01*
X155133466Y-116567138D01*
X155080000Y-116696216D01*
X155026534Y-116567138D01*
X154622862Y-116163466D01*
X154095439Y-115945000D01*
X153524561Y-115945000D01*
X152997138Y-116163466D01*
X152593466Y-116567138D01*
X152540000Y-116696216D01*
X152486534Y-116567138D01*
X152082862Y-116163466D01*
X151555439Y-115945000D01*
X150984561Y-115945000D01*
X150457138Y-116163466D01*
X150053466Y-116567138D01*
X150000000Y-116696216D01*
X149946534Y-116567138D01*
X149542862Y-116163466D01*
X149015439Y-115945000D01*
X148444561Y-115945000D01*
X147917138Y-116163466D01*
X147513466Y-116567138D01*
X147460000Y-116696216D01*
X147406534Y-116567138D01*
X147002862Y-116163466D01*
X146475439Y-115945000D01*
X145904561Y-115945000D01*
X145377138Y-116163466D01*
X144973466Y-116567138D01*
X144920000Y-116696216D01*
X144866534Y-116567138D01*
X144462862Y-116163466D01*
X143935439Y-115945000D01*
X143364561Y-115945000D01*
X143120779Y-116045978D01*
X141035000Y-113960199D01*
X141035000Y-113943110D01*
X186518524Y-113943110D01*
X186639845Y-114173000D01*
X187833000Y-114173000D01*
X187833000Y-112979181D01*
X188087000Y-112979181D01*
X188087000Y-114173000D01*
X189280155Y-114173000D01*
X189401476Y-113943110D01*
X189231645Y-113533076D01*
X188841358Y-113104817D01*
X188316892Y-112858514D01*
X188087000Y-112979181D01*
X187833000Y-112979181D01*
X187603108Y-112858514D01*
X187078642Y-113104817D01*
X186688355Y-113533076D01*
X186518524Y-113943110D01*
X141035000Y-113943110D01*
X141035000Y-113794126D01*
X140877431Y-113413720D01*
X140586280Y-113122569D01*
X140205874Y-112965000D01*
X139794126Y-112965000D01*
X139413720Y-113122569D01*
X139122569Y-113413720D01*
X138965000Y-113794126D01*
X138965000Y-114205874D01*
X139122569Y-114586280D01*
X139413720Y-114877431D01*
X139794126Y-115035000D01*
X139960199Y-115035000D01*
X140870199Y-115945000D01*
X140824561Y-115945000D01*
X140297138Y-116163466D01*
X139893466Y-116567138D01*
X139840000Y-116696216D01*
X139786534Y-116567138D01*
X139382862Y-116163466D01*
X138855439Y-115945000D01*
X138284561Y-115945000D01*
X137757138Y-116163466D01*
X137353466Y-116567138D01*
X137306475Y-116680583D01*
X137283864Y-116625995D01*
X137037745Y-116551861D01*
X136209605Y-117380000D01*
X135850395Y-117380000D01*
X135022255Y-116551861D01*
X134776136Y-116625995D01*
X134755126Y-116684448D01*
X134706534Y-116567138D01*
X134511651Y-116372255D01*
X135201861Y-116372255D01*
X136030000Y-117200395D01*
X136858139Y-116372255D01*
X136784005Y-116126136D01*
X136246777Y-115933035D01*
X135676546Y-115960222D01*
X135275995Y-116126136D01*
X135201861Y-116372255D01*
X134511651Y-116372255D01*
X134302862Y-116163466D01*
X133775439Y-115945000D01*
X133204561Y-115945000D01*
X132677138Y-116163466D01*
X132273466Y-116567138D01*
X132055000Y-117094561D01*
X100710000Y-117094561D01*
X100710000Y-113920000D01*
X102534928Y-113920000D01*
X102654062Y-114518927D01*
X102993327Y-115026673D01*
X103501073Y-115365938D01*
X103948818Y-115455000D01*
X106051182Y-115455000D01*
X106498927Y-115365938D01*
X107006673Y-115026673D01*
X107345938Y-114518927D01*
X107465072Y-113920000D01*
X107345938Y-113321073D01*
X107006673Y-112813327D01*
X106498927Y-112474062D01*
X106051182Y-112385000D01*
X103948818Y-112385000D01*
X103501073Y-112474062D01*
X102993327Y-112813327D01*
X102654062Y-113321073D01*
X102534928Y-113920000D01*
X100710000Y-113920000D01*
X100710000Y-104446029D01*
X102215000Y-104446029D01*
X102215000Y-105553971D01*
X102638991Y-106577576D01*
X103422424Y-107361009D01*
X104446029Y-107785000D01*
X105553971Y-107785000D01*
X106577576Y-107361009D01*
X107361009Y-106577576D01*
X107785000Y-105553971D01*
X107785000Y-104446029D01*
X192215000Y-104446029D01*
X192215000Y-105553971D01*
X192638991Y-106577576D01*
X193422424Y-107361009D01*
X194446029Y-107785000D01*
X195553971Y-107785000D01*
X196577576Y-107361009D01*
X197361009Y-106577576D01*
X197785000Y-105553971D01*
X197785000Y-104446029D01*
X197361009Y-103422424D01*
X196577576Y-102638991D01*
X195553971Y-102215000D01*
X194446029Y-102215000D01*
X193422424Y-102638991D01*
X192638991Y-103422424D01*
X192215000Y-104446029D01*
X107785000Y-104446029D01*
X107361009Y-103422424D01*
X106577576Y-102638991D01*
X105553971Y-102215000D01*
X104446029Y-102215000D01*
X103422424Y-102638991D01*
X102638991Y-103422424D01*
X102215000Y-104446029D01*
X100710000Y-104446029D01*
X100710000Y-100710000D01*
X110440291Y-100710000D01*
X110311843Y-100902235D01*
X110311843Y-100902235D01*
G37*
X110311843Y-100902235D02*
X110262560Y-101150000D01*
X110262560Y-102850000D01*
X110311843Y-103097765D01*
X110452191Y-103307809D01*
X110662235Y-103448157D01*
X110910000Y-103497440D01*
X112610000Y-103497440D01*
X112857765Y-103448157D01*
X113067809Y-103307809D01*
X113208157Y-103097765D01*
X113217184Y-103052381D01*
X113229375Y-103070625D01*
X113720582Y-103398839D01*
X114153744Y-103485000D01*
X114446256Y-103485000D01*
X114879418Y-103398839D01*
X115370625Y-103070625D01*
X115698839Y-102579418D01*
X115814092Y-102000000D01*
X115698839Y-101420582D01*
X115370625Y-100929375D01*
X115042307Y-100710000D01*
X118060291Y-100710000D01*
X117931843Y-100902235D01*
X117882560Y-101150000D01*
X117882560Y-102850000D01*
X117931843Y-103097765D01*
X118072191Y-103307809D01*
X118282235Y-103448157D01*
X118530000Y-103497440D01*
X120230000Y-103497440D01*
X120477765Y-103448157D01*
X120687809Y-103307809D01*
X120828157Y-103097765D01*
X120837184Y-103052381D01*
X120849375Y-103070625D01*
X121340582Y-103398839D01*
X121773744Y-103485000D01*
X122066256Y-103485000D01*
X122499418Y-103398839D01*
X122990625Y-103070625D01*
X123190000Y-102772239D01*
X123389375Y-103070625D01*
X123880582Y-103398839D01*
X124313744Y-103485000D01*
X124606256Y-103485000D01*
X125039418Y-103398839D01*
X125530625Y-103070625D01*
X125730000Y-102772239D01*
X125929375Y-103070625D01*
X126420582Y-103398839D01*
X126853744Y-103485000D01*
X127146256Y-103485000D01*
X127579418Y-103398839D01*
X128070625Y-103070625D01*
X128283843Y-102751522D01*
X128344817Y-102881358D01*
X128773076Y-103271645D01*
X129183110Y-103441476D01*
X129413000Y-103320155D01*
X129413000Y-102127000D01*
X129667000Y-102127000D01*
X129667000Y-103320155D01*
X129896890Y-103441476D01*
X130306924Y-103271645D01*
X130735183Y-102881358D01*
X130981486Y-102356892D01*
X130860819Y-102127000D01*
X129667000Y-102127000D01*
X129413000Y-102127000D01*
X129393000Y-102127000D01*
X129393000Y-101873000D01*
X129413000Y-101873000D01*
X129413000Y-101853000D01*
X129667000Y-101853000D01*
X129667000Y-101873000D01*
X130860819Y-101873000D01*
X130981486Y-101643108D01*
X130735183Y-101118642D01*
X130306924Y-100728355D01*
X130262608Y-100710000D01*
X133680291Y-100710000D01*
X133551843Y-100902235D01*
X133502560Y-101150000D01*
X133502560Y-102850000D01*
X133551843Y-103097765D01*
X133692191Y-103307809D01*
X133902235Y-103448157D01*
X134150000Y-103497440D01*
X135850000Y-103497440D01*
X136097765Y-103448157D01*
X136307809Y-103307809D01*
X136448157Y-103097765D01*
X136457184Y-103052381D01*
X136469375Y-103070625D01*
X136960582Y-103398839D01*
X137393744Y-103485000D01*
X137686256Y-103485000D01*
X138119418Y-103398839D01*
X138610625Y-103070625D01*
X138810000Y-102772239D01*
X139009375Y-103070625D01*
X139500582Y-103398839D01*
X139933744Y-103485000D01*
X140226256Y-103485000D01*
X140659418Y-103398839D01*
X141150625Y-103070625D01*
X141350000Y-102772239D01*
X141549375Y-103070625D01*
X142040582Y-103398839D01*
X142473744Y-103485000D01*
X142766256Y-103485000D01*
X143199418Y-103398839D01*
X143690625Y-103070625D01*
X143903843Y-102751522D01*
X143964817Y-102881358D01*
X144393076Y-103271645D01*
X144803110Y-103441476D01*
X145033000Y-103320155D01*
X145033000Y-102127000D01*
X145287000Y-102127000D01*
X145287000Y-103320155D01*
X145516890Y-103441476D01*
X145926924Y-103271645D01*
X146355183Y-102881358D01*
X146601486Y-102356892D01*
X146564145Y-102285750D01*
X161075000Y-102285750D01*
X161075000Y-102976309D01*
X161171673Y-103209698D01*
X161350301Y-103388327D01*
X161583690Y-103485000D01*
X162274250Y-103485000D01*
X162433000Y-103326250D01*
X162433000Y-102127000D01*
X161233750Y-102127000D01*
X161075000Y-102285750D01*
X146564145Y-102285750D01*
X146480819Y-102127000D01*
X145287000Y-102127000D01*
X145033000Y-102127000D01*
X145013000Y-102127000D01*
X145013000Y-101873000D01*
X145033000Y-101873000D01*
X145033000Y-101853000D01*
X145287000Y-101853000D01*
X145287000Y-101873000D01*
X146480819Y-101873000D01*
X146601486Y-101643108D01*
X146355183Y-101118642D01*
X145926924Y-100728355D01*
X145882608Y-100710000D01*
X161251975Y-100710000D01*
X161171673Y-100790302D01*
X161075000Y-101023691D01*
X161075000Y-101714250D01*
X161233750Y-101873000D01*
X162433000Y-101873000D01*
X162433000Y-101853000D01*
X162687000Y-101853000D01*
X162687000Y-101873000D01*
X162707000Y-101873000D01*
X162707000Y-102127000D01*
X162687000Y-102127000D01*
X162687000Y-103326250D01*
X162845750Y-103485000D01*
X163536310Y-103485000D01*
X163769699Y-103388327D01*
X163948327Y-103209698D01*
X164014904Y-103048967D01*
X164029375Y-103070625D01*
X164520582Y-103398839D01*
X164953744Y-103485000D01*
X165246256Y-103485000D01*
X165679418Y-103398839D01*
X166170625Y-103070625D01*
X166370000Y-102772239D01*
X166569375Y-103070625D01*
X167060582Y-103398839D01*
X167493744Y-103485000D01*
X167786256Y-103485000D01*
X168219418Y-103398839D01*
X168710625Y-103070625D01*
X169038839Y-102579418D01*
X169097252Y-102285750D01*
X171235000Y-102285750D01*
X171235000Y-102976309D01*
X171331673Y-103209698D01*
X171510301Y-103388327D01*
X171743690Y-103485000D01*
X172434250Y-103485000D01*
X172593000Y-103326250D01*
X172593000Y-102127000D01*
X171393750Y-102127000D01*
X171235000Y-102285750D01*
X169097252Y-102285750D01*
X169154092Y-102000000D01*
X169038839Y-101420582D01*
X168710625Y-100929375D01*
X168382307Y-100710000D01*
X171411975Y-100710000D01*
X171331673Y-100790302D01*
X171235000Y-101023691D01*
X171235000Y-101714250D01*
X171393750Y-101873000D01*
X172593000Y-101873000D01*
X172593000Y-101853000D01*
X172847000Y-101853000D01*
X172847000Y-101873000D01*
X172867000Y-101873000D01*
X172867000Y-102127000D01*
X172847000Y-102127000D01*
X172847000Y-103326250D01*
X173005750Y-103485000D01*
X173696310Y-103485000D01*
X173929699Y-103388327D01*
X174108327Y-103209698D01*
X174174904Y-103048967D01*
X174189375Y-103070625D01*
X174680582Y-103398839D01*
X175113744Y-103485000D01*
X175406256Y-103485000D01*
X175839418Y-103398839D01*
X176330625Y-103070625D01*
X176530000Y-102772239D01*
X176729375Y-103070625D01*
X177220582Y-103398839D01*
X177653744Y-103485000D01*
X177946256Y-103485000D01*
X178379418Y-103398839D01*
X178870625Y-103070625D01*
X179198839Y-102579418D01*
X179257252Y-102285750D01*
X181515000Y-102285750D01*
X181515000Y-102976309D01*
X181611673Y-103209698D01*
X181790301Y-103388327D01*
X182023690Y-103485000D01*
X182714250Y-103485000D01*
X182873000Y-103326250D01*
X182873000Y-102127000D01*
X181673750Y-102127000D01*
X181515000Y-102285750D01*
X179257252Y-102285750D01*
X179314092Y-102000000D01*
X179198839Y-101420582D01*
X178870625Y-100929375D01*
X178542307Y-100710000D01*
X181691975Y-100710000D01*
X181611673Y-100790302D01*
X181515000Y-101023691D01*
X181515000Y-101714250D01*
X181673750Y-101873000D01*
X182873000Y-101873000D01*
X182873000Y-101853000D01*
X183127000Y-101853000D01*
X183127000Y-101873000D01*
X183147000Y-101873000D01*
X183147000Y-102127000D01*
X183127000Y-102127000D01*
X183127000Y-103326250D01*
X183285750Y-103485000D01*
X183976310Y-103485000D01*
X184209699Y-103388327D01*
X184388327Y-103209698D01*
X184454904Y-103048967D01*
X184469375Y-103070625D01*
X184960582Y-103398839D01*
X185393744Y-103485000D01*
X185686256Y-103485000D01*
X186119418Y-103398839D01*
X186610625Y-103070625D01*
X186810000Y-102772239D01*
X187009375Y-103070625D01*
X187500582Y-103398839D01*
X187933744Y-103485000D01*
X188226256Y-103485000D01*
X188659418Y-103398839D01*
X189150625Y-103070625D01*
X189478839Y-102579418D01*
X189594092Y-102000000D01*
X189478839Y-101420582D01*
X189150625Y-100929375D01*
X188822307Y-100710000D01*
X199290001Y-100710000D01*
X199290001Y-112980292D01*
X199097765Y-112851843D01*
X198850000Y-112802560D01*
X197150000Y-112802560D01*
X196902235Y-112851843D01*
X196692191Y-112992191D01*
X196551843Y-113202235D01*
X196502560Y-113450000D01*
X196502560Y-115150000D01*
X196551843Y-115397765D01*
X196692191Y-115607809D01*
X196902235Y-115748157D01*
X196947619Y-115757184D01*
X196929375Y-115769375D01*
X196601161Y-116260582D01*
X196485908Y-116840000D01*
X196601161Y-117419418D01*
X196929375Y-117910625D01*
X197227761Y-118110000D01*
X196929375Y-118309375D01*
X196601161Y-118800582D01*
X196485908Y-119380000D01*
X196601161Y-119959418D01*
X196929375Y-120450625D01*
X197248478Y-120663843D01*
X197118642Y-120724817D01*
X196728355Y-121153076D01*
X196558524Y-121563110D01*
X196679845Y-121793000D01*
X197873000Y-121793000D01*
X197873000Y-121773000D01*
X198127000Y-121773000D01*
X198127000Y-121793000D01*
X198147000Y-121793000D01*
X198147000Y-122047000D01*
X198127000Y-122047000D01*
X198127000Y-123240819D01*
X198356892Y-123361486D01*
X198881358Y-123115183D01*
X199271645Y-122686924D01*
X199290001Y-122642607D01*
X199290000Y-125680292D01*
X199097765Y-125551843D01*
X198850000Y-125502560D01*
X197150000Y-125502560D01*
X196902235Y-125551843D01*
X196692191Y-125692191D01*
X196551843Y-125902235D01*
X196502560Y-126150000D01*
X196502560Y-127850000D01*
X196551843Y-128097765D01*
X196692191Y-128307809D01*
X196902235Y-128448157D01*
X196947619Y-128457184D01*
X196929375Y-128469375D01*
X196601161Y-128960582D01*
X196485908Y-129540000D01*
X196601161Y-130119418D01*
X196929375Y-130610625D01*
X197227761Y-130810000D01*
X196929375Y-131009375D01*
X196721822Y-131320000D01*
X196283703Y-131320000D01*
X196086272Y-131122569D01*
X195705866Y-130965000D01*
X195294118Y-130965000D01*
X194913712Y-131122569D01*
X194622561Y-131413720D01*
X194464992Y-131794126D01*
X194464992Y-132205874D01*
X194622561Y-132586280D01*
X194913712Y-132877431D01*
X195294118Y-133035000D01*
X195705866Y-133035000D01*
X196086272Y-132877431D01*
X196123703Y-132840000D01*
X196721822Y-132840000D01*
X196929375Y-133150625D01*
X197227761Y-133350000D01*
X196929375Y-133549375D01*
X196601161Y-134040582D01*
X196485908Y-134620000D01*
X196601161Y-135199418D01*
X196929375Y-135690625D01*
X197248478Y-135903843D01*
X197118642Y-135964817D01*
X196728355Y-136393076D01*
X196558524Y-136803110D01*
X196679845Y-137033000D01*
X197873000Y-137033000D01*
X197873000Y-137013000D01*
X198127000Y-137013000D01*
X198127000Y-137033000D01*
X198147000Y-137033000D01*
X198147000Y-137287000D01*
X198127000Y-137287000D01*
X198127000Y-138480819D01*
X198356892Y-138601486D01*
X198881358Y-138355183D01*
X199271645Y-137926924D01*
X199290000Y-137882608D01*
X199290000Y-149290000D01*
X189279709Y-149290000D01*
X189408157Y-149097765D01*
X189457440Y-148850000D01*
X189457440Y-147150000D01*
X189408157Y-146902235D01*
X189267809Y-146692191D01*
X189057765Y-146551843D01*
X188810000Y-146502560D01*
X187110000Y-146502560D01*
X186862235Y-146551843D01*
X186652191Y-146692191D01*
X186511843Y-146902235D01*
X186502816Y-146947619D01*
X186490625Y-146929375D01*
X185999418Y-146601161D01*
X185566256Y-146515000D01*
X185273744Y-146515000D01*
X184840582Y-146601161D01*
X184349375Y-146929375D01*
X184150000Y-147227761D01*
X183950625Y-146929375D01*
X183459418Y-146601161D01*
X183026256Y-146515000D01*
X182733744Y-146515000D01*
X182300582Y-146601161D01*
X181809375Y-146929375D01*
X181596157Y-147248478D01*
X181535183Y-147118642D01*
X181106924Y-146728355D01*
X180696890Y-146558524D01*
X180467000Y-146679845D01*
X180467000Y-147873000D01*
X180487000Y-147873000D01*
X180487000Y-148127000D01*
X180467000Y-148127000D01*
X180467000Y-148147000D01*
X180213000Y-148147000D01*
X180213000Y-148127000D01*
X179019181Y-148127000D01*
X178898514Y-148356892D01*
X179144817Y-148881358D01*
X179573076Y-149271645D01*
X179617392Y-149290000D01*
X176579709Y-149290000D01*
X176708157Y-149097765D01*
X176757440Y-148850000D01*
X176757440Y-147643108D01*
X178898514Y-147643108D01*
X179019181Y-147873000D01*
X180213000Y-147873000D01*
X180213000Y-146679845D01*
X179983110Y-146558524D01*
X179573076Y-146728355D01*
X179144817Y-147118642D01*
X178898514Y-147643108D01*
X176757440Y-147643108D01*
X176757440Y-147150000D01*
X176708157Y-146902235D01*
X176567809Y-146692191D01*
X176357765Y-146551843D01*
X176110000Y-146502560D01*
X174410000Y-146502560D01*
X174162235Y-146551843D01*
X173952191Y-146692191D01*
X173811843Y-146902235D01*
X173802816Y-146947619D01*
X173790625Y-146929375D01*
X173299418Y-146601161D01*
X172866256Y-146515000D01*
X172573744Y-146515000D01*
X172140582Y-146601161D01*
X171649375Y-146929375D01*
X171450000Y-147227761D01*
X171250625Y-146929375D01*
X170759418Y-146601161D01*
X170326256Y-146515000D01*
X170033744Y-146515000D01*
X169600582Y-146601161D01*
X169109375Y-146929375D01*
X168896157Y-147248478D01*
X168835183Y-147118642D01*
X168406924Y-146728355D01*
X167996890Y-146558524D01*
X167767000Y-146679845D01*
X167767000Y-147873000D01*
X167787000Y-147873000D01*
X167787000Y-148127000D01*
X167767000Y-148127000D01*
X167767000Y-148147000D01*
X167513000Y-148147000D01*
X167513000Y-148127000D01*
X166319181Y-148127000D01*
X166198514Y-148356892D01*
X166444817Y-148881358D01*
X166873076Y-149271645D01*
X166917392Y-149290000D01*
X163879709Y-149290000D01*
X164008157Y-149097765D01*
X164057440Y-148850000D01*
X164057440Y-147643108D01*
X166198514Y-147643108D01*
X166319181Y-147873000D01*
X167513000Y-147873000D01*
X167513000Y-146679845D01*
X167283110Y-146558524D01*
X166873076Y-146728355D01*
X166444817Y-147118642D01*
X166198514Y-147643108D01*
X164057440Y-147643108D01*
X164057440Y-147150000D01*
X164008157Y-146902235D01*
X163867809Y-146692191D01*
X163657765Y-146551843D01*
X163410000Y-146502560D01*
X161710000Y-146502560D01*
X161462235Y-146551843D01*
X161252191Y-146692191D01*
X161111843Y-146902235D01*
X161102816Y-146947619D01*
X161090625Y-146929375D01*
X160599418Y-146601161D01*
X160166256Y-146515000D01*
X159873744Y-146515000D01*
X159440582Y-146601161D01*
X158949375Y-146929375D01*
X158750000Y-147227761D01*
X158550625Y-146929375D01*
X158059418Y-146601161D01*
X157626256Y-146515000D01*
X157333744Y-146515000D01*
X156900582Y-146601161D01*
X156409375Y-146929375D01*
X156196157Y-147248478D01*
X156135183Y-147118642D01*
X155706924Y-146728355D01*
X155296890Y-146558524D01*
X155067000Y-146679845D01*
X155067000Y-147873000D01*
X155087000Y-147873000D01*
X155087000Y-148127000D01*
X155067000Y-148127000D01*
X155067000Y-148147000D01*
X154813000Y-148147000D01*
X154813000Y-148127000D01*
X153619181Y-148127000D01*
X153498514Y-148356892D01*
X153744817Y-148881358D01*
X154173076Y-149271645D01*
X154217392Y-149290000D01*
X151319709Y-149290000D01*
X151448157Y-149097765D01*
X151497440Y-148850000D01*
X151497440Y-147643108D01*
X153498514Y-147643108D01*
X153619181Y-147873000D01*
X154813000Y-147873000D01*
X154813000Y-146679845D01*
X154583110Y-146558524D01*
X154173076Y-146728355D01*
X153744817Y-147118642D01*
X153498514Y-147643108D01*
X151497440Y-147643108D01*
X151497440Y-147150000D01*
X151448157Y-146902235D01*
X151307809Y-146692191D01*
X151097765Y-146551843D01*
X150850000Y-146502560D01*
X149150000Y-146502560D01*
X148902235Y-146551843D01*
X148692191Y-146692191D01*
X148551843Y-146902235D01*
X148542816Y-146947619D01*
X148530625Y-146929375D01*
X148039418Y-146601161D01*
X147606256Y-146515000D01*
X147313744Y-146515000D01*
X146880582Y-146601161D01*
X146389375Y-146929375D01*
X146190000Y-147227761D01*
X145990625Y-146929375D01*
X145499418Y-146601161D01*
X145066256Y-146515000D01*
X144773744Y-146515000D01*
X144340582Y-146601161D01*
X143849375Y-146929375D01*
X143650000Y-147227761D01*
X143450625Y-146929375D01*
X142959418Y-146601161D01*
X142526256Y-146515000D01*
X142233744Y-146515000D01*
X141800582Y-146601161D01*
X141309375Y-146929375D01*
X141096157Y-147248478D01*
X141035183Y-147118642D01*
X140606924Y-146728355D01*
X140196890Y-146558524D01*
X139967000Y-146679845D01*
X139967000Y-147873000D01*
X139987000Y-147873000D01*
X139987000Y-148127000D01*
X139967000Y-148127000D01*
X139967000Y-148147000D01*
X139713000Y-148147000D01*
X139713000Y-148127000D01*
X139693000Y-148127000D01*
X139693000Y-147873000D01*
X139713000Y-147873000D01*
X139713000Y-146679845D01*
X139483110Y-146558524D01*
X139073076Y-146728355D01*
X138650223Y-147113716D01*
X138608157Y-146902235D01*
X138467809Y-146692191D01*
X138257765Y-146551843D01*
X138010000Y-146502560D01*
X136310000Y-146502560D01*
X136062235Y-146551843D01*
X135852191Y-146692191D01*
X135711843Y-146902235D01*
X135702816Y-146947619D01*
X135690625Y-146929375D01*
X135199418Y-146601161D01*
X134766256Y-146515000D01*
X134473744Y-146515000D01*
X134040582Y-146601161D01*
X133549375Y-146929375D01*
X133350000Y-147227761D01*
X133150625Y-146929375D01*
X132659418Y-146601161D01*
X132226256Y-146515000D01*
X131933744Y-146515000D01*
X131500582Y-146601161D01*
X131009375Y-146929375D01*
X130810000Y-147227761D01*
X130610625Y-146929375D01*
X130119418Y-146601161D01*
X129686256Y-146515000D01*
X129393744Y-146515000D01*
X128960582Y-146601161D01*
X128469375Y-146929375D01*
X128256157Y-147248478D01*
X128195183Y-147118642D01*
X127766924Y-146728355D01*
X127356890Y-146558524D01*
X127127000Y-146679845D01*
X127127000Y-147873000D01*
X127147000Y-147873000D01*
X127147000Y-148127000D01*
X127127000Y-148127000D01*
X127127000Y-148147000D01*
X126873000Y-148147000D01*
X126873000Y-148127000D01*
X125679181Y-148127000D01*
X125558514Y-148356892D01*
X125804817Y-148881358D01*
X126233076Y-149271645D01*
X126277392Y-149290000D01*
X122642608Y-149290000D01*
X122686924Y-149271645D01*
X123115183Y-148881358D01*
X123361486Y-148356892D01*
X123240819Y-148127000D01*
X122047000Y-148127000D01*
X122047000Y-148147000D01*
X121793000Y-148147000D01*
X121793000Y-148127000D01*
X121773000Y-148127000D01*
X121773000Y-147873000D01*
X121793000Y-147873000D01*
X121793000Y-146679845D01*
X122047000Y-146679845D01*
X122047000Y-147873000D01*
X123240819Y-147873000D01*
X123361486Y-147643108D01*
X125558514Y-147643108D01*
X125679181Y-147873000D01*
X126873000Y-147873000D01*
X126873000Y-146679845D01*
X126643110Y-146558524D01*
X126233076Y-146728355D01*
X125804817Y-147118642D01*
X125558514Y-147643108D01*
X123361486Y-147643108D01*
X123115183Y-147118642D01*
X122686924Y-146728355D01*
X122276890Y-146558524D01*
X122047000Y-146679845D01*
X121793000Y-146679845D01*
X121563110Y-146558524D01*
X121153076Y-146728355D01*
X120848739Y-147005708D01*
X120828157Y-146902235D01*
X120687809Y-146692191D01*
X120477765Y-146551843D01*
X120230000Y-146502560D01*
X118530000Y-146502560D01*
X118282235Y-146551843D01*
X118072191Y-146692191D01*
X117931843Y-146902235D01*
X117882560Y-147150000D01*
X117882560Y-148850000D01*
X117931843Y-149097765D01*
X118060291Y-149290000D01*
X115022608Y-149290000D01*
X115066924Y-149271645D01*
X115495183Y-148881358D01*
X115741486Y-148356892D01*
X115620819Y-148127000D01*
X114427000Y-148127000D01*
X114427000Y-148147000D01*
X114173000Y-148147000D01*
X114173000Y-148127000D01*
X114153000Y-148127000D01*
X114153000Y-147873000D01*
X114173000Y-147873000D01*
X114173000Y-146679845D01*
X114427000Y-146679845D01*
X114427000Y-147873000D01*
X115620819Y-147873000D01*
X115741486Y-147643108D01*
X115495183Y-147118642D01*
X115066924Y-146728355D01*
X114656890Y-146558524D01*
X114427000Y-146679845D01*
X114173000Y-146679845D01*
X113943110Y-146558524D01*
X113533076Y-146728355D01*
X113228739Y-147005708D01*
X113208157Y-146902235D01*
X113067809Y-146692191D01*
X112857765Y-146551843D01*
X112610000Y-146502560D01*
X110910000Y-146502560D01*
X110662235Y-146551843D01*
X110452191Y-146692191D01*
X110311843Y-146902235D01*
X110262560Y-147150000D01*
X110262560Y-148850000D01*
X110311843Y-149097765D01*
X110440291Y-149290000D01*
X100710000Y-149290000D01*
X100710000Y-144446029D01*
X102215000Y-144446029D01*
X102215000Y-145553971D01*
X102638991Y-146577576D01*
X103422424Y-147361009D01*
X104446029Y-147785000D01*
X105553971Y-147785000D01*
X106577576Y-147361009D01*
X107361009Y-146577576D01*
X107785000Y-145553971D01*
X107785000Y-144446029D01*
X192215000Y-144446029D01*
X192215000Y-145553971D01*
X192638991Y-146577576D01*
X193422424Y-147361009D01*
X194446029Y-147785000D01*
X195553971Y-147785000D01*
X196577576Y-147361009D01*
X197361009Y-146577576D01*
X197785000Y-145553971D01*
X197785000Y-144446029D01*
X197361009Y-143422424D01*
X196577576Y-142638991D01*
X195553971Y-142215000D01*
X194446029Y-142215000D01*
X193422424Y-142638991D01*
X192638991Y-143422424D01*
X192215000Y-144446029D01*
X107785000Y-144446029D01*
X107361009Y-143422424D01*
X106577576Y-142638991D01*
X105553971Y-142215000D01*
X104446029Y-142215000D01*
X103422424Y-142638991D01*
X102638991Y-143422424D01*
X102215000Y-144446029D01*
X100710000Y-144446029D01*
X100710000Y-133720000D01*
X102552560Y-133720000D01*
X102552560Y-135520000D01*
X102601843Y-135767765D01*
X102742191Y-135977809D01*
X102952235Y-136118157D01*
X103200000Y-136167440D01*
X106800000Y-136167440D01*
X107047765Y-136118157D01*
X107257809Y-135977809D01*
X107398157Y-135767765D01*
X107447440Y-135520000D01*
X107447440Y-133720000D01*
X107398157Y-133472235D01*
X107257809Y-133262191D01*
X107047765Y-133121843D01*
X106800000Y-133072560D01*
X103200000Y-133072560D01*
X102952235Y-133121843D01*
X102742191Y-133262191D01*
X102601843Y-133472235D01*
X102552560Y-133720000D01*
X100710000Y-133720000D01*
X100710000Y-132905750D01*
X132055000Y-132905750D01*
X132055000Y-133546310D01*
X132151673Y-133779699D01*
X132330302Y-133958327D01*
X132563691Y-134055000D01*
X133204250Y-134055000D01*
X133363000Y-133896250D01*
X133363000Y-132747000D01*
X132213750Y-132747000D01*
X132055000Y-132905750D01*
X100710000Y-132905750D01*
X100710000Y-131693690D01*
X132055000Y-131693690D01*
X132055000Y-132334250D01*
X132213750Y-132493000D01*
X133363000Y-132493000D01*
X133363000Y-131343750D01*
X133617000Y-131343750D01*
X133617000Y-132493000D01*
X133637000Y-132493000D01*
X133637000Y-132747000D01*
X133617000Y-132747000D01*
X133617000Y-133896250D01*
X133775750Y-134055000D01*
X134416309Y-134055000D01*
X134649698Y-133958327D01*
X134828327Y-133779699D01*
X134925000Y-133546310D01*
X134925000Y-133544396D01*
X135217138Y-133836534D01*
X135744561Y-134055000D01*
X136315439Y-134055000D01*
X136842862Y-133836534D01*
X137246534Y-133432862D01*
X137300000Y-133303784D01*
X137353466Y-133432862D01*
X137757138Y-133836534D01*
X138284561Y-134055000D01*
X138855439Y-134055000D01*
X139382862Y-133836534D01*
X139786534Y-133432862D01*
X139840000Y-133303784D01*
X139893466Y-133432862D01*
X140297138Y-133836534D01*
X140824561Y-134055000D01*
X141395439Y-134055000D01*
X141922862Y-133836534D01*
X142326534Y-133432862D01*
X142380000Y-133303784D01*
X142433466Y-133432862D01*
X142837138Y-133836534D01*
X143364561Y-134055000D01*
X143935439Y-134055000D01*
X144462862Y-133836534D01*
X144866534Y-133432862D01*
X144920000Y-133303784D01*
X144973466Y-133432862D01*
X145377138Y-133836534D01*
X145904561Y-134055000D01*
X146475439Y-134055000D01*
X147002862Y-133836534D01*
X147406534Y-133432862D01*
X147460000Y-133303784D01*
X147513466Y-133432862D01*
X147917138Y-133836534D01*
X148444561Y-134055000D01*
X149015439Y-134055000D01*
X149542862Y-133836534D01*
X149946534Y-133432862D01*
X150000000Y-133303784D01*
X150053466Y-133432862D01*
X150457138Y-133836534D01*
X150984561Y-134055000D01*
X151555439Y-134055000D01*
X152082862Y-133836534D01*
X152486534Y-133432862D01*
X152540000Y-133303784D01*
X152593466Y-133432862D01*
X152997138Y-133836534D01*
X153524561Y-134055000D01*
X154095439Y-134055000D01*
X154622862Y-133836534D01*
X155026534Y-133432862D01*
X155080000Y-133303784D01*
X155133466Y-133432862D01*
X155537138Y-133836534D01*
X156064561Y-134055000D01*
X156635439Y-134055000D01*
X157162862Y-133836534D01*
X157566534Y-133432862D01*
X157620000Y-133303784D01*
X157673466Y-133432862D01*
X158077138Y-133836534D01*
X158130000Y-133858430D01*
X158130001Y-136570259D01*
X157960197Y-136740063D01*
X157794125Y-136740063D01*
X157413719Y-136897632D01*
X157122568Y-137188783D01*
X156964999Y-137569189D01*
X156964999Y-137980937D01*
X157122568Y-138361343D01*
X157413719Y-138652494D01*
X157794125Y-138810063D01*
X158205873Y-138810063D01*
X158586279Y-138652494D01*
X158877430Y-138361343D01*
X159034999Y-137980937D01*
X159034999Y-137814865D01*
X159374475Y-137475390D01*
X159437929Y-137432991D01*
X159480327Y-137369538D01*
X159480329Y-137369536D01*
X159605903Y-137181600D01*
X159605904Y-137181599D01*
X159650000Y-136959914D01*
X159650000Y-136959910D01*
X159664888Y-136885063D01*
X159650000Y-136810216D01*
X159650000Y-133858430D01*
X159702862Y-133836534D01*
X160106534Y-133432862D01*
X160160000Y-133303784D01*
X160213466Y-133432862D01*
X160617138Y-133836534D01*
X160670000Y-133858430D01*
X160670001Y-136141330D01*
X160622568Y-136188763D01*
X160464999Y-136569169D01*
X160464999Y-136980917D01*
X160622568Y-137361323D01*
X160913719Y-137652474D01*
X161294125Y-137810043D01*
X161705873Y-137810043D01*
X162086279Y-137652474D01*
X162377430Y-137361323D01*
X162534999Y-136980917D01*
X162534999Y-136569169D01*
X162377430Y-136188763D01*
X162190000Y-136001333D01*
X162190000Y-133858430D01*
X162242862Y-133836534D01*
X162646534Y-133432862D01*
X162700000Y-133303784D01*
X162753466Y-133432862D01*
X163157138Y-133836534D01*
X163684561Y-134055000D01*
X164255439Y-134055000D01*
X164782862Y-133836534D01*
X165186534Y-133432862D01*
X165240000Y-133303784D01*
X165293466Y-133432862D01*
X165697138Y-133836534D01*
X166224561Y-134055000D01*
X166795439Y-134055000D01*
X167322862Y-133836534D01*
X167726534Y-133432862D01*
X167945000Y-132905439D01*
X167945000Y-132334561D01*
X167812634Y-132015001D01*
X168170152Y-132015001D01*
X168244999Y-132029889D01*
X168319846Y-132015001D01*
X168319851Y-132015001D01*
X168541536Y-131970905D01*
X168792928Y-131802930D01*
X168835330Y-131739471D01*
X169039801Y-131535000D01*
X169093373Y-131535000D01*
X169093373Y-131685178D01*
X169060800Y-131717751D01*
X168997341Y-131760153D01*
X168829366Y-132011546D01*
X168785270Y-132233231D01*
X168785270Y-132233235D01*
X168770382Y-132308082D01*
X168785270Y-132382929D01*
X168785271Y-135071309D01*
X168667839Y-135188741D01*
X168510270Y-135569147D01*
X168510270Y-135980895D01*
X168667839Y-136361301D01*
X168958990Y-136652452D01*
X169339396Y-136810021D01*
X169751144Y-136810021D01*
X170131550Y-136652452D01*
X170422701Y-136361301D01*
X170580270Y-135980895D01*
X170580270Y-135569147D01*
X170422701Y-135188741D01*
X170305270Y-135071310D01*
X170305270Y-132759979D01*
X170334247Y-132759979D01*
X170714653Y-132602410D01*
X171005804Y-132311259D01*
X171163373Y-131930853D01*
X171163373Y-131519105D01*
X171005804Y-131138699D01*
X170714653Y-130847548D01*
X170334247Y-130689979D01*
X170035000Y-130689979D01*
X170035000Y-130294126D01*
X169877431Y-129913720D01*
X169713711Y-129750000D01*
X169877431Y-129586280D01*
X170035000Y-129205874D01*
X170035000Y-128794126D01*
X169877431Y-128413720D01*
X169586280Y-128122569D01*
X169517613Y-128094126D01*
X180265001Y-128094126D01*
X180265001Y-128505874D01*
X180422570Y-128886280D01*
X180713721Y-129177431D01*
X180901135Y-129255060D01*
X180884953Y-129294126D01*
X180884953Y-129705874D01*
X181042522Y-130086280D01*
X181333673Y-130377431D01*
X181714079Y-130535000D01*
X182125827Y-130535000D01*
X182506233Y-130377431D01*
X182583664Y-130300000D01*
X184141822Y-130300000D01*
X184349375Y-130610625D01*
X184647761Y-130810000D01*
X184349375Y-131009375D01*
X184021161Y-131500582D01*
X183905908Y-132080000D01*
X184021161Y-132659418D01*
X184349375Y-133150625D01*
X184647761Y-133350000D01*
X184349375Y-133549375D01*
X184141822Y-133860000D01*
X183423711Y-133860000D01*
X183186280Y-133622569D01*
X182805874Y-133465000D01*
X182394126Y-133465000D01*
X182013720Y-133622569D01*
X181722569Y-133913720D01*
X181565000Y-134294126D01*
X181565000Y-134705874D01*
X181722569Y-135086280D01*
X181836290Y-135200001D01*
X181722571Y-135313720D01*
X181565002Y-135694126D01*
X181565002Y-136105874D01*
X181722571Y-136486280D01*
X182013722Y-136777431D01*
X182394128Y-136935000D01*
X182805876Y-136935000D01*
X183186282Y-136777431D01*
X183303713Y-136660000D01*
X184005364Y-136660000D01*
X183905908Y-137160000D01*
X184021161Y-137739418D01*
X184349375Y-138230625D01*
X184840582Y-138558839D01*
X185273744Y-138645000D01*
X185566256Y-138645000D01*
X185999418Y-138558839D01*
X186490625Y-138230625D01*
X186690000Y-137932239D01*
X186889375Y-138230625D01*
X187380582Y-138558839D01*
X187813744Y-138645000D01*
X188106256Y-138645000D01*
X188539418Y-138558839D01*
X189030625Y-138230625D01*
X189358839Y-137739418D01*
X189403102Y-137516890D01*
X196558524Y-137516890D01*
X196728355Y-137926924D01*
X197118642Y-138355183D01*
X197643108Y-138601486D01*
X197873000Y-138480819D01*
X197873000Y-137287000D01*
X196679845Y-137287000D01*
X196558524Y-137516890D01*
X189403102Y-137516890D01*
X189474092Y-137160000D01*
X189358839Y-136580582D01*
X189030625Y-136089375D01*
X188732239Y-135890000D01*
X189030625Y-135690625D01*
X189358839Y-135199418D01*
X189474092Y-134620000D01*
X189358839Y-134040582D01*
X189030625Y-133549375D01*
X188732239Y-133350000D01*
X189030625Y-133150625D01*
X189358839Y-132659418D01*
X189474092Y-132080000D01*
X189358839Y-131500582D01*
X189030625Y-131009375D01*
X188732239Y-130810000D01*
X189030625Y-130610625D01*
X189358839Y-130119418D01*
X189474092Y-129540000D01*
X189358839Y-128960582D01*
X189030625Y-128469375D01*
X188711522Y-128256157D01*
X188841358Y-128195183D01*
X189231645Y-127766924D01*
X189401476Y-127356890D01*
X189280155Y-127127000D01*
X188087000Y-127127000D01*
X188087000Y-127147000D01*
X187833000Y-127147000D01*
X187833000Y-127127000D01*
X187813000Y-127127000D01*
X187813000Y-126873000D01*
X187833000Y-126873000D01*
X187833000Y-125679181D01*
X188087000Y-125679181D01*
X188087000Y-126873000D01*
X189280155Y-126873000D01*
X189401476Y-126643110D01*
X189231645Y-126233076D01*
X188841358Y-125804817D01*
X188316892Y-125558514D01*
X188087000Y-125679181D01*
X187833000Y-125679181D01*
X187603108Y-125558514D01*
X187078642Y-125804817D01*
X186889961Y-126011855D01*
X186868157Y-125902235D01*
X186727809Y-125692191D01*
X186517765Y-125551843D01*
X186270000Y-125502560D01*
X184570000Y-125502560D01*
X184322235Y-125551843D01*
X184112191Y-125692191D01*
X183971843Y-125902235D01*
X183922560Y-126150000D01*
X183922560Y-127540000D01*
X182003712Y-127540000D01*
X181886281Y-127422569D01*
X181505875Y-127265000D01*
X181094127Y-127265000D01*
X180713721Y-127422569D01*
X180422570Y-127713720D01*
X180265001Y-128094126D01*
X169517613Y-128094126D01*
X169205874Y-127965000D01*
X168794126Y-127965000D01*
X168413720Y-128122569D01*
X168391290Y-128144999D01*
X167812634Y-128144999D01*
X167945000Y-127825439D01*
X167945000Y-127254561D01*
X167726534Y-126727138D01*
X167322862Y-126323466D01*
X167209417Y-126276475D01*
X167264005Y-126253864D01*
X167338139Y-126007745D01*
X166510000Y-125179605D01*
X165681861Y-126007745D01*
X165755995Y-126253864D01*
X165814448Y-126274874D01*
X165697138Y-126323466D01*
X165293466Y-126727138D01*
X165075000Y-127254561D01*
X165075000Y-127825439D01*
X165207366Y-128144999D01*
X163669847Y-128144999D01*
X163595000Y-128130111D01*
X163520153Y-128144999D01*
X163520149Y-128144999D01*
X163298464Y-128189095D01*
X163298462Y-128189096D01*
X163298463Y-128189096D01*
X163110527Y-128314670D01*
X163110525Y-128314672D01*
X163047072Y-128357070D01*
X163004673Y-128420524D01*
X162960197Y-128465000D01*
X162794126Y-128465000D01*
X162413720Y-128622569D01*
X162122569Y-128913720D01*
X161965000Y-129294126D01*
X161965000Y-129705874D01*
X162122569Y-130086280D01*
X162413720Y-130377431D01*
X162794126Y-130535000D01*
X162965000Y-130535000D01*
X162965000Y-130705874D01*
X163122569Y-131086280D01*
X163356978Y-131320689D01*
X163157138Y-131403466D01*
X162753466Y-131807138D01*
X162700000Y-131936216D01*
X162646534Y-131807138D01*
X162242862Y-131403466D01*
X161715439Y-131185000D01*
X161144561Y-131185000D01*
X160617138Y-131403466D01*
X160213466Y-131807138D01*
X160160000Y-131936216D01*
X160106534Y-131807138D01*
X159702862Y-131403466D01*
X159175439Y-131185000D01*
X158604561Y-131185000D01*
X158077138Y-131403466D01*
X157673466Y-131807138D01*
X157620000Y-131936216D01*
X157566534Y-131807138D01*
X157162862Y-131403466D01*
X156635439Y-131185000D01*
X156064561Y-131185000D01*
X155537138Y-131403466D01*
X155133466Y-131807138D01*
X155080000Y-131936216D01*
X155026534Y-131807138D01*
X154622862Y-131403466D01*
X154095439Y-131185000D01*
X153524561Y-131185000D01*
X152997138Y-131403466D01*
X152593466Y-131807138D01*
X152540000Y-131936216D01*
X152486534Y-131807138D01*
X152082862Y-131403466D01*
X151555439Y-131185000D01*
X150984561Y-131185000D01*
X150457138Y-131403466D01*
X150053466Y-131807138D01*
X150000000Y-131936216D01*
X149946534Y-131807138D01*
X149542862Y-131403466D01*
X149015439Y-131185000D01*
X148444561Y-131185000D01*
X147917138Y-131403466D01*
X147513466Y-131807138D01*
X147460000Y-131936216D01*
X147406534Y-131807138D01*
X147002862Y-131403466D01*
X146475439Y-131185000D01*
X145904561Y-131185000D01*
X145377138Y-131403466D01*
X144973466Y-131807138D01*
X144920000Y-131936216D01*
X144866534Y-131807138D01*
X144462862Y-131403466D01*
X143935439Y-131185000D01*
X143364561Y-131185000D01*
X142837138Y-131403466D01*
X142433466Y-131807138D01*
X142380000Y-131936216D01*
X142326534Y-131807138D01*
X141922862Y-131403466D01*
X141395439Y-131185000D01*
X140824561Y-131185000D01*
X140297138Y-131403466D01*
X139893466Y-131807138D01*
X139840000Y-131936216D01*
X139786534Y-131807138D01*
X139382862Y-131403466D01*
X138855439Y-131185000D01*
X138284561Y-131185000D01*
X137757138Y-131403466D01*
X137353466Y-131807138D01*
X137300000Y-131936216D01*
X137246534Y-131807138D01*
X136842862Y-131403466D01*
X136315439Y-131185000D01*
X135744561Y-131185000D01*
X135217138Y-131403466D01*
X134925000Y-131695604D01*
X134925000Y-131693690D01*
X134828327Y-131460301D01*
X134649698Y-131281673D01*
X134416309Y-131185000D01*
X133775750Y-131185000D01*
X133617000Y-131343750D01*
X133363000Y-131343750D01*
X133204250Y-131185000D01*
X132563691Y-131185000D01*
X132330302Y-131281673D01*
X132151673Y-131460301D01*
X132055000Y-131693690D01*
X100710000Y-131693690D01*
X100710000Y-129540000D01*
X102534928Y-129540000D01*
X102654062Y-130138927D01*
X102993327Y-130646673D01*
X103501073Y-130985938D01*
X103948818Y-131075000D01*
X106051182Y-131075000D01*
X106498927Y-130985938D01*
X107006673Y-130646673D01*
X107345938Y-130138927D01*
X107465072Y-129540000D01*
X107345938Y-128941073D01*
X107006673Y-128433327D01*
X106498927Y-128094062D01*
X106051182Y-128005000D01*
X103948818Y-128005000D01*
X103501073Y-128094062D01*
X102993327Y-128433327D01*
X102654062Y-128941073D01*
X102534928Y-129540000D01*
X100710000Y-129540000D01*
X100710000Y-119285750D01*
X102565000Y-119285750D01*
X102565000Y-120026309D01*
X102661673Y-120259698D01*
X102840301Y-120438327D01*
X103073690Y-120535000D01*
X104714250Y-120535000D01*
X104873000Y-120376250D01*
X104873000Y-119127000D01*
X105127000Y-119127000D01*
X105127000Y-120376250D01*
X105285750Y-120535000D01*
X106926310Y-120535000D01*
X107159699Y-120438327D01*
X107338327Y-120259698D01*
X107435000Y-120026309D01*
X107435000Y-119634561D01*
X134595000Y-119634561D01*
X134595000Y-120205439D01*
X134813466Y-120732862D01*
X135217138Y-121136534D01*
X135744561Y-121355000D01*
X136315439Y-121355000D01*
X136842862Y-121136534D01*
X137246534Y-120732862D01*
X137465000Y-120205439D01*
X137465000Y-119634561D01*
X137246534Y-119107138D01*
X136842862Y-118703466D01*
X136729417Y-118656475D01*
X136784005Y-118633864D01*
X136858139Y-118387745D01*
X136030000Y-117559605D01*
X135201861Y-118387745D01*
X135275995Y-118633864D01*
X135334448Y-118654874D01*
X135217138Y-118703466D01*
X134813466Y-119107138D01*
X134595000Y-119634561D01*
X107435000Y-119634561D01*
X107435000Y-119285750D01*
X107276250Y-119127000D01*
X105127000Y-119127000D01*
X104873000Y-119127000D01*
X102723750Y-119127000D01*
X102565000Y-119285750D01*
X100710000Y-119285750D01*
X100710000Y-117973691D01*
X102565000Y-117973691D01*
X102565000Y-118714250D01*
X102723750Y-118873000D01*
X104873000Y-118873000D01*
X104873000Y-117623750D01*
X105127000Y-117623750D01*
X105127000Y-118873000D01*
X107276250Y-118873000D01*
X107435000Y-118714250D01*
X107435000Y-117973691D01*
X107338327Y-117740302D01*
X107159699Y-117561673D01*
X106926310Y-117465000D01*
X105285750Y-117465000D01*
X105127000Y-117623750D01*
X104873000Y-117623750D01*
X104714250Y-117465000D01*
X103073690Y-117465000D01*
X102840301Y-117561673D01*
X102661673Y-117740302D01*
X102565000Y-117973691D01*
X100710000Y-117973691D01*
X100710000Y-117094561D01*
X132055000Y-117094561D01*
X132055000Y-117665439D01*
X132273466Y-118192862D01*
X132677138Y-118596534D01*
X133204561Y-118815000D01*
X133775439Y-118815000D01*
X134302862Y-118596534D01*
X134706534Y-118192862D01*
X134753525Y-118079417D01*
X134776136Y-118134005D01*
X135022255Y-118208139D01*
X135850395Y-117380000D01*
X136209605Y-117380000D01*
X137037745Y-118208139D01*
X137283864Y-118134005D01*
X137304874Y-118075552D01*
X137353466Y-118192862D01*
X137757138Y-118596534D01*
X137810001Y-118618430D01*
X137810000Y-120995153D01*
X137795112Y-121070000D01*
X137810000Y-121144847D01*
X137810000Y-121144851D01*
X137854096Y-121366536D01*
X138022071Y-121617929D01*
X138085530Y-121660331D01*
X138465000Y-122039801D01*
X138465000Y-122205874D01*
X138622569Y-122586280D01*
X138913720Y-122877431D01*
X139294126Y-123035000D01*
X139705874Y-123035000D01*
X140086280Y-122877431D01*
X140377431Y-122586280D01*
X140535000Y-122205874D01*
X140535000Y-121794126D01*
X140377431Y-121413720D01*
X140086280Y-121122569D01*
X139705874Y-120965000D01*
X139539801Y-120965000D01*
X139330000Y-120755199D01*
X139330000Y-118618430D01*
X139382862Y-118596534D01*
X139786534Y-118192862D01*
X139840000Y-118063784D01*
X139893466Y-118192862D01*
X140297138Y-118596534D01*
X140426216Y-118650000D01*
X140297138Y-118703466D01*
X139893466Y-119107138D01*
X139675000Y-119634561D01*
X139675000Y-120205439D01*
X139893466Y-120732862D01*
X140297138Y-121136534D01*
X140824561Y-121355000D01*
X141395439Y-121355000D01*
X141922862Y-121136534D01*
X142326534Y-120732862D01*
X142380000Y-120603784D01*
X142433466Y-120732862D01*
X142837138Y-121136534D01*
X143364561Y-121355000D01*
X143935439Y-121355000D01*
X144462862Y-121136534D01*
X144866534Y-120732862D01*
X144920000Y-120603784D01*
X144973466Y-120732862D01*
X145377138Y-121136534D01*
X145904561Y-121355000D01*
X146475439Y-121355000D01*
X147002862Y-121136534D01*
X147406534Y-120732862D01*
X147625000Y-120205439D01*
X147625000Y-119634561D01*
X147406534Y-119107138D01*
X147002862Y-118703466D01*
X146873784Y-118650000D01*
X147002862Y-118596534D01*
X147406534Y-118192862D01*
X147460000Y-118063784D01*
X147513466Y-118192862D01*
X147917138Y-118596534D01*
X148444561Y-118815000D01*
X148875853Y-118815000D01*
X149027570Y-119181279D01*
X149318721Y-119472430D01*
X149699127Y-119629999D01*
X149865200Y-119629999D01*
X151219673Y-120984473D01*
X151262073Y-121047929D01*
X151513465Y-121215904D01*
X151735150Y-121260000D01*
X151735154Y-121260000D01*
X151810001Y-121274888D01*
X151884848Y-121260000D01*
X153796289Y-121260000D01*
X153913720Y-121377431D01*
X154294126Y-121535000D01*
X154705874Y-121535000D01*
X155086280Y-121377431D01*
X155377431Y-121086280D01*
X155535000Y-120705874D01*
X155535000Y-120294126D01*
X155377431Y-119913720D01*
X155086280Y-119622569D01*
X154705874Y-119465000D01*
X154294126Y-119465000D01*
X153913720Y-119622569D01*
X153796289Y-119740000D01*
X152124804Y-119740000D01*
X151199803Y-118815000D01*
X151555439Y-118815000D01*
X152082862Y-118596534D01*
X152486534Y-118192862D01*
X152540000Y-118063784D01*
X152593466Y-118192862D01*
X152997138Y-118596534D01*
X153524561Y-118815000D01*
X154095439Y-118815000D01*
X154622862Y-118596534D01*
X155026534Y-118192862D01*
X155080000Y-118063784D01*
X155133466Y-118192862D01*
X155537138Y-118596534D01*
X156064561Y-118815000D01*
X156635439Y-118815000D01*
X157162862Y-118596534D01*
X157566534Y-118192862D01*
X157620000Y-118063784D01*
X157673466Y-118192862D01*
X158077138Y-118596534D01*
X158604561Y-118815000D01*
X159175439Y-118815000D01*
X159702862Y-118596534D01*
X160106534Y-118192862D01*
X160160000Y-118063784D01*
X160213466Y-118192862D01*
X160617138Y-118596534D01*
X161144561Y-118815000D01*
X161715439Y-118815000D01*
X161725426Y-118810863D01*
X161622569Y-118913720D01*
X161465000Y-119294126D01*
X161465000Y-119705874D01*
X161622569Y-120086280D01*
X161913720Y-120377431D01*
X162294126Y-120535000D01*
X162460199Y-120535000D01*
X162634669Y-120709471D01*
X162677070Y-120772928D01*
X162928462Y-120940903D01*
X162965000Y-120948171D01*
X162965000Y-121205874D01*
X163122569Y-121586280D01*
X163225142Y-121688853D01*
X163225112Y-121689002D01*
X163240000Y-121763849D01*
X163240000Y-121763854D01*
X163284097Y-121985539D01*
X163452072Y-122236931D01*
X163515528Y-122279331D01*
X165355670Y-124119474D01*
X165398070Y-124182930D01*
X165419024Y-124196931D01*
X165256136Y-124245995D01*
X165063035Y-124783223D01*
X165090222Y-125353454D01*
X165256136Y-125754005D01*
X165502255Y-125828139D01*
X166330395Y-125000000D01*
X166316253Y-124985858D01*
X166495858Y-124806252D01*
X166510000Y-124820395D01*
X166524142Y-124806252D01*
X166703748Y-124985858D01*
X166689605Y-125000000D01*
X167517745Y-125828139D01*
X167763864Y-125754005D01*
X167956965Y-125216777D01*
X167929778Y-124646546D01*
X167825584Y-124395001D01*
X168456138Y-124395001D01*
X168794126Y-124535000D01*
X169205874Y-124535000D01*
X169586280Y-124377431D01*
X169877431Y-124086280D01*
X170035000Y-123705874D01*
X170035000Y-123294126D01*
X169877431Y-122913720D01*
X169586280Y-122622569D01*
X169205874Y-122465000D01*
X168794126Y-122465000D01*
X168413720Y-122622569D01*
X168161288Y-122875001D01*
X167891334Y-122875001D01*
X167945000Y-122745439D01*
X167945000Y-122294126D01*
X180965000Y-122294126D01*
X180965000Y-122705874D01*
X181122569Y-123086280D01*
X181413720Y-123377431D01*
X181794126Y-123535000D01*
X182205874Y-123535000D01*
X182586280Y-123377431D01*
X182877431Y-123086280D01*
X183035000Y-122705874D01*
X183035000Y-122539801D01*
X183314802Y-122260000D01*
X185296289Y-122260000D01*
X185413720Y-122377431D01*
X185794126Y-122535000D01*
X186205874Y-122535000D01*
X186462560Y-122428677D01*
X186462560Y-122770000D01*
X186511843Y-123017765D01*
X186652191Y-123227809D01*
X186862235Y-123368157D01*
X187110000Y-123417440D01*
X188810000Y-123417440D01*
X189057765Y-123368157D01*
X189267809Y-123227809D01*
X189408157Y-123017765D01*
X189425032Y-122932928D01*
X189425032Y-123005874D01*
X189582601Y-123386280D01*
X189873752Y-123677431D01*
X190254158Y-123835000D01*
X190665906Y-123835000D01*
X191046312Y-123677431D01*
X191337463Y-123386280D01*
X191495032Y-123005874D01*
X191495032Y-122594126D01*
X191363629Y-122276890D01*
X196558524Y-122276890D01*
X196728355Y-122686924D01*
X197118642Y-123115183D01*
X197643108Y-123361486D01*
X197873000Y-123240819D01*
X197873000Y-122047000D01*
X196679845Y-122047000D01*
X196558524Y-122276890D01*
X191363629Y-122276890D01*
X191337463Y-122213720D01*
X191046312Y-121922569D01*
X190665906Y-121765000D01*
X190499833Y-121765000D01*
X190170363Y-121435530D01*
X190127961Y-121372071D01*
X189876569Y-121204096D01*
X189654884Y-121160000D01*
X189654879Y-121160000D01*
X189580032Y-121145112D01*
X189505185Y-121160000D01*
X189457440Y-121160000D01*
X189457440Y-121070000D01*
X189408157Y-120822235D01*
X189267809Y-120612191D01*
X189057765Y-120471843D01*
X189012381Y-120462816D01*
X189030625Y-120450625D01*
X189358839Y-119959418D01*
X189474092Y-119380000D01*
X189358839Y-118800582D01*
X189030625Y-118309375D01*
X188732239Y-118110000D01*
X189030625Y-117910625D01*
X189358839Y-117419418D01*
X189474092Y-116840000D01*
X189358839Y-116260582D01*
X189030625Y-115769375D01*
X188711522Y-115556157D01*
X188841358Y-115495183D01*
X189231645Y-115066924D01*
X189401476Y-114656890D01*
X189280155Y-114427000D01*
X188087000Y-114427000D01*
X188087000Y-114447000D01*
X187833000Y-114447000D01*
X187833000Y-114427000D01*
X186639845Y-114427000D01*
X186518524Y-114656890D01*
X186688355Y-115066924D01*
X187078642Y-115495183D01*
X187208478Y-115556157D01*
X186889375Y-115769375D01*
X186688043Y-116070690D01*
X186659999Y-116065112D01*
X186585152Y-116080000D01*
X186585148Y-116080000D01*
X186363463Y-116124096D01*
X186112071Y-116292071D01*
X186069671Y-116355527D01*
X183960199Y-118465000D01*
X183794126Y-118465000D01*
X183413720Y-118622569D01*
X183122569Y-118913720D01*
X182965000Y-119294126D01*
X182965000Y-119705874D01*
X183122569Y-120086280D01*
X183413720Y-120377431D01*
X183794126Y-120535000D01*
X184205874Y-120535000D01*
X184586280Y-120377431D01*
X184877431Y-120086280D01*
X185035000Y-119705874D01*
X185035000Y-119539801D01*
X186799173Y-117775629D01*
X186889375Y-117910625D01*
X187187761Y-118110000D01*
X186889375Y-118309375D01*
X186561161Y-118800582D01*
X186445908Y-119380000D01*
X186518791Y-119746408D01*
X185800199Y-120465000D01*
X185794126Y-120465000D01*
X185413720Y-120622569D01*
X185296289Y-120740000D01*
X183074848Y-120740000D01*
X183000000Y-120725112D01*
X182925152Y-120740000D01*
X182925148Y-120740000D01*
X182703463Y-120784096D01*
X182452071Y-120952071D01*
X182409671Y-121015527D01*
X181960199Y-121465000D01*
X181794126Y-121465000D01*
X181413720Y-121622569D01*
X181122569Y-121913720D01*
X180965000Y-122294126D01*
X167945000Y-122294126D01*
X167945000Y-122174561D01*
X167812634Y-121855001D01*
X168830152Y-121855001D01*
X168904999Y-121869889D01*
X168979846Y-121855001D01*
X168979851Y-121855001D01*
X169201536Y-121810905D01*
X169452928Y-121642930D01*
X169495330Y-121579471D01*
X170039802Y-121035000D01*
X170205874Y-121035000D01*
X170586280Y-120877431D01*
X170877431Y-120586280D01*
X171035000Y-120205874D01*
X171035000Y-119794126D01*
X170877431Y-119413720D01*
X170586280Y-119122569D01*
X170535000Y-119101328D01*
X170535000Y-118794126D01*
X170377431Y-118413720D01*
X170086280Y-118122569D01*
X169705874Y-117965000D01*
X169517618Y-117965000D01*
X169396538Y-117884097D01*
X169174853Y-117840001D01*
X169174848Y-117840001D01*
X169100001Y-117825113D01*
X169025154Y-117840001D01*
X167872694Y-117840001D01*
X167945000Y-117665439D01*
X167945000Y-117094561D01*
X167726534Y-116567138D01*
X167322862Y-116163466D01*
X166795439Y-115945000D01*
X166224561Y-115945000D01*
X165697138Y-116163466D01*
X165293466Y-116567138D01*
X165240000Y-116696216D01*
X165186534Y-116567138D01*
X164782862Y-116163466D01*
X164255439Y-115945000D01*
X163684561Y-115945000D01*
X163157138Y-116163466D01*
X162753466Y-116567138D01*
X162700000Y-116696216D01*
X162646534Y-116567138D01*
X162242862Y-116163466D01*
X161715439Y-115945000D01*
X161144561Y-115945000D01*
X160617138Y-116163466D01*
X160213466Y-116567138D01*
X160160000Y-116696216D01*
X160106534Y-116567138D01*
X159702862Y-116163466D01*
X159175439Y-115945000D01*
X158604561Y-115945000D01*
X158077138Y-116163466D01*
X157673466Y-116567138D01*
X157620000Y-116696216D01*
X157566534Y-116567138D01*
X157162862Y-116163466D01*
X156635439Y-115945000D01*
X156064561Y-115945000D01*
X155537138Y-116163466D01*
X155133466Y-116567138D01*
X155080000Y-116696216D01*
X155026534Y-116567138D01*
X154622862Y-116163466D01*
X154095439Y-115945000D01*
X153524561Y-115945000D01*
X152997138Y-116163466D01*
X152593466Y-116567138D01*
X152540000Y-116696216D01*
X152486534Y-116567138D01*
X152082862Y-116163466D01*
X151555439Y-115945000D01*
X150984561Y-115945000D01*
X150457138Y-116163466D01*
X150053466Y-116567138D01*
X150000000Y-116696216D01*
X149946534Y-116567138D01*
X149542862Y-116163466D01*
X149015439Y-115945000D01*
X148444561Y-115945000D01*
X147917138Y-116163466D01*
X147513466Y-116567138D01*
X147460000Y-116696216D01*
X147406534Y-116567138D01*
X147002862Y-116163466D01*
X146475439Y-115945000D01*
X145904561Y-115945000D01*
X145377138Y-116163466D01*
X144973466Y-116567138D01*
X144920000Y-116696216D01*
X144866534Y-116567138D01*
X144462862Y-116163466D01*
X143935439Y-115945000D01*
X143364561Y-115945000D01*
X143120779Y-116045978D01*
X141035000Y-113960199D01*
X141035000Y-113943110D01*
X186518524Y-113943110D01*
X186639845Y-114173000D01*
X187833000Y-114173000D01*
X187833000Y-112979181D01*
X188087000Y-112979181D01*
X188087000Y-114173000D01*
X189280155Y-114173000D01*
X189401476Y-113943110D01*
X189231645Y-113533076D01*
X188841358Y-113104817D01*
X188316892Y-112858514D01*
X188087000Y-112979181D01*
X187833000Y-112979181D01*
X187603108Y-112858514D01*
X187078642Y-113104817D01*
X186688355Y-113533076D01*
X186518524Y-113943110D01*
X141035000Y-113943110D01*
X141035000Y-113794126D01*
X140877431Y-113413720D01*
X140586280Y-113122569D01*
X140205874Y-112965000D01*
X139794126Y-112965000D01*
X139413720Y-113122569D01*
X139122569Y-113413720D01*
X138965000Y-113794126D01*
X138965000Y-114205874D01*
X139122569Y-114586280D01*
X139413720Y-114877431D01*
X139794126Y-115035000D01*
X139960199Y-115035000D01*
X140870199Y-115945000D01*
X140824561Y-115945000D01*
X140297138Y-116163466D01*
X139893466Y-116567138D01*
X139840000Y-116696216D01*
X139786534Y-116567138D01*
X139382862Y-116163466D01*
X138855439Y-115945000D01*
X138284561Y-115945000D01*
X137757138Y-116163466D01*
X137353466Y-116567138D01*
X137306475Y-116680583D01*
X137283864Y-116625995D01*
X137037745Y-116551861D01*
X136209605Y-117380000D01*
X135850395Y-117380000D01*
X135022255Y-116551861D01*
X134776136Y-116625995D01*
X134755126Y-116684448D01*
X134706534Y-116567138D01*
X134511651Y-116372255D01*
X135201861Y-116372255D01*
X136030000Y-117200395D01*
X136858139Y-116372255D01*
X136784005Y-116126136D01*
X136246777Y-115933035D01*
X135676546Y-115960222D01*
X135275995Y-116126136D01*
X135201861Y-116372255D01*
X134511651Y-116372255D01*
X134302862Y-116163466D01*
X133775439Y-115945000D01*
X133204561Y-115945000D01*
X132677138Y-116163466D01*
X132273466Y-116567138D01*
X132055000Y-117094561D01*
X100710000Y-117094561D01*
X100710000Y-113920000D01*
X102534928Y-113920000D01*
X102654062Y-114518927D01*
X102993327Y-115026673D01*
X103501073Y-115365938D01*
X103948818Y-115455000D01*
X106051182Y-115455000D01*
X106498927Y-115365938D01*
X107006673Y-115026673D01*
X107345938Y-114518927D01*
X107465072Y-113920000D01*
X107345938Y-113321073D01*
X107006673Y-112813327D01*
X106498927Y-112474062D01*
X106051182Y-112385000D01*
X103948818Y-112385000D01*
X103501073Y-112474062D01*
X102993327Y-112813327D01*
X102654062Y-113321073D01*
X102534928Y-113920000D01*
X100710000Y-113920000D01*
X100710000Y-104446029D01*
X102215000Y-104446029D01*
X102215000Y-105553971D01*
X102638991Y-106577576D01*
X103422424Y-107361009D01*
X104446029Y-107785000D01*
X105553971Y-107785000D01*
X106577576Y-107361009D01*
X107361009Y-106577576D01*
X107785000Y-105553971D01*
X107785000Y-104446029D01*
X192215000Y-104446029D01*
X192215000Y-105553971D01*
X192638991Y-106577576D01*
X193422424Y-107361009D01*
X194446029Y-107785000D01*
X195553971Y-107785000D01*
X196577576Y-107361009D01*
X197361009Y-106577576D01*
X197785000Y-105553971D01*
X197785000Y-104446029D01*
X197361009Y-103422424D01*
X196577576Y-102638991D01*
X195553971Y-102215000D01*
X194446029Y-102215000D01*
X193422424Y-102638991D01*
X192638991Y-103422424D01*
X192215000Y-104446029D01*
X107785000Y-104446029D01*
X107361009Y-103422424D01*
X106577576Y-102638991D01*
X105553971Y-102215000D01*
X104446029Y-102215000D01*
X103422424Y-102638991D01*
X102638991Y-103422424D01*
X102215000Y-104446029D01*
X100710000Y-104446029D01*
X100710000Y-100710000D01*
X110440291Y-100710000D01*
X110311843Y-100902235D01*
G04 #@! TD*
M02*
