G04 #@! TF.GenerationSoftware,KiCad,Pcbnew,5.0.0-rc2-unknown-2cb65f9~65~ubuntu17.10.1*
G04 #@! TF.CreationDate,2018-06-03T22:22:17-07:00*
G04 #@! TF.ProjectId,mcu_controller,6D63755F636F6E74726F6C6C65722E6B,rev?*
G04 #@! TF.SameCoordinates,Original*
G04 #@! TF.FileFunction,Legend,Top*
G04 #@! TF.FilePolarity,Positive*
%FSLAX46Y46*%
G04 Gerber Fmt 4.6, Leading zero omitted, Abs format (unit mm)*
G04 Created by KiCad (PCBNEW 5.0.0-rc2-unknown-2cb65f9~65~ubuntu17.10.1) date Sun Jun  3 22:22:17 2018*
%MOMM*%
%LPD*%
G01*
G04 APERTURE LIST*
%ADD10C,0.200000*%
%ADD11C,0.100000*%
%ADD12C,0.220000*%
%ADD13C,0.120000*%
%ADD14C,0.150000*%
G04 APERTURE END LIST*
D10*
X173552380Y-132552380D02*
X172552380Y-132552380D01*
X173266666Y-132219047D01*
X172552380Y-131885714D01*
X173552380Y-131885714D01*
X173457142Y-130838095D02*
X173504761Y-130885714D01*
X173552380Y-131028571D01*
X173552380Y-131123809D01*
X173504761Y-131266666D01*
X173409523Y-131361904D01*
X173314285Y-131409523D01*
X173123809Y-131457142D01*
X172980952Y-131457142D01*
X172790476Y-131409523D01*
X172695238Y-131361904D01*
X172600000Y-131266666D01*
X172552380Y-131123809D01*
X172552380Y-131028571D01*
X172600000Y-130885714D01*
X172647619Y-130838095D01*
X172552380Y-130409523D02*
X173361904Y-130409523D01*
X173457142Y-130361904D01*
X173504761Y-130314285D01*
X173552380Y-130219047D01*
X173552380Y-130028571D01*
X173504761Y-129933333D01*
X173457142Y-129885714D01*
X173361904Y-129838095D01*
X172552380Y-129838095D01*
X173457142Y-128028571D02*
X173504761Y-128076190D01*
X173552380Y-128219047D01*
X173552380Y-128314285D01*
X173504761Y-128457142D01*
X173409523Y-128552380D01*
X173314285Y-128600000D01*
X173123809Y-128647619D01*
X172980952Y-128647619D01*
X172790476Y-128600000D01*
X172695238Y-128552380D01*
X172600000Y-128457142D01*
X172552380Y-128314285D01*
X172552380Y-128219047D01*
X172600000Y-128076190D01*
X172647619Y-128028571D01*
X172552380Y-127409523D02*
X172552380Y-127219047D01*
X172600000Y-127123809D01*
X172695238Y-127028571D01*
X172885714Y-126980952D01*
X173219047Y-126980952D01*
X173409523Y-127028571D01*
X173504761Y-127123809D01*
X173552380Y-127219047D01*
X173552380Y-127409523D01*
X173504761Y-127504761D01*
X173409523Y-127600000D01*
X173219047Y-127647619D01*
X172885714Y-127647619D01*
X172695238Y-127600000D01*
X172600000Y-127504761D01*
X172552380Y-127409523D01*
X173552380Y-126552380D02*
X172552380Y-126552380D01*
X173552380Y-125980952D01*
X172552380Y-125980952D01*
X172552380Y-125647619D02*
X172552380Y-125076190D01*
X173552380Y-125361904D02*
X172552380Y-125361904D01*
X173552380Y-124171428D02*
X173076190Y-124504761D01*
X173552380Y-124742857D02*
X172552380Y-124742857D01*
X172552380Y-124361904D01*
X172600000Y-124266666D01*
X172647619Y-124219047D01*
X172742857Y-124171428D01*
X172885714Y-124171428D01*
X172980952Y-124219047D01*
X173028571Y-124266666D01*
X173076190Y-124361904D01*
X173076190Y-124742857D01*
X172552380Y-123552380D02*
X172552380Y-123361904D01*
X172600000Y-123266666D01*
X172695238Y-123171428D01*
X172885714Y-123123809D01*
X173219047Y-123123809D01*
X173409523Y-123171428D01*
X173504761Y-123266666D01*
X173552380Y-123361904D01*
X173552380Y-123552380D01*
X173504761Y-123647619D01*
X173409523Y-123742857D01*
X173219047Y-123790476D01*
X172885714Y-123790476D01*
X172695238Y-123742857D01*
X172600000Y-123647619D01*
X172552380Y-123552380D01*
X173552380Y-122219047D02*
X173552380Y-122695238D01*
X172552380Y-122695238D01*
X173552380Y-121409523D02*
X173552380Y-121885714D01*
X172552380Y-121885714D01*
X173028571Y-121076190D02*
X173028571Y-120742857D01*
X173552380Y-120600000D02*
X173552380Y-121076190D01*
X172552380Y-121076190D01*
X172552380Y-120600000D01*
X173552380Y-119600000D02*
X173076190Y-119933333D01*
X173552380Y-120171428D02*
X172552380Y-120171428D01*
X172552380Y-119790476D01*
X172600000Y-119695238D01*
X172647619Y-119647619D01*
X172742857Y-119600000D01*
X172885714Y-119600000D01*
X172980952Y-119647619D01*
X173028571Y-119695238D01*
X173076190Y-119790476D01*
X173076190Y-120171428D01*
X173552380Y-117885714D02*
X173552380Y-118457142D01*
X173552380Y-118171428D02*
X172552380Y-118171428D01*
X172695238Y-118266666D01*
X172790476Y-118361904D01*
X172838095Y-118457142D01*
X173457142Y-117457142D02*
X173504761Y-117409523D01*
X173552380Y-117457142D01*
X173504761Y-117504761D01*
X173457142Y-117457142D01*
X173552380Y-117457142D01*
X172552380Y-116790476D02*
X172552380Y-116695238D01*
X172600000Y-116600000D01*
X172647619Y-116552380D01*
X172742857Y-116504761D01*
X172933333Y-116457142D01*
X173171428Y-116457142D01*
X173361904Y-116504761D01*
X173457142Y-116552380D01*
X173504761Y-116600000D01*
X173552380Y-116695238D01*
X173552380Y-116790476D01*
X173504761Y-116885714D01*
X173457142Y-116933333D01*
X173361904Y-116980952D01*
X173171428Y-117028571D01*
X172933333Y-117028571D01*
X172742857Y-116980952D01*
X172647619Y-116933333D01*
X172600000Y-116885714D01*
X172552380Y-116790476D01*
X172552380Y-116171428D02*
X173552380Y-115838095D01*
X172552380Y-115504761D01*
X175252380Y-126195238D02*
X175252380Y-126766666D01*
X175252380Y-126480952D02*
X174252380Y-126480952D01*
X174395238Y-126576190D01*
X174490476Y-126671428D01*
X174538095Y-126766666D01*
X174680952Y-125623809D02*
X174633333Y-125719047D01*
X174585714Y-125766666D01*
X174490476Y-125814285D01*
X174442857Y-125814285D01*
X174347619Y-125766666D01*
X174300000Y-125719047D01*
X174252380Y-125623809D01*
X174252380Y-125433333D01*
X174300000Y-125338095D01*
X174347619Y-125290476D01*
X174442857Y-125242857D01*
X174490476Y-125242857D01*
X174585714Y-125290476D01*
X174633333Y-125338095D01*
X174680952Y-125433333D01*
X174680952Y-125623809D01*
X174728571Y-125719047D01*
X174776190Y-125766666D01*
X174871428Y-125814285D01*
X175061904Y-125814285D01*
X175157142Y-125766666D01*
X175204761Y-125719047D01*
X175252380Y-125623809D01*
X175252380Y-125433333D01*
X175204761Y-125338095D01*
X175157142Y-125290476D01*
X175061904Y-125242857D01*
X174871428Y-125242857D01*
X174776190Y-125290476D01*
X174728571Y-125338095D01*
X174680952Y-125433333D01*
X174252380Y-124623809D02*
X174252380Y-124528571D01*
X174300000Y-124433333D01*
X174347619Y-124385714D01*
X174442857Y-124338095D01*
X174633333Y-124290476D01*
X174871428Y-124290476D01*
X175061904Y-124338095D01*
X175157142Y-124385714D01*
X175204761Y-124433333D01*
X175252380Y-124528571D01*
X175252380Y-124623809D01*
X175204761Y-124719047D01*
X175157142Y-124766666D01*
X175061904Y-124814285D01*
X174871428Y-124861904D01*
X174633333Y-124861904D01*
X174442857Y-124814285D01*
X174347619Y-124766666D01*
X174300000Y-124719047D01*
X174252380Y-124623809D01*
X174252380Y-123385714D02*
X174252380Y-123861904D01*
X174728571Y-123909523D01*
X174680952Y-123861904D01*
X174633333Y-123766666D01*
X174633333Y-123528571D01*
X174680952Y-123433333D01*
X174728571Y-123385714D01*
X174823809Y-123338095D01*
X175061904Y-123338095D01*
X175157142Y-123385714D01*
X175204761Y-123433333D01*
X175252380Y-123528571D01*
X175252380Y-123766666D01*
X175204761Y-123861904D01*
X175157142Y-123909523D01*
X174252380Y-123004761D02*
X174252380Y-122385714D01*
X174633333Y-122719047D01*
X174633333Y-122576190D01*
X174680952Y-122480952D01*
X174728571Y-122433333D01*
X174823809Y-122385714D01*
X175061904Y-122385714D01*
X175157142Y-122433333D01*
X175204761Y-122480952D01*
X175252380Y-122576190D01*
X175252380Y-122861904D01*
X175204761Y-122957142D01*
X175157142Y-123004761D01*
X174252380Y-121766666D02*
X174252380Y-121671428D01*
X174300000Y-121576190D01*
X174347619Y-121528571D01*
X174442857Y-121480952D01*
X174633333Y-121433333D01*
X174871428Y-121433333D01*
X175061904Y-121480952D01*
X175157142Y-121528571D01*
X175204761Y-121576190D01*
X175252380Y-121671428D01*
X175252380Y-121766666D01*
X175204761Y-121861904D01*
X175157142Y-121909523D01*
X175061904Y-121957142D01*
X174871428Y-122004761D01*
X174633333Y-122004761D01*
X174442857Y-121957142D01*
X174347619Y-121909523D01*
X174300000Y-121861904D01*
X174252380Y-121766666D01*
X176428571Y-125052380D02*
X176428571Y-125385714D01*
X176952380Y-125385714D02*
X175952380Y-125385714D01*
X175952380Y-124909523D01*
X176952380Y-124528571D02*
X175952380Y-124528571D01*
X175952380Y-124195238D02*
X175952380Y-123623809D01*
X176952380Y-123909523D02*
X175952380Y-123909523D01*
X175952380Y-123385714D02*
X175952380Y-122719047D01*
X176952380Y-123385714D01*
X176952380Y-122719047D01*
D11*
X136378571Y-106345238D02*
X136402380Y-106369047D01*
X136426190Y-106440476D01*
X136426190Y-106488095D01*
X136402380Y-106559523D01*
X136354761Y-106607142D01*
X136307142Y-106630952D01*
X136211904Y-106654761D01*
X136140476Y-106654761D01*
X136045238Y-106630952D01*
X135997619Y-106607142D01*
X135950000Y-106559523D01*
X135926190Y-106488095D01*
X135926190Y-106440476D01*
X135950000Y-106369047D01*
X135973809Y-106345238D01*
X136426190Y-106130952D02*
X135926190Y-106130952D01*
X136164285Y-106130952D02*
X136164285Y-105845238D01*
X136426190Y-105845238D02*
X135926190Y-105845238D01*
X136426190Y-105345238D02*
X136426190Y-105630952D01*
X136426190Y-105488095D02*
X135926190Y-105488095D01*
X135997619Y-105535714D01*
X136045238Y-105583333D01*
X136069047Y-105630952D01*
X139478571Y-106345238D02*
X139502380Y-106369047D01*
X139526190Y-106440476D01*
X139526190Y-106488095D01*
X139502380Y-106559523D01*
X139454761Y-106607142D01*
X139407142Y-106630952D01*
X139311904Y-106654761D01*
X139240476Y-106654761D01*
X139145238Y-106630952D01*
X139097619Y-106607142D01*
X139050000Y-106559523D01*
X139026190Y-106488095D01*
X139026190Y-106440476D01*
X139050000Y-106369047D01*
X139073809Y-106345238D01*
X139526190Y-106130952D02*
X139026190Y-106130952D01*
X139264285Y-106130952D02*
X139264285Y-105845238D01*
X139526190Y-105845238D02*
X139026190Y-105845238D01*
X139073809Y-105630952D02*
X139050000Y-105607142D01*
X139026190Y-105559523D01*
X139026190Y-105440476D01*
X139050000Y-105392857D01*
X139073809Y-105369047D01*
X139121428Y-105345238D01*
X139169047Y-105345238D01*
X139240476Y-105369047D01*
X139526190Y-105654761D01*
X139526190Y-105345238D01*
X142478571Y-106345238D02*
X142502380Y-106369047D01*
X142526190Y-106440476D01*
X142526190Y-106488095D01*
X142502380Y-106559523D01*
X142454761Y-106607142D01*
X142407142Y-106630952D01*
X142311904Y-106654761D01*
X142240476Y-106654761D01*
X142145238Y-106630952D01*
X142097619Y-106607142D01*
X142050000Y-106559523D01*
X142026190Y-106488095D01*
X142026190Y-106440476D01*
X142050000Y-106369047D01*
X142073809Y-106345238D01*
X142526190Y-106130952D02*
X142026190Y-106130952D01*
X142264285Y-106130952D02*
X142264285Y-105845238D01*
X142526190Y-105845238D02*
X142026190Y-105845238D01*
X142026190Y-105654761D02*
X142026190Y-105345238D01*
X142216666Y-105511904D01*
X142216666Y-105440476D01*
X142240476Y-105392857D01*
X142264285Y-105369047D01*
X142311904Y-105345238D01*
X142430952Y-105345238D01*
X142478571Y-105369047D01*
X142502380Y-105392857D01*
X142526190Y-105440476D01*
X142526190Y-105583333D01*
X142502380Y-105630952D01*
X142478571Y-105654761D01*
X145678571Y-106345238D02*
X145702380Y-106369047D01*
X145726190Y-106440476D01*
X145726190Y-106488095D01*
X145702380Y-106559523D01*
X145654761Y-106607142D01*
X145607142Y-106630952D01*
X145511904Y-106654761D01*
X145440476Y-106654761D01*
X145345238Y-106630952D01*
X145297619Y-106607142D01*
X145250000Y-106559523D01*
X145226190Y-106488095D01*
X145226190Y-106440476D01*
X145250000Y-106369047D01*
X145273809Y-106345238D01*
X145726190Y-106130952D02*
X145226190Y-106130952D01*
X145464285Y-106130952D02*
X145464285Y-105845238D01*
X145726190Y-105845238D02*
X145226190Y-105845238D01*
X145392857Y-105392857D02*
X145726190Y-105392857D01*
X145202380Y-105511904D02*
X145559523Y-105630952D01*
X145559523Y-105321428D01*
X132526190Y-102638095D02*
X132526190Y-102542857D01*
X132550000Y-102495238D01*
X132597619Y-102447619D01*
X132692857Y-102423809D01*
X132859523Y-102423809D01*
X132954761Y-102447619D01*
X133002380Y-102495238D01*
X133026190Y-102542857D01*
X133026190Y-102638095D01*
X133002380Y-102685714D01*
X132954761Y-102733333D01*
X132859523Y-102757142D01*
X132692857Y-102757142D01*
X132597619Y-102733333D01*
X132550000Y-102685714D01*
X132526190Y-102638095D01*
X132526190Y-102209523D02*
X132930952Y-102209523D01*
X132978571Y-102185714D01*
X133002380Y-102161904D01*
X133026190Y-102114285D01*
X133026190Y-102019047D01*
X133002380Y-101971428D01*
X132978571Y-101947619D01*
X132930952Y-101923809D01*
X132526190Y-101923809D01*
X132526190Y-101757142D02*
X132526190Y-101471428D01*
X133026190Y-101614285D02*
X132526190Y-101614285D01*
X133026190Y-101042857D02*
X133026190Y-101328571D01*
X133026190Y-101185714D02*
X132526190Y-101185714D01*
X132597619Y-101233333D01*
X132645238Y-101280952D01*
X132669047Y-101328571D01*
X116826190Y-102738095D02*
X116826190Y-102642857D01*
X116850000Y-102595238D01*
X116897619Y-102547619D01*
X116992857Y-102523809D01*
X117159523Y-102523809D01*
X117254761Y-102547619D01*
X117302380Y-102595238D01*
X117326190Y-102642857D01*
X117326190Y-102738095D01*
X117302380Y-102785714D01*
X117254761Y-102833333D01*
X117159523Y-102857142D01*
X116992857Y-102857142D01*
X116897619Y-102833333D01*
X116850000Y-102785714D01*
X116826190Y-102738095D01*
X116826190Y-102309523D02*
X117230952Y-102309523D01*
X117278571Y-102285714D01*
X117302380Y-102261904D01*
X117326190Y-102214285D01*
X117326190Y-102119047D01*
X117302380Y-102071428D01*
X117278571Y-102047619D01*
X117230952Y-102023809D01*
X116826190Y-102023809D01*
X116826190Y-101857142D02*
X116826190Y-101571428D01*
X117326190Y-101714285D02*
X116826190Y-101714285D01*
X116873809Y-101428571D02*
X116850000Y-101404761D01*
X116826190Y-101357142D01*
X116826190Y-101238095D01*
X116850000Y-101190476D01*
X116873809Y-101166666D01*
X116921428Y-101142857D01*
X116969047Y-101142857D01*
X117040476Y-101166666D01*
X117326190Y-101452380D01*
X117326190Y-101142857D01*
X111254761Y-103826190D02*
X111350000Y-103826190D01*
X111397619Y-103850000D01*
X111445238Y-103897619D01*
X111469047Y-103992857D01*
X111469047Y-104159523D01*
X111445238Y-104254761D01*
X111397619Y-104302380D01*
X111350000Y-104326190D01*
X111254761Y-104326190D01*
X111207142Y-104302380D01*
X111159523Y-104254761D01*
X111135714Y-104159523D01*
X111135714Y-103992857D01*
X111159523Y-103897619D01*
X111207142Y-103850000D01*
X111254761Y-103826190D01*
X111683333Y-104326190D02*
X111683333Y-103826190D01*
X111969047Y-104326190D01*
X111969047Y-103826190D01*
X112564285Y-104302380D02*
X112635714Y-104326190D01*
X112754761Y-104326190D01*
X112802380Y-104302380D01*
X112826190Y-104278571D01*
X112850000Y-104230952D01*
X112850000Y-104183333D01*
X112826190Y-104135714D01*
X112802380Y-104111904D01*
X112754761Y-104088095D01*
X112659523Y-104064285D01*
X112611904Y-104040476D01*
X112588095Y-104016666D01*
X112564285Y-103969047D01*
X112564285Y-103921428D01*
X112588095Y-103873809D01*
X112611904Y-103850000D01*
X112659523Y-103826190D01*
X112778571Y-103826190D01*
X112850000Y-103850000D01*
X113016666Y-103826190D02*
X113135714Y-104326190D01*
X113230952Y-103969047D01*
X113326190Y-104326190D01*
X113445238Y-103826190D01*
X113635714Y-104326190D02*
X113635714Y-103826190D01*
X113802380Y-103826190D02*
X114088095Y-103826190D01*
X113945238Y-104326190D02*
X113945238Y-103826190D01*
X114540476Y-104278571D02*
X114516666Y-104302380D01*
X114445238Y-104326190D01*
X114397619Y-104326190D01*
X114326190Y-104302380D01*
X114278571Y-104254761D01*
X114254761Y-104207142D01*
X114230952Y-104111904D01*
X114230952Y-104040476D01*
X114254761Y-103945238D01*
X114278571Y-103897619D01*
X114326190Y-103850000D01*
X114397619Y-103826190D01*
X114445238Y-103826190D01*
X114516666Y-103850000D01*
X114540476Y-103873809D01*
X114754761Y-104326190D02*
X114754761Y-103826190D01*
X114754761Y-104064285D02*
X115040476Y-104064285D01*
X115040476Y-104326190D02*
X115040476Y-103826190D01*
X126654761Y-108128571D02*
X126630952Y-108152380D01*
X126559523Y-108176190D01*
X126511904Y-108176190D01*
X126440476Y-108152380D01*
X126392857Y-108104761D01*
X126369047Y-108057142D01*
X126345238Y-107961904D01*
X126345238Y-107890476D01*
X126369047Y-107795238D01*
X126392857Y-107747619D01*
X126440476Y-107700000D01*
X126511904Y-107676190D01*
X126559523Y-107676190D01*
X126630952Y-107700000D01*
X126654761Y-107723809D01*
X126869047Y-108176190D02*
X126869047Y-107676190D01*
X126869047Y-107914285D02*
X127154761Y-107914285D01*
X127154761Y-108176190D02*
X127154761Y-107676190D01*
X127607142Y-107842857D02*
X127607142Y-108176190D01*
X127488095Y-107652380D02*
X127369047Y-108009523D01*
X127678571Y-108009523D01*
X123654761Y-108128571D02*
X123630952Y-108152380D01*
X123559523Y-108176190D01*
X123511904Y-108176190D01*
X123440476Y-108152380D01*
X123392857Y-108104761D01*
X123369047Y-108057142D01*
X123345238Y-107961904D01*
X123345238Y-107890476D01*
X123369047Y-107795238D01*
X123392857Y-107747619D01*
X123440476Y-107700000D01*
X123511904Y-107676190D01*
X123559523Y-107676190D01*
X123630952Y-107700000D01*
X123654761Y-107723809D01*
X123869047Y-108176190D02*
X123869047Y-107676190D01*
X123869047Y-107914285D02*
X124154761Y-107914285D01*
X124154761Y-108176190D02*
X124154761Y-107676190D01*
X124345238Y-107676190D02*
X124654761Y-107676190D01*
X124488095Y-107866666D01*
X124559523Y-107866666D01*
X124607142Y-107890476D01*
X124630952Y-107914285D01*
X124654761Y-107961904D01*
X124654761Y-108080952D01*
X124630952Y-108128571D01*
X124607142Y-108152380D01*
X124559523Y-108176190D01*
X124416666Y-108176190D01*
X124369047Y-108152380D01*
X124345238Y-108128571D01*
X120654761Y-108128571D02*
X120630952Y-108152380D01*
X120559523Y-108176190D01*
X120511904Y-108176190D01*
X120440476Y-108152380D01*
X120392857Y-108104761D01*
X120369047Y-108057142D01*
X120345238Y-107961904D01*
X120345238Y-107890476D01*
X120369047Y-107795238D01*
X120392857Y-107747619D01*
X120440476Y-107700000D01*
X120511904Y-107676190D01*
X120559523Y-107676190D01*
X120630952Y-107700000D01*
X120654761Y-107723809D01*
X120869047Y-108176190D02*
X120869047Y-107676190D01*
X120869047Y-107914285D02*
X121154761Y-107914285D01*
X121154761Y-108176190D02*
X121154761Y-107676190D01*
X121369047Y-107723809D02*
X121392857Y-107700000D01*
X121440476Y-107676190D01*
X121559523Y-107676190D01*
X121607142Y-107700000D01*
X121630952Y-107723809D01*
X121654761Y-107771428D01*
X121654761Y-107819047D01*
X121630952Y-107890476D01*
X121345238Y-108176190D01*
X121654761Y-108176190D01*
X117654761Y-108128571D02*
X117630952Y-108152380D01*
X117559523Y-108176190D01*
X117511904Y-108176190D01*
X117440476Y-108152380D01*
X117392857Y-108104761D01*
X117369047Y-108057142D01*
X117345238Y-107961904D01*
X117345238Y-107890476D01*
X117369047Y-107795238D01*
X117392857Y-107747619D01*
X117440476Y-107700000D01*
X117511904Y-107676190D01*
X117559523Y-107676190D01*
X117630952Y-107700000D01*
X117654761Y-107723809D01*
X117869047Y-108176190D02*
X117869047Y-107676190D01*
X117869047Y-107914285D02*
X118154761Y-107914285D01*
X118154761Y-108176190D02*
X118154761Y-107676190D01*
X118654761Y-108176190D02*
X118369047Y-108176190D01*
X118511904Y-108176190D02*
X118511904Y-107676190D01*
X118464285Y-107747619D01*
X118416666Y-107795238D01*
X118369047Y-107819047D01*
X151332380Y-111085238D02*
X151356190Y-111013809D01*
X151356190Y-110894761D01*
X151332380Y-110847142D01*
X151308571Y-110823333D01*
X151260952Y-110799523D01*
X151213333Y-110799523D01*
X151165714Y-110823333D01*
X151141904Y-110847142D01*
X151118095Y-110894761D01*
X151094285Y-110990000D01*
X151070476Y-111037619D01*
X151046666Y-111061428D01*
X150999047Y-111085238D01*
X150951428Y-111085238D01*
X150903809Y-111061428D01*
X150880000Y-111037619D01*
X150856190Y-110990000D01*
X150856190Y-110870952D01*
X150880000Y-110799523D01*
X151308571Y-110299523D02*
X151332380Y-110323333D01*
X151356190Y-110394761D01*
X151356190Y-110442380D01*
X151332380Y-110513809D01*
X151284761Y-110561428D01*
X151237142Y-110585238D01*
X151141904Y-110609047D01*
X151070476Y-110609047D01*
X150975238Y-110585238D01*
X150927619Y-110561428D01*
X150880000Y-110513809D01*
X150856190Y-110442380D01*
X150856190Y-110394761D01*
X150880000Y-110323333D01*
X150903809Y-110299523D01*
X151356190Y-109847142D02*
X151356190Y-110085238D01*
X150856190Y-110085238D01*
X153872380Y-111097142D02*
X153896190Y-111025714D01*
X153896190Y-110906666D01*
X153872380Y-110859047D01*
X153848571Y-110835238D01*
X153800952Y-110811428D01*
X153753333Y-110811428D01*
X153705714Y-110835238D01*
X153681904Y-110859047D01*
X153658095Y-110906666D01*
X153634285Y-111001904D01*
X153610476Y-111049523D01*
X153586666Y-111073333D01*
X153539047Y-111097142D01*
X153491428Y-111097142D01*
X153443809Y-111073333D01*
X153420000Y-111049523D01*
X153396190Y-111001904D01*
X153396190Y-110882857D01*
X153420000Y-110811428D01*
X153896190Y-110597142D02*
X153396190Y-110597142D01*
X153396190Y-110478095D01*
X153420000Y-110406666D01*
X153467619Y-110359047D01*
X153515238Y-110335238D01*
X153610476Y-110311428D01*
X153681904Y-110311428D01*
X153777142Y-110335238D01*
X153824761Y-110359047D01*
X153872380Y-110406666D01*
X153896190Y-110478095D01*
X153896190Y-110597142D01*
X153753333Y-110120952D02*
X153753333Y-109882857D01*
X153896190Y-110168571D02*
X153396190Y-110001904D01*
X153896190Y-109835238D01*
X165278571Y-110374761D02*
X165302380Y-110398571D01*
X165326190Y-110470000D01*
X165326190Y-110517619D01*
X165302380Y-110589047D01*
X165254761Y-110636666D01*
X165207142Y-110660476D01*
X165111904Y-110684285D01*
X165040476Y-110684285D01*
X164945238Y-110660476D01*
X164897619Y-110636666D01*
X164850000Y-110589047D01*
X164826190Y-110517619D01*
X164826190Y-110470000D01*
X164850000Y-110398571D01*
X164873809Y-110374761D01*
X165326190Y-110160476D02*
X164826190Y-110160476D01*
X165064285Y-110160476D02*
X165064285Y-109874761D01*
X165326190Y-109874761D02*
X164826190Y-109874761D01*
X165326190Y-109350952D02*
X165088095Y-109517619D01*
X165326190Y-109636666D02*
X164826190Y-109636666D01*
X164826190Y-109446190D01*
X164850000Y-109398571D01*
X164873809Y-109374761D01*
X164921428Y-109350952D01*
X164992857Y-109350952D01*
X165040476Y-109374761D01*
X165064285Y-109398571D01*
X165088095Y-109446190D01*
X165088095Y-109636666D01*
X164850000Y-108874761D02*
X164826190Y-108922380D01*
X164826190Y-108993809D01*
X164850000Y-109065238D01*
X164897619Y-109112857D01*
X164945238Y-109136666D01*
X165040476Y-109160476D01*
X165111904Y-109160476D01*
X165207142Y-109136666D01*
X165254761Y-109112857D01*
X165302380Y-109065238D01*
X165326190Y-108993809D01*
X165326190Y-108946190D01*
X165302380Y-108874761D01*
X165278571Y-108850952D01*
X165111904Y-108850952D01*
X165111904Y-108946190D01*
X165373809Y-108755714D02*
X165373809Y-108374761D01*
X165326190Y-108255714D02*
X164826190Y-108255714D01*
X164826190Y-108065238D02*
X164826190Y-107755714D01*
X165016666Y-107922380D01*
X165016666Y-107850952D01*
X165040476Y-107803333D01*
X165064285Y-107779523D01*
X165111904Y-107755714D01*
X165230952Y-107755714D01*
X165278571Y-107779523D01*
X165302380Y-107803333D01*
X165326190Y-107850952D01*
X165326190Y-107993809D01*
X165302380Y-108041428D01*
X165278571Y-108065238D01*
X167818571Y-110470000D02*
X167842380Y-110493809D01*
X167866190Y-110565238D01*
X167866190Y-110612857D01*
X167842380Y-110684285D01*
X167794761Y-110731904D01*
X167747142Y-110755714D01*
X167651904Y-110779523D01*
X167580476Y-110779523D01*
X167485238Y-110755714D01*
X167437619Y-110731904D01*
X167390000Y-110684285D01*
X167366190Y-110612857D01*
X167366190Y-110565238D01*
X167390000Y-110493809D01*
X167413809Y-110470000D01*
X167866190Y-110255714D02*
X167366190Y-110255714D01*
X167604285Y-110255714D02*
X167604285Y-109970000D01*
X167866190Y-109970000D02*
X167366190Y-109970000D01*
X167866190Y-109446190D02*
X167628095Y-109612857D01*
X167866190Y-109731904D02*
X167366190Y-109731904D01*
X167366190Y-109541428D01*
X167390000Y-109493809D01*
X167413809Y-109470000D01*
X167461428Y-109446190D01*
X167532857Y-109446190D01*
X167580476Y-109470000D01*
X167604285Y-109493809D01*
X167628095Y-109541428D01*
X167628095Y-109731904D01*
X167390000Y-108970000D02*
X167366190Y-109017619D01*
X167366190Y-109089047D01*
X167390000Y-109160476D01*
X167437619Y-109208095D01*
X167485238Y-109231904D01*
X167580476Y-109255714D01*
X167651904Y-109255714D01*
X167747142Y-109231904D01*
X167794761Y-109208095D01*
X167842380Y-109160476D01*
X167866190Y-109089047D01*
X167866190Y-109041428D01*
X167842380Y-108970000D01*
X167818571Y-108946190D01*
X167651904Y-108946190D01*
X167651904Y-109041428D01*
X167913809Y-108850952D02*
X167913809Y-108470000D01*
X167366190Y-108422380D02*
X167866190Y-108255714D01*
X167366190Y-108089047D01*
X167366190Y-107970000D02*
X167366190Y-107660476D01*
X167556666Y-107827142D01*
X167556666Y-107755714D01*
X167580476Y-107708095D01*
X167604285Y-107684285D01*
X167651904Y-107660476D01*
X167770952Y-107660476D01*
X167818571Y-107684285D01*
X167842380Y-107708095D01*
X167866190Y-107755714D01*
X167866190Y-107898571D01*
X167842380Y-107946190D01*
X167818571Y-107970000D01*
X175438571Y-110374761D02*
X175462380Y-110398571D01*
X175486190Y-110470000D01*
X175486190Y-110517619D01*
X175462380Y-110589047D01*
X175414761Y-110636666D01*
X175367142Y-110660476D01*
X175271904Y-110684285D01*
X175200476Y-110684285D01*
X175105238Y-110660476D01*
X175057619Y-110636666D01*
X175010000Y-110589047D01*
X174986190Y-110517619D01*
X174986190Y-110470000D01*
X175010000Y-110398571D01*
X175033809Y-110374761D01*
X175486190Y-110160476D02*
X174986190Y-110160476D01*
X175224285Y-110160476D02*
X175224285Y-109874761D01*
X175486190Y-109874761D02*
X174986190Y-109874761D01*
X175486190Y-109350952D02*
X175248095Y-109517619D01*
X175486190Y-109636666D02*
X174986190Y-109636666D01*
X174986190Y-109446190D01*
X175010000Y-109398571D01*
X175033809Y-109374761D01*
X175081428Y-109350952D01*
X175152857Y-109350952D01*
X175200476Y-109374761D01*
X175224285Y-109398571D01*
X175248095Y-109446190D01*
X175248095Y-109636666D01*
X175010000Y-108874761D02*
X174986190Y-108922380D01*
X174986190Y-108993809D01*
X175010000Y-109065238D01*
X175057619Y-109112857D01*
X175105238Y-109136666D01*
X175200476Y-109160476D01*
X175271904Y-109160476D01*
X175367142Y-109136666D01*
X175414761Y-109112857D01*
X175462380Y-109065238D01*
X175486190Y-108993809D01*
X175486190Y-108946190D01*
X175462380Y-108874761D01*
X175438571Y-108850952D01*
X175271904Y-108850952D01*
X175271904Y-108946190D01*
X175533809Y-108755714D02*
X175533809Y-108374761D01*
X175486190Y-108255714D02*
X174986190Y-108255714D01*
X175033809Y-108041428D02*
X175010000Y-108017619D01*
X174986190Y-107970000D01*
X174986190Y-107850952D01*
X175010000Y-107803333D01*
X175033809Y-107779523D01*
X175081428Y-107755714D01*
X175129047Y-107755714D01*
X175200476Y-107779523D01*
X175486190Y-108065238D01*
X175486190Y-107755714D01*
X177978571Y-110470000D02*
X178002380Y-110493809D01*
X178026190Y-110565238D01*
X178026190Y-110612857D01*
X178002380Y-110684285D01*
X177954761Y-110731904D01*
X177907142Y-110755714D01*
X177811904Y-110779523D01*
X177740476Y-110779523D01*
X177645238Y-110755714D01*
X177597619Y-110731904D01*
X177550000Y-110684285D01*
X177526190Y-110612857D01*
X177526190Y-110565238D01*
X177550000Y-110493809D01*
X177573809Y-110470000D01*
X178026190Y-110255714D02*
X177526190Y-110255714D01*
X177764285Y-110255714D02*
X177764285Y-109970000D01*
X178026190Y-109970000D02*
X177526190Y-109970000D01*
X178026190Y-109446190D02*
X177788095Y-109612857D01*
X178026190Y-109731904D02*
X177526190Y-109731904D01*
X177526190Y-109541428D01*
X177550000Y-109493809D01*
X177573809Y-109470000D01*
X177621428Y-109446190D01*
X177692857Y-109446190D01*
X177740476Y-109470000D01*
X177764285Y-109493809D01*
X177788095Y-109541428D01*
X177788095Y-109731904D01*
X177550000Y-108970000D02*
X177526190Y-109017619D01*
X177526190Y-109089047D01*
X177550000Y-109160476D01*
X177597619Y-109208095D01*
X177645238Y-109231904D01*
X177740476Y-109255714D01*
X177811904Y-109255714D01*
X177907142Y-109231904D01*
X177954761Y-109208095D01*
X178002380Y-109160476D01*
X178026190Y-109089047D01*
X178026190Y-109041428D01*
X178002380Y-108970000D01*
X177978571Y-108946190D01*
X177811904Y-108946190D01*
X177811904Y-109041428D01*
X178073809Y-108850952D02*
X178073809Y-108470000D01*
X177526190Y-108422380D02*
X178026190Y-108255714D01*
X177526190Y-108089047D01*
X177573809Y-107946190D02*
X177550000Y-107922380D01*
X177526190Y-107874761D01*
X177526190Y-107755714D01*
X177550000Y-107708095D01*
X177573809Y-107684285D01*
X177621428Y-107660476D01*
X177669047Y-107660476D01*
X177740476Y-107684285D01*
X178026190Y-107970000D01*
X178026190Y-107660476D01*
X185598571Y-110374761D02*
X185622380Y-110398571D01*
X185646190Y-110470000D01*
X185646190Y-110517619D01*
X185622380Y-110589047D01*
X185574761Y-110636666D01*
X185527142Y-110660476D01*
X185431904Y-110684285D01*
X185360476Y-110684285D01*
X185265238Y-110660476D01*
X185217619Y-110636666D01*
X185170000Y-110589047D01*
X185146190Y-110517619D01*
X185146190Y-110470000D01*
X185170000Y-110398571D01*
X185193809Y-110374761D01*
X185646190Y-110160476D02*
X185146190Y-110160476D01*
X185384285Y-110160476D02*
X185384285Y-109874761D01*
X185646190Y-109874761D02*
X185146190Y-109874761D01*
X185646190Y-109350952D02*
X185408095Y-109517619D01*
X185646190Y-109636666D02*
X185146190Y-109636666D01*
X185146190Y-109446190D01*
X185170000Y-109398571D01*
X185193809Y-109374761D01*
X185241428Y-109350952D01*
X185312857Y-109350952D01*
X185360476Y-109374761D01*
X185384285Y-109398571D01*
X185408095Y-109446190D01*
X185408095Y-109636666D01*
X185170000Y-108874761D02*
X185146190Y-108922380D01*
X185146190Y-108993809D01*
X185170000Y-109065238D01*
X185217619Y-109112857D01*
X185265238Y-109136666D01*
X185360476Y-109160476D01*
X185431904Y-109160476D01*
X185527142Y-109136666D01*
X185574761Y-109112857D01*
X185622380Y-109065238D01*
X185646190Y-108993809D01*
X185646190Y-108946190D01*
X185622380Y-108874761D01*
X185598571Y-108850952D01*
X185431904Y-108850952D01*
X185431904Y-108946190D01*
X185693809Y-108755714D02*
X185693809Y-108374761D01*
X185646190Y-108255714D02*
X185146190Y-108255714D01*
X185646190Y-107755714D02*
X185646190Y-108041428D01*
X185646190Y-107898571D02*
X185146190Y-107898571D01*
X185217619Y-107946190D01*
X185265238Y-107993809D01*
X185289047Y-108041428D01*
X188138571Y-110470000D02*
X188162380Y-110493809D01*
X188186190Y-110565238D01*
X188186190Y-110612857D01*
X188162380Y-110684285D01*
X188114761Y-110731904D01*
X188067142Y-110755714D01*
X187971904Y-110779523D01*
X187900476Y-110779523D01*
X187805238Y-110755714D01*
X187757619Y-110731904D01*
X187710000Y-110684285D01*
X187686190Y-110612857D01*
X187686190Y-110565238D01*
X187710000Y-110493809D01*
X187733809Y-110470000D01*
X188186190Y-110255714D02*
X187686190Y-110255714D01*
X187924285Y-110255714D02*
X187924285Y-109970000D01*
X188186190Y-109970000D02*
X187686190Y-109970000D01*
X188186190Y-109446190D02*
X187948095Y-109612857D01*
X188186190Y-109731904D02*
X187686190Y-109731904D01*
X187686190Y-109541428D01*
X187710000Y-109493809D01*
X187733809Y-109470000D01*
X187781428Y-109446190D01*
X187852857Y-109446190D01*
X187900476Y-109470000D01*
X187924285Y-109493809D01*
X187948095Y-109541428D01*
X187948095Y-109731904D01*
X187710000Y-108970000D02*
X187686190Y-109017619D01*
X187686190Y-109089047D01*
X187710000Y-109160476D01*
X187757619Y-109208095D01*
X187805238Y-109231904D01*
X187900476Y-109255714D01*
X187971904Y-109255714D01*
X188067142Y-109231904D01*
X188114761Y-109208095D01*
X188162380Y-109160476D01*
X188186190Y-109089047D01*
X188186190Y-109041428D01*
X188162380Y-108970000D01*
X188138571Y-108946190D01*
X187971904Y-108946190D01*
X187971904Y-109041428D01*
X188233809Y-108850952D02*
X188233809Y-108470000D01*
X187686190Y-108422380D02*
X188186190Y-108255714D01*
X187686190Y-108089047D01*
X188186190Y-107660476D02*
X188186190Y-107946190D01*
X188186190Y-107803333D02*
X187686190Y-107803333D01*
X187757619Y-107850952D01*
X187805238Y-107898571D01*
X187829047Y-107946190D01*
X182260952Y-126726190D02*
X182570476Y-126726190D01*
X182403809Y-126916666D01*
X182475238Y-126916666D01*
X182522857Y-126940476D01*
X182546666Y-126964285D01*
X182570476Y-127011904D01*
X182570476Y-127130952D01*
X182546666Y-127178571D01*
X182522857Y-127202380D01*
X182475238Y-127226190D01*
X182332380Y-127226190D01*
X182284761Y-127202380D01*
X182260952Y-127178571D01*
X182713333Y-126726190D02*
X182880000Y-127226190D01*
X183046666Y-126726190D01*
X183165714Y-126726190D02*
X183475238Y-126726190D01*
X183308571Y-126916666D01*
X183380000Y-126916666D01*
X183427619Y-126940476D01*
X183451428Y-126964285D01*
X183475238Y-127011904D01*
X183475238Y-127130952D01*
X183451428Y-127178571D01*
X183427619Y-127202380D01*
X183380000Y-127226190D01*
X183237142Y-127226190D01*
X183189523Y-127202380D01*
X183165714Y-127178571D01*
X182499047Y-129266190D02*
X182784761Y-129266190D01*
X182641904Y-129766190D02*
X182641904Y-129266190D01*
X182903809Y-129266190D02*
X183237142Y-129766190D01*
X183237142Y-129266190D02*
X182903809Y-129766190D01*
X182284761Y-132282380D02*
X182356190Y-132306190D01*
X182475238Y-132306190D01*
X182522857Y-132282380D01*
X182546666Y-132258571D01*
X182570476Y-132210952D01*
X182570476Y-132163333D01*
X182546666Y-132115714D01*
X182522857Y-132091904D01*
X182475238Y-132068095D01*
X182380000Y-132044285D01*
X182332380Y-132020476D01*
X182308571Y-131996666D01*
X182284761Y-131949047D01*
X182284761Y-131901428D01*
X182308571Y-131853809D01*
X182332380Y-131830000D01*
X182380000Y-131806190D01*
X182499047Y-131806190D01*
X182570476Y-131830000D01*
X183070476Y-132258571D02*
X183046666Y-132282380D01*
X182975238Y-132306190D01*
X182927619Y-132306190D01*
X182856190Y-132282380D01*
X182808571Y-132234761D01*
X182784761Y-132187142D01*
X182760952Y-132091904D01*
X182760952Y-132020476D01*
X182784761Y-131925238D01*
X182808571Y-131877619D01*
X182856190Y-131830000D01*
X182927619Y-131806190D01*
X182975238Y-131806190D01*
X183046666Y-131830000D01*
X183070476Y-131853809D01*
X183522857Y-132306190D02*
X183284761Y-132306190D01*
X183284761Y-131806190D01*
X182094285Y-134846190D02*
X182094285Y-134346190D01*
X182260952Y-134703333D01*
X182427619Y-134346190D01*
X182427619Y-134846190D01*
X182665714Y-134846190D02*
X182665714Y-134346190D01*
X182880000Y-134822380D02*
X182951428Y-134846190D01*
X183070476Y-134846190D01*
X183118095Y-134822380D01*
X183141904Y-134798571D01*
X183165714Y-134750952D01*
X183165714Y-134703333D01*
X183141904Y-134655714D01*
X183118095Y-134631904D01*
X183070476Y-134608095D01*
X182975238Y-134584285D01*
X182927619Y-134560476D01*
X182903809Y-134536666D01*
X182880000Y-134489047D01*
X182880000Y-134441428D01*
X182903809Y-134393809D01*
X182927619Y-134370000D01*
X182975238Y-134346190D01*
X183094285Y-134346190D01*
X183165714Y-134370000D01*
X183475238Y-134346190D02*
X183570476Y-134346190D01*
X183618095Y-134370000D01*
X183665714Y-134417619D01*
X183689523Y-134512857D01*
X183689523Y-134679523D01*
X183665714Y-134774761D01*
X183618095Y-134822380D01*
X183570476Y-134846190D01*
X183475238Y-134846190D01*
X183427619Y-134822380D01*
X183380000Y-134774761D01*
X183356190Y-134679523D01*
X183356190Y-134512857D01*
X183380000Y-134417619D01*
X183427619Y-134370000D01*
X183475238Y-134346190D01*
X182237142Y-137362380D02*
X182308571Y-137386190D01*
X182427619Y-137386190D01*
X182475238Y-137362380D01*
X182499047Y-137338571D01*
X182522857Y-137290952D01*
X182522857Y-137243333D01*
X182499047Y-137195714D01*
X182475238Y-137171904D01*
X182427619Y-137148095D01*
X182332380Y-137124285D01*
X182284761Y-137100476D01*
X182260952Y-137076666D01*
X182237142Y-137029047D01*
X182237142Y-136981428D01*
X182260952Y-136933809D01*
X182284761Y-136910000D01*
X182332380Y-136886190D01*
X182451428Y-136886190D01*
X182522857Y-136910000D01*
X183022857Y-137338571D02*
X182999047Y-137362380D01*
X182927619Y-137386190D01*
X182880000Y-137386190D01*
X182808571Y-137362380D01*
X182760952Y-137314761D01*
X182737142Y-137267142D01*
X182713333Y-137171904D01*
X182713333Y-137100476D01*
X182737142Y-137005238D01*
X182760952Y-136957619D01*
X182808571Y-136910000D01*
X182880000Y-136886190D01*
X182927619Y-136886190D01*
X182999047Y-136910000D01*
X183022857Y-136933809D01*
X183237142Y-137386190D02*
X183237142Y-136886190D01*
X183522857Y-137386190D02*
X183308571Y-137100476D01*
X183522857Y-136886190D02*
X183237142Y-137171904D01*
X190226190Y-137386190D02*
X190059523Y-137148095D01*
X189940476Y-137386190D02*
X189940476Y-136886190D01*
X190130952Y-136886190D01*
X190178571Y-136910000D01*
X190202380Y-136933809D01*
X190226190Y-136981428D01*
X190226190Y-137052857D01*
X190202380Y-137100476D01*
X190178571Y-137124285D01*
X190130952Y-137148095D01*
X189940476Y-137148095D01*
X190416666Y-137362380D02*
X190488095Y-137386190D01*
X190607142Y-137386190D01*
X190654761Y-137362380D01*
X190678571Y-137338571D01*
X190702380Y-137290952D01*
X190702380Y-137243333D01*
X190678571Y-137195714D01*
X190654761Y-137171904D01*
X190607142Y-137148095D01*
X190511904Y-137124285D01*
X190464285Y-137100476D01*
X190440476Y-137076666D01*
X190416666Y-137029047D01*
X190416666Y-136981428D01*
X190440476Y-136933809D01*
X190464285Y-136910000D01*
X190511904Y-136886190D01*
X190630952Y-136886190D01*
X190702380Y-136910000D01*
X190845238Y-136886190D02*
X191130952Y-136886190D01*
X190988095Y-137386190D02*
X190988095Y-136886190D01*
X189714285Y-134846190D02*
X189714285Y-134346190D01*
X189880952Y-134703333D01*
X190047619Y-134346190D01*
X190047619Y-134846190D01*
X190380952Y-134346190D02*
X190476190Y-134346190D01*
X190523809Y-134370000D01*
X190571428Y-134417619D01*
X190595238Y-134512857D01*
X190595238Y-134679523D01*
X190571428Y-134774761D01*
X190523809Y-134822380D01*
X190476190Y-134846190D01*
X190380952Y-134846190D01*
X190333333Y-134822380D01*
X190285714Y-134774761D01*
X190261904Y-134679523D01*
X190261904Y-134512857D01*
X190285714Y-134417619D01*
X190333333Y-134370000D01*
X190380952Y-134346190D01*
X190785714Y-134822380D02*
X190857142Y-134846190D01*
X190976190Y-134846190D01*
X191023809Y-134822380D01*
X191047619Y-134798571D01*
X191071428Y-134750952D01*
X191071428Y-134703333D01*
X191047619Y-134655714D01*
X191023809Y-134631904D01*
X190976190Y-134608095D01*
X190880952Y-134584285D01*
X190833333Y-134560476D01*
X190809523Y-134536666D01*
X190785714Y-134489047D01*
X190785714Y-134441428D01*
X190809523Y-134393809D01*
X190833333Y-134370000D01*
X190880952Y-134346190D01*
X191000000Y-134346190D01*
X191071428Y-134370000D01*
X191285714Y-134846190D02*
X191285714Y-134346190D01*
X189892857Y-132282380D02*
X189964285Y-132306190D01*
X190083333Y-132306190D01*
X190130952Y-132282380D01*
X190154761Y-132258571D01*
X190178571Y-132210952D01*
X190178571Y-132163333D01*
X190154761Y-132115714D01*
X190130952Y-132091904D01*
X190083333Y-132068095D01*
X189988095Y-132044285D01*
X189940476Y-132020476D01*
X189916666Y-131996666D01*
X189892857Y-131949047D01*
X189892857Y-131901428D01*
X189916666Y-131853809D01*
X189940476Y-131830000D01*
X189988095Y-131806190D01*
X190107142Y-131806190D01*
X190178571Y-131830000D01*
X190392857Y-132306190D02*
X190392857Y-131806190D01*
X190511904Y-131806190D01*
X190583333Y-131830000D01*
X190630952Y-131877619D01*
X190654761Y-131925238D01*
X190678571Y-132020476D01*
X190678571Y-132091904D01*
X190654761Y-132187142D01*
X190630952Y-132234761D01*
X190583333Y-132282380D01*
X190511904Y-132306190D01*
X190392857Y-132306190D01*
X190869047Y-132163333D02*
X191107142Y-132163333D01*
X190821428Y-132306190D02*
X190988095Y-131806190D01*
X191154761Y-132306190D01*
X190416666Y-129766190D02*
X190250000Y-129528095D01*
X190130952Y-129766190D02*
X190130952Y-129266190D01*
X190321428Y-129266190D01*
X190369047Y-129290000D01*
X190392857Y-129313809D01*
X190416666Y-129361428D01*
X190416666Y-129432857D01*
X190392857Y-129480476D01*
X190369047Y-129504285D01*
X190321428Y-129528095D01*
X190130952Y-129528095D01*
X190583333Y-129266190D02*
X190916666Y-129766190D01*
X190916666Y-129266190D02*
X190583333Y-129766190D01*
X190119047Y-126750000D02*
X190071428Y-126726190D01*
X190000000Y-126726190D01*
X189928571Y-126750000D01*
X189880952Y-126797619D01*
X189857142Y-126845238D01*
X189833333Y-126940476D01*
X189833333Y-127011904D01*
X189857142Y-127107142D01*
X189880952Y-127154761D01*
X189928571Y-127202380D01*
X190000000Y-127226190D01*
X190047619Y-127226190D01*
X190119047Y-127202380D01*
X190142857Y-127178571D01*
X190142857Y-127011904D01*
X190047619Y-127011904D01*
X190357142Y-127226190D02*
X190357142Y-126726190D01*
X190642857Y-127226190D01*
X190642857Y-126726190D01*
X190880952Y-127226190D02*
X190880952Y-126726190D01*
X191000000Y-126726190D01*
X191071428Y-126750000D01*
X191119047Y-126797619D01*
X191142857Y-126845238D01*
X191166666Y-126940476D01*
X191166666Y-127011904D01*
X191142857Y-127107142D01*
X191119047Y-127154761D01*
X191071428Y-127202380D01*
X191000000Y-127226190D01*
X190880952Y-127226190D01*
X185902380Y-124526190D02*
X185902380Y-124930952D01*
X185926190Y-124978571D01*
X185950000Y-125002380D01*
X185997619Y-125026190D01*
X186092857Y-125026190D01*
X186140476Y-125002380D01*
X186164285Y-124978571D01*
X186188095Y-124930952D01*
X186188095Y-124526190D01*
X186426190Y-124764285D02*
X186592857Y-124764285D01*
X186664285Y-125026190D02*
X186426190Y-125026190D01*
X186426190Y-124526190D01*
X186664285Y-124526190D01*
X186830952Y-124526190D02*
X187164285Y-125026190D01*
X187164285Y-124526190D02*
X186830952Y-125026190D01*
X187283333Y-124526190D02*
X187569047Y-124526190D01*
X187426190Y-125026190D02*
X187426190Y-124526190D01*
X187211904Y-112126190D02*
X187211904Y-111626190D01*
X187426190Y-111673809D02*
X187450000Y-111650000D01*
X187497619Y-111626190D01*
X187616666Y-111626190D01*
X187664285Y-111650000D01*
X187688095Y-111673809D01*
X187711904Y-111721428D01*
X187711904Y-111769047D01*
X187688095Y-111840476D01*
X187402380Y-112126190D01*
X187711904Y-112126190D01*
X188211904Y-112078571D02*
X188188095Y-112102380D01*
X188116666Y-112126190D01*
X188069047Y-112126190D01*
X187997619Y-112102380D01*
X187950000Y-112054761D01*
X187926190Y-112007142D01*
X187902380Y-111911904D01*
X187902380Y-111840476D01*
X187926190Y-111745238D01*
X187950000Y-111697619D01*
X187997619Y-111650000D01*
X188069047Y-111626190D01*
X188116666Y-111626190D01*
X188188095Y-111650000D01*
X188211904Y-111673809D01*
X185019047Y-114150000D02*
X184971428Y-114126190D01*
X184900000Y-114126190D01*
X184828571Y-114150000D01*
X184780952Y-114197619D01*
X184757142Y-114245238D01*
X184733333Y-114340476D01*
X184733333Y-114411904D01*
X184757142Y-114507142D01*
X184780952Y-114554761D01*
X184828571Y-114602380D01*
X184900000Y-114626190D01*
X184947619Y-114626190D01*
X185019047Y-114602380D01*
X185042857Y-114578571D01*
X185042857Y-114411904D01*
X184947619Y-114411904D01*
X185257142Y-114626190D02*
X185257142Y-114126190D01*
X185542857Y-114626190D01*
X185542857Y-114126190D01*
X185780952Y-114626190D02*
X185780952Y-114126190D01*
X185900000Y-114126190D01*
X185971428Y-114150000D01*
X186019047Y-114197619D01*
X186042857Y-114245238D01*
X186066666Y-114340476D01*
X186066666Y-114411904D01*
X186042857Y-114507142D01*
X186019047Y-114554761D01*
X185971428Y-114602380D01*
X185900000Y-114626190D01*
X185780952Y-114626190D01*
X184792857Y-117102380D02*
X184864285Y-117126190D01*
X184983333Y-117126190D01*
X185030952Y-117102380D01*
X185054761Y-117078571D01*
X185078571Y-117030952D01*
X185078571Y-116983333D01*
X185054761Y-116935714D01*
X185030952Y-116911904D01*
X184983333Y-116888095D01*
X184888095Y-116864285D01*
X184840476Y-116840476D01*
X184816666Y-116816666D01*
X184792857Y-116769047D01*
X184792857Y-116721428D01*
X184816666Y-116673809D01*
X184840476Y-116650000D01*
X184888095Y-116626190D01*
X185007142Y-116626190D01*
X185078571Y-116650000D01*
X185292857Y-117126190D02*
X185292857Y-116626190D01*
X185411904Y-116626190D01*
X185483333Y-116650000D01*
X185530952Y-116697619D01*
X185554761Y-116745238D01*
X185578571Y-116840476D01*
X185578571Y-116911904D01*
X185554761Y-117007142D01*
X185530952Y-117054761D01*
X185483333Y-117102380D01*
X185411904Y-117126190D01*
X185292857Y-117126190D01*
X185769047Y-116983333D02*
X186007142Y-116983333D01*
X185721428Y-117126190D02*
X185888095Y-116626190D01*
X186054761Y-117126190D01*
X184804761Y-119702380D02*
X184876190Y-119726190D01*
X184995238Y-119726190D01*
X185042857Y-119702380D01*
X185066666Y-119678571D01*
X185090476Y-119630952D01*
X185090476Y-119583333D01*
X185066666Y-119535714D01*
X185042857Y-119511904D01*
X184995238Y-119488095D01*
X184900000Y-119464285D01*
X184852380Y-119440476D01*
X184828571Y-119416666D01*
X184804761Y-119369047D01*
X184804761Y-119321428D01*
X184828571Y-119273809D01*
X184852380Y-119250000D01*
X184900000Y-119226190D01*
X185019047Y-119226190D01*
X185090476Y-119250000D01*
X185590476Y-119678571D02*
X185566666Y-119702380D01*
X185495238Y-119726190D01*
X185447619Y-119726190D01*
X185376190Y-119702380D01*
X185328571Y-119654761D01*
X185304761Y-119607142D01*
X185280952Y-119511904D01*
X185280952Y-119440476D01*
X185304761Y-119345238D01*
X185328571Y-119297619D01*
X185376190Y-119250000D01*
X185447619Y-119226190D01*
X185495238Y-119226190D01*
X185566666Y-119250000D01*
X185590476Y-119273809D01*
X186042857Y-119726190D02*
X185804761Y-119726190D01*
X185804761Y-119226190D01*
X184680952Y-121826190D02*
X184990476Y-121826190D01*
X184823809Y-122016666D01*
X184895238Y-122016666D01*
X184942857Y-122040476D01*
X184966666Y-122064285D01*
X184990476Y-122111904D01*
X184990476Y-122230952D01*
X184966666Y-122278571D01*
X184942857Y-122302380D01*
X184895238Y-122326190D01*
X184752380Y-122326190D01*
X184704761Y-122302380D01*
X184680952Y-122278571D01*
X185133333Y-121826190D02*
X185300000Y-122326190D01*
X185466666Y-121826190D01*
X185585714Y-121826190D02*
X185895238Y-121826190D01*
X185728571Y-122016666D01*
X185800000Y-122016666D01*
X185847619Y-122040476D01*
X185871428Y-122064285D01*
X185895238Y-122111904D01*
X185895238Y-122230952D01*
X185871428Y-122278571D01*
X185847619Y-122302380D01*
X185800000Y-122326190D01*
X185657142Y-122326190D01*
X185609523Y-122302380D01*
X185585714Y-122278571D01*
X197202380Y-111926190D02*
X197202380Y-112330952D01*
X197226190Y-112378571D01*
X197250000Y-112402380D01*
X197297619Y-112426190D01*
X197392857Y-112426190D01*
X197440476Y-112402380D01*
X197464285Y-112378571D01*
X197488095Y-112330952D01*
X197488095Y-111926190D01*
X197702380Y-112283333D02*
X197940476Y-112283333D01*
X197654761Y-112426190D02*
X197821428Y-111926190D01*
X197988095Y-112426190D01*
X198440476Y-112426190D02*
X198273809Y-112188095D01*
X198154761Y-112426190D02*
X198154761Y-111926190D01*
X198345238Y-111926190D01*
X198392857Y-111950000D01*
X198416666Y-111973809D01*
X198440476Y-112021428D01*
X198440476Y-112092857D01*
X198416666Y-112140476D01*
X198392857Y-112164285D01*
X198345238Y-112188095D01*
X198154761Y-112188095D01*
X198583333Y-111926190D02*
X198869047Y-111926190D01*
X198726190Y-112426190D02*
X198726190Y-111926190D01*
X194880952Y-114026190D02*
X195190476Y-114026190D01*
X195023809Y-114216666D01*
X195095238Y-114216666D01*
X195142857Y-114240476D01*
X195166666Y-114264285D01*
X195190476Y-114311904D01*
X195190476Y-114430952D01*
X195166666Y-114478571D01*
X195142857Y-114502380D01*
X195095238Y-114526190D01*
X194952380Y-114526190D01*
X194904761Y-114502380D01*
X194880952Y-114478571D01*
X195333333Y-114026190D02*
X195500000Y-114526190D01*
X195666666Y-114026190D01*
X195785714Y-114026190D02*
X196095238Y-114026190D01*
X195928571Y-114216666D01*
X196000000Y-114216666D01*
X196047619Y-114240476D01*
X196071428Y-114264285D01*
X196095238Y-114311904D01*
X196095238Y-114430952D01*
X196071428Y-114478571D01*
X196047619Y-114502380D01*
X196000000Y-114526190D01*
X195857142Y-114526190D01*
X195809523Y-114502380D01*
X195785714Y-114478571D01*
X195119047Y-116626190D02*
X195404761Y-116626190D01*
X195261904Y-117126190D02*
X195261904Y-116626190D01*
X195523809Y-116626190D02*
X195857142Y-117126190D01*
X195857142Y-116626190D02*
X195523809Y-117126190D01*
X195316666Y-119626190D02*
X195150000Y-119388095D01*
X195030952Y-119626190D02*
X195030952Y-119126190D01*
X195221428Y-119126190D01*
X195269047Y-119150000D01*
X195292857Y-119173809D01*
X195316666Y-119221428D01*
X195316666Y-119292857D01*
X195292857Y-119340476D01*
X195269047Y-119364285D01*
X195221428Y-119388095D01*
X195030952Y-119388095D01*
X195483333Y-119126190D02*
X195816666Y-119626190D01*
X195816666Y-119126190D02*
X195483333Y-119626190D01*
X195019047Y-121750000D02*
X194971428Y-121726190D01*
X194900000Y-121726190D01*
X194828571Y-121750000D01*
X194780952Y-121797619D01*
X194757142Y-121845238D01*
X194733333Y-121940476D01*
X194733333Y-122011904D01*
X194757142Y-122107142D01*
X194780952Y-122154761D01*
X194828571Y-122202380D01*
X194900000Y-122226190D01*
X194947619Y-122226190D01*
X195019047Y-122202380D01*
X195042857Y-122178571D01*
X195042857Y-122011904D01*
X194947619Y-122011904D01*
X195257142Y-122226190D02*
X195257142Y-121726190D01*
X195542857Y-122226190D01*
X195542857Y-121726190D01*
X195780952Y-122226190D02*
X195780952Y-121726190D01*
X195900000Y-121726190D01*
X195971428Y-121750000D01*
X196019047Y-121797619D01*
X196042857Y-121845238D01*
X196066666Y-121940476D01*
X196066666Y-122011904D01*
X196042857Y-122107142D01*
X196019047Y-122154761D01*
X195971428Y-122202380D01*
X195900000Y-122226190D01*
X195780952Y-122226190D01*
X197488095Y-125202380D02*
X197559523Y-125226190D01*
X197678571Y-125226190D01*
X197726190Y-125202380D01*
X197750000Y-125178571D01*
X197773809Y-125130952D01*
X197773809Y-125083333D01*
X197750000Y-125035714D01*
X197726190Y-125011904D01*
X197678571Y-124988095D01*
X197583333Y-124964285D01*
X197535714Y-124940476D01*
X197511904Y-124916666D01*
X197488095Y-124869047D01*
X197488095Y-124821428D01*
X197511904Y-124773809D01*
X197535714Y-124750000D01*
X197583333Y-124726190D01*
X197702380Y-124726190D01*
X197773809Y-124750000D01*
X197988095Y-125226190D02*
X197988095Y-124726190D01*
X198178571Y-124726190D01*
X198226190Y-124750000D01*
X198250000Y-124773809D01*
X198273809Y-124821428D01*
X198273809Y-124892857D01*
X198250000Y-124940476D01*
X198226190Y-124964285D01*
X198178571Y-124988095D01*
X197988095Y-124988095D01*
X198488095Y-125226190D02*
X198488095Y-124726190D01*
X194780952Y-126626190D02*
X195090476Y-126626190D01*
X194923809Y-126816666D01*
X194995238Y-126816666D01*
X195042857Y-126840476D01*
X195066666Y-126864285D01*
X195090476Y-126911904D01*
X195090476Y-127030952D01*
X195066666Y-127078571D01*
X195042857Y-127102380D01*
X194995238Y-127126190D01*
X194852380Y-127126190D01*
X194804761Y-127102380D01*
X194780952Y-127078571D01*
X195233333Y-126626190D02*
X195400000Y-127126190D01*
X195566666Y-126626190D01*
X195685714Y-126626190D02*
X195995238Y-126626190D01*
X195828571Y-126816666D01*
X195900000Y-126816666D01*
X195947619Y-126840476D01*
X195971428Y-126864285D01*
X195995238Y-126911904D01*
X195995238Y-127030952D01*
X195971428Y-127078571D01*
X195947619Y-127102380D01*
X195900000Y-127126190D01*
X195757142Y-127126190D01*
X195709523Y-127102380D01*
X195685714Y-127078571D01*
X194614285Y-129826190D02*
X194614285Y-129326190D01*
X194780952Y-129683333D01*
X194947619Y-129326190D01*
X194947619Y-129826190D01*
X195280952Y-129326190D02*
X195376190Y-129326190D01*
X195423809Y-129350000D01*
X195471428Y-129397619D01*
X195495238Y-129492857D01*
X195495238Y-129659523D01*
X195471428Y-129754761D01*
X195423809Y-129802380D01*
X195376190Y-129826190D01*
X195280952Y-129826190D01*
X195233333Y-129802380D01*
X195185714Y-129754761D01*
X195161904Y-129659523D01*
X195161904Y-129492857D01*
X195185714Y-129397619D01*
X195233333Y-129350000D01*
X195280952Y-129326190D01*
X195685714Y-129802380D02*
X195757142Y-129826190D01*
X195876190Y-129826190D01*
X195923809Y-129802380D01*
X195947619Y-129778571D01*
X195971428Y-129730952D01*
X195971428Y-129683333D01*
X195947619Y-129635714D01*
X195923809Y-129611904D01*
X195876190Y-129588095D01*
X195780952Y-129564285D01*
X195733333Y-129540476D01*
X195709523Y-129516666D01*
X195685714Y-129469047D01*
X195685714Y-129421428D01*
X195709523Y-129373809D01*
X195733333Y-129350000D01*
X195780952Y-129326190D01*
X195900000Y-129326190D01*
X195971428Y-129350000D01*
X196185714Y-129826190D02*
X196185714Y-129326190D01*
X194614285Y-132326190D02*
X194614285Y-131826190D01*
X194780952Y-132183333D01*
X194947619Y-131826190D01*
X194947619Y-132326190D01*
X195185714Y-132326190D02*
X195185714Y-131826190D01*
X195400000Y-132302380D02*
X195471428Y-132326190D01*
X195590476Y-132326190D01*
X195638095Y-132302380D01*
X195661904Y-132278571D01*
X195685714Y-132230952D01*
X195685714Y-132183333D01*
X195661904Y-132135714D01*
X195638095Y-132111904D01*
X195590476Y-132088095D01*
X195495238Y-132064285D01*
X195447619Y-132040476D01*
X195423809Y-132016666D01*
X195400000Y-131969047D01*
X195400000Y-131921428D01*
X195423809Y-131873809D01*
X195447619Y-131850000D01*
X195495238Y-131826190D01*
X195614285Y-131826190D01*
X195685714Y-131850000D01*
X195995238Y-131826190D02*
X196090476Y-131826190D01*
X196138095Y-131850000D01*
X196185714Y-131897619D01*
X196209523Y-131992857D01*
X196209523Y-132159523D01*
X196185714Y-132254761D01*
X196138095Y-132302380D01*
X196090476Y-132326190D01*
X195995238Y-132326190D01*
X195947619Y-132302380D01*
X195900000Y-132254761D01*
X195876190Y-132159523D01*
X195876190Y-131992857D01*
X195900000Y-131897619D01*
X195947619Y-131850000D01*
X195995238Y-131826190D01*
X194757142Y-134902380D02*
X194828571Y-134926190D01*
X194947619Y-134926190D01*
X194995238Y-134902380D01*
X195019047Y-134878571D01*
X195042857Y-134830952D01*
X195042857Y-134783333D01*
X195019047Y-134735714D01*
X194995238Y-134711904D01*
X194947619Y-134688095D01*
X194852380Y-134664285D01*
X194804761Y-134640476D01*
X194780952Y-134616666D01*
X194757142Y-134569047D01*
X194757142Y-134521428D01*
X194780952Y-134473809D01*
X194804761Y-134450000D01*
X194852380Y-134426190D01*
X194971428Y-134426190D01*
X195042857Y-134450000D01*
X195542857Y-134878571D02*
X195519047Y-134902380D01*
X195447619Y-134926190D01*
X195400000Y-134926190D01*
X195328571Y-134902380D01*
X195280952Y-134854761D01*
X195257142Y-134807142D01*
X195233333Y-134711904D01*
X195233333Y-134640476D01*
X195257142Y-134545238D01*
X195280952Y-134497619D01*
X195328571Y-134450000D01*
X195400000Y-134426190D01*
X195447619Y-134426190D01*
X195519047Y-134450000D01*
X195542857Y-134473809D01*
X195757142Y-134926190D02*
X195757142Y-134426190D01*
X196042857Y-134926190D02*
X195828571Y-134640476D01*
X196042857Y-134426190D02*
X195757142Y-134711904D01*
X195019047Y-137050000D02*
X194971428Y-137026190D01*
X194900000Y-137026190D01*
X194828571Y-137050000D01*
X194780952Y-137097619D01*
X194757142Y-137145238D01*
X194733333Y-137240476D01*
X194733333Y-137311904D01*
X194757142Y-137407142D01*
X194780952Y-137454761D01*
X194828571Y-137502380D01*
X194900000Y-137526190D01*
X194947619Y-137526190D01*
X195019047Y-137502380D01*
X195042857Y-137478571D01*
X195042857Y-137311904D01*
X194947619Y-137311904D01*
X195257142Y-137526190D02*
X195257142Y-137026190D01*
X195542857Y-137526190D01*
X195542857Y-137026190D01*
X195780952Y-137526190D02*
X195780952Y-137026190D01*
X195900000Y-137026190D01*
X195971428Y-137050000D01*
X196019047Y-137097619D01*
X196042857Y-137145238D01*
X196066666Y-137240476D01*
X196066666Y-137311904D01*
X196042857Y-137407142D01*
X196019047Y-137454761D01*
X195971428Y-137502380D01*
X195900000Y-137526190D01*
X195780952Y-137526190D01*
X189478571Y-144823809D02*
X189502380Y-144847619D01*
X189526190Y-144919047D01*
X189526190Y-144966666D01*
X189502380Y-145038095D01*
X189454761Y-145085714D01*
X189407142Y-145109523D01*
X189311904Y-145133333D01*
X189240476Y-145133333D01*
X189145238Y-145109523D01*
X189097619Y-145085714D01*
X189050000Y-145038095D01*
X189026190Y-144966666D01*
X189026190Y-144919047D01*
X189050000Y-144847619D01*
X189073809Y-144823809D01*
X189526190Y-144609523D02*
X189026190Y-144609523D01*
X189264285Y-144609523D02*
X189264285Y-144323809D01*
X189526190Y-144323809D02*
X189026190Y-144323809D01*
X189526190Y-143800000D02*
X189288095Y-143966666D01*
X189526190Y-144085714D02*
X189026190Y-144085714D01*
X189026190Y-143895238D01*
X189050000Y-143847619D01*
X189073809Y-143823809D01*
X189121428Y-143800000D01*
X189192857Y-143800000D01*
X189240476Y-143823809D01*
X189264285Y-143847619D01*
X189288095Y-143895238D01*
X189288095Y-144085714D01*
X189050000Y-143323809D02*
X189026190Y-143371428D01*
X189026190Y-143442857D01*
X189050000Y-143514285D01*
X189097619Y-143561904D01*
X189145238Y-143585714D01*
X189240476Y-143609523D01*
X189311904Y-143609523D01*
X189407142Y-143585714D01*
X189454761Y-143561904D01*
X189502380Y-143514285D01*
X189526190Y-143442857D01*
X189526190Y-143395238D01*
X189502380Y-143323809D01*
X189478571Y-143300000D01*
X189311904Y-143300000D01*
X189311904Y-143395238D01*
X189573809Y-143204761D02*
X189573809Y-142823809D01*
X189264285Y-142704761D02*
X189264285Y-142538095D01*
X189526190Y-142466666D02*
X189526190Y-142704761D01*
X189026190Y-142704761D01*
X189026190Y-142466666D01*
X189526190Y-142252380D02*
X189026190Y-142252380D01*
X189526190Y-141966666D01*
X189026190Y-141966666D01*
X189526190Y-141466666D02*
X189526190Y-141752380D01*
X189526190Y-141609523D02*
X189026190Y-141609523D01*
X189097619Y-141657142D01*
X189145238Y-141704761D01*
X189169047Y-141752380D01*
X175178571Y-141523809D02*
X175202380Y-141547619D01*
X175226190Y-141619047D01*
X175226190Y-141666666D01*
X175202380Y-141738095D01*
X175154761Y-141785714D01*
X175107142Y-141809523D01*
X175011904Y-141833333D01*
X174940476Y-141833333D01*
X174845238Y-141809523D01*
X174797619Y-141785714D01*
X174750000Y-141738095D01*
X174726190Y-141666666D01*
X174726190Y-141619047D01*
X174750000Y-141547619D01*
X174773809Y-141523809D01*
X175226190Y-141309523D02*
X174726190Y-141309523D01*
X174964285Y-141309523D02*
X174964285Y-141023809D01*
X175226190Y-141023809D02*
X174726190Y-141023809D01*
X175226190Y-140500000D02*
X174988095Y-140666666D01*
X175226190Y-140785714D02*
X174726190Y-140785714D01*
X174726190Y-140595238D01*
X174750000Y-140547619D01*
X174773809Y-140523809D01*
X174821428Y-140500000D01*
X174892857Y-140500000D01*
X174940476Y-140523809D01*
X174964285Y-140547619D01*
X174988095Y-140595238D01*
X174988095Y-140785714D01*
X174750000Y-140023809D02*
X174726190Y-140071428D01*
X174726190Y-140142857D01*
X174750000Y-140214285D01*
X174797619Y-140261904D01*
X174845238Y-140285714D01*
X174940476Y-140309523D01*
X175011904Y-140309523D01*
X175107142Y-140285714D01*
X175154761Y-140261904D01*
X175202380Y-140214285D01*
X175226190Y-140142857D01*
X175226190Y-140095238D01*
X175202380Y-140023809D01*
X175178571Y-140000000D01*
X175011904Y-140000000D01*
X175011904Y-140095238D01*
X175273809Y-139904761D02*
X175273809Y-139523809D01*
X174964285Y-139404761D02*
X174964285Y-139238095D01*
X175226190Y-139166666D02*
X175226190Y-139404761D01*
X174726190Y-139404761D01*
X174726190Y-139166666D01*
X175226190Y-138952380D02*
X174726190Y-138952380D01*
X175226190Y-138666666D01*
X174726190Y-138666666D01*
X174773809Y-138452380D02*
X174750000Y-138428571D01*
X174726190Y-138380952D01*
X174726190Y-138261904D01*
X174750000Y-138214285D01*
X174773809Y-138190476D01*
X174821428Y-138166666D01*
X174869047Y-138166666D01*
X174940476Y-138190476D01*
X175226190Y-138476190D01*
X175226190Y-138166666D01*
X162178571Y-141523809D02*
X162202380Y-141547619D01*
X162226190Y-141619047D01*
X162226190Y-141666666D01*
X162202380Y-141738095D01*
X162154761Y-141785714D01*
X162107142Y-141809523D01*
X162011904Y-141833333D01*
X161940476Y-141833333D01*
X161845238Y-141809523D01*
X161797619Y-141785714D01*
X161750000Y-141738095D01*
X161726190Y-141666666D01*
X161726190Y-141619047D01*
X161750000Y-141547619D01*
X161773809Y-141523809D01*
X162226190Y-141309523D02*
X161726190Y-141309523D01*
X161964285Y-141309523D02*
X161964285Y-141023809D01*
X162226190Y-141023809D02*
X161726190Y-141023809D01*
X162226190Y-140500000D02*
X161988095Y-140666666D01*
X162226190Y-140785714D02*
X161726190Y-140785714D01*
X161726190Y-140595238D01*
X161750000Y-140547619D01*
X161773809Y-140523809D01*
X161821428Y-140500000D01*
X161892857Y-140500000D01*
X161940476Y-140523809D01*
X161964285Y-140547619D01*
X161988095Y-140595238D01*
X161988095Y-140785714D01*
X161750000Y-140023809D02*
X161726190Y-140071428D01*
X161726190Y-140142857D01*
X161750000Y-140214285D01*
X161797619Y-140261904D01*
X161845238Y-140285714D01*
X161940476Y-140309523D01*
X162011904Y-140309523D01*
X162107142Y-140285714D01*
X162154761Y-140261904D01*
X162202380Y-140214285D01*
X162226190Y-140142857D01*
X162226190Y-140095238D01*
X162202380Y-140023809D01*
X162178571Y-140000000D01*
X162011904Y-140000000D01*
X162011904Y-140095238D01*
X162273809Y-139904761D02*
X162273809Y-139523809D01*
X161964285Y-139404761D02*
X161964285Y-139238095D01*
X162226190Y-139166666D02*
X162226190Y-139404761D01*
X161726190Y-139404761D01*
X161726190Y-139166666D01*
X162226190Y-138952380D02*
X161726190Y-138952380D01*
X162226190Y-138666666D01*
X161726190Y-138666666D01*
X161726190Y-138476190D02*
X161726190Y-138166666D01*
X161916666Y-138333333D01*
X161916666Y-138261904D01*
X161940476Y-138214285D01*
X161964285Y-138190476D01*
X162011904Y-138166666D01*
X162130952Y-138166666D01*
X162178571Y-138190476D01*
X162202380Y-138214285D01*
X162226190Y-138261904D01*
X162226190Y-138404761D01*
X162202380Y-138452380D01*
X162178571Y-138476190D01*
X186026190Y-145076190D02*
X186026190Y-144790476D01*
X186526190Y-144933333D02*
X186026190Y-144933333D01*
X186526190Y-144338095D02*
X186288095Y-144504761D01*
X186526190Y-144623809D02*
X186026190Y-144623809D01*
X186026190Y-144433333D01*
X186050000Y-144385714D01*
X186073809Y-144361904D01*
X186121428Y-144338095D01*
X186192857Y-144338095D01*
X186240476Y-144361904D01*
X186264285Y-144385714D01*
X186288095Y-144433333D01*
X186288095Y-144623809D01*
X186526190Y-144123809D02*
X186026190Y-144123809D01*
X186478571Y-143600000D02*
X186502380Y-143623809D01*
X186526190Y-143695238D01*
X186526190Y-143742857D01*
X186502380Y-143814285D01*
X186454761Y-143861904D01*
X186407142Y-143885714D01*
X186311904Y-143909523D01*
X186240476Y-143909523D01*
X186145238Y-143885714D01*
X186097619Y-143861904D01*
X186050000Y-143814285D01*
X186026190Y-143742857D01*
X186026190Y-143695238D01*
X186050000Y-143623809D01*
X186073809Y-143600000D01*
X186526190Y-143385714D02*
X186026190Y-143385714D01*
X186526190Y-143100000D02*
X186240476Y-143314285D01*
X186026190Y-143100000D02*
X186311904Y-143385714D01*
X186526190Y-142647619D02*
X186526190Y-142885714D01*
X186026190Y-142885714D01*
X186264285Y-142480952D02*
X186264285Y-142314285D01*
X186526190Y-142242857D02*
X186526190Y-142480952D01*
X186026190Y-142480952D01*
X186026190Y-142242857D01*
X186573809Y-142147619D02*
X186573809Y-141766666D01*
X186526190Y-141647619D02*
X186026190Y-141647619D01*
X186026190Y-141528571D01*
X186050000Y-141457142D01*
X186097619Y-141409523D01*
X186145238Y-141385714D01*
X186240476Y-141361904D01*
X186311904Y-141361904D01*
X186407142Y-141385714D01*
X186454761Y-141409523D01*
X186502380Y-141457142D01*
X186526190Y-141528571D01*
X186526190Y-141647619D01*
X186526190Y-141147619D02*
X186026190Y-141147619D01*
X186502380Y-140933333D02*
X186526190Y-140861904D01*
X186526190Y-140742857D01*
X186502380Y-140695238D01*
X186478571Y-140671428D01*
X186430952Y-140647619D01*
X186383333Y-140647619D01*
X186335714Y-140671428D01*
X186311904Y-140695238D01*
X186288095Y-140742857D01*
X186264285Y-140838095D01*
X186240476Y-140885714D01*
X186216666Y-140909523D01*
X186169047Y-140933333D01*
X186121428Y-140933333D01*
X186073809Y-140909523D01*
X186050000Y-140885714D01*
X186026190Y-140838095D01*
X186026190Y-140719047D01*
X186050000Y-140647619D01*
X186526190Y-140171428D02*
X186526190Y-140457142D01*
X186526190Y-140314285D02*
X186026190Y-140314285D01*
X186097619Y-140361904D01*
X186145238Y-140409523D01*
X186169047Y-140457142D01*
X171726190Y-141976190D02*
X171726190Y-141690476D01*
X172226190Y-141833333D02*
X171726190Y-141833333D01*
X172226190Y-141238095D02*
X171988095Y-141404761D01*
X172226190Y-141523809D02*
X171726190Y-141523809D01*
X171726190Y-141333333D01*
X171750000Y-141285714D01*
X171773809Y-141261904D01*
X171821428Y-141238095D01*
X171892857Y-141238095D01*
X171940476Y-141261904D01*
X171964285Y-141285714D01*
X171988095Y-141333333D01*
X171988095Y-141523809D01*
X172226190Y-141023809D02*
X171726190Y-141023809D01*
X172178571Y-140500000D02*
X172202380Y-140523809D01*
X172226190Y-140595238D01*
X172226190Y-140642857D01*
X172202380Y-140714285D01*
X172154761Y-140761904D01*
X172107142Y-140785714D01*
X172011904Y-140809523D01*
X171940476Y-140809523D01*
X171845238Y-140785714D01*
X171797619Y-140761904D01*
X171750000Y-140714285D01*
X171726190Y-140642857D01*
X171726190Y-140595238D01*
X171750000Y-140523809D01*
X171773809Y-140500000D01*
X172226190Y-140285714D02*
X171726190Y-140285714D01*
X172226190Y-140000000D02*
X171940476Y-140214285D01*
X171726190Y-140000000D02*
X172011904Y-140285714D01*
X172226190Y-139547619D02*
X172226190Y-139785714D01*
X171726190Y-139785714D01*
X171964285Y-139380952D02*
X171964285Y-139214285D01*
X172226190Y-139142857D02*
X172226190Y-139380952D01*
X171726190Y-139380952D01*
X171726190Y-139142857D01*
X172273809Y-139047619D02*
X172273809Y-138666666D01*
X172226190Y-138547619D02*
X171726190Y-138547619D01*
X171726190Y-138428571D01*
X171750000Y-138357142D01*
X171797619Y-138309523D01*
X171845238Y-138285714D01*
X171940476Y-138261904D01*
X172011904Y-138261904D01*
X172107142Y-138285714D01*
X172154761Y-138309523D01*
X172202380Y-138357142D01*
X172226190Y-138428571D01*
X172226190Y-138547619D01*
X172226190Y-138047619D02*
X171726190Y-138047619D01*
X172202380Y-137833333D02*
X172226190Y-137761904D01*
X172226190Y-137642857D01*
X172202380Y-137595238D01*
X172178571Y-137571428D01*
X172130952Y-137547619D01*
X172083333Y-137547619D01*
X172035714Y-137571428D01*
X172011904Y-137595238D01*
X171988095Y-137642857D01*
X171964285Y-137738095D01*
X171940476Y-137785714D01*
X171916666Y-137809523D01*
X171869047Y-137833333D01*
X171821428Y-137833333D01*
X171773809Y-137809523D01*
X171750000Y-137785714D01*
X171726190Y-137738095D01*
X171726190Y-137619047D01*
X171750000Y-137547619D01*
X171773809Y-137357142D02*
X171750000Y-137333333D01*
X171726190Y-137285714D01*
X171726190Y-137166666D01*
X171750000Y-137119047D01*
X171773809Y-137095238D01*
X171821428Y-137071428D01*
X171869047Y-137071428D01*
X171940476Y-137095238D01*
X172226190Y-137380952D01*
X172226190Y-137071428D01*
X158726190Y-141976190D02*
X158726190Y-141690476D01*
X159226190Y-141833333D02*
X158726190Y-141833333D01*
X159226190Y-141238095D02*
X158988095Y-141404761D01*
X159226190Y-141523809D02*
X158726190Y-141523809D01*
X158726190Y-141333333D01*
X158750000Y-141285714D01*
X158773809Y-141261904D01*
X158821428Y-141238095D01*
X158892857Y-141238095D01*
X158940476Y-141261904D01*
X158964285Y-141285714D01*
X158988095Y-141333333D01*
X158988095Y-141523809D01*
X159226190Y-141023809D02*
X158726190Y-141023809D01*
X159178571Y-140500000D02*
X159202380Y-140523809D01*
X159226190Y-140595238D01*
X159226190Y-140642857D01*
X159202380Y-140714285D01*
X159154761Y-140761904D01*
X159107142Y-140785714D01*
X159011904Y-140809523D01*
X158940476Y-140809523D01*
X158845238Y-140785714D01*
X158797619Y-140761904D01*
X158750000Y-140714285D01*
X158726190Y-140642857D01*
X158726190Y-140595238D01*
X158750000Y-140523809D01*
X158773809Y-140500000D01*
X159226190Y-140285714D02*
X158726190Y-140285714D01*
X159226190Y-140000000D02*
X158940476Y-140214285D01*
X158726190Y-140000000D02*
X159011904Y-140285714D01*
X159226190Y-139547619D02*
X159226190Y-139785714D01*
X158726190Y-139785714D01*
X158964285Y-139380952D02*
X158964285Y-139214285D01*
X159226190Y-139142857D02*
X159226190Y-139380952D01*
X158726190Y-139380952D01*
X158726190Y-139142857D01*
X159273809Y-139047619D02*
X159273809Y-138666666D01*
X159226190Y-138547619D02*
X158726190Y-138547619D01*
X158726190Y-138428571D01*
X158750000Y-138357142D01*
X158797619Y-138309523D01*
X158845238Y-138285714D01*
X158940476Y-138261904D01*
X159011904Y-138261904D01*
X159107142Y-138285714D01*
X159154761Y-138309523D01*
X159202380Y-138357142D01*
X159226190Y-138428571D01*
X159226190Y-138547619D01*
X159226190Y-138047619D02*
X158726190Y-138047619D01*
X159202380Y-137833333D02*
X159226190Y-137761904D01*
X159226190Y-137642857D01*
X159202380Y-137595238D01*
X159178571Y-137571428D01*
X159130952Y-137547619D01*
X159083333Y-137547619D01*
X159035714Y-137571428D01*
X159011904Y-137595238D01*
X158988095Y-137642857D01*
X158964285Y-137738095D01*
X158940476Y-137785714D01*
X158916666Y-137809523D01*
X158869047Y-137833333D01*
X158821428Y-137833333D01*
X158773809Y-137809523D01*
X158750000Y-137785714D01*
X158726190Y-137738095D01*
X158726190Y-137619047D01*
X158750000Y-137547619D01*
X158726190Y-137380952D02*
X158726190Y-137071428D01*
X158916666Y-137238095D01*
X158916666Y-137166666D01*
X158940476Y-137119047D01*
X158964285Y-137095238D01*
X159011904Y-137071428D01*
X159130952Y-137071428D01*
X159178571Y-137095238D01*
X159202380Y-137119047D01*
X159226190Y-137166666D01*
X159226190Y-137309523D01*
X159202380Y-137357142D01*
X159178571Y-137380952D01*
X182226190Y-141761904D02*
X181726190Y-141761904D01*
X182083333Y-141595238D01*
X181726190Y-141428571D01*
X182226190Y-141428571D01*
X182178571Y-140904761D02*
X182202380Y-140928571D01*
X182226190Y-141000000D01*
X182226190Y-141047619D01*
X182202380Y-141119047D01*
X182154761Y-141166666D01*
X182107142Y-141190476D01*
X182011904Y-141214285D01*
X181940476Y-141214285D01*
X181845238Y-141190476D01*
X181797619Y-141166666D01*
X181750000Y-141119047D01*
X181726190Y-141047619D01*
X181726190Y-141000000D01*
X181750000Y-140928571D01*
X181773809Y-140904761D01*
X181726190Y-140690476D02*
X182130952Y-140690476D01*
X182178571Y-140666666D01*
X182202380Y-140642857D01*
X182226190Y-140595238D01*
X182226190Y-140500000D01*
X182202380Y-140452380D01*
X182178571Y-140428571D01*
X182130952Y-140404761D01*
X181726190Y-140404761D01*
X182273809Y-140285714D02*
X182273809Y-139904761D01*
X182202380Y-139809523D02*
X182226190Y-139738095D01*
X182226190Y-139619047D01*
X182202380Y-139571428D01*
X182178571Y-139547619D01*
X182130952Y-139523809D01*
X182083333Y-139523809D01*
X182035714Y-139547619D01*
X182011904Y-139571428D01*
X181988095Y-139619047D01*
X181964285Y-139714285D01*
X181940476Y-139761904D01*
X181916666Y-139785714D01*
X181869047Y-139809523D01*
X181821428Y-139809523D01*
X181773809Y-139785714D01*
X181750000Y-139761904D01*
X181726190Y-139714285D01*
X181726190Y-139595238D01*
X181750000Y-139523809D01*
X181964285Y-139309523D02*
X181964285Y-139142857D01*
X182226190Y-139071428D02*
X182226190Y-139309523D01*
X181726190Y-139309523D01*
X181726190Y-139071428D01*
X181726190Y-138928571D02*
X181726190Y-138642857D01*
X182226190Y-138785714D02*
X181726190Y-138785714D01*
X182226190Y-138214285D02*
X182226190Y-138500000D01*
X182226190Y-138357142D02*
X181726190Y-138357142D01*
X181797619Y-138404761D01*
X181845238Y-138452380D01*
X181869047Y-138500000D01*
X169226190Y-141761904D02*
X168726190Y-141761904D01*
X169083333Y-141595238D01*
X168726190Y-141428571D01*
X169226190Y-141428571D01*
X169178571Y-140904761D02*
X169202380Y-140928571D01*
X169226190Y-141000000D01*
X169226190Y-141047619D01*
X169202380Y-141119047D01*
X169154761Y-141166666D01*
X169107142Y-141190476D01*
X169011904Y-141214285D01*
X168940476Y-141214285D01*
X168845238Y-141190476D01*
X168797619Y-141166666D01*
X168750000Y-141119047D01*
X168726190Y-141047619D01*
X168726190Y-141000000D01*
X168750000Y-140928571D01*
X168773809Y-140904761D01*
X168726190Y-140690476D02*
X169130952Y-140690476D01*
X169178571Y-140666666D01*
X169202380Y-140642857D01*
X169226190Y-140595238D01*
X169226190Y-140500000D01*
X169202380Y-140452380D01*
X169178571Y-140428571D01*
X169130952Y-140404761D01*
X168726190Y-140404761D01*
X169273809Y-140285714D02*
X169273809Y-139904761D01*
X169202380Y-139809523D02*
X169226190Y-139738095D01*
X169226190Y-139619047D01*
X169202380Y-139571428D01*
X169178571Y-139547619D01*
X169130952Y-139523809D01*
X169083333Y-139523809D01*
X169035714Y-139547619D01*
X169011904Y-139571428D01*
X168988095Y-139619047D01*
X168964285Y-139714285D01*
X168940476Y-139761904D01*
X168916666Y-139785714D01*
X168869047Y-139809523D01*
X168821428Y-139809523D01*
X168773809Y-139785714D01*
X168750000Y-139761904D01*
X168726190Y-139714285D01*
X168726190Y-139595238D01*
X168750000Y-139523809D01*
X168964285Y-139309523D02*
X168964285Y-139142857D01*
X169226190Y-139071428D02*
X169226190Y-139309523D01*
X168726190Y-139309523D01*
X168726190Y-139071428D01*
X168726190Y-138928571D02*
X168726190Y-138642857D01*
X169226190Y-138785714D02*
X168726190Y-138785714D01*
X168773809Y-138500000D02*
X168750000Y-138476190D01*
X168726190Y-138428571D01*
X168726190Y-138309523D01*
X168750000Y-138261904D01*
X168773809Y-138238095D01*
X168821428Y-138214285D01*
X168869047Y-138214285D01*
X168940476Y-138238095D01*
X169226190Y-138523809D01*
X169226190Y-138214285D01*
X156226190Y-141761904D02*
X155726190Y-141761904D01*
X156083333Y-141595238D01*
X155726190Y-141428571D01*
X156226190Y-141428571D01*
X156178571Y-140904761D02*
X156202380Y-140928571D01*
X156226190Y-141000000D01*
X156226190Y-141047619D01*
X156202380Y-141119047D01*
X156154761Y-141166666D01*
X156107142Y-141190476D01*
X156011904Y-141214285D01*
X155940476Y-141214285D01*
X155845238Y-141190476D01*
X155797619Y-141166666D01*
X155750000Y-141119047D01*
X155726190Y-141047619D01*
X155726190Y-141000000D01*
X155750000Y-140928571D01*
X155773809Y-140904761D01*
X155726190Y-140690476D02*
X156130952Y-140690476D01*
X156178571Y-140666666D01*
X156202380Y-140642857D01*
X156226190Y-140595238D01*
X156226190Y-140500000D01*
X156202380Y-140452380D01*
X156178571Y-140428571D01*
X156130952Y-140404761D01*
X155726190Y-140404761D01*
X156273809Y-140285714D02*
X156273809Y-139904761D01*
X156202380Y-139809523D02*
X156226190Y-139738095D01*
X156226190Y-139619047D01*
X156202380Y-139571428D01*
X156178571Y-139547619D01*
X156130952Y-139523809D01*
X156083333Y-139523809D01*
X156035714Y-139547619D01*
X156011904Y-139571428D01*
X155988095Y-139619047D01*
X155964285Y-139714285D01*
X155940476Y-139761904D01*
X155916666Y-139785714D01*
X155869047Y-139809523D01*
X155821428Y-139809523D01*
X155773809Y-139785714D01*
X155750000Y-139761904D01*
X155726190Y-139714285D01*
X155726190Y-139595238D01*
X155750000Y-139523809D01*
X155964285Y-139309523D02*
X155964285Y-139142857D01*
X156226190Y-139071428D02*
X156226190Y-139309523D01*
X155726190Y-139309523D01*
X155726190Y-139071428D01*
X155726190Y-138928571D02*
X155726190Y-138642857D01*
X156226190Y-138785714D02*
X155726190Y-138785714D01*
X155726190Y-138523809D02*
X155726190Y-138214285D01*
X155916666Y-138380952D01*
X155916666Y-138309523D01*
X155940476Y-138261904D01*
X155964285Y-138238095D01*
X156011904Y-138214285D01*
X156130952Y-138214285D01*
X156178571Y-138238095D01*
X156202380Y-138261904D01*
X156226190Y-138309523D01*
X156226190Y-138452380D01*
X156202380Y-138500000D01*
X156178571Y-138523809D01*
X150726190Y-141857142D02*
X150726190Y-141761904D01*
X150750000Y-141714285D01*
X150797619Y-141666666D01*
X150892857Y-141642857D01*
X151059523Y-141642857D01*
X151154761Y-141666666D01*
X151202380Y-141714285D01*
X151226190Y-141761904D01*
X151226190Y-141857142D01*
X151202380Y-141904761D01*
X151154761Y-141952380D01*
X151059523Y-141976190D01*
X150892857Y-141976190D01*
X150797619Y-141952380D01*
X150750000Y-141904761D01*
X150726190Y-141857142D01*
X150726190Y-141428571D02*
X151130952Y-141428571D01*
X151178571Y-141404761D01*
X151202380Y-141380952D01*
X151226190Y-141333333D01*
X151226190Y-141238095D01*
X151202380Y-141190476D01*
X151178571Y-141166666D01*
X151130952Y-141142857D01*
X150726190Y-141142857D01*
X150726190Y-140976190D02*
X150726190Y-140690476D01*
X151226190Y-140833333D02*
X150726190Y-140833333D01*
X151226190Y-140261904D02*
X151226190Y-140547619D01*
X151226190Y-140404761D02*
X150726190Y-140404761D01*
X150797619Y-140452380D01*
X150845238Y-140500000D01*
X150869047Y-140547619D01*
X151273809Y-140166666D02*
X151273809Y-139785714D01*
X151178571Y-139380952D02*
X151202380Y-139404761D01*
X151226190Y-139476190D01*
X151226190Y-139523809D01*
X151202380Y-139595238D01*
X151154761Y-139642857D01*
X151107142Y-139666666D01*
X151011904Y-139690476D01*
X150940476Y-139690476D01*
X150845238Y-139666666D01*
X150797619Y-139642857D01*
X150750000Y-139595238D01*
X150726190Y-139523809D01*
X150726190Y-139476190D01*
X150750000Y-139404761D01*
X150773809Y-139380952D01*
X151226190Y-139166666D02*
X150726190Y-139166666D01*
X150964285Y-139166666D02*
X150964285Y-138880952D01*
X151226190Y-138880952D02*
X150726190Y-138880952D01*
X151226190Y-138380952D02*
X151226190Y-138666666D01*
X151226190Y-138523809D02*
X150726190Y-138523809D01*
X150797619Y-138571428D01*
X150845238Y-138619047D01*
X150869047Y-138666666D01*
X151273809Y-138285714D02*
X151273809Y-137904761D01*
X150964285Y-137785714D02*
X150964285Y-137619047D01*
X151226190Y-137547619D02*
X151226190Y-137785714D01*
X150726190Y-137785714D01*
X150726190Y-137547619D01*
X151226190Y-137333333D02*
X150726190Y-137333333D01*
X151226190Y-137047619D01*
X150726190Y-137047619D01*
X147726190Y-141857142D02*
X147726190Y-141761904D01*
X147750000Y-141714285D01*
X147797619Y-141666666D01*
X147892857Y-141642857D01*
X148059523Y-141642857D01*
X148154761Y-141666666D01*
X148202380Y-141714285D01*
X148226190Y-141761904D01*
X148226190Y-141857142D01*
X148202380Y-141904761D01*
X148154761Y-141952380D01*
X148059523Y-141976190D01*
X147892857Y-141976190D01*
X147797619Y-141952380D01*
X147750000Y-141904761D01*
X147726190Y-141857142D01*
X147726190Y-141428571D02*
X148130952Y-141428571D01*
X148178571Y-141404761D01*
X148202380Y-141380952D01*
X148226190Y-141333333D01*
X148226190Y-141238095D01*
X148202380Y-141190476D01*
X148178571Y-141166666D01*
X148130952Y-141142857D01*
X147726190Y-141142857D01*
X147726190Y-140976190D02*
X147726190Y-140690476D01*
X148226190Y-140833333D02*
X147726190Y-140833333D01*
X148226190Y-140261904D02*
X148226190Y-140547619D01*
X148226190Y-140404761D02*
X147726190Y-140404761D01*
X147797619Y-140452380D01*
X147845238Y-140500000D01*
X147869047Y-140547619D01*
X148273809Y-140166666D02*
X148273809Y-139785714D01*
X148178571Y-139380952D02*
X148202380Y-139404761D01*
X148226190Y-139476190D01*
X148226190Y-139523809D01*
X148202380Y-139595238D01*
X148154761Y-139642857D01*
X148107142Y-139666666D01*
X148011904Y-139690476D01*
X147940476Y-139690476D01*
X147845238Y-139666666D01*
X147797619Y-139642857D01*
X147750000Y-139595238D01*
X147726190Y-139523809D01*
X147726190Y-139476190D01*
X147750000Y-139404761D01*
X147773809Y-139380952D01*
X148226190Y-139166666D02*
X147726190Y-139166666D01*
X147964285Y-139166666D02*
X147964285Y-138880952D01*
X148226190Y-138880952D02*
X147726190Y-138880952D01*
X147773809Y-138666666D02*
X147750000Y-138642857D01*
X147726190Y-138595238D01*
X147726190Y-138476190D01*
X147750000Y-138428571D01*
X147773809Y-138404761D01*
X147821428Y-138380952D01*
X147869047Y-138380952D01*
X147940476Y-138404761D01*
X148226190Y-138690476D01*
X148226190Y-138380952D01*
X148273809Y-138285714D02*
X148273809Y-137904761D01*
X147964285Y-137785714D02*
X147964285Y-137619047D01*
X148226190Y-137547619D02*
X148226190Y-137785714D01*
X147726190Y-137785714D01*
X147726190Y-137547619D01*
X148226190Y-137333333D02*
X147726190Y-137333333D01*
X148226190Y-137047619D01*
X147726190Y-137047619D01*
X144726190Y-141857142D02*
X144726190Y-141761904D01*
X144750000Y-141714285D01*
X144797619Y-141666666D01*
X144892857Y-141642857D01*
X145059523Y-141642857D01*
X145154761Y-141666666D01*
X145202380Y-141714285D01*
X145226190Y-141761904D01*
X145226190Y-141857142D01*
X145202380Y-141904761D01*
X145154761Y-141952380D01*
X145059523Y-141976190D01*
X144892857Y-141976190D01*
X144797619Y-141952380D01*
X144750000Y-141904761D01*
X144726190Y-141857142D01*
X144726190Y-141428571D02*
X145130952Y-141428571D01*
X145178571Y-141404761D01*
X145202380Y-141380952D01*
X145226190Y-141333333D01*
X145226190Y-141238095D01*
X145202380Y-141190476D01*
X145178571Y-141166666D01*
X145130952Y-141142857D01*
X144726190Y-141142857D01*
X144726190Y-140976190D02*
X144726190Y-140690476D01*
X145226190Y-140833333D02*
X144726190Y-140833333D01*
X145226190Y-140261904D02*
X145226190Y-140547619D01*
X145226190Y-140404761D02*
X144726190Y-140404761D01*
X144797619Y-140452380D01*
X144845238Y-140500000D01*
X144869047Y-140547619D01*
X145273809Y-140166666D02*
X145273809Y-139785714D01*
X145178571Y-139380952D02*
X145202380Y-139404761D01*
X145226190Y-139476190D01*
X145226190Y-139523809D01*
X145202380Y-139595238D01*
X145154761Y-139642857D01*
X145107142Y-139666666D01*
X145011904Y-139690476D01*
X144940476Y-139690476D01*
X144845238Y-139666666D01*
X144797619Y-139642857D01*
X144750000Y-139595238D01*
X144726190Y-139523809D01*
X144726190Y-139476190D01*
X144750000Y-139404761D01*
X144773809Y-139380952D01*
X145226190Y-139166666D02*
X144726190Y-139166666D01*
X144964285Y-139166666D02*
X144964285Y-138880952D01*
X145226190Y-138880952D02*
X144726190Y-138880952D01*
X144726190Y-138690476D02*
X144726190Y-138380952D01*
X144916666Y-138547619D01*
X144916666Y-138476190D01*
X144940476Y-138428571D01*
X144964285Y-138404761D01*
X145011904Y-138380952D01*
X145130952Y-138380952D01*
X145178571Y-138404761D01*
X145202380Y-138428571D01*
X145226190Y-138476190D01*
X145226190Y-138619047D01*
X145202380Y-138666666D01*
X145178571Y-138690476D01*
X145273809Y-138285714D02*
X145273809Y-137904761D01*
X144964285Y-137785714D02*
X144964285Y-137619047D01*
X145226190Y-137547619D02*
X145226190Y-137785714D01*
X144726190Y-137785714D01*
X144726190Y-137547619D01*
X145226190Y-137333333D02*
X144726190Y-137333333D01*
X145226190Y-137047619D01*
X144726190Y-137047619D01*
X141726190Y-141857142D02*
X141726190Y-141761904D01*
X141750000Y-141714285D01*
X141797619Y-141666666D01*
X141892857Y-141642857D01*
X142059523Y-141642857D01*
X142154761Y-141666666D01*
X142202380Y-141714285D01*
X142226190Y-141761904D01*
X142226190Y-141857142D01*
X142202380Y-141904761D01*
X142154761Y-141952380D01*
X142059523Y-141976190D01*
X141892857Y-141976190D01*
X141797619Y-141952380D01*
X141750000Y-141904761D01*
X141726190Y-141857142D01*
X141726190Y-141428571D02*
X142130952Y-141428571D01*
X142178571Y-141404761D01*
X142202380Y-141380952D01*
X142226190Y-141333333D01*
X142226190Y-141238095D01*
X142202380Y-141190476D01*
X142178571Y-141166666D01*
X142130952Y-141142857D01*
X141726190Y-141142857D01*
X141726190Y-140976190D02*
X141726190Y-140690476D01*
X142226190Y-140833333D02*
X141726190Y-140833333D01*
X142226190Y-140261904D02*
X142226190Y-140547619D01*
X142226190Y-140404761D02*
X141726190Y-140404761D01*
X141797619Y-140452380D01*
X141845238Y-140500000D01*
X141869047Y-140547619D01*
X142273809Y-140166666D02*
X142273809Y-139785714D01*
X142178571Y-139380952D02*
X142202380Y-139404761D01*
X142226190Y-139476190D01*
X142226190Y-139523809D01*
X142202380Y-139595238D01*
X142154761Y-139642857D01*
X142107142Y-139666666D01*
X142011904Y-139690476D01*
X141940476Y-139690476D01*
X141845238Y-139666666D01*
X141797619Y-139642857D01*
X141750000Y-139595238D01*
X141726190Y-139523809D01*
X141726190Y-139476190D01*
X141750000Y-139404761D01*
X141773809Y-139380952D01*
X142226190Y-139166666D02*
X141726190Y-139166666D01*
X141964285Y-139166666D02*
X141964285Y-138880952D01*
X142226190Y-138880952D02*
X141726190Y-138880952D01*
X141892857Y-138428571D02*
X142226190Y-138428571D01*
X141702380Y-138547619D02*
X142059523Y-138666666D01*
X142059523Y-138357142D01*
X142273809Y-138285714D02*
X142273809Y-137904761D01*
X141964285Y-137785714D02*
X141964285Y-137619047D01*
X142226190Y-137547619D02*
X142226190Y-137785714D01*
X141726190Y-137785714D01*
X141726190Y-137547619D01*
X142226190Y-137333333D02*
X141726190Y-137333333D01*
X142226190Y-137047619D01*
X141726190Y-137047619D01*
X137226190Y-141857142D02*
X137226190Y-141761904D01*
X137250000Y-141714285D01*
X137297619Y-141666666D01*
X137392857Y-141642857D01*
X137559523Y-141642857D01*
X137654761Y-141666666D01*
X137702380Y-141714285D01*
X137726190Y-141761904D01*
X137726190Y-141857142D01*
X137702380Y-141904761D01*
X137654761Y-141952380D01*
X137559523Y-141976190D01*
X137392857Y-141976190D01*
X137297619Y-141952380D01*
X137250000Y-141904761D01*
X137226190Y-141857142D01*
X137226190Y-141428571D02*
X137630952Y-141428571D01*
X137678571Y-141404761D01*
X137702380Y-141380952D01*
X137726190Y-141333333D01*
X137726190Y-141238095D01*
X137702380Y-141190476D01*
X137678571Y-141166666D01*
X137630952Y-141142857D01*
X137226190Y-141142857D01*
X137226190Y-140976190D02*
X137226190Y-140690476D01*
X137726190Y-140833333D02*
X137226190Y-140833333D01*
X137273809Y-140547619D02*
X137250000Y-140523809D01*
X137226190Y-140476190D01*
X137226190Y-140357142D01*
X137250000Y-140309523D01*
X137273809Y-140285714D01*
X137321428Y-140261904D01*
X137369047Y-140261904D01*
X137440476Y-140285714D01*
X137726190Y-140571428D01*
X137726190Y-140261904D01*
X137773809Y-140166666D02*
X137773809Y-139785714D01*
X137678571Y-139380952D02*
X137702380Y-139404761D01*
X137726190Y-139476190D01*
X137726190Y-139523809D01*
X137702380Y-139595238D01*
X137654761Y-139642857D01*
X137607142Y-139666666D01*
X137511904Y-139690476D01*
X137440476Y-139690476D01*
X137345238Y-139666666D01*
X137297619Y-139642857D01*
X137250000Y-139595238D01*
X137226190Y-139523809D01*
X137226190Y-139476190D01*
X137250000Y-139404761D01*
X137273809Y-139380952D01*
X137726190Y-139166666D02*
X137226190Y-139166666D01*
X137464285Y-139166666D02*
X137464285Y-138880952D01*
X137726190Y-138880952D02*
X137226190Y-138880952D01*
X137726190Y-138380952D02*
X137726190Y-138666666D01*
X137726190Y-138523809D02*
X137226190Y-138523809D01*
X137297619Y-138571428D01*
X137345238Y-138619047D01*
X137369047Y-138666666D01*
X137773809Y-138285714D02*
X137773809Y-137904761D01*
X137464285Y-137785714D02*
X137464285Y-137619047D01*
X137726190Y-137547619D02*
X137726190Y-137785714D01*
X137226190Y-137785714D01*
X137226190Y-137547619D01*
X137726190Y-137333333D02*
X137226190Y-137333333D01*
X137726190Y-137047619D01*
X137226190Y-137047619D01*
X134226190Y-141857142D02*
X134226190Y-141761904D01*
X134250000Y-141714285D01*
X134297619Y-141666666D01*
X134392857Y-141642857D01*
X134559523Y-141642857D01*
X134654761Y-141666666D01*
X134702380Y-141714285D01*
X134726190Y-141761904D01*
X134726190Y-141857142D01*
X134702380Y-141904761D01*
X134654761Y-141952380D01*
X134559523Y-141976190D01*
X134392857Y-141976190D01*
X134297619Y-141952380D01*
X134250000Y-141904761D01*
X134226190Y-141857142D01*
X134226190Y-141428571D02*
X134630952Y-141428571D01*
X134678571Y-141404761D01*
X134702380Y-141380952D01*
X134726190Y-141333333D01*
X134726190Y-141238095D01*
X134702380Y-141190476D01*
X134678571Y-141166666D01*
X134630952Y-141142857D01*
X134226190Y-141142857D01*
X134226190Y-140976190D02*
X134226190Y-140690476D01*
X134726190Y-140833333D02*
X134226190Y-140833333D01*
X134273809Y-140547619D02*
X134250000Y-140523809D01*
X134226190Y-140476190D01*
X134226190Y-140357142D01*
X134250000Y-140309523D01*
X134273809Y-140285714D01*
X134321428Y-140261904D01*
X134369047Y-140261904D01*
X134440476Y-140285714D01*
X134726190Y-140571428D01*
X134726190Y-140261904D01*
X134773809Y-140166666D02*
X134773809Y-139785714D01*
X134678571Y-139380952D02*
X134702380Y-139404761D01*
X134726190Y-139476190D01*
X134726190Y-139523809D01*
X134702380Y-139595238D01*
X134654761Y-139642857D01*
X134607142Y-139666666D01*
X134511904Y-139690476D01*
X134440476Y-139690476D01*
X134345238Y-139666666D01*
X134297619Y-139642857D01*
X134250000Y-139595238D01*
X134226190Y-139523809D01*
X134226190Y-139476190D01*
X134250000Y-139404761D01*
X134273809Y-139380952D01*
X134726190Y-139166666D02*
X134226190Y-139166666D01*
X134464285Y-139166666D02*
X134464285Y-138880952D01*
X134726190Y-138880952D02*
X134226190Y-138880952D01*
X134273809Y-138666666D02*
X134250000Y-138642857D01*
X134226190Y-138595238D01*
X134226190Y-138476190D01*
X134250000Y-138428571D01*
X134273809Y-138404761D01*
X134321428Y-138380952D01*
X134369047Y-138380952D01*
X134440476Y-138404761D01*
X134726190Y-138690476D01*
X134726190Y-138380952D01*
X134773809Y-138285714D02*
X134773809Y-137904761D01*
X134464285Y-137785714D02*
X134464285Y-137619047D01*
X134726190Y-137547619D02*
X134726190Y-137785714D01*
X134226190Y-137785714D01*
X134226190Y-137547619D01*
X134726190Y-137333333D02*
X134226190Y-137333333D01*
X134726190Y-137047619D01*
X134226190Y-137047619D01*
X131226190Y-141857142D02*
X131226190Y-141761904D01*
X131250000Y-141714285D01*
X131297619Y-141666666D01*
X131392857Y-141642857D01*
X131559523Y-141642857D01*
X131654761Y-141666666D01*
X131702380Y-141714285D01*
X131726190Y-141761904D01*
X131726190Y-141857142D01*
X131702380Y-141904761D01*
X131654761Y-141952380D01*
X131559523Y-141976190D01*
X131392857Y-141976190D01*
X131297619Y-141952380D01*
X131250000Y-141904761D01*
X131226190Y-141857142D01*
X131226190Y-141428571D02*
X131630952Y-141428571D01*
X131678571Y-141404761D01*
X131702380Y-141380952D01*
X131726190Y-141333333D01*
X131726190Y-141238095D01*
X131702380Y-141190476D01*
X131678571Y-141166666D01*
X131630952Y-141142857D01*
X131226190Y-141142857D01*
X131226190Y-140976190D02*
X131226190Y-140690476D01*
X131726190Y-140833333D02*
X131226190Y-140833333D01*
X131273809Y-140547619D02*
X131250000Y-140523809D01*
X131226190Y-140476190D01*
X131226190Y-140357142D01*
X131250000Y-140309523D01*
X131273809Y-140285714D01*
X131321428Y-140261904D01*
X131369047Y-140261904D01*
X131440476Y-140285714D01*
X131726190Y-140571428D01*
X131726190Y-140261904D01*
X131773809Y-140166666D02*
X131773809Y-139785714D01*
X131678571Y-139380952D02*
X131702380Y-139404761D01*
X131726190Y-139476190D01*
X131726190Y-139523809D01*
X131702380Y-139595238D01*
X131654761Y-139642857D01*
X131607142Y-139666666D01*
X131511904Y-139690476D01*
X131440476Y-139690476D01*
X131345238Y-139666666D01*
X131297619Y-139642857D01*
X131250000Y-139595238D01*
X131226190Y-139523809D01*
X131226190Y-139476190D01*
X131250000Y-139404761D01*
X131273809Y-139380952D01*
X131726190Y-139166666D02*
X131226190Y-139166666D01*
X131464285Y-139166666D02*
X131464285Y-138880952D01*
X131726190Y-138880952D02*
X131226190Y-138880952D01*
X131226190Y-138690476D02*
X131226190Y-138380952D01*
X131416666Y-138547619D01*
X131416666Y-138476190D01*
X131440476Y-138428571D01*
X131464285Y-138404761D01*
X131511904Y-138380952D01*
X131630952Y-138380952D01*
X131678571Y-138404761D01*
X131702380Y-138428571D01*
X131726190Y-138476190D01*
X131726190Y-138619047D01*
X131702380Y-138666666D01*
X131678571Y-138690476D01*
X131773809Y-138285714D02*
X131773809Y-137904761D01*
X131464285Y-137785714D02*
X131464285Y-137619047D01*
X131726190Y-137547619D02*
X131726190Y-137785714D01*
X131226190Y-137785714D01*
X131226190Y-137547619D01*
X131726190Y-137333333D02*
X131226190Y-137333333D01*
X131726190Y-137047619D01*
X131226190Y-137047619D01*
X128226190Y-141857142D02*
X128226190Y-141761904D01*
X128250000Y-141714285D01*
X128297619Y-141666666D01*
X128392857Y-141642857D01*
X128559523Y-141642857D01*
X128654761Y-141666666D01*
X128702380Y-141714285D01*
X128726190Y-141761904D01*
X128726190Y-141857142D01*
X128702380Y-141904761D01*
X128654761Y-141952380D01*
X128559523Y-141976190D01*
X128392857Y-141976190D01*
X128297619Y-141952380D01*
X128250000Y-141904761D01*
X128226190Y-141857142D01*
X128226190Y-141428571D02*
X128630952Y-141428571D01*
X128678571Y-141404761D01*
X128702380Y-141380952D01*
X128726190Y-141333333D01*
X128726190Y-141238095D01*
X128702380Y-141190476D01*
X128678571Y-141166666D01*
X128630952Y-141142857D01*
X128226190Y-141142857D01*
X128226190Y-140976190D02*
X128226190Y-140690476D01*
X128726190Y-140833333D02*
X128226190Y-140833333D01*
X128273809Y-140547619D02*
X128250000Y-140523809D01*
X128226190Y-140476190D01*
X128226190Y-140357142D01*
X128250000Y-140309523D01*
X128273809Y-140285714D01*
X128321428Y-140261904D01*
X128369047Y-140261904D01*
X128440476Y-140285714D01*
X128726190Y-140571428D01*
X128726190Y-140261904D01*
X128773809Y-140166666D02*
X128773809Y-139785714D01*
X128678571Y-139380952D02*
X128702380Y-139404761D01*
X128726190Y-139476190D01*
X128726190Y-139523809D01*
X128702380Y-139595238D01*
X128654761Y-139642857D01*
X128607142Y-139666666D01*
X128511904Y-139690476D01*
X128440476Y-139690476D01*
X128345238Y-139666666D01*
X128297619Y-139642857D01*
X128250000Y-139595238D01*
X128226190Y-139523809D01*
X128226190Y-139476190D01*
X128250000Y-139404761D01*
X128273809Y-139380952D01*
X128726190Y-139166666D02*
X128226190Y-139166666D01*
X128464285Y-139166666D02*
X128464285Y-138880952D01*
X128726190Y-138880952D02*
X128226190Y-138880952D01*
X128392857Y-138428571D02*
X128726190Y-138428571D01*
X128202380Y-138547619D02*
X128559523Y-138666666D01*
X128559523Y-138357142D01*
X128773809Y-138285714D02*
X128773809Y-137904761D01*
X128464285Y-137785714D02*
X128464285Y-137619047D01*
X128726190Y-137547619D02*
X128726190Y-137785714D01*
X128226190Y-137785714D01*
X128226190Y-137547619D01*
X128726190Y-137333333D02*
X128226190Y-137333333D01*
X128726190Y-137047619D01*
X128226190Y-137047619D01*
X119226190Y-141916666D02*
X119226190Y-141821428D01*
X119250000Y-141773809D01*
X119297619Y-141726190D01*
X119392857Y-141702380D01*
X119559523Y-141702380D01*
X119654761Y-141726190D01*
X119702380Y-141773809D01*
X119726190Y-141821428D01*
X119726190Y-141916666D01*
X119702380Y-141964285D01*
X119654761Y-142011904D01*
X119559523Y-142035714D01*
X119392857Y-142035714D01*
X119297619Y-142011904D01*
X119250000Y-141964285D01*
X119226190Y-141916666D01*
X119226190Y-141488095D02*
X119630952Y-141488095D01*
X119678571Y-141464285D01*
X119702380Y-141440476D01*
X119726190Y-141392857D01*
X119726190Y-141297619D01*
X119702380Y-141250000D01*
X119678571Y-141226190D01*
X119630952Y-141202380D01*
X119226190Y-141202380D01*
X119226190Y-141035714D02*
X119226190Y-140750000D01*
X119726190Y-140892857D02*
X119226190Y-140892857D01*
X119726190Y-140321428D02*
X119726190Y-140607142D01*
X119726190Y-140464285D02*
X119226190Y-140464285D01*
X119297619Y-140511904D01*
X119345238Y-140559523D01*
X119369047Y-140607142D01*
X119773809Y-140226190D02*
X119773809Y-139845238D01*
X119464285Y-139726190D02*
X119464285Y-139559523D01*
X119726190Y-139488095D02*
X119726190Y-139726190D01*
X119226190Y-139726190D01*
X119226190Y-139488095D01*
X119726190Y-139273809D02*
X119226190Y-139273809D01*
X119726190Y-138988095D01*
X119226190Y-138988095D01*
X111726190Y-141916666D02*
X111726190Y-141821428D01*
X111750000Y-141773809D01*
X111797619Y-141726190D01*
X111892857Y-141702380D01*
X112059523Y-141702380D01*
X112154761Y-141726190D01*
X112202380Y-141773809D01*
X112226190Y-141821428D01*
X112226190Y-141916666D01*
X112202380Y-141964285D01*
X112154761Y-142011904D01*
X112059523Y-142035714D01*
X111892857Y-142035714D01*
X111797619Y-142011904D01*
X111750000Y-141964285D01*
X111726190Y-141916666D01*
X111726190Y-141488095D02*
X112130952Y-141488095D01*
X112178571Y-141464285D01*
X112202380Y-141440476D01*
X112226190Y-141392857D01*
X112226190Y-141297619D01*
X112202380Y-141250000D01*
X112178571Y-141226190D01*
X112130952Y-141202380D01*
X111726190Y-141202380D01*
X111726190Y-141035714D02*
X111726190Y-140750000D01*
X112226190Y-140892857D02*
X111726190Y-140892857D01*
X111773809Y-140607142D02*
X111750000Y-140583333D01*
X111726190Y-140535714D01*
X111726190Y-140416666D01*
X111750000Y-140369047D01*
X111773809Y-140345238D01*
X111821428Y-140321428D01*
X111869047Y-140321428D01*
X111940476Y-140345238D01*
X112226190Y-140630952D01*
X112226190Y-140321428D01*
X112273809Y-140226190D02*
X112273809Y-139845238D01*
X111964285Y-139726190D02*
X111964285Y-139559523D01*
X112226190Y-139488095D02*
X112226190Y-139726190D01*
X111726190Y-139726190D01*
X111726190Y-139488095D01*
X112226190Y-139273809D02*
X111726190Y-139273809D01*
X112226190Y-138988095D01*
X111726190Y-138988095D01*
D10*
X102190476Y-138904761D02*
X102333333Y-138952380D01*
X102571428Y-138952380D01*
X102666666Y-138904761D01*
X102714285Y-138857142D01*
X102761904Y-138761904D01*
X102761904Y-138666666D01*
X102714285Y-138571428D01*
X102666666Y-138523809D01*
X102571428Y-138476190D01*
X102380952Y-138428571D01*
X102285714Y-138380952D01*
X102238095Y-138333333D01*
X102190476Y-138238095D01*
X102190476Y-138142857D01*
X102238095Y-138047619D01*
X102285714Y-138000000D01*
X102380952Y-137952380D01*
X102619047Y-137952380D01*
X102761904Y-138000000D01*
X103190476Y-138428571D02*
X103523809Y-138428571D01*
X103666666Y-138952380D02*
X103190476Y-138952380D01*
X103190476Y-137952380D01*
X103666666Y-137952380D01*
X104095238Y-138952380D02*
X104095238Y-137952380D01*
X104666666Y-138952380D01*
X104666666Y-137952380D01*
X105095238Y-138904761D02*
X105238095Y-138952380D01*
X105476190Y-138952380D01*
X105571428Y-138904761D01*
X105619047Y-138857142D01*
X105666666Y-138761904D01*
X105666666Y-138666666D01*
X105619047Y-138571428D01*
X105571428Y-138523809D01*
X105476190Y-138476190D01*
X105285714Y-138428571D01*
X105190476Y-138380952D01*
X105142857Y-138333333D01*
X105095238Y-138238095D01*
X105095238Y-138142857D01*
X105142857Y-138047619D01*
X105190476Y-138000000D01*
X105285714Y-137952380D01*
X105523809Y-137952380D01*
X105666666Y-138000000D01*
X106095238Y-138428571D02*
X106428571Y-138428571D01*
X106571428Y-138952380D02*
X106095238Y-138952380D01*
X106095238Y-137952380D01*
X106571428Y-137952380D01*
X107000000Y-138571428D02*
X107761904Y-138571428D01*
X102190476Y-126404761D02*
X102333333Y-126452380D01*
X102571428Y-126452380D01*
X102666666Y-126404761D01*
X102714285Y-126357142D01*
X102761904Y-126261904D01*
X102761904Y-126166666D01*
X102714285Y-126071428D01*
X102666666Y-126023809D01*
X102571428Y-125976190D01*
X102380952Y-125928571D01*
X102285714Y-125880952D01*
X102238095Y-125833333D01*
X102190476Y-125738095D01*
X102190476Y-125642857D01*
X102238095Y-125547619D01*
X102285714Y-125500000D01*
X102380952Y-125452380D01*
X102619047Y-125452380D01*
X102761904Y-125500000D01*
X103190476Y-125928571D02*
X103523809Y-125928571D01*
X103666666Y-126452380D02*
X103190476Y-126452380D01*
X103190476Y-125452380D01*
X103666666Y-125452380D01*
X104095238Y-126452380D02*
X104095238Y-125452380D01*
X104666666Y-126452380D01*
X104666666Y-125452380D01*
X105095238Y-126404761D02*
X105238095Y-126452380D01*
X105476190Y-126452380D01*
X105571428Y-126404761D01*
X105619047Y-126357142D01*
X105666666Y-126261904D01*
X105666666Y-126166666D01*
X105619047Y-126071428D01*
X105571428Y-126023809D01*
X105476190Y-125976190D01*
X105285714Y-125928571D01*
X105190476Y-125880952D01*
X105142857Y-125833333D01*
X105095238Y-125738095D01*
X105095238Y-125642857D01*
X105142857Y-125547619D01*
X105190476Y-125500000D01*
X105285714Y-125452380D01*
X105523809Y-125452380D01*
X105666666Y-125500000D01*
X106095238Y-125928571D02*
X106428571Y-125928571D01*
X106571428Y-126452380D02*
X106095238Y-126452380D01*
X106095238Y-125452380D01*
X106571428Y-125452380D01*
X107000000Y-126071428D02*
X107761904Y-126071428D01*
X107380952Y-126452380D02*
X107380952Y-125690476D01*
D12*
X103738095Y-122500000D02*
X103642857Y-122452380D01*
X103500000Y-122452380D01*
X103357142Y-122500000D01*
X103261904Y-122595238D01*
X103214285Y-122690476D01*
X103166666Y-122880952D01*
X103166666Y-123023809D01*
X103214285Y-123214285D01*
X103261904Y-123309523D01*
X103357142Y-123404761D01*
X103500000Y-123452380D01*
X103595238Y-123452380D01*
X103738095Y-123404761D01*
X103785714Y-123357142D01*
X103785714Y-123023809D01*
X103595238Y-123023809D01*
X104214285Y-123452380D02*
X104214285Y-122452380D01*
X104785714Y-123452380D01*
X104785714Y-122452380D01*
X105261904Y-123452380D02*
X105261904Y-122452380D01*
X105500000Y-122452380D01*
X105642857Y-122500000D01*
X105738095Y-122595238D01*
X105785714Y-122690476D01*
X105833333Y-122880952D01*
X105833333Y-123023809D01*
X105785714Y-123214285D01*
X105738095Y-123309523D01*
X105642857Y-123404761D01*
X105500000Y-123452380D01*
X105261904Y-123452380D01*
D10*
X103261904Y-110428571D02*
X103404761Y-110476190D01*
X103452380Y-110523809D01*
X103500000Y-110619047D01*
X103500000Y-110761904D01*
X103452380Y-110857142D01*
X103404761Y-110904761D01*
X103309523Y-110952380D01*
X102928571Y-110952380D01*
X102928571Y-109952380D01*
X103261904Y-109952380D01*
X103357142Y-110000000D01*
X103404761Y-110047619D01*
X103452380Y-110142857D01*
X103452380Y-110238095D01*
X103404761Y-110333333D01*
X103357142Y-110380952D01*
X103261904Y-110428571D01*
X102928571Y-110428571D01*
X103880952Y-110666666D02*
X104357142Y-110666666D01*
X103785714Y-110952380D02*
X104119047Y-109952380D01*
X104452380Y-110952380D01*
X104642857Y-109952380D02*
X105214285Y-109952380D01*
X104928571Y-110952380D02*
X104928571Y-109952380D01*
X105404761Y-109952380D02*
X105976190Y-109952380D01*
X105690476Y-110952380D02*
X105690476Y-109952380D01*
X106309523Y-110571428D02*
X107071428Y-110571428D01*
X106690476Y-110952380D02*
X106690476Y-110190476D01*
D13*
G04 #@! TO.C,D2*
X136394394Y-111876305D02*
X136394394Y-110946305D01*
X136394394Y-108716305D02*
X136394394Y-109646305D01*
X136394394Y-108716305D02*
X134234394Y-108716305D01*
X136394394Y-111876305D02*
X134934394Y-111876305D01*
G04 #@! TO.C,U2*
X112090000Y-113090000D02*
X112090000Y-114350000D01*
X112090000Y-119910000D02*
X112090000Y-118650000D01*
X115850000Y-113090000D02*
X112090000Y-113090000D01*
X118100000Y-119910000D02*
X112090000Y-119910000D01*
G04 #@! TO.C,R29*
X147000000Y-144700000D02*
X147000000Y-143300000D01*
X147700000Y-142600000D02*
X148300000Y-142600000D01*
X149000000Y-143300000D02*
X149000000Y-144700000D01*
X148300000Y-145400000D02*
X147700000Y-145400000D01*
X147700000Y-145400000D02*
G75*
G02X147000000Y-144700000I0J700000D01*
G01*
X149000000Y-144700000D02*
G75*
G02X148300000Y-145400000I-700000J0D01*
G01*
X148300000Y-142600000D02*
G75*
G02X149000000Y-143300000I0J-700000D01*
G01*
X147000000Y-143300000D02*
G75*
G02X147700000Y-142600000I700000J0D01*
G01*
G04 #@! TO.C,R28*
X150000000Y-143300000D02*
G75*
G02X150700000Y-142600000I700000J0D01*
G01*
X151300000Y-142600000D02*
G75*
G02X152000000Y-143300000I0J-700000D01*
G01*
X152000000Y-144700000D02*
G75*
G02X151300000Y-145400000I-700000J0D01*
G01*
X150700000Y-145400000D02*
G75*
G02X150000000Y-144700000I0J700000D01*
G01*
X151300000Y-145400000D02*
X150700000Y-145400000D01*
X152000000Y-143300000D02*
X152000000Y-144700000D01*
X150700000Y-142600000D02*
X151300000Y-142600000D01*
X150000000Y-144700000D02*
X150000000Y-143300000D01*
G04 #@! TO.C,R7*
X117000000Y-106700000D02*
X117000000Y-105300000D01*
X117700000Y-104600000D02*
X118300000Y-104600000D01*
X119000000Y-105300000D02*
X119000000Y-106700000D01*
X118300000Y-107400000D02*
X117700000Y-107400000D01*
X117700000Y-107400000D02*
G75*
G02X117000000Y-106700000I0J700000D01*
G01*
X119000000Y-106700000D02*
G75*
G02X118300000Y-107400000I-700000J0D01*
G01*
X118300000Y-104600000D02*
G75*
G02X119000000Y-105300000I0J-700000D01*
G01*
X117000000Y-105300000D02*
G75*
G02X117700000Y-104600000I700000J0D01*
G01*
G04 #@! TO.C,R30*
X144000000Y-143300000D02*
G75*
G02X144700000Y-142600000I700000J0D01*
G01*
X145300000Y-142600000D02*
G75*
G02X146000000Y-143300000I0J-700000D01*
G01*
X146000000Y-144700000D02*
G75*
G02X145300000Y-145400000I-700000J0D01*
G01*
X144700000Y-145400000D02*
G75*
G02X144000000Y-144700000I0J700000D01*
G01*
X145300000Y-145400000D02*
X144700000Y-145400000D01*
X146000000Y-143300000D02*
X146000000Y-144700000D01*
X144700000Y-142600000D02*
X145300000Y-142600000D01*
X144000000Y-144700000D02*
X144000000Y-143300000D01*
G04 #@! TO.C,R31*
X141000000Y-144700000D02*
X141000000Y-143300000D01*
X141700000Y-142600000D02*
X142300000Y-142600000D01*
X143000000Y-143300000D02*
X143000000Y-144700000D01*
X142300000Y-145400000D02*
X141700000Y-145400000D01*
X141700000Y-145400000D02*
G75*
G02X141000000Y-144700000I0J700000D01*
G01*
X143000000Y-144700000D02*
G75*
G02X142300000Y-145400000I-700000J0D01*
G01*
X142300000Y-142600000D02*
G75*
G02X143000000Y-143300000I0J-700000D01*
G01*
X141000000Y-143300000D02*
G75*
G02X141700000Y-142600000I700000J0D01*
G01*
G04 #@! TO.C,R32*
X136500000Y-143300000D02*
G75*
G02X137200000Y-142600000I700000J0D01*
G01*
X137800000Y-142600000D02*
G75*
G02X138500000Y-143300000I0J-700000D01*
G01*
X138500000Y-144700000D02*
G75*
G02X137800000Y-145400000I-700000J0D01*
G01*
X137200000Y-145400000D02*
G75*
G02X136500000Y-144700000I0J700000D01*
G01*
X137800000Y-145400000D02*
X137200000Y-145400000D01*
X138500000Y-143300000D02*
X138500000Y-144700000D01*
X137200000Y-142600000D02*
X137800000Y-142600000D01*
X136500000Y-144700000D02*
X136500000Y-143300000D01*
G04 #@! TO.C,R33*
X133500000Y-144700000D02*
X133500000Y-143300000D01*
X134200000Y-142600000D02*
X134800000Y-142600000D01*
X135500000Y-143300000D02*
X135500000Y-144700000D01*
X134800000Y-145400000D02*
X134200000Y-145400000D01*
X134200000Y-145400000D02*
G75*
G02X133500000Y-144700000I0J700000D01*
G01*
X135500000Y-144700000D02*
G75*
G02X134800000Y-145400000I-700000J0D01*
G01*
X134800000Y-142600000D02*
G75*
G02X135500000Y-143300000I0J-700000D01*
G01*
X133500000Y-143300000D02*
G75*
G02X134200000Y-142600000I700000J0D01*
G01*
G04 #@! TO.C,R34*
X130500000Y-143300000D02*
G75*
G02X131200000Y-142600000I700000J0D01*
G01*
X131800000Y-142600000D02*
G75*
G02X132500000Y-143300000I0J-700000D01*
G01*
X132500000Y-144700000D02*
G75*
G02X131800000Y-145400000I-700000J0D01*
G01*
X131200000Y-145400000D02*
G75*
G02X130500000Y-144700000I0J700000D01*
G01*
X131800000Y-145400000D02*
X131200000Y-145400000D01*
X132500000Y-143300000D02*
X132500000Y-144700000D01*
X131200000Y-142600000D02*
X131800000Y-142600000D01*
X130500000Y-144700000D02*
X130500000Y-143300000D01*
G04 #@! TO.C,R18*
X126000000Y-106700000D02*
X126000000Y-105300000D01*
X126700000Y-104600000D02*
X127300000Y-104600000D01*
X128000000Y-105300000D02*
X128000000Y-106700000D01*
X127300000Y-107400000D02*
X126700000Y-107400000D01*
X126700000Y-107400000D02*
G75*
G02X126000000Y-106700000I0J700000D01*
G01*
X128000000Y-106700000D02*
G75*
G02X127300000Y-107400000I-700000J0D01*
G01*
X127300000Y-104600000D02*
G75*
G02X128000000Y-105300000I0J-700000D01*
G01*
X126000000Y-105300000D02*
G75*
G02X126700000Y-104600000I700000J0D01*
G01*
G04 #@! TO.C,R9*
X120000000Y-105300000D02*
G75*
G02X120700000Y-104600000I700000J0D01*
G01*
X121300000Y-104600000D02*
G75*
G02X122000000Y-105300000I0J-700000D01*
G01*
X122000000Y-106700000D02*
G75*
G02X121300000Y-107400000I-700000J0D01*
G01*
X120700000Y-107400000D02*
G75*
G02X120000000Y-106700000I0J700000D01*
G01*
X121300000Y-107400000D02*
X120700000Y-107400000D01*
X122000000Y-105300000D02*
X122000000Y-106700000D01*
X120700000Y-104600000D02*
X121300000Y-104600000D01*
X120000000Y-106700000D02*
X120000000Y-105300000D01*
G04 #@! TO.C,R15*
X123000000Y-106700000D02*
X123000000Y-105300000D01*
X123700000Y-104600000D02*
X124300000Y-104600000D01*
X125000000Y-105300000D02*
X125000000Y-106700000D01*
X124300000Y-107400000D02*
X123700000Y-107400000D01*
X123700000Y-107400000D02*
G75*
G02X123000000Y-106700000I0J700000D01*
G01*
X125000000Y-106700000D02*
G75*
G02X124300000Y-107400000I-700000J0D01*
G01*
X124300000Y-104600000D02*
G75*
G02X125000000Y-105300000I0J-700000D01*
G01*
X123000000Y-105300000D02*
G75*
G02X123700000Y-104600000I700000J0D01*
G01*
G04 #@! TO.C,R35*
X127500000Y-143300000D02*
G75*
G02X128200000Y-142600000I700000J0D01*
G01*
X128800000Y-142600000D02*
G75*
G02X129500000Y-143300000I0J-700000D01*
G01*
X129500000Y-144700000D02*
G75*
G02X128800000Y-145400000I-700000J0D01*
G01*
X128200000Y-145400000D02*
G75*
G02X127500000Y-144700000I0J700000D01*
G01*
X128800000Y-145400000D02*
X128200000Y-145400000D01*
X129500000Y-143300000D02*
X129500000Y-144700000D01*
X128200000Y-142600000D02*
X128800000Y-142600000D01*
X127500000Y-144700000D02*
X127500000Y-143300000D01*
G04 #@! TO.C,C1*
X114000000Y-110090000D02*
X113000000Y-110090000D01*
X114000000Y-111910000D02*
X113000000Y-111910000D01*
G04 #@! TO.C,C3*
X119590000Y-117000000D02*
X119590000Y-118000000D01*
X121410000Y-117000000D02*
X121410000Y-118000000D01*
G04 #@! TO.C,J1*
X107149845Y-118250353D02*
G75*
G03X107150000Y-119750000I1700155J-749647D01*
G01*
X107149845Y-113170353D02*
G75*
G03X107150000Y-114670000I1700155J-749647D01*
G01*
X100570000Y-121620000D02*
X107980000Y-121620000D01*
X107980000Y-121620000D02*
X107980000Y-111300000D01*
X107980000Y-111300000D02*
X100570000Y-111300000D01*
X100570000Y-111300000D02*
X100570000Y-121620000D01*
X107150000Y-119750000D02*
X107150000Y-120500000D01*
X107150000Y-120500000D02*
X102850000Y-120500000D01*
X102850000Y-120500000D02*
X102850000Y-119750000D01*
X102850000Y-119750000D02*
X102500000Y-119750000D01*
X102500000Y-119750000D02*
X102500000Y-120250000D01*
X102500000Y-120250000D02*
X101500000Y-120500000D01*
X101500000Y-120500000D02*
X101500000Y-117500000D01*
X101500000Y-117500000D02*
X102500000Y-117750000D01*
X102500000Y-117750000D02*
X102500000Y-118250000D01*
X102500000Y-118250000D02*
X102850000Y-118250000D01*
X102850000Y-118250000D02*
X102850000Y-117500000D01*
X102850000Y-117500000D02*
X107150000Y-117500000D01*
X107150000Y-117500000D02*
X107150000Y-118250000D01*
X107150000Y-114670000D02*
X107150000Y-115420000D01*
X107150000Y-115420000D02*
X102850000Y-115420000D01*
X102850000Y-115420000D02*
X102850000Y-114670000D01*
X102850000Y-114670000D02*
X102500000Y-114670000D01*
X102500000Y-114670000D02*
X102500000Y-115170000D01*
X102500000Y-115170000D02*
X101500000Y-115420000D01*
X101500000Y-115420000D02*
X101500000Y-112420000D01*
X101500000Y-112420000D02*
X102500000Y-112670000D01*
X102500000Y-112670000D02*
X102500000Y-113170000D01*
X102500000Y-113170000D02*
X102850000Y-113170000D01*
X102850000Y-113170000D02*
X102850000Y-112420000D01*
X102850000Y-112420000D02*
X107150000Y-112420000D01*
X107150000Y-112420000D02*
X107150000Y-113170000D01*
X101400000Y-122040000D02*
X100150000Y-122040000D01*
X100150000Y-122040000D02*
X100150000Y-120040000D01*
G04 #@! TO.C,J2*
X107149845Y-133870353D02*
G75*
G03X107150000Y-135370000I1700155J-749647D01*
G01*
X107149845Y-128790353D02*
G75*
G03X107150000Y-130290000I1700155J-749647D01*
G01*
X100570000Y-137240000D02*
X107980000Y-137240000D01*
X107980000Y-137240000D02*
X107980000Y-126920000D01*
X107980000Y-126920000D02*
X100570000Y-126920000D01*
X100570000Y-126920000D02*
X100570000Y-137240000D01*
X107150000Y-135370000D02*
X107150000Y-136120000D01*
X107150000Y-136120000D02*
X102850000Y-136120000D01*
X102850000Y-136120000D02*
X102850000Y-135370000D01*
X102850000Y-135370000D02*
X102500000Y-135370000D01*
X102500000Y-135370000D02*
X102500000Y-135870000D01*
X102500000Y-135870000D02*
X101500000Y-136120000D01*
X101500000Y-136120000D02*
X101500000Y-133120000D01*
X101500000Y-133120000D02*
X102500000Y-133370000D01*
X102500000Y-133370000D02*
X102500000Y-133870000D01*
X102500000Y-133870000D02*
X102850000Y-133870000D01*
X102850000Y-133870000D02*
X102850000Y-133120000D01*
X102850000Y-133120000D02*
X107150000Y-133120000D01*
X107150000Y-133120000D02*
X107150000Y-133870000D01*
X107150000Y-130290000D02*
X107150000Y-131040000D01*
X107150000Y-131040000D02*
X102850000Y-131040000D01*
X102850000Y-131040000D02*
X102850000Y-130290000D01*
X102850000Y-130290000D02*
X102500000Y-130290000D01*
X102500000Y-130290000D02*
X102500000Y-130790000D01*
X102500000Y-130790000D02*
X101500000Y-131040000D01*
X101500000Y-131040000D02*
X101500000Y-128040000D01*
X101500000Y-128040000D02*
X102500000Y-128290000D01*
X102500000Y-128290000D02*
X102500000Y-128790000D01*
X102500000Y-128790000D02*
X102850000Y-128790000D01*
X102850000Y-128790000D02*
X102850000Y-128040000D01*
X102850000Y-128040000D02*
X107150000Y-128040000D01*
X107150000Y-128040000D02*
X107150000Y-128790000D01*
X101400000Y-137660000D02*
X100150000Y-137660000D01*
X100150000Y-137660000D02*
X100150000Y-135660000D01*
G04 #@! TO.C,SW1*
X110430000Y-102000000D02*
X110430000Y-100670000D01*
X110430000Y-100670000D02*
X111760000Y-100670000D01*
X113030000Y-100670000D02*
X115630000Y-100670000D01*
X115630000Y-103330000D02*
X115630000Y-100670000D01*
X113030000Y-103330000D02*
X115630000Y-103330000D01*
X113030000Y-103330000D02*
X113030000Y-100670000D01*
G04 #@! TO.C,J16*
X118050000Y-148000000D02*
X118050000Y-146670000D01*
X118050000Y-146670000D02*
X119380000Y-146670000D01*
X120650000Y-146670000D02*
X123250000Y-146670000D01*
X123250000Y-149330000D02*
X123250000Y-146670000D01*
X120650000Y-149330000D02*
X123250000Y-149330000D01*
X120650000Y-149330000D02*
X120650000Y-146670000D01*
G04 #@! TO.C,J17*
X113030000Y-149330000D02*
X113030000Y-146670000D01*
X113030000Y-149330000D02*
X115630000Y-149330000D01*
X115630000Y-149330000D02*
X115630000Y-146670000D01*
X113030000Y-146670000D02*
X115630000Y-146670000D01*
X110430000Y-146670000D02*
X111760000Y-146670000D01*
X110430000Y-148000000D02*
X110430000Y-146670000D01*
G04 #@! TO.C,J4*
X173990000Y-103330000D02*
X173990000Y-100670000D01*
X173990000Y-103330000D02*
X179130000Y-103330000D01*
X179130000Y-103330000D02*
X179130000Y-100670000D01*
X173990000Y-100670000D02*
X179130000Y-100670000D01*
X171390000Y-100670000D02*
X172720000Y-100670000D01*
X171390000Y-102000000D02*
X171390000Y-100670000D01*
G04 #@! TO.C,J5*
X161230000Y-102000000D02*
X161230000Y-100670000D01*
X161230000Y-100670000D02*
X162560000Y-100670000D01*
X163830000Y-100670000D02*
X168970000Y-100670000D01*
X168970000Y-103330000D02*
X168970000Y-100670000D01*
X163830000Y-103330000D02*
X168970000Y-103330000D01*
X163830000Y-103330000D02*
X163830000Y-100670000D01*
G04 #@! TO.C,J3*
X184270000Y-103330000D02*
X184270000Y-100670000D01*
X184270000Y-103330000D02*
X189410000Y-103330000D01*
X189410000Y-103330000D02*
X189410000Y-100670000D01*
X184270000Y-100670000D02*
X189410000Y-100670000D01*
X181670000Y-100670000D02*
X183000000Y-100670000D01*
X181670000Y-102000000D02*
X181670000Y-100670000D01*
G04 #@! TO.C,J12*
X189290000Y-120650000D02*
X186630000Y-120650000D01*
X189290000Y-120650000D02*
X189290000Y-112970000D01*
X189290000Y-112970000D02*
X186630000Y-112970000D01*
X186630000Y-120650000D02*
X186630000Y-112970000D01*
X186630000Y-123250000D02*
X186630000Y-121920000D01*
X187960000Y-123250000D02*
X186630000Y-123250000D01*
G04 #@! TO.C,J19*
X198000000Y-112970000D02*
X199330000Y-112970000D01*
X199330000Y-112970000D02*
X199330000Y-114300000D01*
X199330000Y-115570000D02*
X199330000Y-123250000D01*
X196670000Y-123250000D02*
X199330000Y-123250000D01*
X196670000Y-115570000D02*
X196670000Y-123250000D01*
X196670000Y-115570000D02*
X199330000Y-115570000D01*
G04 #@! TO.C,J15*
X161290000Y-146670000D02*
X161290000Y-149330000D01*
X161290000Y-146670000D02*
X153610000Y-146670000D01*
X153610000Y-146670000D02*
X153610000Y-149330000D01*
X161290000Y-149330000D02*
X153610000Y-149330000D01*
X163890000Y-149330000D02*
X162560000Y-149330000D01*
X163890000Y-148000000D02*
X163890000Y-149330000D01*
G04 #@! TO.C,J14*
X176590000Y-148000000D02*
X176590000Y-149330000D01*
X176590000Y-149330000D02*
X175260000Y-149330000D01*
X173990000Y-149330000D02*
X166310000Y-149330000D01*
X166310000Y-146670000D02*
X166310000Y-149330000D01*
X173990000Y-146670000D02*
X166310000Y-146670000D01*
X173990000Y-146670000D02*
X173990000Y-149330000D01*
G04 #@! TO.C,J13*
X186690000Y-146670000D02*
X186690000Y-149330000D01*
X186690000Y-146670000D02*
X179010000Y-146670000D01*
X179010000Y-146670000D02*
X179010000Y-149330000D01*
X186690000Y-149330000D02*
X179010000Y-149330000D01*
X189290000Y-149330000D02*
X187960000Y-149330000D01*
X189290000Y-148000000D02*
X189290000Y-149330000D01*
G04 #@! TO.C,J11*
X196670000Y-128270000D02*
X199330000Y-128270000D01*
X196670000Y-128270000D02*
X196670000Y-138490000D01*
X196670000Y-138490000D02*
X199330000Y-138490000D01*
X199330000Y-128270000D02*
X199330000Y-138490000D01*
X199330000Y-125670000D02*
X199330000Y-127000000D01*
X198000000Y-125670000D02*
X199330000Y-125670000D01*
G04 #@! TO.C,J10*
X138490000Y-148000000D02*
X138490000Y-149330000D01*
X138490000Y-149330000D02*
X137160000Y-149330000D01*
X135890000Y-149330000D02*
X125670000Y-149330000D01*
X125670000Y-146670000D02*
X125670000Y-149330000D01*
X135890000Y-146670000D02*
X125670000Y-146670000D01*
X135890000Y-146670000D02*
X135890000Y-149330000D01*
G04 #@! TO.C,J7*
X120650000Y-103330000D02*
X120650000Y-100670000D01*
X120650000Y-103330000D02*
X130870000Y-103330000D01*
X130870000Y-103330000D02*
X130870000Y-100670000D01*
X120650000Y-100670000D02*
X130870000Y-100670000D01*
X118050000Y-100670000D02*
X119380000Y-100670000D01*
X118050000Y-102000000D02*
X118050000Y-100670000D01*
G04 #@! TO.C,J6*
X133670000Y-102000000D02*
X133670000Y-100670000D01*
X133670000Y-100670000D02*
X135000000Y-100670000D01*
X136270000Y-100670000D02*
X146490000Y-100670000D01*
X146490000Y-103330000D02*
X146490000Y-100670000D01*
X136270000Y-103330000D02*
X146490000Y-103330000D01*
X136270000Y-103330000D02*
X136270000Y-100670000D01*
G04 #@! TO.C,J9*
X148730000Y-146670000D02*
X148730000Y-149330000D01*
X148730000Y-146670000D02*
X138510000Y-146670000D01*
X138510000Y-146670000D02*
X138510000Y-149330000D01*
X148730000Y-149330000D02*
X138510000Y-149330000D01*
X151330000Y-149330000D02*
X150000000Y-149330000D01*
X151330000Y-148000000D02*
X151330000Y-149330000D01*
G04 #@! TO.C,JP1*
X152000000Y-112300000D02*
X152000000Y-113700000D01*
X151300000Y-114400000D02*
X150700000Y-114400000D01*
X150000000Y-113700000D02*
X150000000Y-112300000D01*
X150700000Y-111600000D02*
X151300000Y-111600000D01*
X151300000Y-111600000D02*
G75*
G02X152000000Y-112300000I0J-700000D01*
G01*
X150000000Y-112300000D02*
G75*
G02X150700000Y-111600000I700000J0D01*
G01*
X150700000Y-114400000D02*
G75*
G02X150000000Y-113700000I0J700000D01*
G01*
X152000000Y-113700000D02*
G75*
G02X151300000Y-114400000I-700000J0D01*
G01*
G04 #@! TO.C,JP2*
X155000000Y-113700000D02*
G75*
G02X154300000Y-114400000I-700000J0D01*
G01*
X153700000Y-114400000D02*
G75*
G02X153000000Y-113700000I0J700000D01*
G01*
X153000000Y-112300000D02*
G75*
G02X153700000Y-111600000I700000J0D01*
G01*
X154300000Y-111600000D02*
G75*
G02X155000000Y-112300000I0J-700000D01*
G01*
X153700000Y-111600000D02*
X154300000Y-111600000D01*
X153000000Y-113700000D02*
X153000000Y-112300000D01*
X154300000Y-114400000D02*
X153700000Y-114400000D01*
X155000000Y-112300000D02*
X155000000Y-113700000D01*
G04 #@! TO.C,D3*
X115260000Y-145470000D02*
X115260000Y-143200000D01*
X113740000Y-145470000D02*
X115260000Y-145470000D01*
X113740000Y-143200000D02*
X113740000Y-145470000D01*
G04 #@! TO.C,D1*
X120200000Y-114260000D02*
X122470000Y-114260000D01*
X122470000Y-114260000D02*
X122470000Y-112740000D01*
X122470000Y-112740000D02*
X120200000Y-112740000D01*
D14*
G04 #@! TO.C,U1*
X114925000Y-130425000D02*
X114925000Y-130475000D01*
X119075000Y-130425000D02*
X119075000Y-130570000D01*
X119075000Y-135575000D02*
X119075000Y-135430000D01*
X114925000Y-135575000D02*
X114925000Y-135430000D01*
X114925000Y-130425000D02*
X119075000Y-130425000D01*
X114925000Y-135575000D02*
X119075000Y-135575000D01*
X114925000Y-130475000D02*
X113525000Y-130475000D01*
G04 #@! TO.C,U3*
X132220000Y-133890000D02*
X132220000Y-116110000D01*
X167780000Y-133890000D02*
X132220000Y-133890000D01*
X167780000Y-116110000D02*
X167780000Y-133890000D01*
X132220000Y-116110000D02*
X167780000Y-116110000D01*
X158890000Y-130080000D02*
X150000000Y-130080000D01*
X158890000Y-119920000D02*
X150000000Y-119920000D01*
X150000000Y-119920000D02*
X150000000Y-130080000D01*
X158890000Y-130080000D02*
X158890000Y-119920000D01*
X162700000Y-122460000D02*
X165240000Y-122460000D01*
X162700000Y-127540000D02*
X162700000Y-122460000D01*
X165240000Y-127540000D02*
X162700000Y-127540000D01*
X165240000Y-122460000D02*
X165240000Y-127540000D01*
X138570000Y-127540000D02*
X138570000Y-130080000D01*
X141110000Y-127540000D02*
X138570000Y-127540000D01*
X141110000Y-130080000D02*
X141110000Y-127540000D01*
X138570000Y-130080000D02*
X141110000Y-130080000D01*
X137300000Y-128810000D02*
X132220000Y-128810000D01*
X137300000Y-121190000D02*
X132220000Y-121190000D01*
X137300000Y-128810000D02*
X137300000Y-121190000D01*
X143650000Y-127540000D02*
X143650000Y-130080000D01*
X147460000Y-127540000D02*
X143650000Y-127540000D01*
X147460000Y-130080000D02*
X147460000Y-127540000D01*
X143650000Y-130080000D02*
X147460000Y-130080000D01*
X130950000Y-121190000D02*
X132220000Y-121190000D01*
X130950000Y-128810000D02*
X130950000Y-121190000D01*
X132220000Y-128810000D02*
X130950000Y-128810000D01*
G04 #@! TO.C,D2*
X136761904Y-109452380D02*
X136761904Y-108452380D01*
X137000000Y-108452380D01*
X137142857Y-108500000D01*
X137238095Y-108595238D01*
X137285714Y-108690476D01*
X137333333Y-108880952D01*
X137333333Y-109023809D01*
X137285714Y-109214285D01*
X137238095Y-109309523D01*
X137142857Y-109404761D01*
X137000000Y-109452380D01*
X136761904Y-109452380D01*
X137714285Y-108547619D02*
X137761904Y-108500000D01*
X137857142Y-108452380D01*
X138095238Y-108452380D01*
X138190476Y-108500000D01*
X138238095Y-108547619D01*
X138285714Y-108642857D01*
X138285714Y-108738095D01*
X138238095Y-108880952D01*
X137666666Y-109452380D01*
X138285714Y-109452380D01*
G04 #@! TO.C,U2*
X109952380Y-121261904D02*
X110761904Y-121261904D01*
X110857142Y-121214285D01*
X110904761Y-121166666D01*
X110952380Y-121071428D01*
X110952380Y-120880952D01*
X110904761Y-120785714D01*
X110857142Y-120738095D01*
X110761904Y-120690476D01*
X109952380Y-120690476D01*
X110047619Y-120261904D02*
X110000000Y-120214285D01*
X109952380Y-120119047D01*
X109952380Y-119880952D01*
X110000000Y-119785714D01*
X110047619Y-119738095D01*
X110142857Y-119690476D01*
X110238095Y-119690476D01*
X110380952Y-119738095D01*
X110952380Y-120309523D01*
X110952380Y-119690476D01*
G04 #@! TO.C,C2*
X110333333Y-137357142D02*
X110285714Y-137404761D01*
X110142857Y-137452380D01*
X110047619Y-137452380D01*
X109904761Y-137404761D01*
X109809523Y-137309523D01*
X109761904Y-137214285D01*
X109714285Y-137023809D01*
X109714285Y-136880952D01*
X109761904Y-136690476D01*
X109809523Y-136595238D01*
X109904761Y-136500000D01*
X110047619Y-136452380D01*
X110142857Y-136452380D01*
X110285714Y-136500000D01*
X110333333Y-136547619D01*
X110714285Y-136547619D02*
X110761904Y-136500000D01*
X110857142Y-136452380D01*
X111095238Y-136452380D01*
X111190476Y-136500000D01*
X111238095Y-136547619D01*
X111285714Y-136642857D01*
X111285714Y-136738095D01*
X111238095Y-136880952D01*
X110666666Y-137452380D01*
X111285714Y-137452380D01*
G04 #@! TO.C,C1*
X112833333Y-109357142D02*
X112785714Y-109404761D01*
X112642857Y-109452380D01*
X112547619Y-109452380D01*
X112404761Y-109404761D01*
X112309523Y-109309523D01*
X112261904Y-109214285D01*
X112214285Y-109023809D01*
X112214285Y-108880952D01*
X112261904Y-108690476D01*
X112309523Y-108595238D01*
X112404761Y-108500000D01*
X112547619Y-108452380D01*
X112642857Y-108452380D01*
X112785714Y-108500000D01*
X112833333Y-108547619D01*
X113785714Y-109452380D02*
X113214285Y-109452380D01*
X113500000Y-109452380D02*
X113500000Y-108452380D01*
X113404761Y-108595238D01*
X113309523Y-108690476D01*
X113214285Y-108738095D01*
G04 #@! TO.C,C3*
X122707142Y-117666666D02*
X122754761Y-117714285D01*
X122802380Y-117857142D01*
X122802380Y-117952380D01*
X122754761Y-118095238D01*
X122659523Y-118190476D01*
X122564285Y-118238095D01*
X122373809Y-118285714D01*
X122230952Y-118285714D01*
X122040476Y-118238095D01*
X121945238Y-118190476D01*
X121850000Y-118095238D01*
X121802380Y-117952380D01*
X121802380Y-117857142D01*
X121850000Y-117714285D01*
X121897619Y-117666666D01*
X121802380Y-117333333D02*
X121802380Y-116714285D01*
X122183333Y-117047619D01*
X122183333Y-116904761D01*
X122230952Y-116809523D01*
X122278571Y-116761904D01*
X122373809Y-116714285D01*
X122611904Y-116714285D01*
X122707142Y-116761904D01*
X122754761Y-116809523D01*
X122802380Y-116904761D01*
X122802380Y-117190476D01*
X122754761Y-117285714D01*
X122707142Y-117333333D01*
G04 #@! TO.C,J15*
X164782380Y-148809523D02*
X165496666Y-148809523D01*
X165639523Y-148857142D01*
X165734761Y-148952380D01*
X165782380Y-149095238D01*
X165782380Y-149190476D01*
X165782380Y-147809523D02*
X165782380Y-148380952D01*
X165782380Y-148095238D02*
X164782380Y-148095238D01*
X164925238Y-148190476D01*
X165020476Y-148285714D01*
X165068095Y-148380952D01*
X164782380Y-146904761D02*
X164782380Y-147380952D01*
X165258571Y-147428571D01*
X165210952Y-147380952D01*
X165163333Y-147285714D01*
X165163333Y-147047619D01*
X165210952Y-146952380D01*
X165258571Y-146904761D01*
X165353809Y-146857142D01*
X165591904Y-146857142D01*
X165687142Y-146904761D01*
X165734761Y-146952380D01*
X165782380Y-147047619D01*
X165782380Y-147285714D01*
X165734761Y-147380952D01*
X165687142Y-147428571D01*
G04 #@! TO.C,J14*
X177482380Y-148809523D02*
X178196666Y-148809523D01*
X178339523Y-148857142D01*
X178434761Y-148952380D01*
X178482380Y-149095238D01*
X178482380Y-149190476D01*
X178482380Y-147809523D02*
X178482380Y-148380952D01*
X178482380Y-148095238D02*
X177482380Y-148095238D01*
X177625238Y-148190476D01*
X177720476Y-148285714D01*
X177768095Y-148380952D01*
X177815714Y-146952380D02*
X178482380Y-146952380D01*
X177434761Y-147190476D02*
X178149047Y-147428571D01*
X178149047Y-146809523D01*
G04 #@! TO.C,D3*
X114952380Y-141738095D02*
X113952380Y-141738095D01*
X113952380Y-141500000D01*
X114000000Y-141357142D01*
X114095238Y-141261904D01*
X114190476Y-141214285D01*
X114380952Y-141166666D01*
X114523809Y-141166666D01*
X114714285Y-141214285D01*
X114809523Y-141261904D01*
X114904761Y-141357142D01*
X114952380Y-141500000D01*
X114952380Y-141738095D01*
X113952380Y-140833333D02*
X113952380Y-140214285D01*
X114333333Y-140547619D01*
X114333333Y-140404761D01*
X114380952Y-140309523D01*
X114428571Y-140261904D01*
X114523809Y-140214285D01*
X114761904Y-140214285D01*
X114857142Y-140261904D01*
X114904761Y-140309523D01*
X114952380Y-140404761D01*
X114952380Y-140690476D01*
X114904761Y-140785714D01*
X114857142Y-140833333D01*
G04 #@! TO.C,D1*
X122261904Y-115452380D02*
X122261904Y-114452380D01*
X122500000Y-114452380D01*
X122642857Y-114500000D01*
X122738095Y-114595238D01*
X122785714Y-114690476D01*
X122833333Y-114880952D01*
X122833333Y-115023809D01*
X122785714Y-115214285D01*
X122738095Y-115309523D01*
X122642857Y-115404761D01*
X122500000Y-115452380D01*
X122261904Y-115452380D01*
X123785714Y-115452380D02*
X123214285Y-115452380D01*
X123500000Y-115452380D02*
X123500000Y-114452380D01*
X123404761Y-114595238D01*
X123309523Y-114690476D01*
X123214285Y-114738095D01*
G04 #@! TO.C,U1*
X113738095Y-128952380D02*
X113738095Y-129761904D01*
X113785714Y-129857142D01*
X113833333Y-129904761D01*
X113928571Y-129952380D01*
X114119047Y-129952380D01*
X114214285Y-129904761D01*
X114261904Y-129857142D01*
X114309523Y-129761904D01*
X114309523Y-128952380D01*
X115309523Y-129952380D02*
X114738095Y-129952380D01*
X115023809Y-129952380D02*
X115023809Y-128952380D01*
X114928571Y-129095238D01*
X114833333Y-129190476D01*
X114738095Y-129238095D01*
G04 #@! TO.C,R13*
X118857142Y-123902380D02*
X118523809Y-123426190D01*
X118285714Y-123902380D02*
X118285714Y-122902380D01*
X118666666Y-122902380D01*
X118761904Y-122950000D01*
X118809523Y-122997619D01*
X118857142Y-123092857D01*
X118857142Y-123235714D01*
X118809523Y-123330952D01*
X118761904Y-123378571D01*
X118666666Y-123426190D01*
X118285714Y-123426190D01*
X119809523Y-123902380D02*
X119238095Y-123902380D01*
X119523809Y-123902380D02*
X119523809Y-122902380D01*
X119428571Y-123045238D01*
X119333333Y-123140476D01*
X119238095Y-123188095D01*
X120142857Y-122902380D02*
X120761904Y-122902380D01*
X120428571Y-123283333D01*
X120571428Y-123283333D01*
X120666666Y-123330952D01*
X120714285Y-123378571D01*
X120761904Y-123473809D01*
X120761904Y-123711904D01*
X120714285Y-123807142D01*
X120666666Y-123854761D01*
X120571428Y-123902380D01*
X120285714Y-123902380D01*
X120190476Y-123854761D01*
X120142857Y-123807142D01*
G04 #@! TO.C,R16*
X114857142Y-124452380D02*
X114523809Y-123976190D01*
X114285714Y-124452380D02*
X114285714Y-123452380D01*
X114666666Y-123452380D01*
X114761904Y-123500000D01*
X114809523Y-123547619D01*
X114857142Y-123642857D01*
X114857142Y-123785714D01*
X114809523Y-123880952D01*
X114761904Y-123928571D01*
X114666666Y-123976190D01*
X114285714Y-123976190D01*
X115809523Y-124452380D02*
X115238095Y-124452380D01*
X115523809Y-124452380D02*
X115523809Y-123452380D01*
X115428571Y-123595238D01*
X115333333Y-123690476D01*
X115238095Y-123738095D01*
X116666666Y-123452380D02*
X116476190Y-123452380D01*
X116380952Y-123500000D01*
X116333333Y-123547619D01*
X116238095Y-123690476D01*
X116190476Y-123880952D01*
X116190476Y-124261904D01*
X116238095Y-124357142D01*
X116285714Y-124404761D01*
X116380952Y-124452380D01*
X116571428Y-124452380D01*
X116666666Y-124404761D01*
X116714285Y-124357142D01*
X116761904Y-124261904D01*
X116761904Y-124023809D01*
X116714285Y-123928571D01*
X116666666Y-123880952D01*
X116571428Y-123833333D01*
X116380952Y-123833333D01*
X116285714Y-123880952D01*
X116238095Y-123928571D01*
X116190476Y-124023809D01*
G04 #@! TO.C,R2*
X122833333Y-112452380D02*
X122500000Y-111976190D01*
X122261904Y-112452380D02*
X122261904Y-111452380D01*
X122642857Y-111452380D01*
X122738095Y-111500000D01*
X122785714Y-111547619D01*
X122833333Y-111642857D01*
X122833333Y-111785714D01*
X122785714Y-111880952D01*
X122738095Y-111928571D01*
X122642857Y-111976190D01*
X122261904Y-111976190D01*
X123214285Y-111547619D02*
X123261904Y-111500000D01*
X123357142Y-111452380D01*
X123595238Y-111452380D01*
X123690476Y-111500000D01*
X123738095Y-111547619D01*
X123785714Y-111642857D01*
X123785714Y-111738095D01*
X123738095Y-111880952D01*
X123166666Y-112452380D01*
X123785714Y-112452380D01*
G04 #@! TO.C,R1*
X118833333Y-112452380D02*
X118500000Y-111976190D01*
X118261904Y-112452380D02*
X118261904Y-111452380D01*
X118642857Y-111452380D01*
X118738095Y-111500000D01*
X118785714Y-111547619D01*
X118833333Y-111642857D01*
X118833333Y-111785714D01*
X118785714Y-111880952D01*
X118738095Y-111928571D01*
X118642857Y-111976190D01*
X118261904Y-111976190D01*
X119785714Y-112452380D02*
X119214285Y-112452380D01*
X119500000Y-112452380D02*
X119500000Y-111452380D01*
X119404761Y-111595238D01*
X119309523Y-111690476D01*
X119214285Y-111738095D01*
G04 #@! TO.C,R20*
X119002380Y-128942857D02*
X118526190Y-129276190D01*
X119002380Y-129514285D02*
X118002380Y-129514285D01*
X118002380Y-129133333D01*
X118050000Y-129038095D01*
X118097619Y-128990476D01*
X118192857Y-128942857D01*
X118335714Y-128942857D01*
X118430952Y-128990476D01*
X118478571Y-129038095D01*
X118526190Y-129133333D01*
X118526190Y-129514285D01*
X118097619Y-128561904D02*
X118050000Y-128514285D01*
X118002380Y-128419047D01*
X118002380Y-128180952D01*
X118050000Y-128085714D01*
X118097619Y-128038095D01*
X118192857Y-127990476D01*
X118288095Y-127990476D01*
X118430952Y-128038095D01*
X119002380Y-128609523D01*
X119002380Y-127990476D01*
X118002380Y-127371428D02*
X118002380Y-127276190D01*
X118050000Y-127180952D01*
X118097619Y-127133333D01*
X118192857Y-127085714D01*
X118383333Y-127038095D01*
X118621428Y-127038095D01*
X118811904Y-127085714D01*
X118907142Y-127133333D01*
X118954761Y-127180952D01*
X119002380Y-127276190D01*
X119002380Y-127371428D01*
X118954761Y-127466666D01*
X118907142Y-127514285D01*
X118811904Y-127561904D01*
X118621428Y-127609523D01*
X118383333Y-127609523D01*
X118192857Y-127561904D01*
X118097619Y-127514285D01*
X118050000Y-127466666D01*
X118002380Y-127371428D01*
G04 #@! TO.C,R21*
X125857142Y-134452380D02*
X125523809Y-133976190D01*
X125285714Y-134452380D02*
X125285714Y-133452380D01*
X125666666Y-133452380D01*
X125761904Y-133500000D01*
X125809523Y-133547619D01*
X125857142Y-133642857D01*
X125857142Y-133785714D01*
X125809523Y-133880952D01*
X125761904Y-133928571D01*
X125666666Y-133976190D01*
X125285714Y-133976190D01*
X126238095Y-133547619D02*
X126285714Y-133500000D01*
X126380952Y-133452380D01*
X126619047Y-133452380D01*
X126714285Y-133500000D01*
X126761904Y-133547619D01*
X126809523Y-133642857D01*
X126809523Y-133738095D01*
X126761904Y-133880952D01*
X126190476Y-134452380D01*
X126809523Y-134452380D01*
X127761904Y-134452380D02*
X127190476Y-134452380D01*
X127476190Y-134452380D02*
X127476190Y-133452380D01*
X127380952Y-133595238D01*
X127285714Y-133690476D01*
X127190476Y-133738095D01*
G04 #@! TO.C,R22*
X125857142Y-131952380D02*
X125523809Y-131476190D01*
X125285714Y-131952380D02*
X125285714Y-130952380D01*
X125666666Y-130952380D01*
X125761904Y-131000000D01*
X125809523Y-131047619D01*
X125857142Y-131142857D01*
X125857142Y-131285714D01*
X125809523Y-131380952D01*
X125761904Y-131428571D01*
X125666666Y-131476190D01*
X125285714Y-131476190D01*
X126238095Y-131047619D02*
X126285714Y-131000000D01*
X126380952Y-130952380D01*
X126619047Y-130952380D01*
X126714285Y-131000000D01*
X126761904Y-131047619D01*
X126809523Y-131142857D01*
X126809523Y-131238095D01*
X126761904Y-131380952D01*
X126190476Y-131952380D01*
X126809523Y-131952380D01*
X127190476Y-131047619D02*
X127238095Y-131000000D01*
X127333333Y-130952380D01*
X127571428Y-130952380D01*
X127666666Y-131000000D01*
X127714285Y-131047619D01*
X127761904Y-131142857D01*
X127761904Y-131238095D01*
X127714285Y-131380952D01*
X127142857Y-131952380D01*
X127761904Y-131952380D01*
G04 #@! TO.C,R23*
X126857142Y-115452380D02*
X126523809Y-114976190D01*
X126285714Y-115452380D02*
X126285714Y-114452380D01*
X126666666Y-114452380D01*
X126761904Y-114500000D01*
X126809523Y-114547619D01*
X126857142Y-114642857D01*
X126857142Y-114785714D01*
X126809523Y-114880952D01*
X126761904Y-114928571D01*
X126666666Y-114976190D01*
X126285714Y-114976190D01*
X127238095Y-114547619D02*
X127285714Y-114500000D01*
X127380952Y-114452380D01*
X127619047Y-114452380D01*
X127714285Y-114500000D01*
X127761904Y-114547619D01*
X127809523Y-114642857D01*
X127809523Y-114738095D01*
X127761904Y-114880952D01*
X127190476Y-115452380D01*
X127809523Y-115452380D01*
X128142857Y-114452380D02*
X128761904Y-114452380D01*
X128428571Y-114833333D01*
X128571428Y-114833333D01*
X128666666Y-114880952D01*
X128714285Y-114928571D01*
X128761904Y-115023809D01*
X128761904Y-115261904D01*
X128714285Y-115357142D01*
X128666666Y-115404761D01*
X128571428Y-115452380D01*
X128285714Y-115452380D01*
X128190476Y-115404761D01*
X128142857Y-115357142D01*
G04 #@! TO.C,R19*
X124402380Y-128942857D02*
X123926190Y-129276190D01*
X124402380Y-129514285D02*
X123402380Y-129514285D01*
X123402380Y-129133333D01*
X123450000Y-129038095D01*
X123497619Y-128990476D01*
X123592857Y-128942857D01*
X123735714Y-128942857D01*
X123830952Y-128990476D01*
X123878571Y-129038095D01*
X123926190Y-129133333D01*
X123926190Y-129514285D01*
X124402380Y-127990476D02*
X124402380Y-128561904D01*
X124402380Y-128276190D02*
X123402380Y-128276190D01*
X123545238Y-128371428D01*
X123640476Y-128466666D01*
X123688095Y-128561904D01*
X124402380Y-127514285D02*
X124402380Y-127323809D01*
X124354761Y-127228571D01*
X124307142Y-127180952D01*
X124164285Y-127085714D01*
X123973809Y-127038095D01*
X123592857Y-127038095D01*
X123497619Y-127085714D01*
X123450000Y-127133333D01*
X123402380Y-127228571D01*
X123402380Y-127419047D01*
X123450000Y-127514285D01*
X123497619Y-127561904D01*
X123592857Y-127609523D01*
X123830952Y-127609523D01*
X123926190Y-127561904D01*
X123973809Y-127514285D01*
X124021428Y-127419047D01*
X124021428Y-127228571D01*
X123973809Y-127133333D01*
X123926190Y-127085714D01*
X123830952Y-127038095D01*
G04 #@! TO.C,R25*
X130991536Y-113952380D02*
X130658203Y-113476190D01*
X130420108Y-113952380D02*
X130420108Y-112952380D01*
X130801060Y-112952380D01*
X130896298Y-113000000D01*
X130943917Y-113047619D01*
X130991536Y-113142857D01*
X130991536Y-113285714D01*
X130943917Y-113380952D01*
X130896298Y-113428571D01*
X130801060Y-113476190D01*
X130420108Y-113476190D01*
X131372489Y-113047619D02*
X131420108Y-113000000D01*
X131515346Y-112952380D01*
X131753441Y-112952380D01*
X131848679Y-113000000D01*
X131896298Y-113047619D01*
X131943917Y-113142857D01*
X131943917Y-113238095D01*
X131896298Y-113380952D01*
X131324870Y-113952380D01*
X131943917Y-113952380D01*
X132848679Y-112952380D02*
X132372489Y-112952380D01*
X132324870Y-113428571D01*
X132372489Y-113380952D01*
X132467727Y-113333333D01*
X132705822Y-113333333D01*
X132801060Y-113380952D01*
X132848679Y-113428571D01*
X132896298Y-113523809D01*
X132896298Y-113761904D01*
X132848679Y-113857142D01*
X132801060Y-113904761D01*
X132705822Y-113952380D01*
X132467727Y-113952380D01*
X132372489Y-113904761D01*
X132324870Y-113857142D01*
G04 #@! TO.C,R27*
X130991536Y-108298685D02*
X130658203Y-107822495D01*
X130420108Y-108298685D02*
X130420108Y-107298685D01*
X130801060Y-107298685D01*
X130896298Y-107346305D01*
X130943917Y-107393924D01*
X130991536Y-107489162D01*
X130991536Y-107632019D01*
X130943917Y-107727257D01*
X130896298Y-107774876D01*
X130801060Y-107822495D01*
X130420108Y-107822495D01*
X131372489Y-107393924D02*
X131420108Y-107346305D01*
X131515346Y-107298685D01*
X131753441Y-107298685D01*
X131848679Y-107346305D01*
X131896298Y-107393924D01*
X131943917Y-107489162D01*
X131943917Y-107584400D01*
X131896298Y-107727257D01*
X131324870Y-108298685D01*
X131943917Y-108298685D01*
X132277251Y-107298685D02*
X132943917Y-107298685D01*
X132515346Y-108298685D01*
G04 #@! TO.C,R36*
X117452380Y-141142857D02*
X116976190Y-141476190D01*
X117452380Y-141714285D02*
X116452380Y-141714285D01*
X116452380Y-141333333D01*
X116500000Y-141238095D01*
X116547619Y-141190476D01*
X116642857Y-141142857D01*
X116785714Y-141142857D01*
X116880952Y-141190476D01*
X116928571Y-141238095D01*
X116976190Y-141333333D01*
X116976190Y-141714285D01*
X116452380Y-140809523D02*
X116452380Y-140190476D01*
X116833333Y-140523809D01*
X116833333Y-140380952D01*
X116880952Y-140285714D01*
X116928571Y-140238095D01*
X117023809Y-140190476D01*
X117261904Y-140190476D01*
X117357142Y-140238095D01*
X117404761Y-140285714D01*
X117452380Y-140380952D01*
X117452380Y-140666666D01*
X117404761Y-140761904D01*
X117357142Y-140809523D01*
X116452380Y-139333333D02*
X116452380Y-139523809D01*
X116500000Y-139619047D01*
X116547619Y-139666666D01*
X116690476Y-139761904D01*
X116880952Y-139809523D01*
X117261904Y-139809523D01*
X117357142Y-139761904D01*
X117404761Y-139714285D01*
X117452380Y-139619047D01*
X117452380Y-139428571D01*
X117404761Y-139333333D01*
X117357142Y-139285714D01*
X117261904Y-139238095D01*
X117023809Y-139238095D01*
X116928571Y-139285714D01*
X116880952Y-139333333D01*
X116833333Y-139428571D01*
X116833333Y-139619047D01*
X116880952Y-139714285D01*
X116928571Y-139761904D01*
X117023809Y-139809523D01*
G04 #@! TO.C,R26*
X138357142Y-114452380D02*
X138023809Y-113976190D01*
X137785714Y-114452380D02*
X137785714Y-113452380D01*
X138166666Y-113452380D01*
X138261904Y-113500000D01*
X138309523Y-113547619D01*
X138357142Y-113642857D01*
X138357142Y-113785714D01*
X138309523Y-113880952D01*
X138261904Y-113928571D01*
X138166666Y-113976190D01*
X137785714Y-113976190D01*
X138738095Y-113547619D02*
X138785714Y-113500000D01*
X138880952Y-113452380D01*
X139119047Y-113452380D01*
X139214285Y-113500000D01*
X139261904Y-113547619D01*
X139309523Y-113642857D01*
X139309523Y-113738095D01*
X139261904Y-113880952D01*
X138690476Y-114452380D01*
X139309523Y-114452380D01*
X140166666Y-113452380D02*
X139976190Y-113452380D01*
X139880952Y-113500000D01*
X139833333Y-113547619D01*
X139738095Y-113690476D01*
X139690476Y-113880952D01*
X139690476Y-114261904D01*
X139738095Y-114357142D01*
X139785714Y-114404761D01*
X139880952Y-114452380D01*
X140071428Y-114452380D01*
X140166666Y-114404761D01*
X140214285Y-114357142D01*
X140261904Y-114261904D01*
X140261904Y-114023809D01*
X140214285Y-113928571D01*
X140166666Y-113880952D01*
X140071428Y-113833333D01*
X139880952Y-113833333D01*
X139785714Y-113880952D01*
X139738095Y-113928571D01*
X139690476Y-114023809D01*
G04 #@! TO.C,R24*
X126357142Y-112452380D02*
X126023809Y-111976190D01*
X125785714Y-112452380D02*
X125785714Y-111452380D01*
X126166666Y-111452380D01*
X126261904Y-111500000D01*
X126309523Y-111547619D01*
X126357142Y-111642857D01*
X126357142Y-111785714D01*
X126309523Y-111880952D01*
X126261904Y-111928571D01*
X126166666Y-111976190D01*
X125785714Y-111976190D01*
X126738095Y-111547619D02*
X126785714Y-111500000D01*
X126880952Y-111452380D01*
X127119047Y-111452380D01*
X127214285Y-111500000D01*
X127261904Y-111547619D01*
X127309523Y-111642857D01*
X127309523Y-111738095D01*
X127261904Y-111880952D01*
X126690476Y-112452380D01*
X127309523Y-112452380D01*
X128166666Y-111785714D02*
X128166666Y-112452380D01*
X127928571Y-111404761D02*
X127690476Y-112119047D01*
X128309523Y-112119047D01*
G04 #@! TO.C,U3*
X130238095Y-118952380D02*
X130238095Y-119761904D01*
X130285714Y-119857142D01*
X130333333Y-119904761D01*
X130428571Y-119952380D01*
X130619047Y-119952380D01*
X130714285Y-119904761D01*
X130761904Y-119857142D01*
X130809523Y-119761904D01*
X130809523Y-118952380D01*
X131190476Y-118952380D02*
X131809523Y-118952380D01*
X131476190Y-119333333D01*
X131619047Y-119333333D01*
X131714285Y-119380952D01*
X131761904Y-119428571D01*
X131809523Y-119523809D01*
X131809523Y-119761904D01*
X131761904Y-119857142D01*
X131714285Y-119904761D01*
X131619047Y-119952380D01*
X131333333Y-119952380D01*
X131238095Y-119904761D01*
X131190476Y-119857142D01*
G04 #@! TD*
M02*
