M48
;DRILL file {KiCad 5.0.0-rc2-unknown-2cb65f9~65~ubuntu17.10.1} date Sun Jun  3 22:29:14 2018
;FORMAT={-:-/ absolute / inch / decimal}
FMAT,2
INCH,TZ
T1C0.0157
T2C0.0394
T3C0.0472
T4C0.0701
T5C0.1693
%
G90
G05
M72
T1
X4.2913Y-3.7598
X4.2913Y-4.5669
X4.311Y-3.2677
X4.311Y-3.5433
X4.311Y-4.2717
X4.311Y-4.8425
X4.3504Y-4.5472
X4.4291Y-4.0748
X4.4488Y-3.5433
X4.4488Y-4.9409
X4.4685Y-3.8583
X4.4882Y-5.1181
X4.5079Y-5.4331
X4.5079Y-4.9016
X4.5472Y-3.8583
X4.5472Y-4.0551
X4.5669Y-5.1181
X4.6102Y-5.4331
X4.7047Y-5.4331
X4.7441Y-3.2677
X4.7835Y-2.9724
X4.7835Y-3.0709
X4.8031Y-4.4488
X4.8031Y-4.5079
X4.8376Y-5.4399
X4.8425Y-5.0984
X4.8622Y-5.0394
X4.9016Y-3.7205
X4.9213Y-3.5827
X4.9404Y-3.0901
X4.9409Y-3.9173
X4.9429Y-3.1493
X4.9695Y-3.1852
X4.9695Y-4.6654
X5.0984Y-2.4606
X5.1575Y-2.4606
X5.1772Y-2.4016
X5.228Y-2.4016
X5.3346Y-3.0906
X5.3543Y-2.9331
X5.3543Y-3.9173
X5.3543Y-4.6654
X5.374Y-3.7205
X5.3937Y-4.5276
X5.3937Y-5.2756
X5.4866Y-2.7614
X5.4921Y-3.563
X5.4921Y-4.3898
X5.5063Y-5.1236
X5.6102Y-5.4724
X5.6299Y-3.9764
X5.6299Y-4.7244
X5.689Y-3.1693
T2
X4.0157Y-4.8031
X4.0157Y-4.9031
X4.0157Y-5.0031
X4.0157Y-5.1031
X4.0157Y-3.7008
X4.0157Y-3.8008
X4.0157Y-3.9008
X4.0157Y-4.0008
X4.7244Y-2.0472
X4.8244Y-2.0472
X4.4094Y-5.8268
X4.5094Y-5.8268
X4.6094Y-5.8268
X4.7094Y-5.8268
X4.8094Y-5.8268
X5.0575Y-2.0472
X5.1575Y-2.0472
X4.0157Y-3.189
X4.0157Y-3.289
X4.0157Y-3.389
X4.0157Y-3.489
X4.0157Y-4.2488
X4.0157Y-4.3488
X4.0157Y-4.4488
X4.0157Y-4.5488
X5.0394Y-5.8268
X5.1394Y-5.8268
X5.2394Y-5.8268
X5.3394Y-5.8268
X5.4394Y-5.8268
T3
X4.1339Y-2.674
X4.1339Y-2.874
X5.7087Y-4.2126
X5.7087Y-4.4126
X5.7087Y-2.6378
X5.7087Y-2.8378
X5.7087Y-3.4252
X5.7087Y-3.6252
X5.7087Y-5.
X5.7087Y-5.2
T4
X4.4913Y-2.3071
X4.4913Y-2.4409
X4.8819Y-2.3071
X4.8819Y-2.4409
T5
X4.1339Y-5.7087
X4.1339Y-2.1654
X5.7087Y-2.1654
X5.7087Y-5.7087
T0
M30
