G04 #@! TF.GenerationSoftware,KiCad,Pcbnew,5.0.0-rc2-unknown-2cb65f9~65~ubuntu17.10.1*
G04 #@! TF.CreationDate,2018-06-03T22:05:48-07:00*
G04 #@! TF.ProjectId,charge_controller,6368617267655F636F6E74726F6C6C65,rev?*
G04 #@! TF.SameCoordinates,Original*
G04 #@! TF.FileFunction,Legend,Top*
G04 #@! TF.FilePolarity,Positive*
%FSLAX46Y46*%
G04 Gerber Fmt 4.6, Leading zero omitted, Abs format (unit mm)*
G04 Created by KiCad (PCBNEW 5.0.0-rc2-unknown-2cb65f9~65~ubuntu17.10.1) date Sun Jun  3 22:05:48 2018*
%MOMM*%
%LPD*%
G01*
G04 APERTURE LIST*
%ADD10C,0.200000*%
%ADD11C,0.120000*%
%ADD12C,0.300000*%
%ADD13C,0.150000*%
G04 APERTURE END LIST*
D10*
X112657142Y-136090476D02*
X112704761Y-136138095D01*
X112752380Y-136280952D01*
X112752380Y-136376190D01*
X112704761Y-136519047D01*
X112609523Y-136614285D01*
X112514285Y-136661904D01*
X112323809Y-136709523D01*
X112180952Y-136709523D01*
X111990476Y-136661904D01*
X111895238Y-136614285D01*
X111800000Y-136519047D01*
X111752380Y-136376190D01*
X111752380Y-136280952D01*
X111800000Y-136138095D01*
X111847619Y-136090476D01*
X112752380Y-135661904D02*
X111752380Y-135661904D01*
X112228571Y-135661904D02*
X112228571Y-135090476D01*
X112752380Y-135090476D02*
X111752380Y-135090476D01*
X112466666Y-134661904D02*
X112466666Y-134185714D01*
X112752380Y-134757142D02*
X111752380Y-134423809D01*
X112752380Y-134090476D01*
X112752380Y-133185714D02*
X112276190Y-133519047D01*
X112752380Y-133757142D02*
X111752380Y-133757142D01*
X111752380Y-133376190D01*
X111800000Y-133280952D01*
X111847619Y-133233333D01*
X111942857Y-133185714D01*
X112085714Y-133185714D01*
X112180952Y-133233333D01*
X112228571Y-133280952D01*
X112276190Y-133376190D01*
X112276190Y-133757142D01*
X111800000Y-132233333D02*
X111752380Y-132328571D01*
X111752380Y-132471428D01*
X111800000Y-132614285D01*
X111895238Y-132709523D01*
X111990476Y-132757142D01*
X112180952Y-132804761D01*
X112323809Y-132804761D01*
X112514285Y-132757142D01*
X112609523Y-132709523D01*
X112704761Y-132614285D01*
X112752380Y-132471428D01*
X112752380Y-132376190D01*
X112704761Y-132233333D01*
X112657142Y-132185714D01*
X112323809Y-132185714D01*
X112323809Y-132376190D01*
X112228571Y-131757142D02*
X112228571Y-131423809D01*
X112752380Y-131280952D02*
X112752380Y-131757142D01*
X111752380Y-131757142D01*
X111752380Y-131280952D01*
X112657142Y-129519047D02*
X112704761Y-129566666D01*
X112752380Y-129709523D01*
X112752380Y-129804761D01*
X112704761Y-129947619D01*
X112609523Y-130042857D01*
X112514285Y-130090476D01*
X112323809Y-130138095D01*
X112180952Y-130138095D01*
X111990476Y-130090476D01*
X111895238Y-130042857D01*
X111800000Y-129947619D01*
X111752380Y-129804761D01*
X111752380Y-129709523D01*
X111800000Y-129566666D01*
X111847619Y-129519047D01*
X111752380Y-128900000D02*
X111752380Y-128709523D01*
X111800000Y-128614285D01*
X111895238Y-128519047D01*
X112085714Y-128471428D01*
X112419047Y-128471428D01*
X112609523Y-128519047D01*
X112704761Y-128614285D01*
X112752380Y-128709523D01*
X112752380Y-128900000D01*
X112704761Y-128995238D01*
X112609523Y-129090476D01*
X112419047Y-129138095D01*
X112085714Y-129138095D01*
X111895238Y-129090476D01*
X111800000Y-128995238D01*
X111752380Y-128900000D01*
X112752380Y-128042857D02*
X111752380Y-128042857D01*
X112752380Y-127471428D01*
X111752380Y-127471428D01*
X111752380Y-127138095D02*
X111752380Y-126566666D01*
X112752380Y-126852380D02*
X111752380Y-126852380D01*
X112752380Y-125661904D02*
X112276190Y-125995238D01*
X112752380Y-126233333D02*
X111752380Y-126233333D01*
X111752380Y-125852380D01*
X111800000Y-125757142D01*
X111847619Y-125709523D01*
X111942857Y-125661904D01*
X112085714Y-125661904D01*
X112180952Y-125709523D01*
X112228571Y-125757142D01*
X112276190Y-125852380D01*
X112276190Y-126233333D01*
X111752380Y-125042857D02*
X111752380Y-124852380D01*
X111800000Y-124757142D01*
X111895238Y-124661904D01*
X112085714Y-124614285D01*
X112419047Y-124614285D01*
X112609523Y-124661904D01*
X112704761Y-124757142D01*
X112752380Y-124852380D01*
X112752380Y-125042857D01*
X112704761Y-125138095D01*
X112609523Y-125233333D01*
X112419047Y-125280952D01*
X112085714Y-125280952D01*
X111895238Y-125233333D01*
X111800000Y-125138095D01*
X111752380Y-125042857D01*
X112752380Y-123709523D02*
X112752380Y-124185714D01*
X111752380Y-124185714D01*
X112752380Y-122900000D02*
X112752380Y-123376190D01*
X111752380Y-123376190D01*
X112228571Y-122566666D02*
X112228571Y-122233333D01*
X112752380Y-122090476D02*
X112752380Y-122566666D01*
X111752380Y-122566666D01*
X111752380Y-122090476D01*
X112752380Y-121090476D02*
X112276190Y-121423809D01*
X112752380Y-121661904D02*
X111752380Y-121661904D01*
X111752380Y-121280952D01*
X111800000Y-121185714D01*
X111847619Y-121138095D01*
X111942857Y-121090476D01*
X112085714Y-121090476D01*
X112180952Y-121138095D01*
X112228571Y-121185714D01*
X112276190Y-121280952D01*
X112276190Y-121661904D01*
X112752380Y-119376190D02*
X112752380Y-119947619D01*
X112752380Y-119661904D02*
X111752380Y-119661904D01*
X111895238Y-119757142D01*
X111990476Y-119852380D01*
X112038095Y-119947619D01*
X112657142Y-118947619D02*
X112704761Y-118900000D01*
X112752380Y-118947619D01*
X112704761Y-118995238D01*
X112657142Y-118947619D01*
X112752380Y-118947619D01*
X111752380Y-118280952D02*
X111752380Y-118185714D01*
X111800000Y-118090476D01*
X111847619Y-118042857D01*
X111942857Y-117995238D01*
X112133333Y-117947619D01*
X112371428Y-117947619D01*
X112561904Y-117995238D01*
X112657142Y-118042857D01*
X112704761Y-118090476D01*
X112752380Y-118185714D01*
X112752380Y-118280952D01*
X112704761Y-118376190D01*
X112657142Y-118423809D01*
X112561904Y-118471428D01*
X112371428Y-118519047D01*
X112133333Y-118519047D01*
X111942857Y-118471428D01*
X111847619Y-118423809D01*
X111800000Y-118376190D01*
X111752380Y-118280952D01*
X111752380Y-117661904D02*
X112752380Y-117328571D01*
X111752380Y-116995238D01*
X114452380Y-128995238D02*
X114452380Y-129566666D01*
X114452380Y-129280952D02*
X113452380Y-129280952D01*
X113595238Y-129376190D01*
X113690476Y-129471428D01*
X113738095Y-129566666D01*
X113880952Y-128423809D02*
X113833333Y-128519047D01*
X113785714Y-128566666D01*
X113690476Y-128614285D01*
X113642857Y-128614285D01*
X113547619Y-128566666D01*
X113500000Y-128519047D01*
X113452380Y-128423809D01*
X113452380Y-128233333D01*
X113500000Y-128138095D01*
X113547619Y-128090476D01*
X113642857Y-128042857D01*
X113690476Y-128042857D01*
X113785714Y-128090476D01*
X113833333Y-128138095D01*
X113880952Y-128233333D01*
X113880952Y-128423809D01*
X113928571Y-128519047D01*
X113976190Y-128566666D01*
X114071428Y-128614285D01*
X114261904Y-128614285D01*
X114357142Y-128566666D01*
X114404761Y-128519047D01*
X114452380Y-128423809D01*
X114452380Y-128233333D01*
X114404761Y-128138095D01*
X114357142Y-128090476D01*
X114261904Y-128042857D01*
X114071428Y-128042857D01*
X113976190Y-128090476D01*
X113928571Y-128138095D01*
X113880952Y-128233333D01*
X113452380Y-127423809D02*
X113452380Y-127328571D01*
X113500000Y-127233333D01*
X113547619Y-127185714D01*
X113642857Y-127138095D01*
X113833333Y-127090476D01*
X114071428Y-127090476D01*
X114261904Y-127138095D01*
X114357142Y-127185714D01*
X114404761Y-127233333D01*
X114452380Y-127328571D01*
X114452380Y-127423809D01*
X114404761Y-127519047D01*
X114357142Y-127566666D01*
X114261904Y-127614285D01*
X114071428Y-127661904D01*
X113833333Y-127661904D01*
X113642857Y-127614285D01*
X113547619Y-127566666D01*
X113500000Y-127519047D01*
X113452380Y-127423809D01*
X113452380Y-126185714D02*
X113452380Y-126661904D01*
X113928571Y-126709523D01*
X113880952Y-126661904D01*
X113833333Y-126566666D01*
X113833333Y-126328571D01*
X113880952Y-126233333D01*
X113928571Y-126185714D01*
X114023809Y-126138095D01*
X114261904Y-126138095D01*
X114357142Y-126185714D01*
X114404761Y-126233333D01*
X114452380Y-126328571D01*
X114452380Y-126566666D01*
X114404761Y-126661904D01*
X114357142Y-126709523D01*
X113452380Y-125804761D02*
X113452380Y-125185714D01*
X113833333Y-125519047D01*
X113833333Y-125376190D01*
X113880952Y-125280952D01*
X113928571Y-125233333D01*
X114023809Y-125185714D01*
X114261904Y-125185714D01*
X114357142Y-125233333D01*
X114404761Y-125280952D01*
X114452380Y-125376190D01*
X114452380Y-125661904D01*
X114404761Y-125757142D01*
X114357142Y-125804761D01*
X113452380Y-124566666D02*
X113452380Y-124471428D01*
X113500000Y-124376190D01*
X113547619Y-124328571D01*
X113642857Y-124280952D01*
X113833333Y-124233333D01*
X114071428Y-124233333D01*
X114261904Y-124280952D01*
X114357142Y-124328571D01*
X114404761Y-124376190D01*
X114452380Y-124471428D01*
X114452380Y-124566666D01*
X114404761Y-124661904D01*
X114357142Y-124709523D01*
X114261904Y-124757142D01*
X114071428Y-124804761D01*
X113833333Y-124804761D01*
X113642857Y-124757142D01*
X113547619Y-124709523D01*
X113500000Y-124661904D01*
X113452380Y-124566666D01*
X115628571Y-127852380D02*
X115628571Y-128185714D01*
X116152380Y-128185714D02*
X115152380Y-128185714D01*
X115152380Y-127709523D01*
X116152380Y-127328571D02*
X115152380Y-127328571D01*
X115152380Y-126995238D02*
X115152380Y-126423809D01*
X116152380Y-126709523D02*
X115152380Y-126709523D01*
X115152380Y-126185714D02*
X115152380Y-125519047D01*
X116152380Y-126185714D01*
X116152380Y-125519047D01*
D11*
X190950000Y-137780952D02*
X190926190Y-137828571D01*
X190926190Y-137900000D01*
X190950000Y-137971428D01*
X190997619Y-138019047D01*
X191045238Y-138042857D01*
X191140476Y-138066666D01*
X191211904Y-138066666D01*
X191307142Y-138042857D01*
X191354761Y-138019047D01*
X191402380Y-137971428D01*
X191426190Y-137900000D01*
X191426190Y-137852380D01*
X191402380Y-137780952D01*
X191378571Y-137757142D01*
X191211904Y-137757142D01*
X191211904Y-137852380D01*
X191426190Y-137542857D02*
X190926190Y-137542857D01*
X191426190Y-137257142D01*
X190926190Y-137257142D01*
X191426190Y-137019047D02*
X190926190Y-137019047D01*
X190926190Y-136900000D01*
X190950000Y-136828571D01*
X190997619Y-136780952D01*
X191045238Y-136757142D01*
X191140476Y-136733333D01*
X191211904Y-136733333D01*
X191307142Y-136757142D01*
X191354761Y-136780952D01*
X191402380Y-136828571D01*
X191426190Y-136900000D01*
X191426190Y-137019047D01*
X191264285Y-133571428D02*
X191288095Y-133500000D01*
X191311904Y-133476190D01*
X191359523Y-133452380D01*
X191430952Y-133452380D01*
X191478571Y-133476190D01*
X191502380Y-133500000D01*
X191526190Y-133547619D01*
X191526190Y-133738095D01*
X191026190Y-133738095D01*
X191026190Y-133571428D01*
X191050000Y-133523809D01*
X191073809Y-133500000D01*
X191121428Y-133476190D01*
X191169047Y-133476190D01*
X191216666Y-133500000D01*
X191240476Y-133523809D01*
X191264285Y-133571428D01*
X191264285Y-133738095D01*
X191026190Y-133142857D02*
X191026190Y-133047619D01*
X191050000Y-133000000D01*
X191097619Y-132952380D01*
X191192857Y-132928571D01*
X191359523Y-132928571D01*
X191454761Y-132952380D01*
X191502380Y-133000000D01*
X191526190Y-133047619D01*
X191526190Y-133142857D01*
X191502380Y-133190476D01*
X191454761Y-133238095D01*
X191359523Y-133261904D01*
X191192857Y-133261904D01*
X191097619Y-133238095D01*
X191050000Y-133190476D01*
X191026190Y-133142857D01*
X191026190Y-132619047D02*
X191026190Y-132523809D01*
X191050000Y-132476190D01*
X191097619Y-132428571D01*
X191192857Y-132404761D01*
X191359523Y-132404761D01*
X191454761Y-132428571D01*
X191502380Y-132476190D01*
X191526190Y-132523809D01*
X191526190Y-132619047D01*
X191502380Y-132666666D01*
X191454761Y-132714285D01*
X191359523Y-132738095D01*
X191192857Y-132738095D01*
X191097619Y-132714285D01*
X191050000Y-132666666D01*
X191026190Y-132619047D01*
X191502380Y-132214285D02*
X191526190Y-132142857D01*
X191526190Y-132023809D01*
X191502380Y-131976190D01*
X191478571Y-131952380D01*
X191430952Y-131928571D01*
X191383333Y-131928571D01*
X191335714Y-131952380D01*
X191311904Y-131976190D01*
X191288095Y-132023809D01*
X191264285Y-132119047D01*
X191240476Y-132166666D01*
X191216666Y-132190476D01*
X191169047Y-132214285D01*
X191121428Y-132214285D01*
X191073809Y-132190476D01*
X191050000Y-132166666D01*
X191026190Y-132119047D01*
X191026190Y-132000000D01*
X191050000Y-131928571D01*
X191026190Y-131785714D02*
X191026190Y-131500000D01*
X191526190Y-131642857D02*
X191026190Y-131642857D01*
X191573809Y-131452380D02*
X191573809Y-131071428D01*
X191264285Y-130785714D02*
X191264285Y-130952380D01*
X191526190Y-130952380D02*
X191026190Y-130952380D01*
X191026190Y-130714285D01*
X191264285Y-130357142D02*
X191288095Y-130285714D01*
X191311904Y-130261904D01*
X191359523Y-130238095D01*
X191430952Y-130238095D01*
X191478571Y-130261904D01*
X191502380Y-130285714D01*
X191526190Y-130333333D01*
X191526190Y-130523809D01*
X191026190Y-130523809D01*
X191026190Y-130357142D01*
X191050000Y-130309523D01*
X191073809Y-130285714D01*
X191121428Y-130261904D01*
X191169047Y-130261904D01*
X191216666Y-130285714D01*
X191240476Y-130309523D01*
X191264285Y-130357142D01*
X191264285Y-130523809D01*
X191478571Y-128183333D02*
X191502380Y-128207142D01*
X191526190Y-128278571D01*
X191526190Y-128326190D01*
X191502380Y-128397619D01*
X191454761Y-128445238D01*
X191407142Y-128469047D01*
X191311904Y-128492857D01*
X191240476Y-128492857D01*
X191145238Y-128469047D01*
X191097619Y-128445238D01*
X191050000Y-128397619D01*
X191026190Y-128326190D01*
X191026190Y-128278571D01*
X191050000Y-128207142D01*
X191073809Y-128183333D01*
X191526190Y-127969047D02*
X191026190Y-127969047D01*
X191264285Y-127969047D02*
X191264285Y-127683333D01*
X191526190Y-127683333D02*
X191026190Y-127683333D01*
X191526190Y-127159523D02*
X191288095Y-127326190D01*
X191526190Y-127445238D02*
X191026190Y-127445238D01*
X191026190Y-127254761D01*
X191050000Y-127207142D01*
X191073809Y-127183333D01*
X191121428Y-127159523D01*
X191192857Y-127159523D01*
X191240476Y-127183333D01*
X191264285Y-127207142D01*
X191288095Y-127254761D01*
X191288095Y-127445238D01*
X191050000Y-126683333D02*
X191026190Y-126730952D01*
X191026190Y-126802380D01*
X191050000Y-126873809D01*
X191097619Y-126921428D01*
X191145238Y-126945238D01*
X191240476Y-126969047D01*
X191311904Y-126969047D01*
X191407142Y-126945238D01*
X191454761Y-126921428D01*
X191502380Y-126873809D01*
X191526190Y-126802380D01*
X191526190Y-126754761D01*
X191502380Y-126683333D01*
X191478571Y-126659523D01*
X191311904Y-126659523D01*
X191311904Y-126754761D01*
X191573809Y-126564285D02*
X191573809Y-126183333D01*
X191526190Y-126064285D02*
X191026190Y-126064285D01*
X191526190Y-125826190D02*
X191026190Y-125826190D01*
X191526190Y-125540476D01*
X191026190Y-125540476D01*
X191573809Y-125421428D02*
X191573809Y-125040476D01*
X191026190Y-124992857D02*
X191526190Y-124826190D01*
X191026190Y-124659523D01*
D10*
X193961904Y-123528571D02*
X194104761Y-123576190D01*
X194152380Y-123623809D01*
X194200000Y-123719047D01*
X194200000Y-123861904D01*
X194152380Y-123957142D01*
X194104761Y-124004761D01*
X194009523Y-124052380D01*
X193628571Y-124052380D01*
X193628571Y-123052380D01*
X193961904Y-123052380D01*
X194057142Y-123100000D01*
X194104761Y-123147619D01*
X194152380Y-123242857D01*
X194152380Y-123338095D01*
X194104761Y-123433333D01*
X194057142Y-123480952D01*
X193961904Y-123528571D01*
X193628571Y-123528571D01*
X194580952Y-123766666D02*
X195057142Y-123766666D01*
X194485714Y-124052380D02*
X194819047Y-123052380D01*
X195152380Y-124052380D01*
X195342857Y-123052380D02*
X195914285Y-123052380D01*
X195628571Y-124052380D02*
X195628571Y-123052380D01*
X196104761Y-123052380D02*
X196676190Y-123052380D01*
X196390476Y-124052380D02*
X196390476Y-123052380D01*
X197009523Y-123671428D02*
X197771428Y-123671428D01*
X193861904Y-111328571D02*
X194004761Y-111376190D01*
X194052380Y-111423809D01*
X194100000Y-111519047D01*
X194100000Y-111661904D01*
X194052380Y-111757142D01*
X194004761Y-111804761D01*
X193909523Y-111852380D01*
X193528571Y-111852380D01*
X193528571Y-110852380D01*
X193861904Y-110852380D01*
X193957142Y-110900000D01*
X194004761Y-110947619D01*
X194052380Y-111042857D01*
X194052380Y-111138095D01*
X194004761Y-111233333D01*
X193957142Y-111280952D01*
X193861904Y-111328571D01*
X193528571Y-111328571D01*
X194480952Y-111566666D02*
X194957142Y-111566666D01*
X194385714Y-111852380D02*
X194719047Y-110852380D01*
X195052380Y-111852380D01*
X195242857Y-110852380D02*
X195814285Y-110852380D01*
X195528571Y-111852380D02*
X195528571Y-110852380D01*
X196004761Y-110852380D02*
X196576190Y-110852380D01*
X196290476Y-111852380D02*
X196290476Y-110852380D01*
X196909523Y-111471428D02*
X197671428Y-111471428D01*
X197290476Y-111852380D02*
X197290476Y-111090476D01*
D11*
X113178571Y-144785714D02*
X113202380Y-144809523D01*
X113226190Y-144880952D01*
X113226190Y-144928571D01*
X113202380Y-145000000D01*
X113154761Y-145047619D01*
X113107142Y-145071428D01*
X113011904Y-145095238D01*
X112940476Y-145095238D01*
X112845238Y-145071428D01*
X112797619Y-145047619D01*
X112750000Y-145000000D01*
X112726190Y-144928571D01*
X112726190Y-144880952D01*
X112750000Y-144809523D01*
X112773809Y-144785714D01*
X113226190Y-144571428D02*
X112726190Y-144571428D01*
X112964285Y-144571428D02*
X112964285Y-144285714D01*
X113226190Y-144285714D02*
X112726190Y-144285714D01*
X113226190Y-143761904D02*
X112988095Y-143928571D01*
X113226190Y-144047619D02*
X112726190Y-144047619D01*
X112726190Y-143857142D01*
X112750000Y-143809523D01*
X112773809Y-143785714D01*
X112821428Y-143761904D01*
X112892857Y-143761904D01*
X112940476Y-143785714D01*
X112964285Y-143809523D01*
X112988095Y-143857142D01*
X112988095Y-144047619D01*
X112750000Y-143285714D02*
X112726190Y-143333333D01*
X112726190Y-143404761D01*
X112750000Y-143476190D01*
X112797619Y-143523809D01*
X112845238Y-143547619D01*
X112940476Y-143571428D01*
X113011904Y-143571428D01*
X113107142Y-143547619D01*
X113154761Y-143523809D01*
X113202380Y-143476190D01*
X113226190Y-143404761D01*
X113226190Y-143357142D01*
X113202380Y-143285714D01*
X113178571Y-143261904D01*
X113011904Y-143261904D01*
X113011904Y-143357142D01*
X113273809Y-143166666D02*
X113273809Y-142785714D01*
X112964285Y-142666666D02*
X112964285Y-142500000D01*
X113226190Y-142428571D02*
X113226190Y-142666666D01*
X112726190Y-142666666D01*
X112726190Y-142428571D01*
X113226190Y-142214285D02*
X112726190Y-142214285D01*
X113226190Y-141928571D01*
X112726190Y-141928571D01*
X115726190Y-145138095D02*
X115726190Y-144852380D01*
X116226190Y-144995238D02*
X115726190Y-144995238D01*
X116226190Y-144400000D02*
X115988095Y-144566666D01*
X116226190Y-144685714D02*
X115726190Y-144685714D01*
X115726190Y-144495238D01*
X115750000Y-144447619D01*
X115773809Y-144423809D01*
X115821428Y-144400000D01*
X115892857Y-144400000D01*
X115940476Y-144423809D01*
X115964285Y-144447619D01*
X115988095Y-144495238D01*
X115988095Y-144685714D01*
X116226190Y-144185714D02*
X115726190Y-144185714D01*
X116178571Y-143661904D02*
X116202380Y-143685714D01*
X116226190Y-143757142D01*
X116226190Y-143804761D01*
X116202380Y-143876190D01*
X116154761Y-143923809D01*
X116107142Y-143947619D01*
X116011904Y-143971428D01*
X115940476Y-143971428D01*
X115845238Y-143947619D01*
X115797619Y-143923809D01*
X115750000Y-143876190D01*
X115726190Y-143804761D01*
X115726190Y-143757142D01*
X115750000Y-143685714D01*
X115773809Y-143661904D01*
X116226190Y-143447619D02*
X115726190Y-143447619D01*
X116226190Y-143161904D02*
X115940476Y-143376190D01*
X115726190Y-143161904D02*
X116011904Y-143447619D01*
X116226190Y-142709523D02*
X116226190Y-142947619D01*
X115726190Y-142947619D01*
X115964285Y-142542857D02*
X115964285Y-142376190D01*
X116226190Y-142304761D02*
X116226190Y-142542857D01*
X115726190Y-142542857D01*
X115726190Y-142304761D01*
X116273809Y-142209523D02*
X116273809Y-141828571D01*
X116226190Y-141709523D02*
X115726190Y-141709523D01*
X115726190Y-141590476D01*
X115750000Y-141519047D01*
X115797619Y-141471428D01*
X115845238Y-141447619D01*
X115940476Y-141423809D01*
X116011904Y-141423809D01*
X116107142Y-141447619D01*
X116154761Y-141471428D01*
X116202380Y-141519047D01*
X116226190Y-141590476D01*
X116226190Y-141709523D01*
X116226190Y-141209523D02*
X115726190Y-141209523D01*
X116202380Y-140995238D02*
X116226190Y-140923809D01*
X116226190Y-140804761D01*
X116202380Y-140757142D01*
X116178571Y-140733333D01*
X116130952Y-140709523D01*
X116083333Y-140709523D01*
X116035714Y-140733333D01*
X116011904Y-140757142D01*
X115988095Y-140804761D01*
X115964285Y-140900000D01*
X115940476Y-140947619D01*
X115916666Y-140971428D01*
X115869047Y-140995238D01*
X115821428Y-140995238D01*
X115773809Y-140971428D01*
X115750000Y-140947619D01*
X115726190Y-140900000D01*
X115726190Y-140780952D01*
X115750000Y-140709523D01*
X119326190Y-145223809D02*
X118826190Y-145223809D01*
X119183333Y-145057142D01*
X118826190Y-144890476D01*
X119326190Y-144890476D01*
X119278571Y-144366666D02*
X119302380Y-144390476D01*
X119326190Y-144461904D01*
X119326190Y-144509523D01*
X119302380Y-144580952D01*
X119254761Y-144628571D01*
X119207142Y-144652380D01*
X119111904Y-144676190D01*
X119040476Y-144676190D01*
X118945238Y-144652380D01*
X118897619Y-144628571D01*
X118850000Y-144580952D01*
X118826190Y-144509523D01*
X118826190Y-144461904D01*
X118850000Y-144390476D01*
X118873809Y-144366666D01*
X118826190Y-144152380D02*
X119230952Y-144152380D01*
X119278571Y-144128571D01*
X119302380Y-144104761D01*
X119326190Y-144057142D01*
X119326190Y-143961904D01*
X119302380Y-143914285D01*
X119278571Y-143890476D01*
X119230952Y-143866666D01*
X118826190Y-143866666D01*
X119373809Y-143747619D02*
X119373809Y-143366666D01*
X119302380Y-143271428D02*
X119326190Y-143200000D01*
X119326190Y-143080952D01*
X119302380Y-143033333D01*
X119278571Y-143009523D01*
X119230952Y-142985714D01*
X119183333Y-142985714D01*
X119135714Y-143009523D01*
X119111904Y-143033333D01*
X119088095Y-143080952D01*
X119064285Y-143176190D01*
X119040476Y-143223809D01*
X119016666Y-143247619D01*
X118969047Y-143271428D01*
X118921428Y-143271428D01*
X118873809Y-143247619D01*
X118850000Y-143223809D01*
X118826190Y-143176190D01*
X118826190Y-143057142D01*
X118850000Y-142985714D01*
X119064285Y-142771428D02*
X119064285Y-142604761D01*
X119326190Y-142533333D02*
X119326190Y-142771428D01*
X118826190Y-142771428D01*
X118826190Y-142533333D01*
X118826190Y-142390476D02*
X118826190Y-142104761D01*
X119326190Y-142247619D02*
X118826190Y-142247619D01*
X122050000Y-144780952D02*
X122026190Y-144828571D01*
X122026190Y-144900000D01*
X122050000Y-144971428D01*
X122097619Y-145019047D01*
X122145238Y-145042857D01*
X122240476Y-145066666D01*
X122311904Y-145066666D01*
X122407142Y-145042857D01*
X122454761Y-145019047D01*
X122502380Y-144971428D01*
X122526190Y-144900000D01*
X122526190Y-144852380D01*
X122502380Y-144780952D01*
X122478571Y-144757142D01*
X122311904Y-144757142D01*
X122311904Y-144852380D01*
X122526190Y-144542857D02*
X122026190Y-144542857D01*
X122526190Y-144257142D01*
X122026190Y-144257142D01*
X122526190Y-144019047D02*
X122026190Y-144019047D01*
X122026190Y-143900000D01*
X122050000Y-143828571D01*
X122097619Y-143780952D01*
X122145238Y-143757142D01*
X122240476Y-143733333D01*
X122311904Y-143733333D01*
X122407142Y-143757142D01*
X122454761Y-143780952D01*
X122502380Y-143828571D01*
X122526190Y-143900000D01*
X122526190Y-144019047D01*
D10*
X104238095Y-123300000D02*
X104142857Y-123252380D01*
X104000000Y-123252380D01*
X103857142Y-123300000D01*
X103761904Y-123395238D01*
X103714285Y-123490476D01*
X103666666Y-123680952D01*
X103666666Y-123823809D01*
X103714285Y-124014285D01*
X103761904Y-124109523D01*
X103857142Y-124204761D01*
X104000000Y-124252380D01*
X104095238Y-124252380D01*
X104238095Y-124204761D01*
X104285714Y-124157142D01*
X104285714Y-123823809D01*
X104095238Y-123823809D01*
X104714285Y-124252380D02*
X104714285Y-123252380D01*
X105285714Y-124252380D01*
X105285714Y-123252380D01*
X105761904Y-124252380D02*
X105761904Y-123252380D01*
X106000000Y-123252380D01*
X106142857Y-123300000D01*
X106238095Y-123395238D01*
X106285714Y-123490476D01*
X106333333Y-123680952D01*
X106333333Y-123823809D01*
X106285714Y-124014285D01*
X106238095Y-124109523D01*
X106142857Y-124204761D01*
X106000000Y-124252380D01*
X105761904Y-124252380D01*
X103804761Y-110652380D02*
X104138095Y-111652380D01*
X104471428Y-110652380D01*
X104804761Y-111652380D02*
X104804761Y-110652380D01*
X105280952Y-111652380D02*
X105280952Y-110652380D01*
X105852380Y-111652380D01*
X105852380Y-110652380D01*
X170071428Y-115428571D02*
X170214285Y-115476190D01*
X170261904Y-115523809D01*
X170309523Y-115619047D01*
X170309523Y-115761904D01*
X170261904Y-115857142D01*
X170214285Y-115904761D01*
X170119047Y-115952380D01*
X169738095Y-115952380D01*
X169738095Y-114952380D01*
X170071428Y-114952380D01*
X170166666Y-115000000D01*
X170214285Y-115047619D01*
X170261904Y-115142857D01*
X170261904Y-115238095D01*
X170214285Y-115333333D01*
X170166666Y-115380952D01*
X170071428Y-115428571D01*
X169738095Y-115428571D01*
X170690476Y-115666666D02*
X171166666Y-115666666D01*
X170595238Y-115952380D02*
X170928571Y-114952380D01*
X171261904Y-115952380D01*
X171452380Y-114952380D02*
X172023809Y-114952380D01*
X171738095Y-115952380D02*
X171738095Y-114952380D01*
X172214285Y-114952380D02*
X172785714Y-114952380D01*
X172500000Y-115952380D02*
X172500000Y-114952380D01*
X172880952Y-116047619D02*
X173642857Y-116047619D01*
X173738095Y-114952380D02*
X174071428Y-115952380D01*
X174404761Y-114952380D01*
X160952380Y-127714285D02*
X161952380Y-127380952D01*
X160952380Y-127047619D01*
X161952380Y-126142857D02*
X161476190Y-126476190D01*
X161952380Y-126714285D02*
X160952380Y-126714285D01*
X160952380Y-126333333D01*
X161000000Y-126238095D01*
X161047619Y-126190476D01*
X161142857Y-126142857D01*
X161285714Y-126142857D01*
X161380952Y-126190476D01*
X161428571Y-126238095D01*
X161476190Y-126333333D01*
X161476190Y-126714285D01*
X161428571Y-125714285D02*
X161428571Y-125380952D01*
X161952380Y-125238095D02*
X161952380Y-125714285D01*
X160952380Y-125714285D01*
X160952380Y-125238095D01*
X161428571Y-124476190D02*
X161428571Y-124809523D01*
X161952380Y-124809523D02*
X160952380Y-124809523D01*
X160952380Y-124333333D01*
D12*
X140000000Y-137678571D02*
X141000000Y-137678571D01*
X140000000Y-139178571D01*
X141000000Y-139178571D01*
X140500000Y-135964285D02*
X140500000Y-136678571D01*
X140000000Y-135178571D02*
X140500000Y-135964285D01*
X141000000Y-135178571D01*
X140000000Y-132678571D02*
X141000000Y-134178571D01*
X141000000Y-132678571D02*
X140000000Y-134178571D01*
X140964285Y-128035714D02*
X140892857Y-128107142D01*
X140678571Y-128178571D01*
X140535714Y-128178571D01*
X140321428Y-128107142D01*
X140178571Y-127964285D01*
X140107142Y-127821428D01*
X140035714Y-127535714D01*
X140035714Y-127321428D01*
X140107142Y-127035714D01*
X140178571Y-126892857D01*
X140321428Y-126750000D01*
X140535714Y-126678571D01*
X140678571Y-126678571D01*
X140892857Y-126750000D01*
X140964285Y-126821428D01*
X140607142Y-124892857D02*
X140821428Y-124964285D01*
X140892857Y-125035714D01*
X140964285Y-125178571D01*
X140964285Y-125392857D01*
X140892857Y-125535714D01*
X140821428Y-125607142D01*
X140678571Y-125678571D01*
X140107142Y-125678571D01*
X140107142Y-124178571D01*
X140607142Y-124178571D01*
X140750000Y-124250000D01*
X140821428Y-124321428D01*
X140892857Y-124464285D01*
X140892857Y-124607142D01*
X140821428Y-124750000D01*
X140750000Y-124821428D01*
X140607142Y-124892857D01*
X140107142Y-124892857D01*
X140142857Y-122750000D02*
X140857142Y-122750000D01*
X140000000Y-123178571D02*
X140500000Y-121678571D01*
X141000000Y-123178571D01*
D11*
G04 #@! TO.C,J6*
X143400000Y-135240000D02*
X143400000Y-134220000D01*
X148600000Y-135240000D02*
X148600000Y-134220000D01*
X143400000Y-137780000D02*
X143400000Y-136760000D01*
X148600000Y-137780000D02*
X148600000Y-136760000D01*
X143400000Y-132700000D02*
X143400000Y-132130000D01*
X148600000Y-132700000D02*
X148600000Y-132130000D01*
X143400000Y-139870000D02*
X143400000Y-139300000D01*
X148600000Y-139870000D02*
X148600000Y-139300000D01*
X150040000Y-139300000D02*
X148600000Y-139300000D01*
X148600000Y-132130000D02*
X143400000Y-132130000D01*
X148600000Y-139870000D02*
X143400000Y-139870000D01*
G04 #@! TO.C,J3*
X143400000Y-121130000D02*
X148600000Y-121130000D01*
X143400000Y-128870000D02*
X148600000Y-128870000D01*
X141960000Y-121700000D02*
X143400000Y-121700000D01*
X143400000Y-121130000D02*
X143400000Y-121700000D01*
X148600000Y-121130000D02*
X148600000Y-121700000D01*
X143400000Y-128300000D02*
X143400000Y-128870000D01*
X148600000Y-128300000D02*
X148600000Y-128870000D01*
X143400000Y-123220000D02*
X143400000Y-124240000D01*
X148600000Y-123220000D02*
X148600000Y-124240000D01*
X143400000Y-125760000D02*
X143400000Y-126780000D01*
X148600000Y-125760000D02*
X148600000Y-126780000D01*
G04 #@! TO.C,J5*
X192850155Y-127749647D02*
G75*
G03X192850000Y-126250000I-1700155J749647D01*
G01*
X192850155Y-132829647D02*
G75*
G03X192850000Y-131330000I-1700155J749647D01*
G01*
X192850155Y-137909647D02*
G75*
G03X192850000Y-136410000I-1700155J749647D01*
G01*
X199430000Y-124380000D02*
X192020000Y-124380000D01*
X192020000Y-124380000D02*
X192020000Y-139780000D01*
X192020000Y-139780000D02*
X199430000Y-139780000D01*
X199430000Y-139780000D02*
X199430000Y-124380000D01*
X192850000Y-126250000D02*
X192850000Y-125500000D01*
X192850000Y-125500000D02*
X197150000Y-125500000D01*
X197150000Y-125500000D02*
X197150000Y-126250000D01*
X197150000Y-126250000D02*
X197500000Y-126250000D01*
X197500000Y-126250000D02*
X197500000Y-125750000D01*
X197500000Y-125750000D02*
X198500000Y-125500000D01*
X198500000Y-125500000D02*
X198500000Y-128500000D01*
X198500000Y-128500000D02*
X197500000Y-128250000D01*
X197500000Y-128250000D02*
X197500000Y-127750000D01*
X197500000Y-127750000D02*
X197150000Y-127750000D01*
X197150000Y-127750000D02*
X197150000Y-128500000D01*
X197150000Y-128500000D02*
X192850000Y-128500000D01*
X192850000Y-128500000D02*
X192850000Y-127750000D01*
X192850000Y-131330000D02*
X192850000Y-130580000D01*
X192850000Y-130580000D02*
X197150000Y-130580000D01*
X197150000Y-130580000D02*
X197150000Y-131330000D01*
X197150000Y-131330000D02*
X197500000Y-131330000D01*
X197500000Y-131330000D02*
X197500000Y-130830000D01*
X197500000Y-130830000D02*
X198500000Y-130580000D01*
X198500000Y-130580000D02*
X198500000Y-133580000D01*
X198500000Y-133580000D02*
X197500000Y-133330000D01*
X197500000Y-133330000D02*
X197500000Y-132830000D01*
X197500000Y-132830000D02*
X197150000Y-132830000D01*
X197150000Y-132830000D02*
X197150000Y-133580000D01*
X197150000Y-133580000D02*
X192850000Y-133580000D01*
X192850000Y-133580000D02*
X192850000Y-132830000D01*
X192850000Y-136410000D02*
X192850000Y-135660000D01*
X192850000Y-135660000D02*
X197150000Y-135660000D01*
X197150000Y-135660000D02*
X197150000Y-136410000D01*
X197150000Y-136410000D02*
X197500000Y-136410000D01*
X197500000Y-136410000D02*
X197500000Y-135910000D01*
X197500000Y-135910000D02*
X198500000Y-135660000D01*
X198500000Y-135660000D02*
X198500000Y-138660000D01*
X198500000Y-138660000D02*
X197500000Y-138410000D01*
X197500000Y-138410000D02*
X197500000Y-137910000D01*
X197500000Y-137910000D02*
X197150000Y-137910000D01*
X197150000Y-137910000D02*
X197150000Y-138660000D01*
X197150000Y-138660000D02*
X192850000Y-138660000D01*
X192850000Y-138660000D02*
X192850000Y-137910000D01*
X198600000Y-123960000D02*
X199850000Y-123960000D01*
X199850000Y-123960000D02*
X199850000Y-125960000D01*
G04 #@! TO.C,J7*
X182730000Y-148330000D02*
X182730000Y-145670000D01*
X182730000Y-148330000D02*
X187870000Y-148330000D01*
X187870000Y-148330000D02*
X187870000Y-145670000D01*
X182730000Y-145670000D02*
X187870000Y-145670000D01*
X180130000Y-145670000D02*
X181460000Y-145670000D01*
X180130000Y-147000000D02*
X180130000Y-145670000D01*
G04 #@! TO.C,J1*
X115770000Y-148330000D02*
X115770000Y-145670000D01*
X115770000Y-148330000D02*
X123450000Y-148330000D01*
X123450000Y-148330000D02*
X123450000Y-145670000D01*
X115770000Y-145670000D02*
X123450000Y-145670000D01*
X113170000Y-145670000D02*
X114500000Y-145670000D01*
X113170000Y-147000000D02*
X113170000Y-145670000D01*
G04 #@! TO.C,D7*
X185285639Y-138150113D02*
X185285639Y-136950113D01*
X183435639Y-138150113D02*
X185285639Y-138150113D01*
X183435639Y-136950113D02*
X185285639Y-136950113D01*
G04 #@! TO.C,D6*
X157900000Y-118700000D02*
X157900000Y-116850000D01*
X159100000Y-118700000D02*
X159100000Y-116850000D01*
X159100000Y-116850000D02*
X157900000Y-116850000D01*
G04 #@! TO.C,D5*
X140150000Y-118100000D02*
X140150000Y-116900000D01*
X138300000Y-118100000D02*
X140150000Y-118100000D01*
X138300000Y-116900000D02*
X140150000Y-116900000D01*
G04 #@! TO.C,Q5*
X163580000Y-117240000D02*
X162650000Y-117240000D01*
X160420000Y-117240000D02*
X161350000Y-117240000D01*
X160420000Y-117240000D02*
X160420000Y-119400000D01*
X163580000Y-117240000D02*
X163580000Y-118700000D01*
G04 #@! TO.C,R33*
X181090000Y-120500000D02*
X181090000Y-121500000D01*
X182910000Y-120500000D02*
X182910000Y-121500000D01*
G04 #@! TO.C,R32*
X179910000Y-120500000D02*
X179910000Y-121500000D01*
X178090000Y-120500000D02*
X178090000Y-121500000D01*
G04 #@! TO.C,R36*
X187090000Y-120500000D02*
X187090000Y-121500000D01*
X188910000Y-120500000D02*
X188910000Y-121500000D01*
G04 #@! TO.C,R35*
X185910000Y-120500000D02*
X185910000Y-121500000D01*
X184090000Y-120500000D02*
X184090000Y-121500000D01*
G04 #@! TO.C,Q3*
X132760000Y-119580000D02*
X132760000Y-118650000D01*
X132760000Y-116420000D02*
X132760000Y-117350000D01*
X132760000Y-116420000D02*
X130600000Y-116420000D01*
X132760000Y-119580000D02*
X131300000Y-119580000D01*
G04 #@! TO.C,F1*
X129140000Y-110770000D02*
X129140000Y-103830000D01*
X129140000Y-103830000D02*
X112940000Y-103830000D01*
X112940000Y-103830000D02*
X112940000Y-110770000D01*
X112940000Y-110770000D02*
X129140000Y-110770000D01*
X121790000Y-107300000D02*
X120290000Y-107300000D01*
X119440000Y-105300000D02*
X122640000Y-105300000D01*
X122640000Y-109300000D02*
X119440000Y-109300000D01*
G04 #@! TO.C,C1*
X121500000Y-118140000D02*
X120500000Y-118140000D01*
X121500000Y-120860000D02*
X120500000Y-120860000D01*
G04 #@! TO.C,C6*
X186640000Y-115500000D02*
X186640000Y-114500000D01*
X189360000Y-115500000D02*
X189360000Y-114500000D01*
G04 #@! TO.C,C5*
X184360000Y-115500000D02*
X184360000Y-114500000D01*
X181640000Y-115500000D02*
X181640000Y-114500000D01*
G04 #@! TO.C,C2*
X121500000Y-132860000D02*
X120500000Y-132860000D01*
X121500000Y-130140000D02*
X120500000Y-130140000D01*
G04 #@! TO.C,J2*
X100150000Y-123040000D02*
X100150000Y-121040000D01*
X101400000Y-123040000D02*
X100150000Y-123040000D01*
X107150000Y-113420000D02*
X107150000Y-114170000D01*
X102850000Y-113420000D02*
X107150000Y-113420000D01*
X102850000Y-114170000D02*
X102850000Y-113420000D01*
X102500000Y-114170000D02*
X102850000Y-114170000D01*
X102500000Y-113670000D02*
X102500000Y-114170000D01*
X101500000Y-113420000D02*
X102500000Y-113670000D01*
X101500000Y-116420000D02*
X101500000Y-113420000D01*
X102500000Y-116170000D02*
X101500000Y-116420000D01*
X102500000Y-115670000D02*
X102500000Y-116170000D01*
X102850000Y-115670000D02*
X102500000Y-115670000D01*
X102850000Y-116420000D02*
X102850000Y-115670000D01*
X107150000Y-116420000D02*
X102850000Y-116420000D01*
X107150000Y-115670000D02*
X107150000Y-116420000D01*
X107150000Y-118500000D02*
X107150000Y-119250000D01*
X102850000Y-118500000D02*
X107150000Y-118500000D01*
X102850000Y-119250000D02*
X102850000Y-118500000D01*
X102500000Y-119250000D02*
X102850000Y-119250000D01*
X102500000Y-118750000D02*
X102500000Y-119250000D01*
X101500000Y-118500000D02*
X102500000Y-118750000D01*
X101500000Y-121500000D02*
X101500000Y-118500000D01*
X102500000Y-121250000D02*
X101500000Y-121500000D01*
X102500000Y-120750000D02*
X102500000Y-121250000D01*
X102850000Y-120750000D02*
X102500000Y-120750000D01*
X102850000Y-121500000D02*
X102850000Y-120750000D01*
X107150000Y-121500000D02*
X102850000Y-121500000D01*
X107150000Y-120750000D02*
X107150000Y-121500000D01*
X100570000Y-112300000D02*
X100570000Y-122620000D01*
X107980000Y-112300000D02*
X100570000Y-112300000D01*
X107980000Y-122620000D02*
X107980000Y-112300000D01*
X100570000Y-122620000D02*
X107980000Y-122620000D01*
X107149845Y-114170353D02*
G75*
G03X107150000Y-115670000I1700155J-749647D01*
G01*
X107149845Y-119250353D02*
G75*
G03X107150000Y-120750000I1700155J-749647D01*
G01*
G04 #@! TO.C,J4*
X199850000Y-111960000D02*
X199850000Y-113960000D01*
X198600000Y-111960000D02*
X199850000Y-111960000D01*
X192850000Y-121580000D02*
X192850000Y-120830000D01*
X197150000Y-121580000D02*
X192850000Y-121580000D01*
X197150000Y-120830000D02*
X197150000Y-121580000D01*
X197500000Y-120830000D02*
X197150000Y-120830000D01*
X197500000Y-121330000D02*
X197500000Y-120830000D01*
X198500000Y-121580000D02*
X197500000Y-121330000D01*
X198500000Y-118580000D02*
X198500000Y-121580000D01*
X197500000Y-118830000D02*
X198500000Y-118580000D01*
X197500000Y-119330000D02*
X197500000Y-118830000D01*
X197150000Y-119330000D02*
X197500000Y-119330000D01*
X197150000Y-118580000D02*
X197150000Y-119330000D01*
X192850000Y-118580000D02*
X197150000Y-118580000D01*
X192850000Y-119330000D02*
X192850000Y-118580000D01*
X192850000Y-116500000D02*
X192850000Y-115750000D01*
X197150000Y-116500000D02*
X192850000Y-116500000D01*
X197150000Y-115750000D02*
X197150000Y-116500000D01*
X197500000Y-115750000D02*
X197150000Y-115750000D01*
X197500000Y-116250000D02*
X197500000Y-115750000D01*
X198500000Y-116500000D02*
X197500000Y-116250000D01*
X198500000Y-113500000D02*
X198500000Y-116500000D01*
X197500000Y-113750000D02*
X198500000Y-113500000D01*
X197500000Y-114250000D02*
X197500000Y-113750000D01*
X197150000Y-114250000D02*
X197500000Y-114250000D01*
X197150000Y-113500000D02*
X197150000Y-114250000D01*
X192850000Y-113500000D02*
X197150000Y-113500000D01*
X192850000Y-114250000D02*
X192850000Y-113500000D01*
X199430000Y-122700000D02*
X199430000Y-112380000D01*
X192020000Y-122700000D02*
X199430000Y-122700000D01*
X192020000Y-112380000D02*
X192020000Y-122700000D01*
X199430000Y-112380000D02*
X192020000Y-112380000D01*
X192850155Y-120829647D02*
G75*
G03X192850000Y-119330000I-1700155J749647D01*
G01*
X192850155Y-115749647D02*
G75*
G03X192850000Y-114250000I-1700155J749647D01*
G01*
G04 #@! TO.C,D2*
X165685639Y-135950113D02*
X165685639Y-137150113D01*
X167535639Y-135950113D02*
X165685639Y-135950113D01*
X167535639Y-137150113D02*
X165685639Y-137150113D01*
G04 #@! TO.C,D3*
X167535639Y-133150113D02*
X165685639Y-133150113D01*
X167535639Y-131950113D02*
X165685639Y-131950113D01*
X165685639Y-131950113D02*
X165685639Y-133150113D01*
G04 #@! TO.C,D4*
X115100000Y-141850000D02*
X113900000Y-141850000D01*
X115100000Y-143700000D02*
X115100000Y-141850000D01*
X113900000Y-143700000D02*
X113900000Y-141850000D01*
G04 #@! TO.C,L10*
X128400000Y-136000000D02*
X125600000Y-136000000D01*
X125600000Y-136000000D02*
X125600000Y-134000000D01*
X125600000Y-134000000D02*
X128400000Y-134000000D01*
X128400000Y-134000000D02*
X128400000Y-136000000D01*
G04 #@! TO.C,JP3*
X160000000Y-124600000D02*
X160000000Y-127400000D01*
X160000000Y-127400000D02*
X158000000Y-127400000D01*
X158000000Y-127400000D02*
X158000000Y-124600000D01*
X158000000Y-124600000D02*
X160000000Y-124600000D01*
G04 #@! TO.C,JP4*
X170435639Y-118500000D02*
X170435639Y-116500000D01*
X173235639Y-118500000D02*
X170435639Y-118500000D01*
X173235639Y-116500000D02*
X173235639Y-118500000D01*
X170435639Y-116500000D02*
X173235639Y-116500000D01*
G04 #@! TO.C,JP1*
X127700000Y-113000000D02*
G75*
G02X128400000Y-113700000I0J-700000D01*
G01*
X128400000Y-114300000D02*
G75*
G02X127700000Y-115000000I-700000J0D01*
G01*
X126300000Y-115000000D02*
G75*
G02X125600000Y-114300000I0J700000D01*
G01*
X125600000Y-113700000D02*
G75*
G02X126300000Y-113000000I700000J0D01*
G01*
X125600000Y-114300000D02*
X125600000Y-113700000D01*
X127700000Y-115000000D02*
X126300000Y-115000000D01*
X128400000Y-113700000D02*
X128400000Y-114300000D01*
X126300000Y-113000000D02*
X127700000Y-113000000D01*
D13*
G04 #@! TO.C,U1*
X178285639Y-132475113D02*
X178260639Y-132475113D01*
X178285639Y-136625113D02*
X178170639Y-136625113D01*
X169385639Y-136625113D02*
X169500639Y-136625113D01*
X169385639Y-132475113D02*
X169500639Y-132475113D01*
X178285639Y-132475113D02*
X178285639Y-136625113D01*
X169385639Y-132475113D02*
X169385639Y-136625113D01*
X178260639Y-132475113D02*
X178260639Y-131100113D01*
D11*
G04 #@! TO.C,Q1*
X157260000Y-138580000D02*
X155800000Y-138580000D01*
X157260000Y-135420000D02*
X155100000Y-135420000D01*
X157260000Y-135420000D02*
X157260000Y-136350000D01*
X157260000Y-138580000D02*
X157260000Y-137650000D01*
G04 #@! TO.C,D1*
X153420000Y-126760000D02*
X154350000Y-126760000D01*
X156580000Y-126760000D02*
X155650000Y-126760000D01*
X156580000Y-126760000D02*
X156580000Y-124600000D01*
X153420000Y-126760000D02*
X153420000Y-125300000D01*
G04 #@! TO.C,Q2*
X132550000Y-109970000D02*
X132550000Y-111470000D01*
X132550000Y-111470000D02*
X132820000Y-111470000D01*
X132820000Y-111470000D02*
X132820000Y-114300000D01*
X139450000Y-109970000D02*
X139450000Y-111470000D01*
X139450000Y-111470000D02*
X139180000Y-111470000D01*
X139180000Y-111470000D02*
X139180000Y-112570000D01*
G04 #@! TO.C,Q4*
X149180000Y-111470000D02*
X149180000Y-112570000D01*
X149450000Y-111470000D02*
X149180000Y-111470000D01*
X149450000Y-109970000D02*
X149450000Y-111470000D01*
X142820000Y-111470000D02*
X142820000Y-114300000D01*
X142550000Y-111470000D02*
X142820000Y-111470000D01*
X142550000Y-109970000D02*
X142550000Y-111470000D01*
G04 #@! TO.C,U2*
X123030000Y-122050000D02*
X121530000Y-122050000D01*
X121530000Y-122050000D02*
X121530000Y-122320000D01*
X121530000Y-122320000D02*
X118700000Y-122320000D01*
X123030000Y-128950000D02*
X121530000Y-128950000D01*
X121530000Y-128950000D02*
X121530000Y-128680000D01*
X121530000Y-128680000D02*
X120430000Y-128680000D01*
G04 #@! TO.C,J6*
D13*
X145666666Y-140322380D02*
X145666666Y-141036666D01*
X145619047Y-141179523D01*
X145523809Y-141274761D01*
X145380952Y-141322380D01*
X145285714Y-141322380D01*
X146571428Y-140322380D02*
X146380952Y-140322380D01*
X146285714Y-140370000D01*
X146238095Y-140417619D01*
X146142857Y-140560476D01*
X146095238Y-140750952D01*
X146095238Y-141131904D01*
X146142857Y-141227142D01*
X146190476Y-141274761D01*
X146285714Y-141322380D01*
X146476190Y-141322380D01*
X146571428Y-141274761D01*
X146619047Y-141227142D01*
X146666666Y-141131904D01*
X146666666Y-140893809D01*
X146619047Y-140798571D01*
X146571428Y-140750952D01*
X146476190Y-140703333D01*
X146285714Y-140703333D01*
X146190476Y-140750952D01*
X146142857Y-140798571D01*
X146095238Y-140893809D01*
G04 #@! TO.C,J3*
X145666666Y-119582380D02*
X145666666Y-120296666D01*
X145619047Y-120439523D01*
X145523809Y-120534761D01*
X145380952Y-120582380D01*
X145285714Y-120582380D01*
X146047619Y-119582380D02*
X146666666Y-119582380D01*
X146333333Y-119963333D01*
X146476190Y-119963333D01*
X146571428Y-120010952D01*
X146619047Y-120058571D01*
X146666666Y-120153809D01*
X146666666Y-120391904D01*
X146619047Y-120487142D01*
X146571428Y-120534761D01*
X146476190Y-120582380D01*
X146190476Y-120582380D01*
X146095238Y-120534761D01*
X146047619Y-120487142D01*
G04 #@! TO.C,L1*
X175352380Y-148266666D02*
X175352380Y-148742857D01*
X174352380Y-148742857D01*
X175352380Y-147409523D02*
X175352380Y-147980952D01*
X175352380Y-147695238D02*
X174352380Y-147695238D01*
X174495238Y-147790476D01*
X174590476Y-147885714D01*
X174638095Y-147980952D01*
G04 #@! TO.C,C8*
X176857142Y-144366666D02*
X176904761Y-144414285D01*
X176952380Y-144557142D01*
X176952380Y-144652380D01*
X176904761Y-144795238D01*
X176809523Y-144890476D01*
X176714285Y-144938095D01*
X176523809Y-144985714D01*
X176380952Y-144985714D01*
X176190476Y-144938095D01*
X176095238Y-144890476D01*
X176000000Y-144795238D01*
X175952380Y-144652380D01*
X175952380Y-144557142D01*
X176000000Y-144414285D01*
X176047619Y-144366666D01*
X176380952Y-143795238D02*
X176333333Y-143890476D01*
X176285714Y-143938095D01*
X176190476Y-143985714D01*
X176142857Y-143985714D01*
X176047619Y-143938095D01*
X176000000Y-143890476D01*
X175952380Y-143795238D01*
X175952380Y-143604761D01*
X176000000Y-143509523D01*
X176047619Y-143461904D01*
X176142857Y-143414285D01*
X176190476Y-143414285D01*
X176285714Y-143461904D01*
X176333333Y-143509523D01*
X176380952Y-143604761D01*
X176380952Y-143795238D01*
X176428571Y-143890476D01*
X176476190Y-143938095D01*
X176571428Y-143985714D01*
X176761904Y-143985714D01*
X176857142Y-143938095D01*
X176904761Y-143890476D01*
X176952380Y-143795238D01*
X176952380Y-143604761D01*
X176904761Y-143509523D01*
X176857142Y-143461904D01*
X176761904Y-143414285D01*
X176571428Y-143414285D01*
X176476190Y-143461904D01*
X176428571Y-143509523D01*
X176380952Y-143604761D01*
G04 #@! TO.C,C9*
X180857142Y-144366666D02*
X180904761Y-144414285D01*
X180952380Y-144557142D01*
X180952380Y-144652380D01*
X180904761Y-144795238D01*
X180809523Y-144890476D01*
X180714285Y-144938095D01*
X180523809Y-144985714D01*
X180380952Y-144985714D01*
X180190476Y-144938095D01*
X180095238Y-144890476D01*
X180000000Y-144795238D01*
X179952380Y-144652380D01*
X179952380Y-144557142D01*
X180000000Y-144414285D01*
X180047619Y-144366666D01*
X180952380Y-143890476D02*
X180952380Y-143700000D01*
X180904761Y-143604761D01*
X180857142Y-143557142D01*
X180714285Y-143461904D01*
X180523809Y-143414285D01*
X180142857Y-143414285D01*
X180047619Y-143461904D01*
X180000000Y-143509523D01*
X179952380Y-143604761D01*
X179952380Y-143795238D01*
X180000000Y-143890476D01*
X180047619Y-143938095D01*
X180142857Y-143985714D01*
X180380952Y-143985714D01*
X180476190Y-143938095D01*
X180523809Y-143890476D01*
X180571428Y-143795238D01*
X180571428Y-143604761D01*
X180523809Y-143509523D01*
X180476190Y-143461904D01*
X180380952Y-143414285D01*
G04 #@! TO.C,D7*
X183397543Y-139302493D02*
X183397543Y-138302493D01*
X183635639Y-138302493D01*
X183778496Y-138350113D01*
X183873734Y-138445351D01*
X183921353Y-138540589D01*
X183968972Y-138731065D01*
X183968972Y-138873922D01*
X183921353Y-139064398D01*
X183873734Y-139159636D01*
X183778496Y-139254874D01*
X183635639Y-139302493D01*
X183397543Y-139302493D01*
X184302305Y-138302493D02*
X184968972Y-138302493D01*
X184540400Y-139302493D01*
G04 #@! TO.C,D6*
X157761904Y-116452380D02*
X157761904Y-115452380D01*
X158000000Y-115452380D01*
X158142857Y-115500000D01*
X158238095Y-115595238D01*
X158285714Y-115690476D01*
X158333333Y-115880952D01*
X158333333Y-116023809D01*
X158285714Y-116214285D01*
X158238095Y-116309523D01*
X158142857Y-116404761D01*
X158000000Y-116452380D01*
X157761904Y-116452380D01*
X159190476Y-115452380D02*
X159000000Y-115452380D01*
X158904761Y-115500000D01*
X158857142Y-115547619D01*
X158761904Y-115690476D01*
X158714285Y-115880952D01*
X158714285Y-116261904D01*
X158761904Y-116357142D01*
X158809523Y-116404761D01*
X158904761Y-116452380D01*
X159095238Y-116452380D01*
X159190476Y-116404761D01*
X159238095Y-116357142D01*
X159285714Y-116261904D01*
X159285714Y-116023809D01*
X159238095Y-115928571D01*
X159190476Y-115880952D01*
X159095238Y-115833333D01*
X158904761Y-115833333D01*
X158809523Y-115880952D01*
X158761904Y-115928571D01*
X158714285Y-116023809D01*
G04 #@! TO.C,D5*
X140761904Y-117952380D02*
X140761904Y-116952380D01*
X141000000Y-116952380D01*
X141142857Y-117000000D01*
X141238095Y-117095238D01*
X141285714Y-117190476D01*
X141333333Y-117380952D01*
X141333333Y-117523809D01*
X141285714Y-117714285D01*
X141238095Y-117809523D01*
X141142857Y-117904761D01*
X141000000Y-117952380D01*
X140761904Y-117952380D01*
X142238095Y-116952380D02*
X141761904Y-116952380D01*
X141714285Y-117428571D01*
X141761904Y-117380952D01*
X141857142Y-117333333D01*
X142095238Y-117333333D01*
X142190476Y-117380952D01*
X142238095Y-117428571D01*
X142285714Y-117523809D01*
X142285714Y-117761904D01*
X142238095Y-117857142D01*
X142190476Y-117904761D01*
X142095238Y-117952380D01*
X141857142Y-117952380D01*
X141761904Y-117904761D01*
X141714285Y-117857142D01*
G04 #@! TO.C,Q5*
X161904761Y-116047619D02*
X161809523Y-116000000D01*
X161714285Y-115904761D01*
X161571428Y-115761904D01*
X161476190Y-115714285D01*
X161380952Y-115714285D01*
X161428571Y-115952380D02*
X161333333Y-115904761D01*
X161238095Y-115809523D01*
X161190476Y-115619047D01*
X161190476Y-115285714D01*
X161238095Y-115095238D01*
X161333333Y-115000000D01*
X161428571Y-114952380D01*
X161619047Y-114952380D01*
X161714285Y-115000000D01*
X161809523Y-115095238D01*
X161857142Y-115285714D01*
X161857142Y-115619047D01*
X161809523Y-115809523D01*
X161714285Y-115904761D01*
X161619047Y-115952380D01*
X161428571Y-115952380D01*
X162761904Y-114952380D02*
X162285714Y-114952380D01*
X162238095Y-115428571D01*
X162285714Y-115380952D01*
X162380952Y-115333333D01*
X162619047Y-115333333D01*
X162714285Y-115380952D01*
X162761904Y-115428571D01*
X162809523Y-115523809D01*
X162809523Y-115761904D01*
X162761904Y-115857142D01*
X162714285Y-115904761D01*
X162619047Y-115952380D01*
X162380952Y-115952380D01*
X162285714Y-115904761D01*
X162238095Y-115857142D01*
G04 #@! TO.C,R24*
X152857142Y-133952380D02*
X152523809Y-133476190D01*
X152285714Y-133952380D02*
X152285714Y-132952380D01*
X152666666Y-132952380D01*
X152761904Y-133000000D01*
X152809523Y-133047619D01*
X152857142Y-133142857D01*
X152857142Y-133285714D01*
X152809523Y-133380952D01*
X152761904Y-133428571D01*
X152666666Y-133476190D01*
X152285714Y-133476190D01*
X153238095Y-133047619D02*
X153285714Y-133000000D01*
X153380952Y-132952380D01*
X153619047Y-132952380D01*
X153714285Y-133000000D01*
X153761904Y-133047619D01*
X153809523Y-133142857D01*
X153809523Y-133238095D01*
X153761904Y-133380952D01*
X153190476Y-133952380D01*
X153809523Y-133952380D01*
X154666666Y-133285714D02*
X154666666Y-133952380D01*
X154428571Y-132904761D02*
X154190476Y-133619047D01*
X154809523Y-133619047D01*
G04 #@! TO.C,R25*
X137402380Y-118642857D02*
X136926190Y-118976190D01*
X137402380Y-119214285D02*
X136402380Y-119214285D01*
X136402380Y-118833333D01*
X136450000Y-118738095D01*
X136497619Y-118690476D01*
X136592857Y-118642857D01*
X136735714Y-118642857D01*
X136830952Y-118690476D01*
X136878571Y-118738095D01*
X136926190Y-118833333D01*
X136926190Y-119214285D01*
X136497619Y-118261904D02*
X136450000Y-118214285D01*
X136402380Y-118119047D01*
X136402380Y-117880952D01*
X136450000Y-117785714D01*
X136497619Y-117738095D01*
X136592857Y-117690476D01*
X136688095Y-117690476D01*
X136830952Y-117738095D01*
X137402380Y-118309523D01*
X137402380Y-117690476D01*
X136402380Y-116785714D02*
X136402380Y-117261904D01*
X136878571Y-117309523D01*
X136830952Y-117261904D01*
X136783333Y-117166666D01*
X136783333Y-116928571D01*
X136830952Y-116833333D01*
X136878571Y-116785714D01*
X136973809Y-116738095D01*
X137211904Y-116738095D01*
X137307142Y-116785714D01*
X137354761Y-116833333D01*
X137402380Y-116928571D01*
X137402380Y-117166666D01*
X137354761Y-117261904D01*
X137307142Y-117309523D01*
G04 #@! TO.C,R26*
X133357142Y-136452380D02*
X133023809Y-135976190D01*
X132785714Y-136452380D02*
X132785714Y-135452380D01*
X133166666Y-135452380D01*
X133261904Y-135500000D01*
X133309523Y-135547619D01*
X133357142Y-135642857D01*
X133357142Y-135785714D01*
X133309523Y-135880952D01*
X133261904Y-135928571D01*
X133166666Y-135976190D01*
X132785714Y-135976190D01*
X133738095Y-135547619D02*
X133785714Y-135500000D01*
X133880952Y-135452380D01*
X134119047Y-135452380D01*
X134214285Y-135500000D01*
X134261904Y-135547619D01*
X134309523Y-135642857D01*
X134309523Y-135738095D01*
X134261904Y-135880952D01*
X133690476Y-136452380D01*
X134309523Y-136452380D01*
X135166666Y-135452380D02*
X134976190Y-135452380D01*
X134880952Y-135500000D01*
X134833333Y-135547619D01*
X134738095Y-135690476D01*
X134690476Y-135880952D01*
X134690476Y-136261904D01*
X134738095Y-136357142D01*
X134785714Y-136404761D01*
X134880952Y-136452380D01*
X135071428Y-136452380D01*
X135166666Y-136404761D01*
X135214285Y-136357142D01*
X135261904Y-136261904D01*
X135261904Y-136023809D01*
X135214285Y-135928571D01*
X135166666Y-135880952D01*
X135071428Y-135833333D01*
X134880952Y-135833333D01*
X134785714Y-135880952D01*
X134738095Y-135928571D01*
X134690476Y-136023809D01*
G04 #@! TO.C,R28*
X156452380Y-115142857D02*
X155976190Y-115476190D01*
X156452380Y-115714285D02*
X155452380Y-115714285D01*
X155452380Y-115333333D01*
X155500000Y-115238095D01*
X155547619Y-115190476D01*
X155642857Y-115142857D01*
X155785714Y-115142857D01*
X155880952Y-115190476D01*
X155928571Y-115238095D01*
X155976190Y-115333333D01*
X155976190Y-115714285D01*
X155547619Y-114761904D02*
X155500000Y-114714285D01*
X155452380Y-114619047D01*
X155452380Y-114380952D01*
X155500000Y-114285714D01*
X155547619Y-114238095D01*
X155642857Y-114190476D01*
X155738095Y-114190476D01*
X155880952Y-114238095D01*
X156452380Y-114809523D01*
X156452380Y-114190476D01*
X155880952Y-113619047D02*
X155833333Y-113714285D01*
X155785714Y-113761904D01*
X155690476Y-113809523D01*
X155642857Y-113809523D01*
X155547619Y-113761904D01*
X155500000Y-113714285D01*
X155452380Y-113619047D01*
X155452380Y-113428571D01*
X155500000Y-113333333D01*
X155547619Y-113285714D01*
X155642857Y-113238095D01*
X155690476Y-113238095D01*
X155785714Y-113285714D01*
X155833333Y-113333333D01*
X155880952Y-113428571D01*
X155880952Y-113619047D01*
X155928571Y-113714285D01*
X155976190Y-113761904D01*
X156071428Y-113809523D01*
X156261904Y-113809523D01*
X156357142Y-113761904D01*
X156404761Y-113714285D01*
X156452380Y-113619047D01*
X156452380Y-113428571D01*
X156404761Y-113333333D01*
X156357142Y-113285714D01*
X156261904Y-113238095D01*
X156071428Y-113238095D01*
X155976190Y-113285714D01*
X155928571Y-113333333D01*
X155880952Y-113428571D01*
G04 #@! TO.C,R29*
X120952380Y-140242857D02*
X120476190Y-140576190D01*
X120952380Y-140814285D02*
X119952380Y-140814285D01*
X119952380Y-140433333D01*
X120000000Y-140338095D01*
X120047619Y-140290476D01*
X120142857Y-140242857D01*
X120285714Y-140242857D01*
X120380952Y-140290476D01*
X120428571Y-140338095D01*
X120476190Y-140433333D01*
X120476190Y-140814285D01*
X120047619Y-139861904D02*
X120000000Y-139814285D01*
X119952380Y-139719047D01*
X119952380Y-139480952D01*
X120000000Y-139385714D01*
X120047619Y-139338095D01*
X120142857Y-139290476D01*
X120238095Y-139290476D01*
X120380952Y-139338095D01*
X120952380Y-139909523D01*
X120952380Y-139290476D01*
X120952380Y-138814285D02*
X120952380Y-138623809D01*
X120904761Y-138528571D01*
X120857142Y-138480952D01*
X120714285Y-138385714D01*
X120523809Y-138338095D01*
X120142857Y-138338095D01*
X120047619Y-138385714D01*
X120000000Y-138433333D01*
X119952380Y-138528571D01*
X119952380Y-138719047D01*
X120000000Y-138814285D01*
X120047619Y-138861904D01*
X120142857Y-138909523D01*
X120380952Y-138909523D01*
X120476190Y-138861904D01*
X120523809Y-138814285D01*
X120571428Y-138719047D01*
X120571428Y-138528571D01*
X120523809Y-138433333D01*
X120476190Y-138385714D01*
X120380952Y-138338095D01*
G04 #@! TO.C,R30*
X176838019Y-128192970D02*
X176361829Y-128526303D01*
X176838019Y-128764398D02*
X175838019Y-128764398D01*
X175838019Y-128383446D01*
X175885639Y-128288208D01*
X175933258Y-128240589D01*
X176028496Y-128192970D01*
X176171353Y-128192970D01*
X176266591Y-128240589D01*
X176314210Y-128288208D01*
X176361829Y-128383446D01*
X176361829Y-128764398D01*
X175838019Y-127859636D02*
X175838019Y-127240589D01*
X176218972Y-127573922D01*
X176218972Y-127431065D01*
X176266591Y-127335827D01*
X176314210Y-127288208D01*
X176409448Y-127240589D01*
X176647543Y-127240589D01*
X176742781Y-127288208D01*
X176790400Y-127335827D01*
X176838019Y-127431065D01*
X176838019Y-127716779D01*
X176790400Y-127812017D01*
X176742781Y-127859636D01*
X175838019Y-126621541D02*
X175838019Y-126526303D01*
X175885639Y-126431065D01*
X175933258Y-126383446D01*
X176028496Y-126335827D01*
X176218972Y-126288208D01*
X176457067Y-126288208D01*
X176647543Y-126335827D01*
X176742781Y-126383446D01*
X176790400Y-126431065D01*
X176838019Y-126526303D01*
X176838019Y-126621541D01*
X176790400Y-126716779D01*
X176742781Y-126764398D01*
X176647543Y-126812017D01*
X176457067Y-126859636D01*
X176218972Y-126859636D01*
X176028496Y-126812017D01*
X175933258Y-126764398D01*
X175885639Y-126716779D01*
X175838019Y-126621541D01*
G04 #@! TO.C,R31*
X178752380Y-145042857D02*
X178276190Y-145376190D01*
X178752380Y-145614285D02*
X177752380Y-145614285D01*
X177752380Y-145233333D01*
X177800000Y-145138095D01*
X177847619Y-145090476D01*
X177942857Y-145042857D01*
X178085714Y-145042857D01*
X178180952Y-145090476D01*
X178228571Y-145138095D01*
X178276190Y-145233333D01*
X178276190Y-145614285D01*
X177752380Y-144709523D02*
X177752380Y-144090476D01*
X178133333Y-144423809D01*
X178133333Y-144280952D01*
X178180952Y-144185714D01*
X178228571Y-144138095D01*
X178323809Y-144090476D01*
X178561904Y-144090476D01*
X178657142Y-144138095D01*
X178704761Y-144185714D01*
X178752380Y-144280952D01*
X178752380Y-144566666D01*
X178704761Y-144661904D01*
X178657142Y-144709523D01*
X178752380Y-143138095D02*
X178752380Y-143709523D01*
X178752380Y-143423809D02*
X177752380Y-143423809D01*
X177895238Y-143519047D01*
X177990476Y-143614285D01*
X178038095Y-143709523D01*
G04 #@! TO.C,R34*
X181902380Y-137642857D02*
X181426190Y-137976190D01*
X181902380Y-138214285D02*
X180902380Y-138214285D01*
X180902380Y-137833333D01*
X180950000Y-137738095D01*
X180997619Y-137690476D01*
X181092857Y-137642857D01*
X181235714Y-137642857D01*
X181330952Y-137690476D01*
X181378571Y-137738095D01*
X181426190Y-137833333D01*
X181426190Y-138214285D01*
X180902380Y-137309523D02*
X180902380Y-136690476D01*
X181283333Y-137023809D01*
X181283333Y-136880952D01*
X181330952Y-136785714D01*
X181378571Y-136738095D01*
X181473809Y-136690476D01*
X181711904Y-136690476D01*
X181807142Y-136738095D01*
X181854761Y-136785714D01*
X181902380Y-136880952D01*
X181902380Y-137166666D01*
X181854761Y-137261904D01*
X181807142Y-137309523D01*
X181235714Y-135833333D02*
X181902380Y-135833333D01*
X180854761Y-136071428D02*
X181569047Y-136309523D01*
X181569047Y-135690476D01*
G04 #@! TO.C,R37*
X188357142Y-131452380D02*
X188023809Y-130976190D01*
X187785714Y-131452380D02*
X187785714Y-130452380D01*
X188166666Y-130452380D01*
X188261904Y-130500000D01*
X188309523Y-130547619D01*
X188357142Y-130642857D01*
X188357142Y-130785714D01*
X188309523Y-130880952D01*
X188261904Y-130928571D01*
X188166666Y-130976190D01*
X187785714Y-130976190D01*
X188690476Y-130452380D02*
X189309523Y-130452380D01*
X188976190Y-130833333D01*
X189119047Y-130833333D01*
X189214285Y-130880952D01*
X189261904Y-130928571D01*
X189309523Y-131023809D01*
X189309523Y-131261904D01*
X189261904Y-131357142D01*
X189214285Y-131404761D01*
X189119047Y-131452380D01*
X188833333Y-131452380D01*
X188738095Y-131404761D01*
X188690476Y-131357142D01*
X189642857Y-130452380D02*
X190309523Y-130452380D01*
X189880952Y-131452380D01*
G04 #@! TO.C,R38*
X188357142Y-126002380D02*
X188023809Y-125526190D01*
X187785714Y-126002380D02*
X187785714Y-125002380D01*
X188166666Y-125002380D01*
X188261904Y-125050000D01*
X188309523Y-125097619D01*
X188357142Y-125192857D01*
X188357142Y-125335714D01*
X188309523Y-125430952D01*
X188261904Y-125478571D01*
X188166666Y-125526190D01*
X187785714Y-125526190D01*
X188690476Y-125002380D02*
X189309523Y-125002380D01*
X188976190Y-125383333D01*
X189119047Y-125383333D01*
X189214285Y-125430952D01*
X189261904Y-125478571D01*
X189309523Y-125573809D01*
X189309523Y-125811904D01*
X189261904Y-125907142D01*
X189214285Y-125954761D01*
X189119047Y-126002380D01*
X188833333Y-126002380D01*
X188738095Y-125954761D01*
X188690476Y-125907142D01*
X189880952Y-125430952D02*
X189785714Y-125383333D01*
X189738095Y-125335714D01*
X189690476Y-125240476D01*
X189690476Y-125192857D01*
X189738095Y-125097619D01*
X189785714Y-125050000D01*
X189880952Y-125002380D01*
X190071428Y-125002380D01*
X190166666Y-125050000D01*
X190214285Y-125097619D01*
X190261904Y-125192857D01*
X190261904Y-125240476D01*
X190214285Y-125335714D01*
X190166666Y-125383333D01*
X190071428Y-125430952D01*
X189880952Y-125430952D01*
X189785714Y-125478571D01*
X189738095Y-125526190D01*
X189690476Y-125621428D01*
X189690476Y-125811904D01*
X189738095Y-125907142D01*
X189785714Y-125954761D01*
X189880952Y-126002380D01*
X190071428Y-126002380D01*
X190166666Y-125954761D01*
X190214285Y-125907142D01*
X190261904Y-125811904D01*
X190261904Y-125621428D01*
X190214285Y-125526190D01*
X190166666Y-125478571D01*
X190071428Y-125430952D01*
G04 #@! TO.C,R27*
X152357142Y-116002380D02*
X152023809Y-115526190D01*
X151785714Y-116002380D02*
X151785714Y-115002380D01*
X152166666Y-115002380D01*
X152261904Y-115050000D01*
X152309523Y-115097619D01*
X152357142Y-115192857D01*
X152357142Y-115335714D01*
X152309523Y-115430952D01*
X152261904Y-115478571D01*
X152166666Y-115526190D01*
X151785714Y-115526190D01*
X152738095Y-115097619D02*
X152785714Y-115050000D01*
X152880952Y-115002380D01*
X153119047Y-115002380D01*
X153214285Y-115050000D01*
X153261904Y-115097619D01*
X153309523Y-115192857D01*
X153309523Y-115288095D01*
X153261904Y-115430952D01*
X152690476Y-116002380D01*
X153309523Y-116002380D01*
X153642857Y-115002380D02*
X154309523Y-115002380D01*
X153880952Y-116002380D01*
G04 #@! TO.C,R33*
X182452380Y-125642857D02*
X181976190Y-125976190D01*
X182452380Y-126214285D02*
X181452380Y-126214285D01*
X181452380Y-125833333D01*
X181500000Y-125738095D01*
X181547619Y-125690476D01*
X181642857Y-125642857D01*
X181785714Y-125642857D01*
X181880952Y-125690476D01*
X181928571Y-125738095D01*
X181976190Y-125833333D01*
X181976190Y-126214285D01*
X181452380Y-125309523D02*
X181452380Y-124690476D01*
X181833333Y-125023809D01*
X181833333Y-124880952D01*
X181880952Y-124785714D01*
X181928571Y-124738095D01*
X182023809Y-124690476D01*
X182261904Y-124690476D01*
X182357142Y-124738095D01*
X182404761Y-124785714D01*
X182452380Y-124880952D01*
X182452380Y-125166666D01*
X182404761Y-125261904D01*
X182357142Y-125309523D01*
X181452380Y-124357142D02*
X181452380Y-123738095D01*
X181833333Y-124071428D01*
X181833333Y-123928571D01*
X181880952Y-123833333D01*
X181928571Y-123785714D01*
X182023809Y-123738095D01*
X182261904Y-123738095D01*
X182357142Y-123785714D01*
X182404761Y-123833333D01*
X182452380Y-123928571D01*
X182452380Y-124214285D01*
X182404761Y-124309523D01*
X182357142Y-124357142D01*
G04 #@! TO.C,R32*
X179952380Y-125642857D02*
X179476190Y-125976190D01*
X179952380Y-126214285D02*
X178952380Y-126214285D01*
X178952380Y-125833333D01*
X179000000Y-125738095D01*
X179047619Y-125690476D01*
X179142857Y-125642857D01*
X179285714Y-125642857D01*
X179380952Y-125690476D01*
X179428571Y-125738095D01*
X179476190Y-125833333D01*
X179476190Y-126214285D01*
X178952380Y-125309523D02*
X178952380Y-124690476D01*
X179333333Y-125023809D01*
X179333333Y-124880952D01*
X179380952Y-124785714D01*
X179428571Y-124738095D01*
X179523809Y-124690476D01*
X179761904Y-124690476D01*
X179857142Y-124738095D01*
X179904761Y-124785714D01*
X179952380Y-124880952D01*
X179952380Y-125166666D01*
X179904761Y-125261904D01*
X179857142Y-125309523D01*
X179047619Y-124309523D02*
X179000000Y-124261904D01*
X178952380Y-124166666D01*
X178952380Y-123928571D01*
X179000000Y-123833333D01*
X179047619Y-123785714D01*
X179142857Y-123738095D01*
X179238095Y-123738095D01*
X179380952Y-123785714D01*
X179952380Y-124357142D01*
X179952380Y-123738095D01*
G04 #@! TO.C,R36*
X186952380Y-125642857D02*
X186476190Y-125976190D01*
X186952380Y-126214285D02*
X185952380Y-126214285D01*
X185952380Y-125833333D01*
X186000000Y-125738095D01*
X186047619Y-125690476D01*
X186142857Y-125642857D01*
X186285714Y-125642857D01*
X186380952Y-125690476D01*
X186428571Y-125738095D01*
X186476190Y-125833333D01*
X186476190Y-126214285D01*
X185952380Y-125309523D02*
X185952380Y-124690476D01*
X186333333Y-125023809D01*
X186333333Y-124880952D01*
X186380952Y-124785714D01*
X186428571Y-124738095D01*
X186523809Y-124690476D01*
X186761904Y-124690476D01*
X186857142Y-124738095D01*
X186904761Y-124785714D01*
X186952380Y-124880952D01*
X186952380Y-125166666D01*
X186904761Y-125261904D01*
X186857142Y-125309523D01*
X185952380Y-123833333D02*
X185952380Y-124023809D01*
X186000000Y-124119047D01*
X186047619Y-124166666D01*
X186190476Y-124261904D01*
X186380952Y-124309523D01*
X186761904Y-124309523D01*
X186857142Y-124261904D01*
X186904761Y-124214285D01*
X186952380Y-124119047D01*
X186952380Y-123928571D01*
X186904761Y-123833333D01*
X186857142Y-123785714D01*
X186761904Y-123738095D01*
X186523809Y-123738095D01*
X186428571Y-123785714D01*
X186380952Y-123833333D01*
X186333333Y-123928571D01*
X186333333Y-124119047D01*
X186380952Y-124214285D01*
X186428571Y-124261904D01*
X186523809Y-124309523D01*
G04 #@! TO.C,R35*
X184952380Y-125642857D02*
X184476190Y-125976190D01*
X184952380Y-126214285D02*
X183952380Y-126214285D01*
X183952380Y-125833333D01*
X184000000Y-125738095D01*
X184047619Y-125690476D01*
X184142857Y-125642857D01*
X184285714Y-125642857D01*
X184380952Y-125690476D01*
X184428571Y-125738095D01*
X184476190Y-125833333D01*
X184476190Y-126214285D01*
X183952380Y-125309523D02*
X183952380Y-124690476D01*
X184333333Y-125023809D01*
X184333333Y-124880952D01*
X184380952Y-124785714D01*
X184428571Y-124738095D01*
X184523809Y-124690476D01*
X184761904Y-124690476D01*
X184857142Y-124738095D01*
X184904761Y-124785714D01*
X184952380Y-124880952D01*
X184952380Y-125166666D01*
X184904761Y-125261904D01*
X184857142Y-125309523D01*
X183952380Y-123785714D02*
X183952380Y-124261904D01*
X184428571Y-124309523D01*
X184380952Y-124261904D01*
X184333333Y-124166666D01*
X184333333Y-123928571D01*
X184380952Y-123833333D01*
X184428571Y-123785714D01*
X184523809Y-123738095D01*
X184761904Y-123738095D01*
X184857142Y-123785714D01*
X184904761Y-123833333D01*
X184952380Y-123928571D01*
X184952380Y-124166666D01*
X184904761Y-124261904D01*
X184857142Y-124309523D01*
G04 #@! TO.C,C3*
X168157142Y-144566666D02*
X168204761Y-144614285D01*
X168252380Y-144757142D01*
X168252380Y-144852380D01*
X168204761Y-144995238D01*
X168109523Y-145090476D01*
X168014285Y-145138095D01*
X167823809Y-145185714D01*
X167680952Y-145185714D01*
X167490476Y-145138095D01*
X167395238Y-145090476D01*
X167300000Y-144995238D01*
X167252380Y-144852380D01*
X167252380Y-144757142D01*
X167300000Y-144614285D01*
X167347619Y-144566666D01*
X167252380Y-144233333D02*
X167252380Y-143614285D01*
X167633333Y-143947619D01*
X167633333Y-143804761D01*
X167680952Y-143709523D01*
X167728571Y-143661904D01*
X167823809Y-143614285D01*
X168061904Y-143614285D01*
X168157142Y-143661904D01*
X168204761Y-143709523D01*
X168252380Y-143804761D01*
X168252380Y-144090476D01*
X168204761Y-144185714D01*
X168157142Y-144233333D01*
G04 #@! TO.C,C4*
X166907142Y-128166666D02*
X166954761Y-128214285D01*
X167002380Y-128357142D01*
X167002380Y-128452380D01*
X166954761Y-128595238D01*
X166859523Y-128690476D01*
X166764285Y-128738095D01*
X166573809Y-128785714D01*
X166430952Y-128785714D01*
X166240476Y-128738095D01*
X166145238Y-128690476D01*
X166050000Y-128595238D01*
X166002380Y-128452380D01*
X166002380Y-128357142D01*
X166050000Y-128214285D01*
X166097619Y-128166666D01*
X166335714Y-127309523D02*
X167002380Y-127309523D01*
X165954761Y-127547619D02*
X166669047Y-127785714D01*
X166669047Y-127166666D01*
G04 #@! TO.C,C7*
X168357142Y-121166666D02*
X168404761Y-121214285D01*
X168452380Y-121357142D01*
X168452380Y-121452380D01*
X168404761Y-121595238D01*
X168309523Y-121690476D01*
X168214285Y-121738095D01*
X168023809Y-121785714D01*
X167880952Y-121785714D01*
X167690476Y-121738095D01*
X167595238Y-121690476D01*
X167500000Y-121595238D01*
X167452380Y-121452380D01*
X167452380Y-121357142D01*
X167500000Y-121214285D01*
X167547619Y-121166666D01*
X167452380Y-120833333D02*
X167452380Y-120166666D01*
X168452380Y-120595238D01*
G04 #@! TO.C,C21*
X174357142Y-125142857D02*
X174404761Y-125190476D01*
X174452380Y-125333333D01*
X174452380Y-125428571D01*
X174404761Y-125571428D01*
X174309523Y-125666666D01*
X174214285Y-125714285D01*
X174023809Y-125761904D01*
X173880952Y-125761904D01*
X173690476Y-125714285D01*
X173595238Y-125666666D01*
X173500000Y-125571428D01*
X173452380Y-125428571D01*
X173452380Y-125333333D01*
X173500000Y-125190476D01*
X173547619Y-125142857D01*
X173547619Y-124761904D02*
X173500000Y-124714285D01*
X173452380Y-124619047D01*
X173452380Y-124380952D01*
X173500000Y-124285714D01*
X173547619Y-124238095D01*
X173642857Y-124190476D01*
X173738095Y-124190476D01*
X173880952Y-124238095D01*
X174452380Y-124809523D01*
X174452380Y-124190476D01*
X174452380Y-123238095D02*
X174452380Y-123809523D01*
X174452380Y-123523809D02*
X173452380Y-123523809D01*
X173595238Y-123619047D01*
X173690476Y-123714285D01*
X173738095Y-123809523D01*
G04 #@! TO.C,Q3*
X131904761Y-116047619D02*
X131809523Y-116000000D01*
X131714285Y-115904761D01*
X131571428Y-115761904D01*
X131476190Y-115714285D01*
X131380952Y-115714285D01*
X131428571Y-115952380D02*
X131333333Y-115904761D01*
X131238095Y-115809523D01*
X131190476Y-115619047D01*
X131190476Y-115285714D01*
X131238095Y-115095238D01*
X131333333Y-115000000D01*
X131428571Y-114952380D01*
X131619047Y-114952380D01*
X131714285Y-115000000D01*
X131809523Y-115095238D01*
X131857142Y-115285714D01*
X131857142Y-115619047D01*
X131809523Y-115809523D01*
X131714285Y-115904761D01*
X131619047Y-115952380D01*
X131428571Y-115952380D01*
X132190476Y-114952380D02*
X132809523Y-114952380D01*
X132476190Y-115333333D01*
X132619047Y-115333333D01*
X132714285Y-115380952D01*
X132761904Y-115428571D01*
X132809523Y-115523809D01*
X132809523Y-115761904D01*
X132761904Y-115857142D01*
X132714285Y-115904761D01*
X132619047Y-115952380D01*
X132333333Y-115952380D01*
X132238095Y-115904761D01*
X132190476Y-115857142D01*
G04 #@! TO.C,R1*
X182952380Y-129666666D02*
X182476190Y-130000000D01*
X182952380Y-130238095D02*
X181952380Y-130238095D01*
X181952380Y-129857142D01*
X182000000Y-129761904D01*
X182047619Y-129714285D01*
X182142857Y-129666666D01*
X182285714Y-129666666D01*
X182380952Y-129714285D01*
X182428571Y-129761904D01*
X182476190Y-129857142D01*
X182476190Y-130238095D01*
X182952380Y-128714285D02*
X182952380Y-129285714D01*
X182952380Y-129000000D02*
X181952380Y-129000000D01*
X182095238Y-129095238D01*
X182190476Y-129190476D01*
X182238095Y-129285714D01*
G04 #@! TO.C,R2*
X180452380Y-129666666D02*
X179976190Y-130000000D01*
X180452380Y-130238095D02*
X179452380Y-130238095D01*
X179452380Y-129857142D01*
X179500000Y-129761904D01*
X179547619Y-129714285D01*
X179642857Y-129666666D01*
X179785714Y-129666666D01*
X179880952Y-129714285D01*
X179928571Y-129761904D01*
X179976190Y-129857142D01*
X179976190Y-130238095D01*
X179547619Y-129285714D02*
X179500000Y-129238095D01*
X179452380Y-129142857D01*
X179452380Y-128904761D01*
X179500000Y-128809523D01*
X179547619Y-128761904D01*
X179642857Y-128714285D01*
X179738095Y-128714285D01*
X179880952Y-128761904D01*
X180452380Y-129333333D01*
X180452380Y-128714285D01*
G04 #@! TO.C,R3*
X124833333Y-119452380D02*
X124500000Y-118976190D01*
X124261904Y-119452380D02*
X124261904Y-118452380D01*
X124642857Y-118452380D01*
X124738095Y-118500000D01*
X124785714Y-118547619D01*
X124833333Y-118642857D01*
X124833333Y-118785714D01*
X124785714Y-118880952D01*
X124738095Y-118928571D01*
X124642857Y-118976190D01*
X124261904Y-118976190D01*
X125166666Y-118452380D02*
X125785714Y-118452380D01*
X125452380Y-118833333D01*
X125595238Y-118833333D01*
X125690476Y-118880952D01*
X125738095Y-118928571D01*
X125785714Y-119023809D01*
X125785714Y-119261904D01*
X125738095Y-119357142D01*
X125690476Y-119404761D01*
X125595238Y-119452380D01*
X125309523Y-119452380D01*
X125214285Y-119404761D01*
X125166666Y-119357142D01*
G04 #@! TO.C,R4*
X132833333Y-127002380D02*
X132500000Y-126526190D01*
X132261904Y-127002380D02*
X132261904Y-126002380D01*
X132642857Y-126002380D01*
X132738095Y-126050000D01*
X132785714Y-126097619D01*
X132833333Y-126192857D01*
X132833333Y-126335714D01*
X132785714Y-126430952D01*
X132738095Y-126478571D01*
X132642857Y-126526190D01*
X132261904Y-126526190D01*
X133690476Y-126335714D02*
X133690476Y-127002380D01*
X133452380Y-125954761D02*
X133214285Y-126669047D01*
X133833333Y-126669047D01*
G04 #@! TO.C,R5*
X136833333Y-127002380D02*
X136500000Y-126526190D01*
X136261904Y-127002380D02*
X136261904Y-126002380D01*
X136642857Y-126002380D01*
X136738095Y-126050000D01*
X136785714Y-126097619D01*
X136833333Y-126192857D01*
X136833333Y-126335714D01*
X136785714Y-126430952D01*
X136738095Y-126478571D01*
X136642857Y-126526190D01*
X136261904Y-126526190D01*
X137738095Y-126002380D02*
X137261904Y-126002380D01*
X137214285Y-126478571D01*
X137261904Y-126430952D01*
X137357142Y-126383333D01*
X137595238Y-126383333D01*
X137690476Y-126430952D01*
X137738095Y-126478571D01*
X137785714Y-126573809D01*
X137785714Y-126811904D01*
X137738095Y-126907142D01*
X137690476Y-126954761D01*
X137595238Y-127002380D01*
X137357142Y-127002380D01*
X137261904Y-126954761D01*
X137214285Y-126907142D01*
G04 #@! TO.C,R6*
X124833333Y-116952380D02*
X124500000Y-116476190D01*
X124261904Y-116952380D02*
X124261904Y-115952380D01*
X124642857Y-115952380D01*
X124738095Y-116000000D01*
X124785714Y-116047619D01*
X124833333Y-116142857D01*
X124833333Y-116285714D01*
X124785714Y-116380952D01*
X124738095Y-116428571D01*
X124642857Y-116476190D01*
X124261904Y-116476190D01*
X125690476Y-115952380D02*
X125500000Y-115952380D01*
X125404761Y-116000000D01*
X125357142Y-116047619D01*
X125261904Y-116190476D01*
X125214285Y-116380952D01*
X125214285Y-116761904D01*
X125261904Y-116857142D01*
X125309523Y-116904761D01*
X125404761Y-116952380D01*
X125595238Y-116952380D01*
X125690476Y-116904761D01*
X125738095Y-116857142D01*
X125785714Y-116761904D01*
X125785714Y-116523809D01*
X125738095Y-116428571D01*
X125690476Y-116380952D01*
X125595238Y-116333333D01*
X125404761Y-116333333D01*
X125309523Y-116380952D01*
X125261904Y-116428571D01*
X125214285Y-116523809D01*
G04 #@! TO.C,R7*
X141333333Y-119952380D02*
X141000000Y-119476190D01*
X140761904Y-119952380D02*
X140761904Y-118952380D01*
X141142857Y-118952380D01*
X141238095Y-119000000D01*
X141285714Y-119047619D01*
X141333333Y-119142857D01*
X141333333Y-119285714D01*
X141285714Y-119380952D01*
X141238095Y-119428571D01*
X141142857Y-119476190D01*
X140761904Y-119476190D01*
X141666666Y-118952380D02*
X142333333Y-118952380D01*
X141904761Y-119952380D01*
G04 #@! TO.C,R8*
X132833333Y-121002380D02*
X132500000Y-120526190D01*
X132261904Y-121002380D02*
X132261904Y-120002380D01*
X132642857Y-120002380D01*
X132738095Y-120050000D01*
X132785714Y-120097619D01*
X132833333Y-120192857D01*
X132833333Y-120335714D01*
X132785714Y-120430952D01*
X132738095Y-120478571D01*
X132642857Y-120526190D01*
X132261904Y-120526190D01*
X133404761Y-120430952D02*
X133309523Y-120383333D01*
X133261904Y-120335714D01*
X133214285Y-120240476D01*
X133214285Y-120192857D01*
X133261904Y-120097619D01*
X133309523Y-120050000D01*
X133404761Y-120002380D01*
X133595238Y-120002380D01*
X133690476Y-120050000D01*
X133738095Y-120097619D01*
X133785714Y-120192857D01*
X133785714Y-120240476D01*
X133738095Y-120335714D01*
X133690476Y-120383333D01*
X133595238Y-120430952D01*
X133404761Y-120430952D01*
X133309523Y-120478571D01*
X133261904Y-120526190D01*
X133214285Y-120621428D01*
X133214285Y-120811904D01*
X133261904Y-120907142D01*
X133309523Y-120954761D01*
X133404761Y-121002380D01*
X133595238Y-121002380D01*
X133690476Y-120954761D01*
X133738095Y-120907142D01*
X133785714Y-120811904D01*
X133785714Y-120621428D01*
X133738095Y-120526190D01*
X133690476Y-120478571D01*
X133595238Y-120430952D01*
G04 #@! TO.C,R9*
X132833333Y-124002380D02*
X132500000Y-123526190D01*
X132261904Y-124002380D02*
X132261904Y-123002380D01*
X132642857Y-123002380D01*
X132738095Y-123050000D01*
X132785714Y-123097619D01*
X132833333Y-123192857D01*
X132833333Y-123335714D01*
X132785714Y-123430952D01*
X132738095Y-123478571D01*
X132642857Y-123526190D01*
X132261904Y-123526190D01*
X133309523Y-124002380D02*
X133500000Y-124002380D01*
X133595238Y-123954761D01*
X133642857Y-123907142D01*
X133738095Y-123764285D01*
X133785714Y-123573809D01*
X133785714Y-123192857D01*
X133738095Y-123097619D01*
X133690476Y-123050000D01*
X133595238Y-123002380D01*
X133404761Y-123002380D01*
X133309523Y-123050000D01*
X133261904Y-123097619D01*
X133214285Y-123192857D01*
X133214285Y-123430952D01*
X133261904Y-123526190D01*
X133309523Y-123573809D01*
X133404761Y-123621428D01*
X133595238Y-123621428D01*
X133690476Y-123573809D01*
X133738095Y-123526190D01*
X133785714Y-123430952D01*
G04 #@! TO.C,R10*
X136357142Y-124002380D02*
X136023809Y-123526190D01*
X135785714Y-124002380D02*
X135785714Y-123002380D01*
X136166666Y-123002380D01*
X136261904Y-123050000D01*
X136309523Y-123097619D01*
X136357142Y-123192857D01*
X136357142Y-123335714D01*
X136309523Y-123430952D01*
X136261904Y-123478571D01*
X136166666Y-123526190D01*
X135785714Y-123526190D01*
X137309523Y-124002380D02*
X136738095Y-124002380D01*
X137023809Y-124002380D02*
X137023809Y-123002380D01*
X136928571Y-123145238D01*
X136833333Y-123240476D01*
X136738095Y-123288095D01*
X137928571Y-123002380D02*
X138023809Y-123002380D01*
X138119047Y-123050000D01*
X138166666Y-123097619D01*
X138214285Y-123192857D01*
X138261904Y-123383333D01*
X138261904Y-123621428D01*
X138214285Y-123811904D01*
X138166666Y-123907142D01*
X138119047Y-123954761D01*
X138023809Y-124002380D01*
X137928571Y-124002380D01*
X137833333Y-123954761D01*
X137785714Y-123907142D01*
X137738095Y-123811904D01*
X137690476Y-123621428D01*
X137690476Y-123383333D01*
X137738095Y-123192857D01*
X137785714Y-123097619D01*
X137833333Y-123050000D01*
X137928571Y-123002380D01*
G04 #@! TO.C,R11*
X135357142Y-121002380D02*
X135023809Y-120526190D01*
X134785714Y-121002380D02*
X134785714Y-120002380D01*
X135166666Y-120002380D01*
X135261904Y-120050000D01*
X135309523Y-120097619D01*
X135357142Y-120192857D01*
X135357142Y-120335714D01*
X135309523Y-120430952D01*
X135261904Y-120478571D01*
X135166666Y-120526190D01*
X134785714Y-120526190D01*
X136309523Y-121002380D02*
X135738095Y-121002380D01*
X136023809Y-121002380D02*
X136023809Y-120002380D01*
X135928571Y-120145238D01*
X135833333Y-120240476D01*
X135738095Y-120288095D01*
X137261904Y-121002380D02*
X136690476Y-121002380D01*
X136976190Y-121002380D02*
X136976190Y-120002380D01*
X136880952Y-120145238D01*
X136785714Y-120240476D01*
X136690476Y-120288095D01*
G04 #@! TO.C,R12*
X167402380Y-114642857D02*
X166926190Y-114976190D01*
X167402380Y-115214285D02*
X166402380Y-115214285D01*
X166402380Y-114833333D01*
X166450000Y-114738095D01*
X166497619Y-114690476D01*
X166592857Y-114642857D01*
X166735714Y-114642857D01*
X166830952Y-114690476D01*
X166878571Y-114738095D01*
X166926190Y-114833333D01*
X166926190Y-115214285D01*
X167402380Y-113690476D02*
X167402380Y-114261904D01*
X167402380Y-113976190D02*
X166402380Y-113976190D01*
X166545238Y-114071428D01*
X166640476Y-114166666D01*
X166688095Y-114261904D01*
X166497619Y-113309523D02*
X166450000Y-113261904D01*
X166402380Y-113166666D01*
X166402380Y-112928571D01*
X166450000Y-112833333D01*
X166497619Y-112785714D01*
X166592857Y-112738095D01*
X166688095Y-112738095D01*
X166830952Y-112785714D01*
X167402380Y-113357142D01*
X167402380Y-112738095D01*
G04 #@! TO.C,R14*
X152857142Y-140452380D02*
X152523809Y-139976190D01*
X152285714Y-140452380D02*
X152285714Y-139452380D01*
X152666666Y-139452380D01*
X152761904Y-139500000D01*
X152809523Y-139547619D01*
X152857142Y-139642857D01*
X152857142Y-139785714D01*
X152809523Y-139880952D01*
X152761904Y-139928571D01*
X152666666Y-139976190D01*
X152285714Y-139976190D01*
X153809523Y-140452380D02*
X153238095Y-140452380D01*
X153523809Y-140452380D02*
X153523809Y-139452380D01*
X153428571Y-139595238D01*
X153333333Y-139690476D01*
X153238095Y-139738095D01*
X154666666Y-139785714D02*
X154666666Y-140452380D01*
X154428571Y-139404761D02*
X154190476Y-140119047D01*
X154809523Y-140119047D01*
G04 #@! TO.C,R16*
X133357142Y-133952380D02*
X133023809Y-133476190D01*
X132785714Y-133952380D02*
X132785714Y-132952380D01*
X133166666Y-132952380D01*
X133261904Y-133000000D01*
X133309523Y-133047619D01*
X133357142Y-133142857D01*
X133357142Y-133285714D01*
X133309523Y-133380952D01*
X133261904Y-133428571D01*
X133166666Y-133476190D01*
X132785714Y-133476190D01*
X134309523Y-133952380D02*
X133738095Y-133952380D01*
X134023809Y-133952380D02*
X134023809Y-132952380D01*
X133928571Y-133095238D01*
X133833333Y-133190476D01*
X133738095Y-133238095D01*
X135166666Y-132952380D02*
X134976190Y-132952380D01*
X134880952Y-133000000D01*
X134833333Y-133047619D01*
X134738095Y-133190476D01*
X134690476Y-133380952D01*
X134690476Y-133761904D01*
X134738095Y-133857142D01*
X134785714Y-133904761D01*
X134880952Y-133952380D01*
X135071428Y-133952380D01*
X135166666Y-133904761D01*
X135214285Y-133857142D01*
X135261904Y-133761904D01*
X135261904Y-133523809D01*
X135214285Y-133428571D01*
X135166666Y-133380952D01*
X135071428Y-133333333D01*
X134880952Y-133333333D01*
X134785714Y-133380952D01*
X134738095Y-133428571D01*
X134690476Y-133523809D01*
G04 #@! TO.C,R17*
X165952380Y-122142857D02*
X165476190Y-122476190D01*
X165952380Y-122714285D02*
X164952380Y-122714285D01*
X164952380Y-122333333D01*
X165000000Y-122238095D01*
X165047619Y-122190476D01*
X165142857Y-122142857D01*
X165285714Y-122142857D01*
X165380952Y-122190476D01*
X165428571Y-122238095D01*
X165476190Y-122333333D01*
X165476190Y-122714285D01*
X165952380Y-121190476D02*
X165952380Y-121761904D01*
X165952380Y-121476190D02*
X164952380Y-121476190D01*
X165095238Y-121571428D01*
X165190476Y-121666666D01*
X165238095Y-121761904D01*
X164952380Y-120857142D02*
X164952380Y-120190476D01*
X165952380Y-120619047D01*
G04 #@! TO.C,R18*
X118052380Y-140242857D02*
X117576190Y-140576190D01*
X118052380Y-140814285D02*
X117052380Y-140814285D01*
X117052380Y-140433333D01*
X117100000Y-140338095D01*
X117147619Y-140290476D01*
X117242857Y-140242857D01*
X117385714Y-140242857D01*
X117480952Y-140290476D01*
X117528571Y-140338095D01*
X117576190Y-140433333D01*
X117576190Y-140814285D01*
X118052380Y-139290476D02*
X118052380Y-139861904D01*
X118052380Y-139576190D02*
X117052380Y-139576190D01*
X117195238Y-139671428D01*
X117290476Y-139766666D01*
X117338095Y-139861904D01*
X117480952Y-138719047D02*
X117433333Y-138814285D01*
X117385714Y-138861904D01*
X117290476Y-138909523D01*
X117242857Y-138909523D01*
X117147619Y-138861904D01*
X117100000Y-138814285D01*
X117052380Y-138719047D01*
X117052380Y-138528571D01*
X117100000Y-138433333D01*
X117147619Y-138385714D01*
X117242857Y-138338095D01*
X117290476Y-138338095D01*
X117385714Y-138385714D01*
X117433333Y-138433333D01*
X117480952Y-138528571D01*
X117480952Y-138719047D01*
X117528571Y-138814285D01*
X117576190Y-138861904D01*
X117671428Y-138909523D01*
X117861904Y-138909523D01*
X117957142Y-138861904D01*
X118004761Y-138814285D01*
X118052380Y-138719047D01*
X118052380Y-138528571D01*
X118004761Y-138433333D01*
X117957142Y-138385714D01*
X117861904Y-138338095D01*
X117671428Y-138338095D01*
X117576190Y-138385714D01*
X117528571Y-138433333D01*
X117480952Y-138528571D01*
G04 #@! TO.C,R19*
X133357142Y-138952380D02*
X133023809Y-138476190D01*
X132785714Y-138952380D02*
X132785714Y-137952380D01*
X133166666Y-137952380D01*
X133261904Y-138000000D01*
X133309523Y-138047619D01*
X133357142Y-138142857D01*
X133357142Y-138285714D01*
X133309523Y-138380952D01*
X133261904Y-138428571D01*
X133166666Y-138476190D01*
X132785714Y-138476190D01*
X134309523Y-138952380D02*
X133738095Y-138952380D01*
X134023809Y-138952380D02*
X134023809Y-137952380D01*
X133928571Y-138095238D01*
X133833333Y-138190476D01*
X133738095Y-138238095D01*
X134785714Y-138952380D02*
X134976190Y-138952380D01*
X135071428Y-138904761D01*
X135119047Y-138857142D01*
X135214285Y-138714285D01*
X135261904Y-138523809D01*
X135261904Y-138142857D01*
X135214285Y-138047619D01*
X135166666Y-138000000D01*
X135071428Y-137952380D01*
X134880952Y-137952380D01*
X134785714Y-138000000D01*
X134738095Y-138047619D01*
X134690476Y-138142857D01*
X134690476Y-138380952D01*
X134738095Y-138476190D01*
X134785714Y-138523809D01*
X134880952Y-138571428D01*
X135071428Y-138571428D01*
X135166666Y-138523809D01*
X135214285Y-138476190D01*
X135261904Y-138380952D01*
G04 #@! TO.C,R20*
X152857142Y-142952380D02*
X152523809Y-142476190D01*
X152285714Y-142952380D02*
X152285714Y-141952380D01*
X152666666Y-141952380D01*
X152761904Y-142000000D01*
X152809523Y-142047619D01*
X152857142Y-142142857D01*
X152857142Y-142285714D01*
X152809523Y-142380952D01*
X152761904Y-142428571D01*
X152666666Y-142476190D01*
X152285714Y-142476190D01*
X153238095Y-142047619D02*
X153285714Y-142000000D01*
X153380952Y-141952380D01*
X153619047Y-141952380D01*
X153714285Y-142000000D01*
X153761904Y-142047619D01*
X153809523Y-142142857D01*
X153809523Y-142238095D01*
X153761904Y-142380952D01*
X153190476Y-142952380D01*
X153809523Y-142952380D01*
X154428571Y-141952380D02*
X154523809Y-141952380D01*
X154619047Y-142000000D01*
X154666666Y-142047619D01*
X154714285Y-142142857D01*
X154761904Y-142333333D01*
X154761904Y-142571428D01*
X154714285Y-142761904D01*
X154666666Y-142857142D01*
X154619047Y-142904761D01*
X154523809Y-142952380D01*
X154428571Y-142952380D01*
X154333333Y-142904761D01*
X154285714Y-142857142D01*
X154238095Y-142761904D01*
X154190476Y-142571428D01*
X154190476Y-142333333D01*
X154238095Y-142142857D01*
X154285714Y-142047619D01*
X154333333Y-142000000D01*
X154428571Y-141952380D01*
G04 #@! TO.C,R21*
X170002380Y-128642857D02*
X169526190Y-128976190D01*
X170002380Y-129214285D02*
X169002380Y-129214285D01*
X169002380Y-128833333D01*
X169050000Y-128738095D01*
X169097619Y-128690476D01*
X169192857Y-128642857D01*
X169335714Y-128642857D01*
X169430952Y-128690476D01*
X169478571Y-128738095D01*
X169526190Y-128833333D01*
X169526190Y-129214285D01*
X169097619Y-128261904D02*
X169050000Y-128214285D01*
X169002380Y-128119047D01*
X169002380Y-127880952D01*
X169050000Y-127785714D01*
X169097619Y-127738095D01*
X169192857Y-127690476D01*
X169288095Y-127690476D01*
X169430952Y-127738095D01*
X170002380Y-128309523D01*
X170002380Y-127690476D01*
X170002380Y-126738095D02*
X170002380Y-127309523D01*
X170002380Y-127023809D02*
X169002380Y-127023809D01*
X169145238Y-127119047D01*
X169240476Y-127214285D01*
X169288095Y-127309523D01*
G04 #@! TO.C,R22*
X165752380Y-145342857D02*
X165276190Y-145676190D01*
X165752380Y-145914285D02*
X164752380Y-145914285D01*
X164752380Y-145533333D01*
X164800000Y-145438095D01*
X164847619Y-145390476D01*
X164942857Y-145342857D01*
X165085714Y-145342857D01*
X165180952Y-145390476D01*
X165228571Y-145438095D01*
X165276190Y-145533333D01*
X165276190Y-145914285D01*
X164847619Y-144961904D02*
X164800000Y-144914285D01*
X164752380Y-144819047D01*
X164752380Y-144580952D01*
X164800000Y-144485714D01*
X164847619Y-144438095D01*
X164942857Y-144390476D01*
X165038095Y-144390476D01*
X165180952Y-144438095D01*
X165752380Y-145009523D01*
X165752380Y-144390476D01*
X164847619Y-144009523D02*
X164800000Y-143961904D01*
X164752380Y-143866666D01*
X164752380Y-143628571D01*
X164800000Y-143533333D01*
X164847619Y-143485714D01*
X164942857Y-143438095D01*
X165038095Y-143438095D01*
X165180952Y-143485714D01*
X165752380Y-144057142D01*
X165752380Y-143438095D01*
G04 #@! TO.C,R23*
X172352380Y-145242857D02*
X171876190Y-145576190D01*
X172352380Y-145814285D02*
X171352380Y-145814285D01*
X171352380Y-145433333D01*
X171400000Y-145338095D01*
X171447619Y-145290476D01*
X171542857Y-145242857D01*
X171685714Y-145242857D01*
X171780952Y-145290476D01*
X171828571Y-145338095D01*
X171876190Y-145433333D01*
X171876190Y-145814285D01*
X171447619Y-144861904D02*
X171400000Y-144814285D01*
X171352380Y-144719047D01*
X171352380Y-144480952D01*
X171400000Y-144385714D01*
X171447619Y-144338095D01*
X171542857Y-144290476D01*
X171638095Y-144290476D01*
X171780952Y-144338095D01*
X172352380Y-144909523D01*
X172352380Y-144290476D01*
X171352380Y-143957142D02*
X171352380Y-143338095D01*
X171733333Y-143671428D01*
X171733333Y-143528571D01*
X171780952Y-143433333D01*
X171828571Y-143385714D01*
X171923809Y-143338095D01*
X172161904Y-143338095D01*
X172257142Y-143385714D01*
X172304761Y-143433333D01*
X172352380Y-143528571D01*
X172352380Y-143814285D01*
X172304761Y-143909523D01*
X172257142Y-143957142D01*
G04 #@! TO.C,R47*
X157902380Y-122642857D02*
X157426190Y-122976190D01*
X157902380Y-123214285D02*
X156902380Y-123214285D01*
X156902380Y-122833333D01*
X156950000Y-122738095D01*
X156997619Y-122690476D01*
X157092857Y-122642857D01*
X157235714Y-122642857D01*
X157330952Y-122690476D01*
X157378571Y-122738095D01*
X157426190Y-122833333D01*
X157426190Y-123214285D01*
X157235714Y-121785714D02*
X157902380Y-121785714D01*
X156854761Y-122023809D02*
X157569047Y-122261904D01*
X157569047Y-121642857D01*
X156902380Y-121357142D02*
X156902380Y-120690476D01*
X157902380Y-121119047D01*
G04 #@! TO.C,R13*
X122502380Y-114842857D02*
X122026190Y-115176190D01*
X122502380Y-115414285D02*
X121502380Y-115414285D01*
X121502380Y-115033333D01*
X121550000Y-114938095D01*
X121597619Y-114890476D01*
X121692857Y-114842857D01*
X121835714Y-114842857D01*
X121930952Y-114890476D01*
X121978571Y-114938095D01*
X122026190Y-115033333D01*
X122026190Y-115414285D01*
X122502380Y-113890476D02*
X122502380Y-114461904D01*
X122502380Y-114176190D02*
X121502380Y-114176190D01*
X121645238Y-114271428D01*
X121740476Y-114366666D01*
X121788095Y-114461904D01*
X121502380Y-113557142D02*
X121502380Y-112938095D01*
X121883333Y-113271428D01*
X121883333Y-113128571D01*
X121930952Y-113033333D01*
X121978571Y-112985714D01*
X122073809Y-112938095D01*
X122311904Y-112938095D01*
X122407142Y-112985714D01*
X122454761Y-113033333D01*
X122502380Y-113128571D01*
X122502380Y-113414285D01*
X122454761Y-113509523D01*
X122407142Y-113557142D01*
G04 #@! TO.C,R15*
X170452380Y-145442857D02*
X169976190Y-145776190D01*
X170452380Y-146014285D02*
X169452380Y-146014285D01*
X169452380Y-145633333D01*
X169500000Y-145538095D01*
X169547619Y-145490476D01*
X169642857Y-145442857D01*
X169785714Y-145442857D01*
X169880952Y-145490476D01*
X169928571Y-145538095D01*
X169976190Y-145633333D01*
X169976190Y-146014285D01*
X170452380Y-144490476D02*
X170452380Y-145061904D01*
X170452380Y-144776190D02*
X169452380Y-144776190D01*
X169595238Y-144871428D01*
X169690476Y-144966666D01*
X169738095Y-145061904D01*
X169452380Y-143585714D02*
X169452380Y-144061904D01*
X169928571Y-144109523D01*
X169880952Y-144061904D01*
X169833333Y-143966666D01*
X169833333Y-143728571D01*
X169880952Y-143633333D01*
X169928571Y-143585714D01*
X170023809Y-143538095D01*
X170261904Y-143538095D01*
X170357142Y-143585714D01*
X170404761Y-143633333D01*
X170452380Y-143728571D01*
X170452380Y-143966666D01*
X170404761Y-144061904D01*
X170357142Y-144109523D01*
G04 #@! TO.C,F1*
X120666666Y-102928571D02*
X120333333Y-102928571D01*
X120333333Y-103452380D02*
X120333333Y-102452380D01*
X120809523Y-102452380D01*
X121714285Y-103452380D02*
X121142857Y-103452380D01*
X121428571Y-103452380D02*
X121428571Y-102452380D01*
X121333333Y-102595238D01*
X121238095Y-102690476D01*
X121142857Y-102738095D01*
G04 #@! TO.C,C1*
X120833333Y-117357142D02*
X120785714Y-117404761D01*
X120642857Y-117452380D01*
X120547619Y-117452380D01*
X120404761Y-117404761D01*
X120309523Y-117309523D01*
X120261904Y-117214285D01*
X120214285Y-117023809D01*
X120214285Y-116880952D01*
X120261904Y-116690476D01*
X120309523Y-116595238D01*
X120404761Y-116500000D01*
X120547619Y-116452380D01*
X120642857Y-116452380D01*
X120785714Y-116500000D01*
X120833333Y-116547619D01*
X121785714Y-117452380D02*
X121214285Y-117452380D01*
X121500000Y-117452380D02*
X121500000Y-116452380D01*
X121404761Y-116595238D01*
X121309523Y-116690476D01*
X121214285Y-116738095D01*
G04 #@! TO.C,C6*
X186057142Y-115166666D02*
X186104761Y-115214285D01*
X186152380Y-115357142D01*
X186152380Y-115452380D01*
X186104761Y-115595238D01*
X186009523Y-115690476D01*
X185914285Y-115738095D01*
X185723809Y-115785714D01*
X185580952Y-115785714D01*
X185390476Y-115738095D01*
X185295238Y-115690476D01*
X185200000Y-115595238D01*
X185152380Y-115452380D01*
X185152380Y-115357142D01*
X185200000Y-115214285D01*
X185247619Y-115166666D01*
X185152380Y-114309523D02*
X185152380Y-114500000D01*
X185200000Y-114595238D01*
X185247619Y-114642857D01*
X185390476Y-114738095D01*
X185580952Y-114785714D01*
X185961904Y-114785714D01*
X186057142Y-114738095D01*
X186104761Y-114690476D01*
X186152380Y-114595238D01*
X186152380Y-114404761D01*
X186104761Y-114309523D01*
X186057142Y-114261904D01*
X185961904Y-114214285D01*
X185723809Y-114214285D01*
X185628571Y-114261904D01*
X185580952Y-114309523D01*
X185533333Y-114404761D01*
X185533333Y-114595238D01*
X185580952Y-114690476D01*
X185628571Y-114738095D01*
X185723809Y-114785714D01*
G04 #@! TO.C,C5*
X181057142Y-115166666D02*
X181104761Y-115214285D01*
X181152380Y-115357142D01*
X181152380Y-115452380D01*
X181104761Y-115595238D01*
X181009523Y-115690476D01*
X180914285Y-115738095D01*
X180723809Y-115785714D01*
X180580952Y-115785714D01*
X180390476Y-115738095D01*
X180295238Y-115690476D01*
X180200000Y-115595238D01*
X180152380Y-115452380D01*
X180152380Y-115357142D01*
X180200000Y-115214285D01*
X180247619Y-115166666D01*
X180152380Y-114261904D02*
X180152380Y-114738095D01*
X180628571Y-114785714D01*
X180580952Y-114738095D01*
X180533333Y-114642857D01*
X180533333Y-114404761D01*
X180580952Y-114309523D01*
X180628571Y-114261904D01*
X180723809Y-114214285D01*
X180961904Y-114214285D01*
X181057142Y-114261904D01*
X181104761Y-114309523D01*
X181152380Y-114404761D01*
X181152380Y-114642857D01*
X181104761Y-114738095D01*
X181057142Y-114785714D01*
G04 #@! TO.C,C2*
X120833333Y-134157142D02*
X120785714Y-134204761D01*
X120642857Y-134252380D01*
X120547619Y-134252380D01*
X120404761Y-134204761D01*
X120309523Y-134109523D01*
X120261904Y-134014285D01*
X120214285Y-133823809D01*
X120214285Y-133680952D01*
X120261904Y-133490476D01*
X120309523Y-133395238D01*
X120404761Y-133300000D01*
X120547619Y-133252380D01*
X120642857Y-133252380D01*
X120785714Y-133300000D01*
X120833333Y-133347619D01*
X121214285Y-133347619D02*
X121261904Y-133300000D01*
X121357142Y-133252380D01*
X121595238Y-133252380D01*
X121690476Y-133300000D01*
X121738095Y-133347619D01*
X121785714Y-133442857D01*
X121785714Y-133538095D01*
X121738095Y-133680952D01*
X121166666Y-134252380D01*
X121785714Y-134252380D01*
G04 #@! TO.C,D2*
X166097543Y-135702493D02*
X166097543Y-134702493D01*
X166335639Y-134702493D01*
X166478496Y-134750113D01*
X166573734Y-134845351D01*
X166621353Y-134940589D01*
X166668972Y-135131065D01*
X166668972Y-135273922D01*
X166621353Y-135464398D01*
X166573734Y-135559636D01*
X166478496Y-135654874D01*
X166335639Y-135702493D01*
X166097543Y-135702493D01*
X167049924Y-134797732D02*
X167097543Y-134750113D01*
X167192781Y-134702493D01*
X167430877Y-134702493D01*
X167526115Y-134750113D01*
X167573734Y-134797732D01*
X167621353Y-134892970D01*
X167621353Y-134988208D01*
X167573734Y-135131065D01*
X167002305Y-135702493D01*
X167621353Y-135702493D01*
G04 #@! TO.C,D3*
X166097543Y-131702493D02*
X166097543Y-130702493D01*
X166335639Y-130702493D01*
X166478496Y-130750113D01*
X166573734Y-130845351D01*
X166621353Y-130940589D01*
X166668972Y-131131065D01*
X166668972Y-131273922D01*
X166621353Y-131464398D01*
X166573734Y-131559636D01*
X166478496Y-131654874D01*
X166335639Y-131702493D01*
X166097543Y-131702493D01*
X167002305Y-130702493D02*
X167621353Y-130702493D01*
X167288019Y-131083446D01*
X167430877Y-131083446D01*
X167526115Y-131131065D01*
X167573734Y-131178684D01*
X167621353Y-131273922D01*
X167621353Y-131512017D01*
X167573734Y-131607255D01*
X167526115Y-131654874D01*
X167430877Y-131702493D01*
X167145162Y-131702493D01*
X167049924Y-131654874D01*
X167002305Y-131607255D01*
G04 #@! TO.C,D4*
X115052380Y-140838095D02*
X114052380Y-140838095D01*
X114052380Y-140600000D01*
X114100000Y-140457142D01*
X114195238Y-140361904D01*
X114290476Y-140314285D01*
X114480952Y-140266666D01*
X114623809Y-140266666D01*
X114814285Y-140314285D01*
X114909523Y-140361904D01*
X115004761Y-140457142D01*
X115052380Y-140600000D01*
X115052380Y-140838095D01*
X114385714Y-139409523D02*
X115052380Y-139409523D01*
X114004761Y-139647619D02*
X114719047Y-139885714D01*
X114719047Y-139266666D01*
G04 #@! TO.C,L10*
X126357142Y-137252380D02*
X125880952Y-137252380D01*
X125880952Y-136252380D01*
X127214285Y-137252380D02*
X126642857Y-137252380D01*
X126928571Y-137252380D02*
X126928571Y-136252380D01*
X126833333Y-136395238D01*
X126738095Y-136490476D01*
X126642857Y-136538095D01*
X127833333Y-136252380D02*
X127928571Y-136252380D01*
X128023809Y-136300000D01*
X128071428Y-136347619D01*
X128119047Y-136442857D01*
X128166666Y-136633333D01*
X128166666Y-136871428D01*
X128119047Y-137061904D01*
X128071428Y-137157142D01*
X128023809Y-137204761D01*
X127928571Y-137252380D01*
X127833333Y-137252380D01*
X127738095Y-137204761D01*
X127690476Y-137157142D01*
X127642857Y-137061904D01*
X127595238Y-136871428D01*
X127595238Y-136633333D01*
X127642857Y-136442857D01*
X127690476Y-136347619D01*
X127738095Y-136300000D01*
X127833333Y-136252380D01*
G04 #@! TO.C,JP1*
X126166666Y-111652380D02*
X126166666Y-112366666D01*
X126119047Y-112509523D01*
X126023809Y-112604761D01*
X125880952Y-112652380D01*
X125785714Y-112652380D01*
X126642857Y-112652380D02*
X126642857Y-111652380D01*
X127023809Y-111652380D01*
X127119047Y-111700000D01*
X127166666Y-111747619D01*
X127214285Y-111842857D01*
X127214285Y-111985714D01*
X127166666Y-112080952D01*
X127119047Y-112128571D01*
X127023809Y-112176190D01*
X126642857Y-112176190D01*
X128166666Y-112652380D02*
X127595238Y-112652380D01*
X127880952Y-112652380D02*
X127880952Y-111652380D01*
X127785714Y-111795238D01*
X127690476Y-111890476D01*
X127595238Y-111938095D01*
G04 #@! TO.C,U1*
X167952380Y-134761904D02*
X168761904Y-134761904D01*
X168857142Y-134714285D01*
X168904761Y-134666666D01*
X168952380Y-134571428D01*
X168952380Y-134380952D01*
X168904761Y-134285714D01*
X168857142Y-134238095D01*
X168761904Y-134190476D01*
X167952380Y-134190476D01*
X168952380Y-133190476D02*
X168952380Y-133761904D01*
X168952380Y-133476190D02*
X167952380Y-133476190D01*
X168095238Y-133571428D01*
X168190476Y-133666666D01*
X168238095Y-133761904D01*
G04 #@! TO.C,Q1*
X153404761Y-137547619D02*
X153309523Y-137500000D01*
X153214285Y-137404761D01*
X153071428Y-137261904D01*
X152976190Y-137214285D01*
X152880952Y-137214285D01*
X152928571Y-137452380D02*
X152833333Y-137404761D01*
X152738095Y-137309523D01*
X152690476Y-137119047D01*
X152690476Y-136785714D01*
X152738095Y-136595238D01*
X152833333Y-136500000D01*
X152928571Y-136452380D01*
X153119047Y-136452380D01*
X153214285Y-136500000D01*
X153309523Y-136595238D01*
X153357142Y-136785714D01*
X153357142Y-137119047D01*
X153309523Y-137309523D01*
X153214285Y-137404761D01*
X153119047Y-137452380D01*
X152928571Y-137452380D01*
X154309523Y-137452380D02*
X153738095Y-137452380D01*
X154023809Y-137452380D02*
X154023809Y-136452380D01*
X153928571Y-136595238D01*
X153833333Y-136690476D01*
X153738095Y-136738095D01*
G04 #@! TO.C,D1*
X152952380Y-126238095D02*
X151952380Y-126238095D01*
X151952380Y-126000000D01*
X152000000Y-125857142D01*
X152095238Y-125761904D01*
X152190476Y-125714285D01*
X152380952Y-125666666D01*
X152523809Y-125666666D01*
X152714285Y-125714285D01*
X152809523Y-125761904D01*
X152904761Y-125857142D01*
X152952380Y-126000000D01*
X152952380Y-126238095D01*
X152952380Y-124714285D02*
X152952380Y-125285714D01*
X152952380Y-125000000D02*
X151952380Y-125000000D01*
X152095238Y-125095238D01*
X152190476Y-125190476D01*
X152238095Y-125285714D01*
G04 #@! TO.C,Q2*
X133404761Y-103047619D02*
X133309523Y-103000000D01*
X133214285Y-102904761D01*
X133071428Y-102761904D01*
X132976190Y-102714285D01*
X132880952Y-102714285D01*
X132928571Y-102952380D02*
X132833333Y-102904761D01*
X132738095Y-102809523D01*
X132690476Y-102619047D01*
X132690476Y-102285714D01*
X132738095Y-102095238D01*
X132833333Y-102000000D01*
X132928571Y-101952380D01*
X133119047Y-101952380D01*
X133214285Y-102000000D01*
X133309523Y-102095238D01*
X133357142Y-102285714D01*
X133357142Y-102619047D01*
X133309523Y-102809523D01*
X133214285Y-102904761D01*
X133119047Y-102952380D01*
X132928571Y-102952380D01*
X133738095Y-102047619D02*
X133785714Y-102000000D01*
X133880952Y-101952380D01*
X134119047Y-101952380D01*
X134214285Y-102000000D01*
X134261904Y-102047619D01*
X134309523Y-102142857D01*
X134309523Y-102238095D01*
X134261904Y-102380952D01*
X133690476Y-102952380D01*
X134309523Y-102952380D01*
G04 #@! TO.C,Q4*
X143404761Y-103047619D02*
X143309523Y-103000000D01*
X143214285Y-102904761D01*
X143071428Y-102761904D01*
X142976190Y-102714285D01*
X142880952Y-102714285D01*
X142928571Y-102952380D02*
X142833333Y-102904761D01*
X142738095Y-102809523D01*
X142690476Y-102619047D01*
X142690476Y-102285714D01*
X142738095Y-102095238D01*
X142833333Y-102000000D01*
X142928571Y-101952380D01*
X143119047Y-101952380D01*
X143214285Y-102000000D01*
X143309523Y-102095238D01*
X143357142Y-102285714D01*
X143357142Y-102619047D01*
X143309523Y-102809523D01*
X143214285Y-102904761D01*
X143119047Y-102952380D01*
X142928571Y-102952380D01*
X144214285Y-102285714D02*
X144214285Y-102952380D01*
X143976190Y-101904761D02*
X143738095Y-102619047D01*
X144357142Y-102619047D01*
G04 #@! TO.C,U2*
X129952380Y-126261904D02*
X130761904Y-126261904D01*
X130857142Y-126214285D01*
X130904761Y-126166666D01*
X130952380Y-126071428D01*
X130952380Y-125880952D01*
X130904761Y-125785714D01*
X130857142Y-125738095D01*
X130761904Y-125690476D01*
X129952380Y-125690476D01*
X130047619Y-125261904D02*
X130000000Y-125214285D01*
X129952380Y-125119047D01*
X129952380Y-124880952D01*
X130000000Y-124785714D01*
X130047619Y-124738095D01*
X130142857Y-124690476D01*
X130238095Y-124690476D01*
X130380952Y-124738095D01*
X130952380Y-125309523D01*
X130952380Y-124690476D01*
G04 #@! TD*
M02*
