M48
;DRILL file {KiCad 5.0.0-rc2-unknown-2cb65f9~65~ubuntu17.10.1} date Sun Jun  3 22:05:34 2018
;FORMAT={-:-/ absolute / inch / decimal}
FMAT,2
INCH,TZ
T1C0.0157
T2C0.0394
T3C0.0472
T4C0.0701
T5C0.1693
%
G90
G05
M72
T1
X4.8031Y-4.4094
X4.8031Y-4.9409
X4.8155Y-4.6333
X4.8228Y-4.7835
X4.8228Y-5.0984
X4.8228Y-5.2559
X4.8819Y-4.7047
X4.8819Y-5.1772
X4.9213Y-4.4094
X4.9606Y-4.7835
X4.9606Y-5.0984
X5.0984Y-4.685
X5.1181Y-4.9409
X5.4528Y-4.5669
X5.4724Y-4.8031
X5.4724Y-4.9213
X5.4724Y-5.0394
X5.5906Y-4.4685
X6.063Y-5.2559
X6.063Y-5.3543
X6.063Y-5.6102
X6.0827Y-4.685
X6.1024Y-5.0591
X6.2402Y-4.7244
X6.2598Y-5.0787
X6.2598Y-5.1575
X6.2795Y-5.315
X6.2992Y-5.2362
X6.3386Y-4.7441
X6.378Y-5.0787
X6.5157Y-5.6496
X6.5354Y-5.2756
X6.5966Y-5.3258
X6.6142Y-5.6496
X6.7717Y-5.1181
X6.8307Y-5.4724
X6.8504Y-4.9213
X6.9094Y-5.6496
X6.9291Y-5.1181
X6.9882Y-4.8228
X6.9882Y-5.6496
X7.0472Y-4.8819
X7.0866Y-5.6496
X7.1091Y-4.8201
X7.1654Y-4.8819
X7.185Y-5.1181
X7.2244Y-4.8228
X7.2835Y-4.8819
X7.3403Y-5.4527
X7.3425Y-4.8228
X7.3622Y-5.3543
X7.3816Y-5.4543
X7.4016Y-4.8819
X7.4016Y-5.3937
X7.4606Y-4.8228
X7.4606Y-5.1378
T2
X4.5079Y-5.7874
X4.6079Y-5.7874
X4.7079Y-5.7874
X4.8079Y-5.7874
X7.1441Y-5.7874
X7.2441Y-5.7874
X7.3441Y-5.7874
T3
X7.6772Y-4.5276
X7.6772Y-4.7276
X7.6772Y-5.
X7.6772Y-5.2
X7.6772Y-5.4
X4.1339Y-4.5244
X4.1339Y-4.7244
T4
X4.5701Y-4.1575
X4.5701Y-4.2913
X4.9606Y-4.1575
X4.9606Y-4.2913
T5
X4.1339Y-4.1339
X7.6772Y-4.1339
X7.6772Y-5.7087
X4.1339Y-5.7087
T0
M30
